/* XPM */
static char * walls_xpm[] = {
"40 40 692 2",
"  	c #E2612D",
". 	c #E2602D",
"+ 	c #F6D439",
"@ 	c #FFF83E",
"# 	c #F0BC36",
"$ 	c #E15A2D",
"% 	c #E15B2D",
"& 	c #ECA733",
"* 	c #FFF73E",
"= 	c #FFF83F",
"- 	c #FAE53D",
"; 	c #E3632E",
"> 	c #E68130",
", 	c #FDF03D",
"' 	c #FDF23D",
") 	c #E78930",
"! 	c #E25F2D",
"~ 	c #E15D2D",
"{ 	c #F4CF38",
"] 	c #FFF93E",
"^ 	c #F1C337",
"/ 	c #E25D2D",
"( 	c #E1512D",
"_ 	c #EA9C33",
": 	c #F9E33B",
"< 	c #E36A2E",
"[ 	c #FCF13E",
"} 	c #FCED3D",
"| 	c #FCEC3C",
"1 	c #FCEC3D",
"2 	c #FAC42C",
"3 	c #FAAB1F",
"4 	c #FBD131",
"5 	c #FBDA35",
"6 	c #FBB72A",
"7 	c #FED23E",
"8 	c #FCD33F",
"9 	c #FCE83B",
"0 	c #FAB223",
"a 	c #FAAC20",
"b 	c #FAB022",
"c 	c #FBE339",
"d 	c #FAC72D",
"e 	c #FBCF31",
"f 	c #FCF03F",
"g 	c #FCE13E",
"h 	c #FCC93E",
"i 	c #FBC137",
"j 	c #FABB28",
"k 	c #FBEA3C",
"l 	c #FCF03E",
"m 	c #FFF43D",
"n 	c #FBBD27",
"o 	c #FAAE21",
"p 	c #FAAF21",
"q 	c #F98917",
"r 	c #F86F0F",
"s 	c #F9951A",
"t 	c #FAB021",
"u 	c #F99E1D",
"v 	c #F87010",
"w 	c #F97212",
"x 	c #FA9325",
"y 	c #FFDA40",
"z 	c #FEEF3C",
"A 	c #FB8D19",
"B 	c #FA7C13",
"C 	c #FA7F14",
"D 	c #FAAC22",
"E 	c #FAB425",
"F 	c #FAB624",
"G 	c #FAB524",
"H 	c #FA941B",
"I 	c #FA7A13",
"J 	c #FA7B11",
"K 	c #FCB02E",
"L 	c #FFD840",
"M 	c #FDC636",
"N 	c #FAA821",
"O 	c #F99B1D",
"P 	c #F98014",
"Q 	c #FAAD21",
"R 	c #FABA26",
"S 	c #FEF33D",
"T 	c #FAAE22",
"U 	c #FA8E1B",
"V 	c #F97612",
"W 	c #F9720F",
"X 	c #F97210",
"Y 	c #EA5722",
"Z 	c #E24528",
"` 	c #E24428",
" .	c #EF601E",
"..	c #F9730F",
"+.	c #F2661A",
"@.	c #E34528",
"#.	c #E34628",
"$.	c #EA7C2F",
"%.	c #FEDA40",
"&.	c #FEF43F",
"*.	c #FDE83B",
"=.	c #FECC3B",
"-.	c #FEC93B",
";.	c #FDCB3C",
">.	c #FDCC3C",
",.	c #FEE73B",
"'.	c #FED83C",
").	c #FECE3D",
"!.	c #FECC3D",
"~.	c #FECB3D",
"{.	c #FEDE3C",
"].	c #FBC12F",
"^.	c #F97B1A",
"/.	c #F97A17",
"(.	c #F36819",
"_.	c #E75125",
":.	c #F87111",
"<.	c #F97611",
"[.	c #FB8918",
"}.	c #F87210",
"|.	c #E64D25",
"1.	c #E34728",
"2.	c #E0412A",
"3.	c #DF3E2B",
"4.	c #E14329",
"5.	c #E24429",
"6.	c #E67631",
"7.	c #FACD3E",
"8.	c #FAE33D",
"9.	c #E68230",
"0.	c #E67F2E",
"a.	c #F7A625",
"b.	c #F8A725",
"c.	c #E8772E",
"d.	c #E46B2F",
"e.	c #F4A527",
"f.	c #F9AD24",
"g.	c #FCC639",
"h.	c #FFD341",
"i.	c #FFE940",
"j.	c #F2C538",
"k.	c #E56A2C",
"l.	c #E44C28",
"m.	c #E0402A",
"n.	c #E64C25",
"o.	c #F8670D",
"p.	c #F8670E",
"q.	c #DF3D2B",
"r.	c #E87D32",
"s.	c #F4B33A",
"t.	c #E57330",
"u.	c #E4752F",
"v.	c #DF412B",
"w.	c #DF3F2B",
"x.	c #E35729",
"y.	c #E35829",
"z.	c #E0422B",
"A.	c #E35329",
"B.	c #E45929",
"C.	c #E4662D",
"D.	c #F29829",
"E.	c #FAB124",
"F.	c #F9D133",
"G.	c #F9D83E",
"H.	c #EF9D37",
"I.	c #DF462C",
"J.	c #E0482C",
"K.	c #F8680E",
"L.	c #F86E2A",
"M.	c #E34F2B",
"N.	c #E0462C",
"O.	c #E0472C",
"P.	c #E0492C",
"Q.	c #E98332",
"R.	c #F4B23A",
"S.	c #E4692F",
"T.	c #DF3B2B",
"U.	c #DF3C2B",
"V.	c #E25229",
"W.	c #E45B28",
"X.	c #E5732C",
"Y.	c #E57A30",
"Z.	c #EE9936",
"`.	c #F9D23D",
" +	c #F1C43C",
".+	c #E04837",
"++	c #E34F29",
"@+	c #F86C11",
"#+	c #FEE9DE",
"$+	c #F9E368",
"%+	c #F9C73B",
"&+	c #F8C13D",
"*+	c #F8DB3C",
"=+	c #F8CB3D",
"-+	c #F9C03D",
";+	c #F9D73C",
">+	c #F9E53C",
",+	c #F9D23C",
"'+	c #F9C13D",
")+	c #FBC93F",
"!+	c #F6B93C",
"~+	c #DF382B",
"{+	c #E2592D",
"]+	c #E67B23",
"^+	c #EDAF92",
"/+	c #F9E7C8",
"(+	c #F9DC3F",
"_+	c #F8C63D",
":+	c #F9DE3C",
"<+	c #FEC63A",
"[+	c #FFE08C",
"}+	c #FFDD4F",
"|+	c #FBB82C",
"1+	c #EB872F",
"2+	c #E78831",
"3+	c #E78031",
"4+	c #F4A12B",
"5+	c #FBB927",
"6+	c #FABE27",
"7+	c #FAB727",
"8+	c #FAB028",
"9+	c #FAB027",
"0+	c #FDC133",
"a+	c #F8BE3D",
"b+	c #E56C2F",
"c+	c #DE3226",
"d+	c #EA8F5D",
"e+	c #FFE180",
"f+	c #FED63C",
"g+	c #F7A82A",
"h+	c #E87F31",
"i+	c #EA8C2F",
"j+	c #FA8D22",
"k+	c #FAB11E",
"l+	c #F9AE27",
"m+	c #E97328",
"n+	c #E0432A",
"o+	c #DF392B",
"p+	c #E35828",
"q+	c #E66327",
"r+	c #E66227",
"s+	c #E56127",
"t+	c #EE8727",
"u+	c #FAB730",
"v+	c #F1A538",
"w+	c #E98233",
"x+	c #F9BA34",
"y+	c #FBB120",
"z+	c #F6A228",
"A+	c #E55F28",
"B+	c #E24028",
"C+	c #F8660D",
"D+	c #E66527",
"E+	c #E66427",
"F+	c #E0442A",
"G+	c #DF3A2B",
"H+	c #E14A29",
"I+	c #F09932",
"J+	c #F7BB3C",
"K+	c #DF3F29",
"L+	c #DE362B",
"M+	c #EA8833",
"N+	c #F2AA39",
"O+	c #E8782F",
"P+	c #E66627",
"Q+	c #E55D28",
"R+	c #F15C1A",
"S+	c #E14129",
"T+	c #DE302B",
"U+	c #EA992A",
"V+	c #FDED89",
"W+	c #F6D5C4",
"X+	c #F6BA43",
"Y+	c #F6BE3C",
"Z+	c #F6D53B",
"`+	c #F5B73B",
" @	c #DE342A",
".@	c #EB8F34",
"+@	c #F1A738",
"@@	c #E56F30",
"#@	c #DE382B",
"$@	c #E24329",
"%@	c #F15D1A",
"&@	c #F9680E",
"*@	c #DE302A",
"=@	c #E79131",
"-@	c #F9DD39",
";@	c #FFE56A",
">@	c #FBD592",
",@	c #EB8C38",
"'@	c #ED9232",
")@	c #FBB72C",
"!@	c #FCC52B",
"~@	c #FBB92D",
"{@	c #F7B939",
"]@	c #F6D43B",
"^@	c #F6D83A",
"/@	c #F6C03B",
"(@	c #F6B73B",
"_@	c #F6B63B",
":@	c #F6CC3B",
"<@	c #F5D83A",
"[@	c #FBE83E",
"}@	c #F6CA3B",
"|@	c #E56A2F",
"1@	c #DE352A",
"2@	c #EA8733",
"3@	c #F5B53B",
"4@	c #FACB3E",
"5@	c #F9CE3D",
"6@	c #EB8A30",
"7@	c #E87C27",
"8@	c #E86A26",
"9@	c #E86B26",
"0@	c #E86F27",
"a@	c #EB8B32",
"b@	c #EBA234",
"c@	c #EBA534",
"d@	c #EB9434",
"e@	c #F7AD2F",
"f@	c #FCB92C",
"g@	c #FCC42C",
"h@	c #FCCA2B",
"i@	c #FED938",
"j@	c #FBDF3E",
"k@	c #EBA734",
"l@	c #DE312A",
"m@	c #F8650C",
"n@	c #DE342B",
"o@	c #DE372B",
"p@	c #DE352B",
"q@	c #EA8933",
"r@	c #F1A438",
"s@	c #EC9034",
"t@	c #EC9135",
"u@	c #E77931",
"v@	c #DE362A",
"w@	c #DE332B",
"x@	c #E97025",
"y@	c #E96E25",
"z@	c #E96C25",
"A@	c #EA7C2D",
"B@	c #ECAC34",
"C@	c #DE322A",
"D@	c #FDB634",
"E@	c #F5B339",
"F@	c #F3CA3A",
"G@	c #F3B63A",
"H@	c #F3AF3A",
"I@	c #F3C53A",
"J@	c #F3D039",
"K@	c #F3BB39",
"L@	c #FBD63E",
"M@	c #F1BA38",
"N@	c #DE272A",
"O@	c #DE3A2B",
"P@	c #DE2D2A",
"Q@	c #E4642F",
"R@	c #F5BD3A",
"S@	c #FCD63F",
"T@	c #F4B03A",
"U@	c #F4B93A",
"V@	c #F3C93A",
"W@	c #F3B03A",
"X@	c #F5B039",
"Y@	c #FCB634",
"Z@	c #FBA32C",
"`@	c #F09D34",
" #	c #FAC930",
".#	c #FDC12F",
"+#	c #FDBD2F",
"@#	c #FCCB2E",
"##	c #FEE13B",
"$#	c #FFEE42",
"%#	c #F6D23B",
"&#	c #E68530",
"*#	c #DF352B",
"=#	c #EA9E33",
"-#	c #F3BF39",
";#	c #F8C03D",
">#	c #F9C23D",
",#	c #ED9736",
"'#	c #F1A834",
")#	c #FCCD2F",
"!#	c #FCBD2F",
"~#	c #FCBC30",
"{#	c #F8640C",
"]#	c #E34227",
"^#	c #E96D25",
"/#	c #EB7624",
"(#	c #EB7424",
"_#	c #F6A42C",
":#	c #FDCA2F",
"<#	c #F7CD34",
"[#	c #E89832",
"}#	c #DF372B",
"|#	c #EDAF35",
"1#	c #F2CA39",
"2#	c #F2B639",
"3#	c #F0B237",
"4#	c #EEAB36",
"5#	c #EE9B36",
"6#	c #E87F32",
"7#	c #DE332A",
"8#	c #ED7822",
"9#	c #F88413",
"0#	c #F9680D",
"a#	c #E76627",
"b#	c #EB7422",
"c#	c #F7C336",
"d#	c #F1B738",
"e#	c #DE2C2A",
"f#	c #EE9A36",
"g#	c #F2A939",
"h#	c #FACA33",
"i#	c #FDD730",
"j#	c #FDC931",
"k#	c #F5AE35",
"l#	c #E67431",
"m#	c #DE392B",
"n#	c #E24228",
"o#	c #F9670D",
"p#	c #EB5521",
"q#	c #E1422A",
"r#	c #E77B32",
"s#	c #F0A338",
"t#	c #E98232",
"u#	c #F0A237",
"v#	c #ED862A",
"w#	c #EC7823",
"x#	c #EC7B23",
"y#	c #E45B27",
"z#	c #DD2029",
"A#	c #EFB337",
"B#	c #DE2F2A",
"C#	c #EE9C36",
"D#	c #F0A337",
"E#	c #E25A2D",
"F#	c #E88032",
"G#	c #EF9F37",
"H#	c #FFE242",
"I#	c #FFE742",
"J#	c #FAC63F",
"K#	c #EFA637",
"L#	c #EFB936",
"M#	c #EFB336",
"N#	c #EFA136",
"O#	c #EFB537",
"P#	c #EFA137",
"Q#	c #E2562D",
"R#	c #E23E28",
"S#	c #F9620A",
"T#	c #E23B28",
"U#	c #EB8C34",
"V#	c #EFB036",
"W#	c #EEB736",
"X#	c #EEA636",
"Y#	c #F2AB39",
"Z#	c #F7B737",
"`#	c #FDC234",
" $	c #FDCC34",
".$	c #FEE237",
"+$	c #FFEE41",
"@$	c #FFE83F",
"#$	c #FDDA34",
"$$	c #FBBE33",
"%$	c #E2532C",
"&$	c #EF9E35",
"*$	c #FBBD2D",
"=$	c #FBA42C",
"-$	c #EFAE34",
";$	c #ED9C36",
">$	c #EE9836",
",$	c #F3C539",
"'$	c #F3CD39",
")$	c #E77B31",
"!$	c #E66426",
"~$	c #EF8521",
"{$	c #EF8422",
"]$	c #EE8221",
"^$	c #F29427",
"/$	c #FDCC37",
"($	c #FFE63E",
"_$	c #FAB72E",
":$	c #EE8123",
"<$	c #E0422A",
"[$	c #E3632F",
"}$	c #EDA036",
"|$	c #EDAB36",
"1$	c #F4B238",
"2$	c #FCD033",
"3$	c #FDC836",
"4$	c #FEDD35",
"5$	c #FDCA36",
"6$	c #F5B439",
"7$	c #E4662F",
"8$	c #DE322B",
"9$	c #E35429",
"0$	c #F08E27",
"a$	c #F3AD39",
"b$	c #F2AC39",
"c$	c #ED9536",
"d$	c #EB8D34",
"e$	c #E04A2C",
"f$	c #ED9535",
"g$	c #F2A635",
"h$	c #FECF36",
"i$	c #FEDC35",
"j$	c #FCC337",
"k$	c #E34A29",
"l$	c #F9630B",
"m$	c #EF8721",
"n$	c #F08721",
"o$	c #EF8621",
"p$	c #E25029",
"q$	c #E1542D",
"r$	c #F4B13A",
"s$	c #FDDC3F",
"t$	c #ED9A36",
"u$	c #E04C2C",
"v$	c #E56D30",
"w$	c #EC9D34",
"x$	c #F0AE37",
"y$	c #F5B43B",
"z$	c #F3A634",
"A$	c #ED7D23",
"B$	c #DF3D2A",
"C$	c #E14229",
"D$	c #EF5A1D",
"E$	c #E84D24",
"F$	c #E03E2A",
"G$	c #E04F2C",
"H$	c #EBA934",
"I$	c #FEF53F",
"J$	c #FFE641",
"K$	c #EE9F37",
"L$	c #EBA034",
"M$	c #EA9934",
"N$	c #FBE03E",
"O$	c #EBA834",
"P$	c #E84F24",
"Q$	c #ED9A35",
"R$	c #FDEB3F",
"S$	c #F7DB3B",
"T$	c #FCE238",
"U$	c #FECE38",
"V$	c #FEC938",
"W$	c #F8D53A",
"X$	c #FBCD39",
"Y$	c #FEC838",
"Z$	c #FEDA37",
"`$	c #FFEE3D",
" %	c #F5D03B",
".%	c #E47C2F",
"+%	c #F8650D",
"@%	c #E23F28",
"#%	c #E1522D",
"$%	c #E98433",
"%%	c #E3592C",
"&%	c #EF8622",
"*%	c #F28E20",
"=%	c #F18D20",
"-%	c #E45828",
";%	c #EC7D24",
">%	c #F28F20",
",%	c #F18C20",
"'%	c #F8AF2F",
")%	c #FEDB39",
"!%	c #F5C636",
"~%	c #E98333",
"{%	c #E67330",
"]%	c #EA9230",
"^%	c #E0502C",
"/%	c #DF362B",
"(%	c #E88632",
"_%	c #ECA135",
":%	c #E97226",
"<%	c #F2901F",
"[%	c #F7AC2D",
"}%	c #FECC3A",
"|%	c #F7B637",
"1%	c #E98832",
"2%	c #E68630",
"3%	c #E24128",
"4%	c #FEC539",
"5%	c #FEE93F",
"6%	c #E79031",
"7%	c #E88332",
"8%	c #E87E32",
"9%	c #E88932",
"0%	c #E89232",
"a%	c #E78231",
"b%	c #F0B037",
"c%	c #FDE13F",
"d%	c #F2C738",
"e%	c #E0462B",
"f%	c #E86C27",
"g%	c #F3921F",
"h%	c #FACF3E",
"i%	c #FAE03D",
"j%	c #E89332",
"k%	c #E88E32",
"l%	c #EA8130",
"m%	c #FA8F23",
"n%	c #FA7813",
"o%	c #FED73D",
"p%	c #FFF740",
"q%	c #FEEE3B",
"r%	c #F9CA3C",
"s%	c #F8BF3D",
"t%	c #FBC63B",
"u%	c #FEDE3A",
"v%	c #FEEC3A",
"w%	c #FEDD3A",
"x%	c #FEDB3D",
"y%	c #FFF541",
"z%	c #F9DD3D",
"A%	c #E58130",
"B%	c #DF402B",
"C%	c #E98732",
"D%	c #FDE53A",
"E%	c #F9C23C",
"F%	c #FDC239",
"G%	c #FB9522",
"H%	c #FFEA3D",
"I%	c #FEED3B",
"J%	c #F6AC27",
"K%	c #E55E29",
"L%	c #DF412C",
"M%	c #DF422C",
"N%	c #ED7F25",
"O%	c #F4971F",
"P%	c #F49720",
"Q%	c #F4951F",
"R%	c #F8AD2C",
"S%	c #FECD3B",
"T%	c #FEDA3D",
"U%	c #F9DE3D",
"V%	c #E57030",
"W%	c #E14E2C",
"X%	c #EEA736",
"Y%	c #FFF33F",
"Z%	c #FCE036",
"`%	c #F19123",
" &	c #E45028",
".&	c #F86A10",
"+&	c #FFD340",
"@&	c #FAC53D",
"#&	c #F59F27",
"$&	c #E45B29",
"%&	c #E86D27",
"&&	c #F5981F",
"*&	c #F6A62A",
"=&	c #FBC93E",
"-&	c #FAC53E",
";&	c #FDD040",
">&	c #F8BC38",
",&	c #F18E23",
"'&	c #FCC23A",
")&	c #E4652E",
"!&	c #E0432B",
"~&	c #E0442B",
"{&	c #E67731",
"]&	c #FBC73E",
"^&	c #FAC83E",
"/&	c #E57D30",
"(&	c #DF432B",
"_&	c #E2582D",
":&	c #F3AE39",
"<&	c #F56918",
"[&	c #E24629",
"}&	c #E77831",
"|&	c #FED940",
"1&	c #FBEB3E",
"2&	c #E46A2F",
"3&	c #E46E2F",
"4&	c #E4702F",
"5&	c #EFA236",
"6&	c #FAC63E",
"7&	c #F0A438",
"8&	c #F56315",
"9&	c #FAC43E",
"0&	c #FAD03D",
"a&	c #FADA3E",
"b&	c #EEB636",
"c&	c #DF422B",
"d&	c #E1522C",
"e&	c #E1582C",
"f&	c #E1572C",
"g&	c #E1532C",
"h&	c #E1562D",
"i&	c #E04E2C",
"          . + @ @ # $   % & * = - ; > , * ' ) !     ~ { @ ] ^ % / ( _ * : <     ",
"[ [ } | | 1 2 3 3 4 } | } 5 3 6 7 8 9 0 a b c 1 | | 1 d 3 3 e f g h i a j k } l ",
"= m n o p p q r r s t p p u v w x y z A B C D E F G E H I J K L M N O v P Q R S ",
"T U V W X W Y Z `  ...X ..+.@.#.$.%.&.*.=.-.;.>.,.'.).!.~.{.].^./...(.@._.:.<.[.",
"}.|.#.#.#.1.2.3.3.4.1.#.1.5.3.6.7.8.9.0.a.b.c.d.e.f.g.h.i.j.k.l.#.1.5.3.m.#.n.o.",
"p.@.3.3.3.3.3.3.3.3.3.3.3.q.r.s.t.u.v.w.x.y.z.q.A.B.C.D.E.F.G.H.I.J.3.3.3.3.@.K.",
"L.M.N.N.J.O.N.J.P.O.N.N.v.Q.R.S.q.T.3.3.q.q.3.3.q.q.U.V.W.X.Y.Z.`. +.+J.N.N.++@+",
"#+$+%+&+*+=+-+;+>+,+-+'+'+)+!+3.3.3.3.3.3.3.3.3.3.3.3.q.q.T.~+{+]+^+/+(+'+_+:+<+",
"[+}+|+1+2+3+4+5+6+7+8+9+0+a+b+3.3.3.3.3.3.3.3.3.3.3.3.3.3.3.3.q.c+d+e+f+g+h+i+j+",
"k+l+m+n+~+o+p+q+r+r+q+s+t+u+v+w.3.3.3.3.3.3.3.3.3.3.3.3.3.3.3.~+w+x+y+z+A+T.B+C+",
"D+E+F+q.3.3.U.U.U.U.U.G+H+I+J+K+q.q.q.q.q.3.3.3.3.3.3.3.3.3.L+M+N+O+P+Q+q.3.m.n.",
"R+S+q.3.3.3.3.3.3.3.3.3.T+U+V+W+X+!+Y+Z+`+{+o+G+T.T.T.T. @.@J++@@@#@T.U.3.3.$@%@",
"&@#.3.3.3.3.3.3.3.3.U.*@=@-@;@>@,@'@)@!@~@{@]@^@/@(@_@:@<@[@}@|@#@3.3.3.3.3.#.&@",
"K.@.3.3.3.3.3.3.3.1@2@3@4@5@6@7@o+n+8@9@0@a@b@c@d@e@f@g@h@i@j@k@l@3.3.3.3.3.@.K.",
"m@B+n@o@o@o@p@n@*@q@r@s@t@u@v@~+3.q.T.G+G+o@w@w@v@q+x@y@z@A@/@g B@C@o@o@p@o@B+m@",
"D@E@F@G@H@H@I@J@K@L@M@N@v@o+3.3.3.3.3.3.3.3.3.3.3.T.O@O@G+P@Q@R@S@T@T@U@V@W@X@Y@",
"Z@`@ #.#+#+#@###$#%#&#o+3.3.3.3.3.3.3.3.3.3.3.3.3.*#l@ @P@=#-#;#>#,#,#'#)#+#!#~#",
"{#]#^#/#/#/#(#_#:#<#[#}#3.3.3.3.3.3.3.3.3.3.3.o@o@|#1#2#N+3#4#5#6#7#n@H+(#/#8#9#",
"0#@.O@O@O@O@#@a#b#c#d#e#3.3.3.3.3.3.3.3.3.3.w.f#g#h#i#j#k#l#e#1@o+3.3.q.O@m#n#o#",
"p#q#3.3.3.3.3.T.p@r#s#t#e#~+3.3.3.3.3.q.v@v.f#s#u#v#w#x#y#o@3.3.3.3.3.3.3.3.q#p#",
"p#q#3.3.3.3.3.3.o+z#H.5@A#M+C@B#l@ @*@P.C#u#D#E#C@#@O@m#U.3.3.3.3.3.3.3.3.3.q#p#",
"0##.3.3.o@l@*@B#F#G#J+H#I#J#K#L#M#N#O#P#+@v+Q#T.3.3.3.3.3.3.3.3.3.3.3.3.3.U.R#S#",
"{#T#n@o+U#V#W#X#r@Y#Z#`#`#`# $.$+$@$#$$$%$1@q.3.3.3.3.3.3.3.3.3.3.T. @l@ @( &$*$",
"=$-$;$>$g#,$'$K@)$e#!$~${${$]$^$/$($_$:$<$q.3.3.3.3.3.3.3.3.3.T.C@[$}$|$,#C#1$2$",
"3$4$5$6$7$B#8$p@T.3.U.G+G+G+m#9$0$a$b$c$d$e$U.3.3.3.3.3.3.G+B#|@f$g$h$i$j$v+k$l$",
"m$n$o$p$T.3.3.3.3.3.3.3.3.3.3.q.G+o@q$r$s$t$u$v@n@p@o@o@l@v$w$x$y$z$n$n$A$B$C$D$",
"E$F$T.q.3.3.3.3.3.3.3.3.3.3.3.3.3.U.G$H$I$J$K$U#L$d@U#U#M$}@N$O$l@o+T.T.U.3.2.P$",
"K.#.3.3.3.3.3.3.3.3.3.3.3.3.3.q.o@u$Q$R$S$T$U$V$W$X$Y$Y$Z$`$ %.% @G+3.3.3.3.#.K.",
"+%@%q.3.3.3.3.3.3.3.3.3.3.U.L+#%$%s@(@r$%%&%*%=%-%;%>%*%,%'%)%!%~%{%o@~+3.3.@.K.",
"x ]%^%/%o+o+o+o+~+}#}#~+L+Q#(%_%J+H@e$q.3.3.3.3.3.3.3.3.G+:%<%[%}%|%1%2%G+}#3%+%",
"4%5%c@6%7%8%8%r.9%0%0%9%a%b%c%d%e%w.3.3.3.3.3.3.3.3.3.3.3.3.T.f%g%4+h%i%j%k%l%m%",
"n%o%p%q%r%a+s%t%u%v%v%w%x%y%z%A%3.3.3.3.3.3.3.3.3.3.3.3.3.3.3.w.B%~+C%J$= D%E%F%",
"G%H%I%J%K%L%M%N%O%P%P%Q%R%S%T%U%V%w.3.3.3.3.3.3.3.3.3.3.3.3.3.3.T.W%X%Y%Z%`% &.&",
"+&@&#&$&q.3.3.v.z.z.z.w.%&&&*&=&-&V%w.3.3.3.3.3.3.3.3.3.3.3.q.G+( C#;&>&,&e%#.K.",
"'&)&!&w.3.3.3.3.3.3.3.3.B%~&v.{&]&^&/&(&U.U.U.U.U.U.U.U.U.G+_&b+f$-&:&P.!&3.@.K.",
"<&[&3.3.3.3.3.3.3.3.3.3.3.3.3.3.}&|&1&2%d.2&2&2&u.3&S.2&S.4&5&6&7&J.J.3.3.3.5.8&",
"2.3.3.3.3.3.3.3.3.3.3.3.3.3.3.T.v$7.1&- ^&9&9&-&i%0&9&9&9&a&b&O.J.3.3.3.3.3.3.2.",
"3.3.3.3.3.3.3.3.3.3.3.3.3.3.3.3.c&d&e&e&#%( ( ( f&g&( ( ( h&i&q.3.3.3.3.3.3.3.3.",
"3.3.3.3.3.3.3.3.3.3.3.3.3.3.3.3.3.3.3.3.3.3.3.3.3.3.3.3.3.3.3.3.3.3.3.3.3.3.3.3.",
"3.3.3.3.3.3.3.3.3.3.3.3.3.3.3.3.3.3.3.3.3.3.3.3.3.3.3.3.3.3.3.3.3.3.3.3.3.3.3.3."};
