/* XPM */
static char * banner_xpm[] = {
"80 80 7 1",
" 	c None",
".	c #161C2E",
"+	c #CCB88D",
"@	c #C9AA8E",
"#	c #D7D1A7",
"$	c #DCDCA5",
"%	c #9E8776",
"                                                                                ",
"                                                                                ",
"                                                                                ",
"                                                                                ",
"                                                                                ",
"                                                                                ",
"                                                                                ",
"                                                                                ",
"                                                                                ",
"                                                                                ",
"                                                                                ",
"                                                                                ",
"                                                                                ",
"                                                                                ",
"                                                                                ",
"                   ..........................................                   ",
"                 ....+@##........++++$.................##@+....                 ",
"                 .++++#####$+@#$#++$$$$###$$@@@@++$$$#####++@@.                 ",
"                ..+@@#$###$$#####$$$$##$$$$##$++$$##$####$#@@@..                ",
"                .+++@#$##$######$$$$##$$$##$$$#$$$##$$#$$##@@@+.                ",
"          .... ..+@@###$#######$$$$##$$$##$$$$#$#####$$#####@++.. ....          ",
"          .......@@@###$######$$$$$$$######$$#########$#####+++.......          ",
"          .@+%%..@@@$###$####$$$$$$#######$$$#####$$###$###$+++..%%@@.          ",
"          .+++%.@@@+$$##$###########$$$$$$$$######$$###$####@@@@.%@++.          ",
"          .++@%.@@+++$###$##########$$$$$$$######$$$$###$###@@@@.%@++.          ",
"          .+@@%.@++@+$$###$$#####$$$$$$$$$######$$#$$$###$$#@@@@.%+++.          ",
"          .+@%%.+++#$+$$#$$######$$$$$$$$$$###$$$##$$$#$$###@@@+.++++.          ",
"          .++%%..+@@#$#$$#######$$##$$$$#$$###$$###$$#$$####@@++.@+++.          ",
"          .++%%..@@@##$$$$#####$$##$$$$$##$#$$$######$$$###@@++@.%+++.          ",
"          ..+%%..+++#$$$$$####$$##$$$$$###$$$$#$$$#$$$$$##@#++@..%+++.          ",
"          ..+%%..++@##$$$$####$##$$$$$$##$$$##$$$$##$$$$####+@@..%%++.          ",
"          ..+%%..+@@##$$$###$$##$$$$$$$#$$$##$$$$####$$$###$@@+..%%++.          ",
"          ..@@%..@@@###$$$#$$#$$$$$$$$$$$$##$$$$######$$##$#@++.%%%++.          ",
"          ..++%%.@@@#######$##$##$$$$$$$$##$$$$##########$##++@.%%%%+.          ",
"          ..++%%.@+@#####$$##$$$#$###$$$$$$$$$###$######$$#$++@.%@@%+.          ",
"          ..++%%.+@@#$###$$$$$$$####$$$$$$$$$######$####$$$$+++.%%@++.          ",
"          ..++%%.@@@#$###$$$##$$$##$$$$$$$$$##$####$$###$$$#+++.%%+++.          ",
"          .+@@%%.@@##$$$$#$###$$###$$$##$$$##$######$$$##$##@+@.%%++@.          ",
"          .@@+%%.@+@$$$$$####$$##$$#$##$$$##$####$$#$$$#$##$++@.%%@@@.          ",
"          .+++%%.@@+#$$$$###$$$$$$$###$$$$$$#####$#$$$$###$$+++.%%@@+.          ",
"          .++@%%.+++$$$$###$$$$$$$##$$$$$$$#####$$$$$$$##$$$$++.%%@+..          ",
"          .+@@%%.+@@#$$##$$$$$$$###$$$$$$$$###$$$##$$###$$$$+++.%%++..          ",
"          .@@@%%.@@+#$###$$$$$$##$$$$$$$$####$$####$###$$$$$@+@.%%++..          ",
"          .@%++%.+++$$###$$$$$##$$$$$$$$####$$$$$$$$###$$$$$@@@.%%++..          ",
"          .+%%%%.+++$###$$$$$#$$$$##$$$$$$$$$$$$$$$$##$$$$$#+++.%%++..          ",
"          .@+%%%.+@@$###$$$##$$$$##$$$#####$###$$#$####$$$##+++..%++..          ",
"          .@@%%..@@+$##$$$###$$$##$$$$########$$#$$###$$###$++@..%%+..          ",
"          .@@%%..@@+$##$####$$$##$$$$$######$$###$$$##$###$$+@@..%%+..          ",
"          .@++%..@++$+#####$$$###$$$$$#####$$####$#$######$$@@@..%%+..          ",
"          .++@%.@++@@$#####$$####$$$$$###$$$##$#$$$#$####$$#@@@..%%++.          ",
"          .+@@+.+++@##$##$$#####$$$$###$$$##$$$$$$##$###$$##@@@..%%@@.          ",
"          .@+++.+++@##$$#$#####$$$$##$$$###$$$#$$$###$#$##@##@++.%%@+.          ",
"          .+++%.@@@@###$######$$$$$#$#$$#$$$$$#######$$####@@+++.%@@@.          ",
"          .@++%.@@@@$###$#####$$$$$########$$#####$###$####@++++.%@@@.          ",
"          .+++%.@@@+$###$####$$$$$########$$######$$###$###$++++.%@@@.          ",
"          .++@%.@@++$$###$##########$$$$$$$######$$$$###+#@#@@@@.%@+..          ",
"          .+@@%.@++@$$$###$$#####$$$$$$$$$######$$#$$$##@++#@@@@.%+...          ",
"          .+@@%.+++@$$$$#$$######$$$$$$$$$$###$$$##$$$#$$@@#@@@+.%+.%.          ",
"          .++@%.++@@#$#$$#######$+##$$$$#$$###$$###$$#$$@@##@@++.%....          ",
"          .++@%.@@@@@#$$$$#@###$$@@+$$$$##$#$$$##@###$$$###@@++@.%+..           ",
"          ..++%.@+++@$$$$+@@@@$$@@+++$$#@@$$$$#$++#$$$$$###@++@@.%++..          ",
"          ..++%.+++@.............++%........................+@@+.%++..          ",
"          ...@%..+.@@@+++....+@@++%%%++@+++@@+%%+@@@@+++@@@+@.+..%++..          ",
"           ..@%...@@%%%+++@%+@+%%%++%%%%++@@+%%%@@%@@@++@%%%@+...%++..          ",
"           ..+%...@%@@@@@@%%%@+@@+++++.......%%%@@%%@@@@@+@@%+...%++..          ",
"          ..++%%..+%@......................................+%+..%%@@..          ",
"          ..+++%..@%@....                              ....+%+..%@@+..          ",
"          .+++@%%.@%@.%.                                .%.+%+.%%@+++.          ",
"          .++@@%%..@@+.+                                .%+@%..%%@+++.          ",
"          .+@@%%%.%.@+..                                ..@@.%.%%%++@.          ",
"          ...+%..%..+++.                                .@@+..%..%@...          ",
"          ...@..%..++++.                                .++++..%..@...          ",
"          ..@@%@%%%@%%+.                                .+%%+%%%@%++..          ",
"           .@@@...%%@+.                                  .++%%%%%+++.           ",
"           ............                                  ............           ",
"                                                                                ",
"                                                                                ",
"                                                                                ",
"                                                                                ",
"                                                                                "};
