/* XPM */
static char * enemy_idle_left00_xpm[] = {
"40 33 534 2",
"  	c None",
". 	c #C5A08D",
"+ 	c #161C2E",
"@ 	c #7B655D",
"# 	c #9D7F72",
"$ 	c #F8CAAF",
"% 	c #843941",
"& 	c #5E2C38",
"* 	c #B94D51",
"= 	c #4C2734",
"- 	c #3F363C",
"; 	c #876E64",
"> 	c #D4AC97",
", 	c #D9945F",
"' 	c #D85A5B",
") 	c #D7595B",
"! 	c #F26464",
"~ 	c #B34B4F",
"{ 	c #171C2E",
"] 	c #9F4349",
"^ 	c #8B3C43",
"/ 	c #9B4248",
"( 	c #3E2332",
"_ 	c #987C6F",
": 	c #E8C351",
"< 	c #DFA75A",
"[ 	c #E2B357",
"} 	c #263631",
"| 	c #285136",
"1 	c #1D4D35",
"2 	c #1B3F32",
"3 	c #994147",
"4 	c #2D1F30",
"5 	c #1B1D2E",
"6 	c #F76666",
"7 	c #E35E5F",
"8 	c #F56565",
"9 	c #943F45",
"0 	c #FFCFB4",
"a 	c #D9955F",
"b 	c #E0AC59",
"c 	c #F3E162",
"d 	c #F4E4A5",
"e 	c #A26F4C",
"f 	c #77AB52",
"g 	c #5ABB55",
"h 	c #38B251",
"i 	c #35A74D",
"j 	c #2F9447",
"k 	c #287B40",
"l 	c #181E2E",
"m 	c #CA565C",
"n 	c #E8646A",
"o 	c #98434C",
"p 	c #342F37",
"q 	c #8B4C4D",
"r 	c #8C3C43",
"s 	c #B54B50",
"t 	c #803840",
"u 	c #A28476",
"v 	c #E3C8A9",
"w 	c #FAF8F7",
"x 	c #948885",
"y 	c #1D4A34",
"z 	c #65A14E",
"A 	c #80C75C",
"B 	c #3E9849",
"C 	c #246B3B",
"D 	c #319B4A",
"E 	c #38B151",
"F 	c #2F524E",
"G 	c #503247",
"H 	c #A05C7A",
"I 	c #442C40",
"J 	c #B49282",
"K 	c #E7877C",
"L 	c #EF6363",
"M 	c #EE6263",
"N 	c #D35759",
"O 	c #632E39",
"P 	c #532936",
"Q 	c #A7816C",
"R 	c #EAEAEB",
"S 	c #B5B5B7",
"T 	c #DBD9CE",
"U 	c #D9DADA",
"V 	c #5C5E63",
"W 	c #193731",
"X 	c #309548",
"Y 	c #205B38",
"Z 	c #77787C",
"` 	c #CFCFD0",
" .	c #C4C4C5",
"..	c #373943",
"+.	c #297F41",
"@.	c #39AB54",
"#.	c #417268",
"$.	c #1E2F38",
"%.	c #6E4159",
"&.	c #78353E",
"*.	c #A7645E",
"=.	c #7C363F",
"-.	c #AF494E",
";.	c #DF5E61",
">.	c #A04955",
",.	c #D25759",
"'.	c #D5585A",
").	c #DE5C5D",
"!.	c #A7464B",
"~.	c #79635C",
"{.	c #FCFBF0",
"].	c #F8EEAC",
"^.	c #EFD8C0",
"/.	c #D7BBAE",
"(.	c #5E5F64",
"_.	c #464850",
":.	c #A7A8A9",
"<.	c #F6F3E0",
"[.	c #FCF8DF",
"}.	c #F7EDE8",
"|.	c #E4E2E2",
"1.	c #4E4F56",
"2.	c #23513D",
"3.	c #3D6A62",
"4.	c #3C6961",
"5.	c #462533",
"6.	c #EC6162",
"7.	c #DC5B5D",
"8.	c #DB5B5C",
"9.	c #CD5557",
"0.	c #8B506C",
"a.	c #854D68",
"b.	c #A9474C",
"c.	c #C19D8A",
"d.	c #F3C5AC",
"e.	c #F6F6F6",
"f.	c #F6E779",
"g.	c #F4E341",
"h.	c #F0D947",
"i.	c #DDA27A",
"j.	c #E3E3E4",
"k.	c #43454D",
"l.	c #D6D6D7",
"m.	c #FEFDF7",
"n.	c #FAF2C1",
"o.	c #F5E561",
"p.	c #DEA668",
"q.	c #EDD2C4",
"r.	c #B6B7B8",
"s.	c #332949",
"t.	c #243B40",
"u.	c #2B1F30",
"v.	c #B84D50",
"w.	c #EB6162",
"x.	c #F16364",
"y.	c #BD4F52",
"z.	c #814B65",
"A.	c #5B374D",
"B.	c #93495B",
"C.	c #D55D65",
"D.	c #D4585A",
"E.	c #402332",
"F.	c #564848",
"G.	c #9B7E71",
"H.	c #F6E986",
"I.	c #F5E681",
"J.	c #E9C7B4",
"K.	c #DCDCDD",
"L.	c #737478",
"M.	c #FFFFFF",
"N.	c #F8EEAA",
"O.	c #E9C550",
"P.	c #EFD7CB",
"Q.	c #C8C8C9",
"R.	c #6F4E8D",
"S.	c #513A6A",
"T.	c #6C4C8A",
"U.	c #4B3764",
"V.	c #7C4862",
"W.	c #B1607B",
"X.	c #B7617C",
"Y.	c #5A374D",
"Z.	c #794760",
"`.	c #AB6282",
" +	c #A55F7E",
".+	c #673D54",
"++	c #94786C",
"@+	c #A3A3A5",
"#+	c #FDFBF5",
"$+	c #FDFBED",
"%+	c #E8E6E0",
"&+	c #A4A5A7",
"*+	c #5C546B",
"=+	c #433D54",
"-+	c #C6C7C8",
";+	c #F9F0B8",
">+	c #FAF4DD",
",+	c #D8D7D7",
"'+	c #7C727D",
")+	c #956596",
"!+	c #4A3662",
"~+	c #60447C",
"{+	c #27233D",
"]+	c #523348",
"^+	c #9E5B79",
"/+	c #2D2336",
"(+	c #3C293C",
"_+	c #A05C7B",
":+	c #342639",
"<+	c #3E353B",
"[+	c #6D5A55",
"}+	c #886F65",
"|+	c #FCCCB2",
"1+	c #90756A",
"2+	c #22383D",
"3+	c #2C4B4B",
"4+	c #65676C",
"5+	c #67686D",
"6+	c #6B5A6B",
"7+	c #6E4C6D",
"8+	c #724F90",
"9+	c #3D2E53",
"0+	c #3E3B4D",
"a+	c #998F9E",
"b+	c #CFCBC0",
"c+	c #CCCABC",
"d+	c #8D8589",
"e+	c #73536F",
"f+	c #9F6B92",
"g+	c #714D6B",
"h+	c #2D4B4B",
"i+	c #356157",
"j+	c #34A44C",
"k+	c #255037",
"l+	c #7D4963",
"m+	c #71425B",
"n+	c #915370",
"o+	c #543449",
"p+	c #5D4D4C",
"q+	c #F8C9AF",
"r+	c #F6C8AE",
"s+	c #F5C7AD",
"t+	c #705C56",
"u+	c #3C6760",
"v+	c #182130",
"w+	c #8F6084",
"x+	c #A36E96",
"y+	c #81587B",
"z+	c #43325B",
"A+	c #274144",
"B+	c #34394D",
"C+	c #714F8F",
"D+	c #986794",
"E+	c #A06C94",
"F+	c #8A5D80",
"G+	c #6D4A68",
"H+	c #1A1D2F",
"I+	c #3B665F",
"J+	c #3D945E",
"K+	c #35A94E",
"L+	c #282133",
"M+	c #76455E",
"N+	c #874E69",
"O+	c #74445D",
"P+	c #4D364E",
"Q+	c #724E6C",
"R+	c #2A2438",
"S+	c #262532",
"T+	c #A58677",
"U+	c #CAA290",
"V+	c #BF818D",
"W+	c #925471",
"X+	c #1B2834",
"Y+	c #192432",
"Z+	c #282336",
"`+	c #33283D",
" @	c #527B42",
".@	c #52B054",
"+@	c #3F7D64",
"@@	c #32494F",
"#@	c #31283D",
"$@	c #34293E",
"%@	c #1C1E30",
"&@	c #2D4D4C",
"*@	c #37605A",
"=@	c #266C3E",
"-@	c #1E4E35",
";@	c #4B3763",
">@	c #79537D",
",@	c #7A5594",
"'@	c #8A5E8C",
")@	c #292337",
"!@	c #8C516D",
"~@	c #C9637A",
"{@	c #C25E71",
"]@	c #402B3E",
"^@	c #557A42",
"/@	c #94D361",
"(@	c #69C158",
"_@	c #3AA856",
":@	c #3E6C64",
"<@	c #315552",
"[@	c #305350",
"}@	c #3E6B63",
"|@	c #38A953",
"1@	c #3AA557",
"2@	c #417367",
"3@	c #263F42",
"4@	c #161D2E",
"5@	c #1A3C32",
"6@	c #2D8C45",
"7@	c #33A14B",
"8@	c #2E2644",
"9@	c #90628E",
"0@	c #7D5696",
"a@	c #A16C99",
"b@	c #69497A",
"c@	c #28233D",
"d@	c #D26476",
"e@	c #EF666A",
"f@	c #8A485D",
"g@	c #215F39",
"h@	c #6FB254",
"i@	c #84CC5E",
"j@	c #58BA55",
"k@	c #37AD4F",
"l@	c #2B6447",
"m@	c #315451",
"n@	c #3D6B63",
"o@	c #3F7E64",
"p@	c #39AD53",
"q@	c #3AA656",
"r@	c #315952",
"s@	c #171E2F",
"t@	c #192130",
"u@	c #182030",
"v@	c #3E2F55",
"w@	c #7A547E",
"x@	c #563D64",
"y@	c #1C1E31",
"z@	c #181D2F",
"A@	c #62467E",
"B@	c #775396",
"C@	c #202037",
"D@	c #9E546E",
"E@	c #EE656A",
"F@	c #B75D74",
"G@	c #3E293D",
"H@	c #2A8141",
"I@	c #297B40",
"J@	c #2B4849",
"K@	c #3D6962",
"L@	c #417168",
"M@	c #2D8447",
"N@	c #2A693E",
"O@	c #292437",
"P@	c #7B5474",
"Q@	c #7E5576",
"R@	c #795373",
"S@	c #2E2744",
"T@	c #755294",
"U@	c #5B4175",
"V@	c #63467F",
"W@	c #6E4D8B",
"X@	c #533C6C",
"Y@	c #222138",
"Z@	c #C46076",
"`@	c #A55974",
" #	c #3A283B",
".#	c #233A3F",
"+#	c #2A4748",
"@#	c #182131",
"##	c #325653",
"$#	c #355B57",
"%#	c #2D4E4D",
"&#	c #573D57",
"*#	c #926287",
"=#	c #A67098",
"-#	c #885C7F",
";#	c #1E2134",
">#	c #34314B",
",#	c #513C6A",
"'#	c #523B6B",
")#	c #42325A",
"!#	c #4D4166",
"~#	c #735191",
"{#	c #583F72",
"]#	c #212F30",
"^#	c #4F723F",
"/#	c #64A04D",
"(#	c #265740",
"_#	c #38625C",
":#	c #1C2A35",
"<#	c #83597B",
"[#	c #1A2533",
"}#	c #274245",
"|#	c #406F66",
"1#	c #407067",
"2#	c #3A655E",
"3#	c #1C2B36",
"4#	c #694865",
"5#	c #593E58",
"6#	c #1B4032",
"7#	c #1B4233",
"8#	c #2B2A41",
"9#	c #3F3956",
"0#	c #463E5E",
"a#	c #694D86",
"b#	c #6C4D89",
"c#	c #4E3D66",
"d#	c #5D4778",
"e#	c #62467D",
"f#	c #543D6E",
"g#	c #519449",
"h#	c #8DD160",
"i#	c #65BF57",
"j#	c #309648",
"k#	c #254041",
"l#	c #182231",
"m#	c #654665",
"n#	c #A46F99",
"o#	c #294647",
"p#	c #253E41",
"q#	c #284345",
"r#	c #226239",
"s#	c #297D40",
"t#	c #1A3931",
"u#	c #2D8B44",
"v#	c #38B050",
"w#	c #25623D",
"x#	c #27283E",
"y#	c #4B4064",
"z#	c #6A4D87",
"A#	c #6B4D88",
"B#	c #745192",
"C#	c #5B4676",
"D#	c #765295",
"E#	c #63477F",
"F#	c #4D3865",
"G#	c #191D31",
"H#	c #39AF53",
"I#	c #336554",
"J#	c #7F5894",
"K#	c #704E80",
"L#	c #406F67",
"M#	c #365D59",
"N#	c #21353C",
"O#	c #2B8342",
"P#	c #1C2033",
"Q#	c #4A4063",
"R#	c #755293",
"S#	c #745293",
"T#	c #51416B",
"U#	c #6E4E8B",
"V#	c #26233C",
"W#	c #614467",
"X#	c #664663",
"Y#	c #287441",
"Z#	c #3F8762",
"`#	c #315452",
" $	c #704E8D",
".$	c #573F71",
"+$	c #226339",
"@$	c #373D4D",
"#$	c #296C40",
"$$	c #3C9A5C",
"%$	c #3D6A63",
"&$	c #1B1F32",
"*$	c #413B58",
"=$	c #51426B",
"-$	c #52416B",
";$	c #3B2E52",
">$	c #4F3A68",
",$	c #593F6C",
"'$	c #845A88",
")$	c #735091",
"!$	c #5B3F5C",
"~$	c #1C2B35",
"{$	c #375F5A",
"]$	c #3A655F",
"^$	c #2B4A4A",
"/$	c #192331",
"($	c #4E3967",
"_$	c #1A2532",
":$	c #3F3056",
"<$	c #2D6F48",
"[$	c #388058",
"}$	c #3A665F",
"|$	c #20333A",
"1$	c #302846",
"2$	c #322B48",
"3$	c #2F2B45",
"4$	c #403257",
"5$	c #4F3955",
"6$	c #503955",
"7$	c #604366",
"8$	c #835984",
"9$	c #865C95",
"0$	c #97668D",
"a$	c #413051",
"b$	c #A95469",
"c$	c #834B64",
"d$	c #1D1E30",
"e$	c #21363D",
"f$	c #3F6E65",
"g$	c #21353B",
"h$	c #4F3967",
"i$	c #684985",
"j$	c #45335D",
"k$	c #413158",
"l$	c #46345E",
"m$	c #212037",
"n$	c #61457D",
"o$	c #966698",
"p$	c #9D6A99",
"q$	c #7B548A",
"r$	c #906188",
"s$	c #503A62",
"t$	c #1E1F34",
"u$	c #6D4059",
"v$	c #E7656E",
"w$	c #D16477",
"x$	c #4F3146",
"y$	c #1F323A",
"z$	c #22373D",
"A$	c #2B2541",
"B$	c #463356",
"C$	c #523A57",
"D$	c #24223A",
"E$	c #38273A",
"F$	c #AC5E7B",
"G$	c #B6627F",
"H$	c #4B2F44",
"I$	c #1B1D2F",
"                                                . +                             ",
"                                              @ #         $                     ",
"                                          + % & * =   + - ;         >           ",
"    ,                                     + ' ) ! ~ { ] ^ / (   + _             ",
"  : < [                               } | 1 1 2 3 4 5 6 7 8 9 + + +         0   ",
"a b c d e                           } f g h h i j k l m n o p q r s t +   u     ",
"    v w x                 + +   + y z A B C C D E h F G H I J K L M N = O P     ",
"    Q R +             + S T U V W X X Y Z `  ...+.@.#.$.%.&.*.=.-.;.>.,.'.).!.  ",
"        ~.          + S {.].^./.(.+ _.:.<.[.}.|.1.2.3.4.5.6.7.8.9.0.a.7 6 6 b.+ ",
"      c.d.          + e.f.g.h.i.j.k.l.m.n.o.p.q.r.s.$.t.u.v.w.x.y.z.A.B.C.D.E.  ",
"    F.G.            + e.H.g.I.J.K.L.M.N.g.g.O.P.Q.R.S.T.U.V.W.X.Y.+ Z.`. +.++   ",
"    + + ; ++          @+#+$+%+&+*+=+-+;+g.g.>+,+'+)+!+~+{+]+`.^+/+(+H `._+:+    ",
"    <+[+}+|+1+      2+3+4+5+6+7+8+9+0+a+b+c+d+e+f+g+h+i+j+k+l+m++ n+`.`.o++     ",
"    p+q+r+s+t+    + 4.u+v+w+x+y+z+A+B+C+D+E+x+F+G+H+I+J+h K+k+L++ M+N+O+P+Q+R+  ",
"    S+T+U+V+W++   + X+Y++ Z+`+ @.@+@3.@@#@$@$@%@&@*@Y+=@h h K+-@+ + ;@>@,@'@)@  ",
"      + !@~@{@]@          + ^@/@(@_@:@<@[@[@}@|@1@2@3@4@5@6@h 7@8@9@0@a@b@c@+   ",
"      + G d@e@f@+       g@h@i@j@k@l@$.m@n@o@p@h q@r@s@+ + 4@t@u@v@w@x@y@z@A@B@C@",
"        + D@E@F@G@+     + H@H@I@4@J@K@L@L@+@M@N@O@P@Q@Q@R@S@T@U@+ s.V@W@X@B@B@Y@",
"        + O+Z@`@ #.#+#    + @###$#L@L@L@L@%#&#*#=#x+x+x+-#;#>#,#'#)#B@B@!#~#B@{#",
"          + ]#^#/#(#_#:#+ <#[#}#|#L@L@1#2#3#4#Q+5#6#7#+ 8#9#0#a#b#c#B@B@d#e#B@f#",
"          + g#h#i#j#k#l#m#n#<@o#p#3+3+q#+ r#s#t#u#v#h w#x#y#z#A#B#C#D#B@E#F#A@G#",
"          + D h h H#I#+ J#K###L#M#M#M#M#N#7@i O#h h h I+P#Q#R#S#B@T#U#B@~+V#W#X#",
"          + Y#_@_@Z#`#+  $.$##L@L@L@L@L@+#+$@$#$E h $$%$&$*$=$-$T.;$>$T.,$'$)$!$",
"            ~${$]$^$/$+ s.($##L@L@L@L@L@I+_$W@:$<$[$}$|$1$2$3$4$5$6$7$8$9$0$a$  ",
"            + + + (+b$c$d$+ e$:@L@L@L@L@f$g$h$i$j$k$k${#R.l$m$n$o$p$q$r$s$t$+   ",
"                + u$v$w$x$+ + y$p#p#p#p#z$+ + A$:$:$:$:$9++ + Y@B$C$D$+ +       ",
"                  E$F$G$%.+   + + + +         + + + +                           ",
"                  + H$x$I$+     + + +             + + +                         ",
"                      +           + + +             + + +                       ",
"                                + + + +             + + +                       ",
"                                                                                ",
"                                                                                ",
"                                                                                "};
