/* XPM */
static char * enemy_idle_left01_xpm[] = {
"40 33 519 2",
"  	c None",
". 	c #D0A994",
"+ 	c #A97A65",
"@ 	c #C38862",
"# 	c #161C2E",
"$ 	c #675451",
"% 	c #886F65",
"& 	c #FCCCB2",
"* 	c #D08F60",
"= 	c #D9945F",
"- 	c #A9474C",
"; 	c #3E2332",
"> 	c #2A2733",
", 	c #735E58",
"' 	c #E4B9A1",
") 	c #DEA55B",
"! 	c #E8C251",
"~ 	c #EACA4E",
"{ 	c #527640",
"] 	c #51A34D",
"^ 	c #319A49",
"/ 	c #2C8944",
"( 	c #215F39",
"_ 	c #1D4B34",
": 	c #B24A4F",
"< 	c #9C4248",
"[ 	c #B14A4E",
"} 	c #582A37",
"| 	c #806960",
"1 	c #F2DD5C",
"2 	c #FBF6D8",
"3 	c #EDD24A",
"4 	c #517440",
"5 	c #8CCC5E",
"6 	c #55B553",
"7 	c #319C4A",
"8 	c #37AF50",
"9 	c #38B251",
"0 	c #35A94E",
"a 	c #213E3B",
"b 	c #B54B4F",
"c 	c #EA6161",
"d 	c #F56565",
"e 	c #913E44",
"f 	c #E1B69F",
"g 	c #FFCFB4",
"h 	c #D0CCB5",
"i 	c #FCF8F4",
"j 	c #C28C53",
"k 	c #6F4D3D",
"l 	c #6E6F73",
"m 	c #959698",
"n 	c #949597",
"o 	c #182B2F",
"p 	c #2D8D45",
"q 	c #4CAE50",
"r 	c #4C984A",
"s 	c #1E5236",
"t 	c #848588",
"u 	c #7E7F82",
"v 	c #1F5536",
"w 	c #329E4A",
"x 	c #3E7163",
"y 	c #181F2F",
"z 	c #B9525B",
"A 	c #88404D",
"B 	c #3A333A",
"C 	c #A15D5A",
"D 	c #A5454A",
"E 	c #BF4F53",
"F 	c #9A4147",
"G 	c #90766A",
"H 	c #717276",
"I 	c #D3D1D0",
"J 	c #A68474",
"K 	c #9C7F72",
"L 	c #696A6F",
"M 	c #EEEEEF",
"N 	c #FBF5D0",
"O 	c #F9F1ED",
"P 	c #BAB0AC",
"Q 	c #17262F",
"R 	c #1F5637",
"S 	c #1E5035",
"T 	c #4D4E55",
"U 	c #D6D4CD",
"V 	c #F9F8F1",
"W 	c #F8F8F8",
"X 	c #ACACAE",
"Y 	c #40524C",
"Z 	c #31834D",
"` 	c #407167",
" .	c #335955",
"..	c #693E56",
"+.	c #39283B",
"@.	c #B79483",
"#.	c #D98177",
"$.	c #F36465",
"%.	c #F16464",
"&.	c #D8595B",
"*.	c #592A37",
"=.	c #7D373F",
"-.	c #622D39",
";.	c #442533",
">.	c #B79584",
",.	c #E9BDA5",
"'.	c #E8E8E9",
").	c #F9F0B9",
"!.	c #F5E565",
"~.	c #EDD06B",
"{.	c #DDA681",
"].	c #C1C2C3",
"^.	c #98999B",
"/.	c #F0F0F1",
"(.	c #FCF9E4",
"_.	c #F7EB94",
":.	c #E6BD9D",
"<.	c #F4E5DD",
"[.	c #969799",
"}.	c #2C4A4A",
"|.	c #365D58",
"1.	c #833941",
"2.	c #A95957",
"3.	c #863A42",
"4.	c #9F4349",
"5.	c #D1585E",
"6.	c #9C4B5B",
"7.	c #D4585A",
"8.	c #DE5C5D",
"9.	c #E45E5F",
"0.	c #B74C50",
"a.	c #4B3F42",
"b.	c #F2F2F2",
"c.	c #F5E564",
"d.	c #F4E341",
"e.	c #F4E242",
"f.	c #DB9C70",
"g.	c #F5F5F5",
"h.	c #616267",
"i.	c #FAFAFA",
"j.	c #FBF5D4",
"k.	c #F5E66A",
"l.	c #E4B855",
"m.	c #E7C3AF",
"n.	c #CDCECE",
"o.	c #5E4379",
"p.	c #3B2D51",
"q.	c #4E3967",
"r.	c #392C4F",
"s.	c #BF5053",
"t.	c #E86061",
"u.	c #DD5B5D",
"v.	c #D95A5C",
"w.	c #8D516D",
"x.	c #834C67",
"y.	c #F76666",
"z.	c #BB9886",
"A.	c #A08275",
"B.	c #D8D8D9",
"C.	c #FCF7DB",
"D.	c #F9EFB2",
"E.	c #FBF6D7",
"F.	c #E1DCDA",
"G.	c #969699",
"H.	c #515359",
"I.	c #EEEEEE",
"J.	c #F8ECA0",
"K.	c #F3E2A5",
"L.	c #FAF3F0",
"M.	c #ACADAE",
"N.	c #7E5791",
"O.	c #593F73",
"P.	c #775396",
"Q.	c #44335B",
"R.	c #974046",
"S.	c #F06364",
"T.	c #B24A4E",
"U.	c #74445D",
"V.	c #5E384F",
"W.	c #884960",
"X.	c #C85A66",
"Y.	c #C35154",
"Z.	c #472533",
"`.	c #4A3F41",
" +	c #D3AB96",
".+	c #C5A08D",
"++	c #FECEB3",
"@+	c #9B7E71",
"#+	c #353742",
"$+	c #BFBFC0",
"%+	c #C5C5C6",
"&+	c #3B3C48",
"*+	c #674983",
"=+	c #4C3764",
"-+	c #65676B",
";+	c #D0CEBE",
">+	c #F9F0B7",
",+	c #D1CFC3",
"'+	c #865D7E",
")+	c #97668C",
"!+	c #2B253C",
"~+	c #30404B",
"{+	c #287B40",
"]+	c #2A2234",
"^+	c #9F5975",
"/+	c #B06280",
"(+	c #653C53",
"_+	c #7C4862",
":+	c #AB6282",
"<+	c #A96181",
"[+	c #6D4058",
"}+	c #E8BCA4",
"|+	c #EBBFA6",
"1+	c #262532",
"2+	c #345A56",
"3+	c #406F66",
"4+	c #1C2A35",
"5+	c #775170",
"6+	c #916286",
"7+	c #A36E97",
"8+	c #644780",
"9+	c #1A1E32",
"0+	c #352A4C",
"a+	c #775595",
"b+	c #826287",
"c+	c #83627D",
"d+	c #8B6081",
"e+	c #A56F98",
"f+	c #99678D",
"g+	c #33283D",
"h+	c #3E6D64",
"i+	c #3E8462",
"j+	c #2F9447",
"k+	c #38273A",
"l+	c #90536F",
"m+	c #1E1E30",
"n+	c #402A3E",
"o+	c #A15C7B",
"p+	c #9E5B79",
"q+	c #36263A",
"r+	c #332738",
"s+	c #9D5B78",
"t+	c #AC6382",
"u+	c #643C53",
"v+	c #2E4E4D",
"w+	c #284446",
"x+	c #5A3E59",
"y+	c #7B5373",
"z+	c #1E2D32",
"A+	c #2D8044",
"B+	c #3B6760",
"C+	c #4A3763",
"D+	c #734F73",
"E+	c #7B5474",
"F+	c #3A2C42",
"G+	c #1A1E30",
"H+	c #263F42",
"I+	c #253E41",
"J+	c #348D51",
"K+	c #2F9347",
"L+	c #191E2F",
"M+	c #935471",
"N+	c #503247",
"O+	c #2E2336",
"P+	c #A35A75",
"Q+	c #D76474",
"R+	c #984D62",
"S+	c #222F30",
"T+	c #85BF5A",
"U+	c #6CC259",
"V+	c #3B9F5A",
"W+	c #417168",
"X+	c #3D6A63",
"Y+	c #305350",
"Z+	c #315552",
"`+	c #2C7F46",
" @	c #3C895E",
".@	c #284345",
"+@	c #161D2E",
"@@	c #2B8342",
"#@	c #2E9046",
"$@	c #6A3F56",
"%@	c #7B4861",
"&@	c #6A3F57",
"*@	c #4F3853",
"=@	c #7E5576",
"-@	c #34293D",
";@	c #8F4F68",
">@	c #EB656C",
",@	c #B95A6E",
"'@	c #221F32",
")@	c #193531",
"!@	c #547D42",
"~@	c #83BD59",
"{@	c #80CA5D",
"]@	c #54B954",
"^@	c #389755",
"/@	c #2C4B4B",
"(@	c #1B2934",
"_@	c #2D4E4D",
":@	c #335A54",
"<@	c #3A905A",
"[@	c #39AE53",
"}@	c #38B152",
"|@	c #3F7564",
"1@	c #1A2633",
"2@	c #182D30",
"3@	c #297D40",
"4@	c #27743E",
"5@	c #2A2439",
"6@	c #523B6B",
"7@	c #815883",
"8@	c #7D5796",
"9@	c #815888",
"0@	c #2C2539",
"a@	c #482E42",
"b@	c #DC6472",
"c@	c #C4637B",
"d@	c #5F3950",
"e@	c #54B152",
"f@	c #55B352",
"g@	c #35A84E",
"h@	c #1B2834",
"i@	c #3F8563",
"j@	c #36AB4F",
"k@	c #319B49",
"l@	c #2A6B45",
"m@	c #3B3144",
"n@	c #664662",
"o@	c #845A7C",
"p@	c #805678",
"q@	c #936391",
"r@	c #7F5795",
"s@	c #986793",
"t@	c #654673",
"u@	c #2C2542",
"v@	c #2C2642",
"w@	c #1A1D31",
"x@	c #302437",
"y@	c #985775",
"z@	c #3F2A3E",
"A@	c #192432",
"B@	c #1D2E37",
"C@	c #1F323A",
"D@	c #22373D",
"E@	c #3D6962",
"F@	c #3A655E",
"G@	c #1C2B35",
"H@	c #553C55",
"I@	c #82587A",
"J@	c #895C7F",
"K@	c #6E4B69",
"L@	c #9E6A91",
"M@	c #83597A",
"N@	c #322848",
"O@	c #594073",
"P@	c #6F4C75",
"Q@	c #523B60",
"R@	c #2B2541",
"S@	c #222138",
"T@	c #654781",
"U@	c #29243F",
"V@	c #223130",
"W@	c #6D9D4D",
"X@	c #659B4C",
"Y@	c #274843",
"Z@	c #38605B",
"`@	c #182231",
" #	c #5E415C",
".#	c #8A5D81",
"+#	c #282E3B",
"@#	c #1C2C36",
"##	c #355C58",
"$#	c #254641",
"%#	c #1C4533",
"&#	c #433148",
"*#	c #575B59",
"=#	c #2E8E45",
"-#	c #1B3F32",
";#	c #202037",
">#	c #563E6F",
",#	c #34294A",
"'#	c #684984",
")#	c #714F8F",
"!#	c #523D6C",
"~#	c #765395",
"{#	c #332949",
"]#	c #182A2F",
"^#	c #479248",
"/#	c #82CC5D",
"(#	c #47B553",
"_#	c #274143",
":#	c #292B41",
"<#	c #936389",
"[#	c #A56F9A",
"}#	c #3B5556",
"|#	c #3C6861",
"1#	c #1E2E38",
"2#	c #355B57",
"3#	c #38625C",
"4#	c #2E8F46",
"5#	c #36AA4E",
"6#	c #26703D",
"7#	c #326C52",
"8#	c #181D30",
"9#	c #393550",
"0#	c #574171",
"a#	c #5B4175",
"b#	c #3E2F55",
"c#	c #4F4269",
"d#	c #715090",
"e#	c #36AC4F",
"f#	c #38A054",
"g#	c #4C3865",
"h#	c #865C97",
"i#	c #714E82",
"j#	c #325352",
"k#	c #3C6760",
"l#	c #243C40",
"m#	c #2D8E45",
"n#	c #27763F",
"o#	c #27773F",
"p#	c #39AD54",
"q#	c #417268",
"r#	c #191E31",
"s#	c #443D5C",
"t#	c #493F62",
"u#	c #684C84",
"v#	c #6E4E8C",
"w#	c #4D3E66",
"x#	c #62497E",
"y#	c #5C4376",
"z#	c #533C6C",
"A#	c #306A4F",
"B#	c #3C9C5B",
"C#	c #3C9E5A",
"D#	c #3D7D61",
"E#	c #20333B",
"F#	c #43325B",
"G#	c #6F4E8C",
"H#	c #5C4176",
"I#	c #305250",
"J#	c #274244",
"K#	c #324649",
"L#	c #349A4E",
"M#	c #3AA557",
"N#	c #407F65",
"O#	c #191E30",
"P#	c #403958",
"Q#	c #5E4579",
"R#	c #664A82",
"S#	c #755294",
"T#	c #5B4676",
"U#	c #755293",
"V#	c #644880",
"W#	c #45345D",
"X#	c #5B4176",
"Y#	c #1B1E32",
"Z#	c #21363C",
"`#	c #2C2541",
" $	c #312847",
".$	c #2A4848",
"+$	c #63467F",
"@$	c #61457C",
"#$	c #252F3E",
"$$	c #332A49",
"%$	c #5A4074",
"&$	c #6A4A86",
"*$	c #47345E",
"=$	c #5A4275",
"-$	c #52406B",
";$	c #6C4D89",
">$	c #63467E",
",$	c #2D2643",
"'$	c #674771",
")$	c #714D6C",
"!$	c #7E4256",
"~$	c #7C4359",
"{$	c #2F504E",
"]$	c #2A4748",
"^$	c #26233C",
"/$	c #4D3866",
"($	c #583F72",
"_$	c #563E70",
":$	c #62467E",
"<$	c #2B2641",
"[$	c #3E3555",
"}$	c #5F4370",
"|$	c #8C5F8C",
"1$	c #72508E",
"2$	c #503956",
"3$	c #55344A",
"4$	c #D56272",
"5$	c #DC6473",
"6$	c #673D54",
"7$	c #4B3864",
"8$	c #5F4264",
"9$	c #624464",
"0$	c #674870",
"a$	c #8F618D",
"b$	c #835A95",
"c$	c #8E6085",
"d$	c #3E2F4B",
"e$	c #2B2235",
"f$	c #A05976",
"g$	c #B46280",
"h$	c #794660",
"i$	c #926398",
"j$	c #9F6B99",
"k$	c #734F84",
"l$	c #865B7F",
"m$	c #493556",
"n$	c #1C1E33",
"o$	c #3B283C",
"p$	c #412B3F",
"q$	c #211F31",
"r$	c #332945",
"s$	c #3D2E46",
"t$	c #1F1F36",
"                                                                                ",
"                                                                                ",
"                                                                                ",
"                                                                                ",
"                                              .                                 ",
"      + @                                 # $ %         &                       ",
"      * =                           # # # # # - ;   # > ,         '             ",
"  ) ! ~ =                         # { ] ^ ^ / ( _ # : < [ }   # |               ",
"  1 2 3 =                       # 4 5 6 7 7 8 9 0 a b c d e # # # #     f g     ",
"  h i j k             l m n # o p q r s t u v w 9 x y z A B C D E F #   G       ",
"  H I J K           L M N O P Q R S T U V W X Y Z `  ...+.@.#.$.%.&.*.=.-.;.    ",
"    >.,.          # '.).!.~.{.].# ^./.(._.:.<.[.# }.|.# 1.2.3.4.5.6.7.8.9.0.    ",
"  # a.#           # b.c.d.e.f.g.h.i.j.k.d.l.m.n.o.p.q.r.s.t.u.v.w.x.8.y.y.D #   ",
"  # # z.A.        # B.C.D.E.F.G.H.I.J.d.d.K.L.M.N.O.P.Q.R.9.S.T.U.V.W.X.Y.Z.    ",
"  `. +.+++@+      # #+$+%+^.&+*+=+-+;+>+>+,+l '+)+!+~+{+]+^+/+(+# _+:+<+[+#     ",
"  B }+g |+1+      2+3+4+5+6+7+8+9+0+a+b+c+d+e+f+g+h+i+9 j+k+l+m+n+o+:+p+q+      ",
"  # r+s+t+u+#   # v+w+# x+y+z+A+B+2+C+D+E+E+F+G+H+I+J+9 9 K+L+# M+:+:+N+#       ",
"    O+P+Q+R+#           # S+T+U+V+W+X+Y+Y+Z+`+ @W+.@+@@@8 9 #@# $@%@&@*@=@-@    ",
"    # ;@>@,@'@        )@!@~@{@]@^@/@(@_@:@<@[@}@|@1@# # 2@3@4@# 5@6@7@8@9@0@    ",
"    # a@b@c@d@#       v e@f@g@4@h@Y+W+W+i@j@k@l@m@n@o@o@p@# # q.q@r@s@t@u@v@w@  ",
"      x@M+y@z@A@B@    # # # C@D@E@W+W+W+F@G@H@I@J@K@K@L@M@N@O@o.P@Q@R@S@T@P.U@  ",
"      # V@W@X@Y@Z@`@ #.#+#@###W+W+W+W+3+$#%#&#*#=#K+-## ;#T@>## ,#'#)#!#~#P.{#  ",
"      ]#^#/#(#/ _#:#<#[#}#|#1#2#B+B+3#H+4#5#6#8 9 9 7#8#9#9#0#a#b#P.P.c#d#P.a#  ",
"      %#e#9 9 f#C@g#h#i#j#W+k#l#l#l#l#h@m#n#o#9 9 p#q#r#s#t#u#v#w#P.P.x#y#P.z#  ",
"      # A#B#C#D#E#F#G#H#I#W+W+W+W+W+W+J## o.K#L#M#N#Z+O#P#Q#R#S#T#U#P.V#W#X#Y#  ",
"        A@ .2+Z## # `# $.$W+W+W+W+W+W+3#(@+$@$#$I+I+$$%$&$*$=$P.-$;$P.>$,$'$)$  ",
"        # # # !$~$O+    # {$Z@Z@Z@Z@Z@]$1@^$/$($_$_$o.T@:$<$[$T@p.Q.T@}$|$1$2$  ",
"          # 3$4$5$6$#     # # # # # # # # # # # # # # # # S@7$8$9$0$a$b$c$d$    ",
"            e$f$g$h$#       # # # # # # # # # # # # # # # Y#($i$j$k$l$m$n$      ",
"            # o$p$q$#         # #     # # # # # # # # # # # Y#r$s$t$#           ",
"                # #                     # # #                                   ",
"                                                                                ",
"                                                                                "};
