/* XPM */
static char * player_move_left00_xpm[] = {
"38 40 483 2",
"  	c None",
". 	c #161C2E",
"+ 	c #522C37",
"@ 	c #8A4246",
"# 	c #502B36",
"$ 	c #543A3C",
"% 	c #79514B",
"& 	c #AA7161",
"* 	c #BC6E62",
"= 	c #7F3D43",
"- 	c #322231",
"; 	c #2E2632",
"> 	c #A8675C",
", 	c #BE7C69",
"' 	c #C27A69",
") 	c #B9615B",
"! 	c #C4806C",
"~ 	c #BF7365",
"{ 	c #BC695F",
"] 	c #AF5252",
"^ 	c #492E46",
"/ 	c #61313A",
"( 	c #A96058",
"_ 	c #C5836E",
": 	c #C4816D",
"< 	c #BE7164",
"[ 	c #BB675E",
"} 	c #B65555",
"| 	c #A34D4E",
"1 	c #562D38",
"2 	c #704C47",
"3 	c #C27E6B",
"4 	c #BF7F6B",
"5 	c #B96D61",
"6 	c #C37E6B",
"7 	c #AB7262",
"8 	c #A46C5E",
"9 	c #A25150",
"0 	c #AA5156",
"a 	c #723D51",
"b 	c #231F32",
"c 	c #4C2A36",
"d 	c #B36F61",
"e 	c #C2816C",
"f 	c #804A48",
"g 	c #C27F6C",
"h 	c #C2816D",
"i 	c #664643",
"j 	c #222030",
"k 	c #171C2E",
"l 	c #251F30",
"m 	c #64323B",
"n 	c #B45455",
"o 	c #8D4758",
"p 	c #2E2337",
"q 	c #5A2F39",
"r 	c #C17868",
"s 	c #6A4744",
"t 	c #B47162",
"u 	c #BB7565",
"v 	c #634342",
"w 	c #3F2A40",
"x 	c #693D5B",
"y 	c #884659",
"z 	c #B15356",
"A 	c #904857",
"B 	c #2C2236",
"C 	c #4B2D42",
"D 	c #A65D5E",
"E 	c #64363D",
"F 	c #B96C62",
"G 	c #81434C",
"H 	c #583550",
"I 	c #8C4759",
"J 	c #954A58",
"K 	c #53324C",
"L 	c #D5B583",
"M 	c #2F2338",
"N 	c #8B4555",
"O 	c #5A3348",
"P 	c #9B4A51",
"Q 	c #582E39",
"R 	c #1C1D30",
"S 	c #3C283E",
"T 	c #4D3049",
"U 	c #1B1D2F",
"V 	c #CDB083",
"W 	c #D8BB90",
"X 	c #6B353D",
"Y 	c #8C444D",
"Z 	c #82414E",
"` 	c #582E38",
" .	c #797572",
"..	c #F5EEE6",
"+.	c #D7BA8D",
"@.	c #71614D",
"#.	c #4F2D3E",
"$.	c #392536",
"%.	c #59344C",
"&.	c #2B2834",
"*.	c #725D55",
"=.	c #514444",
"-.	c #605E4F",
";.	c #FAF8EA",
">.	c #F5EFE8",
",.	c #9D886A",
"'.	c #89898B",
").	c #F3EDE7",
"!.	c #E6E5E4",
"~.	c #BCBCBE",
"{.	c #C5BFC3",
"].	c #C2BEC1",
"^.	c #DFD2C4",
"/.	c #C9B9A6",
"(.	c #1B1F2F",
"_.	c #5F5E4E",
":.	c #F0E9C1",
"<.	c #FEFDFD",
"[.	c #D9D6C7",
"}.	c #B99D73",
"|.	c #837056",
"1.	c #BBA97F",
"2.	c #DACA98",
"3.	c #E8D7AD",
"4.	c #EBDDC3",
"5.	c #EDE0C5",
"6.	c #F5ECCE",
"7.	c #F4EBCC",
"8.	c #BDAC82",
"9.	c #675A4D",
"0.	c #786258",
"a.	c #E2D19B",
"b.	c #EDE1D3",
"c.	c #F7F3DF",
"d.	c #D4C0A5",
"e.	c #4E443E",
"f.	c #CDB283",
"g.	c #E6D4B1",
"h.	c #FAF5E7",
"i.	c #FCFAF3",
"j.	c #FCF9F1",
"k.	c #F6EED3",
"l.	c #F3E9C4",
"m.	c #EFE1AB",
"n.	c #E6D39E",
"o.	c #C0A37C",
"p.	c #947969",
"q.	c #3F363B",
"r.	c #4F4E45",
"s.	c #D0C08F",
"t.	c #D8BC89",
"u.	c #EFE6C8",
"v.	c #DBDBD9",
"w.	c #232732",
"x.	c #938163",
"y.	c #ECDDA7",
"z.	c #EBDDBC",
"A.	c #CBC9C6",
"B.	c #F8F2DE",
"C.	c #EFE2AE",
"D.	c #EFE1AC",
"E.	c #DFC693",
"F.	c #987C6B",
"G.	c #735F56",
"H.	c #736A55",
"I.	c #D3B583",
"J.	c #DCC490",
"K.	c #F0EABA",
"L.	c #76745C",
"M.	c #BDB08C",
"N.	c #ECDDB5",
"O.	c #B19770",
"P.	c #7C7A75",
"Q.	c #F7EFD7",
"R.	c #E2CB97",
"S.	c #D8BB88",
"T.	c #A1856F",
"U.	c #7C665B",
"V.	c #B79B72",
"W.	c #D6B684",
"X.	c #E4D49D",
"Y.	c #CEC896",
"Z.	c #6F5F4D",
"`.	c #D2C397",
" +	c #DFC79D",
".+	c #534840",
"++	c #7F8084",
"@+	c #FFFFFF",
"#+	c #F6EED4",
"$+	c #E8D6A1",
"%+	c #E0C895",
"&+	c #D7B987",
"*+	c #B99B78",
"=+	c #907567",
"-+	c #40373B",
";+	c #635647",
">+	c #6F5F4C",
",+	c #C9B182",
"'+	c #E3DCA5",
")+	c #7A775F",
"!+	c #30323B",
"~+	c #F1E6CC",
"{+	c #C2A578",
"]+	c #2A2932",
"^+	c #7C7972",
"/+	c #F7F0D9",
"(+	c #EFE1AD",
"_+	c #EAD8A3",
":+	c #C6A77D",
"<+	c #977B6B",
"[+	c #443A3D",
"}+	c #3F3938",
"|+	c #A58D68",
"1+	c #988261",
"2+	c #B59A71",
"3+	c #BEA276",
"4+	c #A29A77",
"5+	c #CDC796",
"6+	c #1F2330",
"7+	c #8B8166",
"8+	c #675949",
"9+	c #4B4D54",
"0+	c #CECDC8",
"a+	c #CFC397",
"b+	c #CABB8E",
"c+	c #B89D73",
"d+	c #CBAD7E",
"e+	c #C9AA7E",
"f+	c #B89A77",
"g+	c #826B5F",
"h+	c #3B343A",
"i+	c #473F3B",
"j+	c #988161",
"k+	c #3C2432",
"l+	c #2B2030",
"m+	c #6D5C4F",
"n+	c #DDD4A0",
"o+	c #7B785F",
"p+	c #7C765F",
"q+	c #706A57",
"r+	c #C0B086",
"s+	c #D1B181",
"t+	c #CFB081",
"u+	c #6D5A52",
"v+	c #70604D",
"w+	c #927C5E",
"x+	c #864045",
"y+	c #AE5252",
"z+	c #492935",
"A+	c #B39870",
"B+	c #A88F6A",
"C+	c #AB9E7C",
"D+	c #BFAB7F",
"E+	c #282832",
"F+	c #50383B",
"G+	c #D1C598",
"H+	c #E4D1AC",
"I+	c #786751",
"J+	c #747579",
"K+	c #BCB6A2",
"L+	c #B7AD86",
"M+	c #DCCF9D",
"N+	c #E8D5A1",
"O+	c #DBC08D",
"P+	c #CEAF80",
"Q+	c #A68970",
"R+	c #403939",
"S+	c #AE936F",
"T+	c #AF9274",
"U+	c #87695C",
"V+	c #AF5655",
"W+	c #6C5D4B",
"X+	c #D2B381",
"Y+	c #4E4340",
"Z+	c #C3A579",
"`+	c #864C4A",
" @	c #BA7867",
".@	c #58333A",
"+@	c #E9DBA8",
"@@	c #F4ECD9",
"#@	c #BFA783",
"$@	c #242531",
"%@	c #CECDCB",
"&@	c #F8F2DD",
"*@	c #E6D39F",
"=@	c #C2A47B",
"-@	c #7A645A",
";@	c #6E6C57",
">@	c #BDA87D",
",@	c #B3A57C",
"'@	c #7A6852",
")@	c #AE946D",
"!@	c #CA9974",
"~@	c #A78D6B",
"{@	c #7B655A",
"]@	c #89755A",
"^@	c #BB9F74",
"/@	c #60323B",
"(@	c #60333B",
"_@	c #B87364",
":@	c #C4B185",
"<@	c #F0E3B2",
"[@	c #E1CA99",
"}@	c #393436",
"|@	c #CDCBC7",
"1@	c #F1E4B6",
"2@	c #EEE0AA",
"3@	c #DABE8C",
"4@	c #6F5B53",
"5@	c #746551",
"6@	c #B19B73",
"7@	c #504C43",
"8@	c #A98F6A",
"9@	c #CBAC7D",
"0@	c #CDA279",
"a@	c #BB685F",
"b@	c #B9605B",
"c@	c #4B4041",
"d@	c #927768",
"e@	c #41383C",
"f@	c #8D785B",
"g@	c #512B36",
"h@	c #B2625A",
"i@	c #B97364",
"j@	c #EEDFA9",
"k@	c #EBDBA6",
"l@	c #DBD5CC",
"m@	c #E2DABD",
"n@	c #CEAF7F",
"o@	c #A08867",
"p@	c #524544",
"q@	c #73624E",
"r@	c #B4A87E",
"s@	c #9D8664",
"t@	c #D7B986",
"u@	c #E8DDA5",
"v@	c #E1CC9B",
"w@	c #BF7264",
"x@	c #3B2432",
"y@	c #64333F",
"z@	c #412A42",
"A@	c #3A2E3B",
"B@	c #6B3849",
"C@	c #AD5152",
"D@	c #A04B4D",
"E@	c #1C202F",
"F@	c #AC9872",
"G@	c #E7D49F",
"H@	c #F7F0D8",
"I@	c #C0A377",
"J@	c #847057",
"K@	c #564A41",
"L@	c #3B283E",
"M@	c #442B43",
"N@	c #A78E6B",
"O@	c #DFCA95",
"P@	c #E0CD98",
"Q@	c #D0A480",
"R@	c #BA635C",
"S@	c #B9635B",
"T@	c #4E3739",
"U@	c #392432",
"V@	c #653647",
"W@	c #262034",
"X@	c #51324B",
"Y@	c #663C59",
"Z@	c #844250",
"`@	c #64333B",
" #	c #65524D",
".#	c #272632",
"+#	c #3A273D",
"@#	c #56374D",
"##	c #BDB188",
"$#	c #EFE2AF",
"%#	c #EDDFAE",
"&#	c #D1BF90",
"*#	c #8A8367",
"=#	c #2E2C33",
"-#	c #1E1E31",
";#	c #54334D",
">#	c #603855",
",#	c #201E31",
"'#	c #BA9C78",
")#	c #E0CC96",
"!#	c #DBC38F",
"~#	c #C58B70",
"{#	c #B75756",
"]#	c #C89471",
"^#	c #D3B181",
"/#	c #52324C",
"(#	c #49413C",
"_#	c #B69A74",
":#	c #A78B71",
"<#	c #52324B",
"[#	c #753F58",
"}#	c #35253B",
"|#	c #76705B",
"1#	c #686353",
"2#	c #272034",
"3#	c #7A415A",
"4#	c #76405A",
"5#	c #75405A",
"6#	c #BEA07A",
"7#	c #D2AF80",
"8#	c #D3AC84",
"9#	c #EBE2A9",
"0#	c #D7BA87",
"a#	c #635449",
"b#	c #C8AA7C",
"c#	c #C3A47C",
"d#	c #55334D",
"e#	c #A14E57",
"f#	c #774057",
"g#	c #34253A",
"h#	c #242033",
"i#	c #4E3049",
"j#	c #633A57",
"k#	c #80435A",
"l#	c #A34E57",
"m#	c #9D4C57",
"n#	c #904859",
"o#	c #7F435A",
"p#	c #A48B69",
"q#	c #C58C6D",
"r#	c #BF7665",
"s#	c #DFCA99",
"t#	c #E5D69F",
"u#	c #BFA277",
"v#	c #5F5245",
"w#	c #C3A57B",
"x#	c #967C67",
"y#	c #2D2A34",
"z#	c #6E3C53",
"A#	c #A34F57",
"B#	c #6C3D5A",
"C#	c #673C5A",
"D#	c #7E435A",
"E#	c #A54F57",
"F#	c #B55555",
"G#	c #8A4659",
"H#	c #9A8265",
"I#	c #916554",
"J#	c #BB685E",
"K#	c #D7B88B",
"L#	c #9E8664",
"M#	c #241F33",
"N#	c #3A2432",
"O#	c #8C4550",
"P#	c #A95156",
"Q#	c #9E4D57",
"R#	c #B15355",
"S#	c #9A4C58",
"T#	c #605148",
"U#	c #7D685A",
"V#	c #B95F5A",
"W#	c #D2AD7F",
"X#	c #C6A87A",
"Y#	c #544940",
"Z#	c #35263B",
"`#	c #472D45",
" $	c #82404A",
".$	c #984B58",
"+$	c #76415A",
"@$	c #5D3753",
"#$	c #2A2833",
"$$	c #824D4C",
"%$	c #BF7864",
"&$	c #C4A77A",
"*$	c #4D443E",
"=$	c #1D1E30",
"-$	c #191D2F",
";$	c #1D2030",
">$	c #685650",
",$	c #813E43",
"'$	c #C79170",
")$	c #C5A87A",
"!$	c #483F3B",
"~$	c #5C4C49",
"{$	c #864346",
"]$	c #B57E65",
"^$	c #544645",
"/$	c #352F37",
"($	c #3F2533",
"                                                . + @ #                     ",
"                                            $ % & & * = - .                 ",
"                                        ; > , ' ) ! ~ { ] ^ .               ",
"                                      / ( _ : < _ _ _ [ } | 1 .             ",
"                                      2 3 4 5 6 _ 7 8 9 } 0 a b             ",
"                                    c d e f g h i j k l m n o p             ",
"                                    q r s t u v . w x x y z A B             ",
"                                    C D E F G . . H x x I J K .             ",
"L                                   M N O P Q .   R S T T S U               ",
"V W                                 . X Y Z ` .     . . .                   ",
" ...+.                            . @.@.#.$.%.&.*.=..                       ",
"-.;.>.,.                        . '.).!.~.~.{.].^./.(..                     ",
"_.:.<.[.}.                      |.1.2.3.4.5.6.7.8.9.0..                     ",
"_.a.b.c.d.                    e.f.g.h.i.j.k.l.m.n.o.p.q..                   ",
"r.s.t.u.v.w.                  x.y.z.A.B.C.D.m.m.E.L F.G..                   ",
"  H.I.J.K.L.                . M.N.O.P.Q.D.m.m.R.S.L T.U..                   ",
"  . V.W.X.Y..               Z.`. +.+++@+#+$+%+&+L L *+=+-+.           . ;+. ",
"    >+L ,+'+)+              !+~+{+]+^+/+(+_+L L L L :+<+[+.         }+|+1+. ",
"    . 2+3+4+5+.             6+7+8+. 9+0+a+b+c+c+d+e+f+g+h+.       i+3+j+k+l+",
"      8+L m+n+o+          . p+q+. . . . . . q+r+s+t+<+u+. .   . v+3+w+x+y+z+",
"      . A+B+C+D+E+; F+    . G+H+I+. J+K+L+M+N+O+s+P+Q+u+. R+@.S+T+U+V+} } z+",
"        W+X+Y+Z+W+`+ @.@  . +@@@#@$@%@&@D.*@L L =@<+-@;@5+>@,@'@)@!@} } } z+",
"        . ~@{@]@^@/@(@_@. . :@<@[@}@|@1@2@3@L L e+<+4@5@6@7@8@9@L 0@a@b@} z+",
"        . c@d@e@f@g@h@i@.   p+j@k@l@m@m.j@L L n@o@p@. q@r@s@L t@u@v@w@} } z+",
"      x@y@z@p@A@B@C@D@g@  . E@F@G@k.H@m.j@I@J@K@. L@M@q@B+N@L O@P@Q@R@} S@T@",
"      U@V@W@X@Y@Z@`@ #.#  . +#@###$#%#&#*#=#. -#;#>#,#q@B+'#L )#!#~#{#]#^#K@",
"        B /#/#S (#_#:#4@. . <#[#}#|#1#. 2#L@K 3#4#5#T q@6#'#L L 7#8#9#0#L K@",
"        . }#. a#b#L c#4@. . d#e#f#g#h#i#j#k#l#m#n#o#T q@6#p#7#q#r#s#t#S.u#=#",
"              v#n@w#x#y#.   -#z#A#B#C#D#E#F#} y G#x +#q@H#I#J#a@: K#t.L L#. ",
"              . . . M#K .   . N#O#P#Q#R#} } z S#x /#k T#U#x+} V#J#W#L X#Y#  ",
"                    Z#`#.     . N# $Q#Q#Q#.$+$x @$g#. #$-@$$} } %$L &$*$    ",
"                      .         . . =$=$=$=$=$=$-$. .   ;$>$,$F#'$)$!$      ",
"                              . . . .         . . .       . ~${$]$.+        ",
"                                . . . .       . .           ^$/$($          ",
"                                  .         . .               .             ",
"                                          . . .                             ",
"                                                                            ",
"                                                                            ",
"                                                                            ",
"                                                                            "};
