/* XPM */
static char * player_move_left01_xpm[] = {
"38 40 440 2",
"  	c None",
". 	c #161C2E",
"+ 	c #6A353D",
"@ 	c #854044",
"# 	c #1A1D2E",
"$ 	c #644442",
"% 	c #8D5E53",
"& 	c #AA7161",
"* 	c #B07363",
"= 	c #B16059",
"- 	c #69343C",
"; 	c #B46C60",
"> 	c #C2816C",
", 	c #BD6E62",
"' 	c #BB685E",
") 	c #C47F6C",
"! 	c #BE7164",
"~ 	c #B9625C",
"{ 	c #9C4A50",
"] 	c #3C283F",
"^ 	c #72383F",
"/ 	c #B97263",
"( 	c #C5836E",
"_ 	c #C27C6A",
": 	c #C17868",
"< 	c #B65655",
"[ 	c #B65555",
"} 	c #96474A",
"| 	c #925F55",
"1 	c #C4816D",
"2 	c #B77967",
"3 	c #BE7063",
"4 	c #C3826D",
"5 	c #A56E5F",
"6 	c #A2665A",
"7 	c #A84F50",
"8 	c #A14E57",
"9 	c #50314A",
"0 	c #62333B",
"a 	c #C07B69",
"b 	c #B17162",
"c 	c #905750",
"d 	c #B37765",
"e 	c #423037",
"f 	c #181C2E",
"g 	c #2E2131",
"h 	c #843F44",
"i 	c #AC5156",
"j 	c #7D4155",
"k 	c #874246",
"l 	c #B97967",
"m 	c #6F3E41",
"n 	c #C3816D",
"o 	c #AE6C5F",
"p 	c #402F36",
"q 	c #191D2F",
"r 	c #693D5B",
"s 	c #6B3D5B",
"t 	c #9A4B58",
"u 	c #AD5256",
"v 	c #773F54",
"w 	c #68394E",
"x 	c #A65D5A",
"y 	c #844A49",
"z 	c #B26861",
"A 	c #663441",
"B 	c #1F1E31",
"C 	c #633A57",
"D 	c #6B3E5B",
"E 	c #964A58",
"F 	c #844559",
"G 	c #402A40",
"H 	c #3E293F",
"I 	c #8F4755",
"J 	c #523148",
"K 	c #AE5253",
"L 	c #1B1D2F",
"M 	c #1E1E31",
"N 	c #482D45",
"O 	c #4D3049",
"P 	c #2C2236",
"Q 	c #8A4246",
"R 	c #6B3849",
"S 	c #9A4A51",
"T 	c #D5B583",
"U 	c #887459",
"V 	c #665148",
"W 	c #382436",
"X 	c #502E40",
"Y 	c #4A2E46",
"Z 	c #5A4B48",
"` 	c #63524D",
" .	c #42393C",
"..	c #D7CEC3",
"+.	c #DDC4A0",
"@.	c #B8B2AC",
"#.	c #FBF8F5",
"$.	c #D7D6D6",
"%.	c #BCBCBE",
"&.	c #BDBDBE",
"*.	c #C5BFC3",
"=.	c #C9C2C1",
"-.	c #E5D7C5",
";.	c #AA9B8A",
">.	c #BFBCAC",
",.	c #1D202F",
"'.	c #9A8463",
").	c #C1B288",
"!.	c #E5D29D",
"~.	c #E9D9B6",
"{.	c #EBDDC3",
"].	c #F0E5C9",
"^.	c #F5ECCE",
"/.	c #EFE3BD",
"(.	c #9B8D6D",
"_.	c #67574C",
":.	c #63514C",
"<.	c #B8B38B",
"[.	c #FBFAF0",
"}.	c #FCFAF7",
"|.	c #887F62",
"1.	c #6E5E4C",
"2.	c #DCC18E",
"3.	c #EDE0C2",
"4.	c #FCF9F1",
"5.	c #FCFAF3",
"6.	c #FAF5E7",
"7.	c #F6EED3",
"8.	c #F1E6BB",
"9.	c #EFE1AB",
"0.	c #DFC794",
"a.	c #B09374",
"b.	c #866D61",
"c.	c #181D2E",
"d.	c #B7B186",
"e.	c #E2D0A9",
"f.	c #FDFCFB",
"g.	c #E9DCB6",
"h.	c #CDAE7E",
"i.	c #C1AC81",
"j.	c #EFE0AA",
"k.	c #DCD3C0",
"l.	c #DDDAD0",
"m.	c #F6EED4",
"n.	c #EFE1AC",
"o.	c #D6B684",
"p.	c #C9AA7E",
"q.	c #977B6B",
"r.	c #524544",
"s.	c #A29874",
"t.	c #DCC490",
"u.	c #EBDECD",
"v.	c #F5F1DB",
"w.	c #86827F",
"x.	c #E7D9B0",
"y.	c #E5D1A6",
"z.	c #877358",
"A.	c #B7B4A8",
"B.	c #F4EBCC",
"C.	c #EDDDA8",
"D.	c #CCAD7F",
"E.	c #9B7E6C",
"F.	c #62514C",
"G.	c #2D2B33",
"H.	c #C5B082",
"I.	c #ECE2B6",
"J.	c #C2BE9F",
"K.	c #837056",
"L.	c #EBDEB0",
"M.	c #C8AE87",
"N.	c #312E34",
"O.	c #FFFEFD",
"P.	c #F2E7BD",
"Q.	c #E5D09C",
"R.	c #DDC491",
"S.	c #D6B784",
"T.	c #A58870",
"U.	c #876E62",
"V.	c #796851",
"W.	c #D4B482",
"X.	c #DDC793",
"Y.	c #ECE5AB",
"Z.	c #615F4F",
"`.	c #9C988C",
" +	c #E7D5B5",
".+	c #A9906A",
"++	c #B7B2A4",
"@+	c #F5EDCF",
"#+	c #E2CD99",
"$+	c #B39575",
"%+	c #927768",
"&+	c #5A4E43",
"*+	c #A28A67",
"=+	c #BFA277",
"-+	c #DACE99",
";+	c #C3BE8F",
">+	c #59554A",
",+	c #867A60",
"'+	c #534840",
")+	c #747579",
"!+	c #D8D3C6",
"~+	c #CFC395",
"{+	c #C4B185",
"]+	c #B89D73",
"^+	c #D3B482",
"/+	c #C6A77D",
"(+	c #A3886D",
"_+	c #7E675C",
":+	c #8F7A5D",
"<+	c #C3A679",
"[+	c #4D433D",
"}+	c #766550",
"|+	c #807057",
"1+	c #E5DEA6",
"2+	c #73705A",
"3+	c #968E6F",
"4+	c #323337",
"5+	c #8A8368",
"6+	c #C9B285",
"7+	c #D4B483",
"8+	c #C3A57C",
"9+	c #766157",
"0+	c #8F7A5C",
"a+	c #C0A377",
"b+	c #4B3B3A",
"c+	c #8D4347",
"d+	c #4B2935",
"e+	c #BDA176",
"f+	c #B39870",
"g+	c #BBAF88",
"h+	c #565248",
"i+	c #E6DCB5",
"j+	c #D7BB8C",
"k+	c #3A3437",
"l+	c #9C9D9E",
"m+	c #B9B194",
"n+	c #B7AC85",
"o+	c #ECDDA8",
"p+	c #E5D19D",
"q+	c #D3B585",
"r+	c #B2976F",
"s+	c #665848",
"t+	c #6A5A4D",
"u+	c #9F856A",
"v+	c #A88D6C",
"w+	c #8F534D",
"x+	c #4F2B36",
"y+	c #786651",
"z+	c #CCAE7E",
"A+	c #7B6659",
"B+	c #D7CE9A",
"C+	c #635547",
"D+	c #706B57",
"E+	c #F1E6BA",
"F+	c #EFE3D0",
"G+	c #9F8865",
"H+	c #F7F5EF",
"I+	c #F5EDD0",
"J+	c #CFB98B",
"K+	c #89795D",
"L+	c #A59B75",
"M+	c #A08967",
"N+	c #BFAC7F",
"O+	c #B59A71",
"P+	c #AF946F",
"Q+	c #BB8B6E",
"R+	c #B55756",
"S+	c #282832",
"T+	c #BEA176",
"U+	c #9B8363",
"V+	c #8D7B5E",
"W+	c #AC936C",
"X+	c #4D453F",
"Y+	c #DCCA99",
"Z+	c #F0E4B5",
"`+	c #C8AF82",
" @	c #F5F1E6",
".@	c #EBDAA5",
"+@	c #9E8765",
"@@	c #746C56",
"#@	c #D1C392",
"$@	c #8A8265",
"%@	c #6C6350",
"&@	c #9A8362",
"*@	c #CBAD7D",
"=@	c #CEA47A",
"-@	c #BC6A60",
";@	c #BA625C",
">@	c #786751",
",@	c #B49775",
"'@	c #4E433F",
")@	c #C7A97B",
"!@	c #5B4E43",
"~@	c #71373F",
"{@	c #B3A881",
"]@	c #EADAAE",
"^@	c #D1CECB",
"/@	c #EEE2B4",
"(@	c #E6D29D",
"_@	c #9D8664",
":@	c #6D5E4C",
"<@	c #B3A279",
"[@	c #7F6D54",
"}@	c #E1CF99",
"|@	c #DBC191",
"1@	c #BD6C61",
"2@	c #876E61",
"3@	c #745F56",
"4@	c #49413C",
"5@	c #CAB285",
"6@	c #ECDCAB",
"7@	c #F7F1DC",
"8@	c #F4EAC9",
"9@	c #857258",
"0@	c #AF9972",
"a@	c #D9BE8B",
"b@	c #E3D39C",
"c@	c #D8B88E",
"d@	c #BB675E",
"e@	c #312438",
"f@	c #544546",
"g@	c #66544E",
"h@	c #171C2E",
"i@	c #803E43",
"j@	c #4F304A",
"k@	c #503D46",
"l@	c #D9CC9C",
"m@	c #F0E3B2",
"n@	c #E9D8A7",
"o@	c #C5B68A",
"p@	c #6B6453",
"q@	c #191E2F",
"r@	c #AB926C",
"s@	c #B69976",
"t@	c #E7DBA3",
"u@	c #E1CE98",
"v@	c #CB9B7A",
"w@	c #B75A57",
"x@	c #B85D58",
"y@	c #CA9974",
"z@	c #5C4E43",
"A@	c #7C3C44",
"B@	c #66394F",
"C@	c #743F57",
"D@	c #984951",
"E@	c #292135",
"F@	c #643952",
"G@	c #693B53",
"H@	c #242033",
"I@	c #90886B",
"J@	c #2C2D34",
"K@	c #2E2337",
"L@	c #272034",
"M@	c #B89B75",
"N@	c #B99B77",
"O@	c #C99474",
"P@	c #D6B68C",
"Q@	c #5D5144",
"R@	c #3B283E",
"S@	c #4B2F47",
"T@	c #5F3854",
"U@	c #412A41",
"V@	c #645648",
"W@	c #5D4F45",
"X@	c #6A3B54",
"Y@	c #AB5156",
"Z@	c #5E3853",
"`@	c #252033",
" #	c #322439",
".#	c #54334D",
"+#	c #673C59",
"@#	c #643647",
"##	c #C0A17A",
"$#	c #B09571",
"%#	c #D1AB7E",
"&#	c #C48A6C",
"*#	c #DBC093",
"=#	c #E6D9A1",
"-#	c #DAC08D",
";#	c #CCAD7E",
">#	c #33253A",
",#	c #3C283E",
"'#	c #1B1D30",
")#	c #786553",
"!#	c #CFB080",
"~#	c #AC926C",
"{#	c #34253A",
"]#	c #854458",
"^#	c #9C4C58",
"/#	c #683C5A",
"(#	c #884659",
"_#	c #864045",
":#	c #B59973",
"<#	c #9C8262",
"[#	c #C58A6D",
"}#	c #BB695F",
"|#	c #E0CA99",
"1#	c #E2D19B",
"2#	c #B99D73",
"3#	c #B29870",
"4#	c #BFA179",
"5#	c #40373C",
"6#	c #582E38",
"7#	c #9A4B55",
"8#	c #A44F57",
"9#	c #9F4D57",
"0#	c #67594A",
"a#	c #88715E",
"b#	c #B75A58",
"c#	c #BF7365",
"d#	c #CDA279",
"e#	c #75644F",
"f#	c #423B39",
"g#	c #6A5B4A",
"h#	c #4B3F40",
"i#	c #292733",
"j#	c #4E2B39",
"k#	c #91464F",
"l#	c #9E4D57",
"m#	c #7B3E4D",
"n#	c #3F363B",
"o#	c #80685D",
"p#	c #874145",
"q#	c #B9615A",
"r#	c #8D785B",
"s#	c #442C43",
"t#	c #1D1E30",
"u#	c #4B4041",
"v#	c #735A53",
"w#	c #A54D4F",
"x#	c #C68E6E",
"y#	c #8B765A",
"z#	c #42393D",
"A#	c #4D353B",
"B#	c #A44D4F",
"C#	c #C48E6E",
"D#	c #695650",
"E#	c #533C3F",
"F#	c #7A4B46",
"G#	c #171D2E",
"                                              . + @ #                       ",
"                                        . $ % & * = - . .                   ",
"                                      $ ; > , ' ) ! ~ { ] .                 ",
"                                    ^ / ( _ : ( ( ( < [ } .                 ",
"                                  . | 1 2 3 1 4 5 6 7 [ 8 9 .               ",
"                                  0 a b c ( d e . f g h i j .               ",
"                                  k l m n o p q 9 r s t u v .               ",
"                                  w x y z A . B C r D E F G                 ",
"                                  H I J K L     M N O O P .                 ",
"                                  . Q R S . .     . . .                     ",
"      T                         . U V W X Y Z `  .                          ",
"      ..+.                    . @.#.$.%.&.*.=.-.;..                         ",
"      >.#.+.                ,.'.).!.~.{.].^./.(._.:..                       ",
"      <.[.}.|.              1.2.3.4.5.6.7.8.9.0.a.b.c.                      ",
"      d.e.f.g.h.          . i.j.k.l.m.n.n.9.9.o.p.q.r..                     ",
"      s.t.u.v.w.          . x.y.z.A.B.9.9.C.0.T D.E.F..                     ",
"      G.H.T I.J..         K.L.M.N.%.O.P.Q.R.S.T T T.U..     . .             ",
"        V.W.X.Y.Z.        `. +.+. ++@+9.#+T T T T $+%+. . &+*+.             ",
"        . =+T -+;+.     . >+,+'+. )+!+~+{+]+]+^+/+(+_+. :+<+[+.             ",
"          }+T |+1+2+    . 3+4+. . . . . . 5+6+7+8+9+c.0+a+b+c+d+            ",
"          . e+f+g+;+.   h+i+j+k+. l+m+n+o+p+q+r+s+t+u+v+w+[ [ x+            ",
"            y+z+A+B+C+  D+E+F+G+. H+I+9.J+K+L+M+N+O+P+Q+R+[ [ x+            ",
"            S+T+U+V+W+. X+Y+Z+`+.  @9..@+@@@#@$@%@&@*@=@-@;@[ x+            ",
"              >@,@'@)@!@~@{@9.]@^@/@9.(@_@:@<@[@T T }@|@1@[ [ x+            ",
"              . 2@3@K.K.. 4@5@6@7@8@9.(@9@:@0@_@T a@b@c@d@[ [ x+            ",
"            # e@f@g@h@i@. j@k@l@m@n@o@p@q@:@r@s@T t@u@v@w@x@y@z@            ",
"            A@B@P N C@D@E@F@G@H@I@J@. K@L@:@M@N@T T T O@P@T T Q@            ",
"            . R@S@T@U@V@W@X@Y@Z@`@ #.#+#@#:@##$#T %#&#*#=#-#;#[+            ",
"              >#,#'#)#!#~#{#]#^#/#/#(#u _#:@:#<#[#}#1 |#1#T 2#.             ",
"                  . 3#T 4#5#6#7#8#9#[ [ _#0#a#_#b#;@c#d#T ^+e#              ",
"                    f#g#h#i#. j#k#l#l#l#m#n#o#p#[ [ q#T T r#.               ",
"                      . . s#. . q t#t#t#t#. u#v#w#[ x#W.y#.                 ",
"                          . . .         . . . z#A#B#C#:+.                   ",
"                          . .           . . . . D#E#F#.                     ",
"                          .             . . . . G#h@.                       ",
"                        . .                       .                         ",
"                                                                            ",
"                                                                            ",
"                                                                            ",
"                                                                            "};
