/* XPM */
static char * player_idle_right00_xpm[] = {
"38 40 457 2",
"  	c None",
". 	c #5D3039",
"+ 	c #7D3C42",
"@ 	c #422633",
"# 	c #161C2E",
"$ 	c #6A353D",
"% 	c #B5635B",
"& 	c #916055",
"* 	c #8D5E54",
"= 	c #4A2B3B",
"- 	c #9D4A4C",
"; 	c #B85E59",
"> 	c #C07666",
", 	c #C4816D",
"' 	c #BD6D61",
") 	c #C37D6A",
"! 	c #A2665A",
"~ 	c #784645",
"{ 	c #522B37",
"] 	c #994A51",
"^ 	c #B65555",
"/ 	c #BF7465",
"( 	c #C5836E",
"_ 	c #C4806C",
": 	c #C17968",
"< 	c #C4826D",
"[ 	c #8B4D4B",
"} 	c #302438",
"| 	c #793E51",
"1 	c #AA5156",
"2 	c #BA635C",
"3 	c #C4836E",
"4 	c #BF7365",
"5 	c #B97464",
"6 	c #4D353A",
"7 	c #34253A",
"8 	c #8B4658",
"9 	c #B45454",
"0 	c #874045",
"a 	c #291F30",
"b 	c #533A3C",
"c 	c #9F6A5C",
"d 	c #B57464",
"e 	c #9C6057",
"f 	c #985852",
"g 	c #402A41",
"h 	c #A85056",
"i 	c #AF5254",
"j 	c #6A3B52",
"k 	c #5D3753",
"l 	c #593550",
"m 	c #262034",
"n 	c #1B1E2F",
"o 	c #966256",
"p 	c #965E55",
"q 	c #996659",
"r 	c #B97263",
"s 	c #2A2030",
"t 	c #1B1D2F",
"u 	c #683C58",
"v 	c #8F4859",
"w 	c #693D5B",
"x 	c #54334D",
"y 	c #1E1D2F",
"z 	c #A65A55",
"A 	c #BE7666",
"B 	c #644342",
"C 	c #A25B5E",
"D 	c #282031",
"E 	c #55334E",
"F 	c #5F3854",
"G 	c #50314B",
"H 	c #282134",
"I 	c #6D3848",
"J 	c #9E4C53",
"K 	c #81404E",
"L 	c #894556",
"M 	c #38273C",
"N 	c #743940",
"O 	c #7E3F4E",
"P 	c #8F454C",
"Q 	c #5F313D",
"R 	c #2A2833",
"S 	c #554745",
"T 	c #191D2F",
"U 	c #6A384A",
"V 	c #2D2133",
"W 	c #663543",
"X 	c #393236",
"Y 	c #2E2C33",
"Z 	c #443C3A",
"` 	c #C2AE98",
" .	c #C2B0A2",
"..	c #90898F",
"+.	c #958B93",
"@.	c #86868A",
"#.	c #E0D9CF",
"$.	c #DCD4CB",
"%.	c #6E6F74",
"&.	c #D5B583",
"*.	c #181D2E",
"=.	c #5D4D49",
"-.	c #6B6C70",
";.	c #CEBFA3",
">.	c #F9F3E2",
",.	c #F0E5D8",
"'.	c #EFE5D8",
").	c #E9DABA",
"!.	c #D1C19B",
"~.	c #968667",
"{.	c #453D3B",
"].	c #E9DDD0",
"^.	c #877358",
"/.	c #977B6B",
"(.	c #CDB386",
"_.	c #EDDEA8",
":.	c #EFE1AB",
"<.	c #F0E3B2",
"[.	c #F0E4B5",
"}.	c #F7F0DA",
"|.	c #F7F1DA",
"1.	c #F3E9C8",
"2.	c #DDC393",
"3.	c #AF966F",
"4.	c #1A1E2F",
"5.	c #C4A87E",
"6.	c #F2E9DF",
"7.	c #EEEDE3",
"8.	c #796359",
"9.	c #A0846E",
"0.	c #D1B181",
"a.	c #E2CD99",
"b.	c #F3E9C5",
"c.	c #F4ECCC",
"d.	c #F6EED3",
"e.	c #FBF8ED",
"f.	c #E2E2E2",
"g.	c #F1E6C4",
"h.	c #E4D09B",
"i.	c #5D5145",
"j.	c #927E60",
"k.	c #DBD7CF",
"l.	c #FFFFFF",
"m.	c #E4DEB5",
"n.	c #927768",
"o.	c #A58870",
"p.	c #DDC390",
"q.	c #E6D39F",
"r.	c #F4EBCC",
"s.	c #454243",
"t.	c #CBB284",
"u.	c #A69672",
"v.	c #DAC6A4",
"w.	c #FAF8E9",
"x.	c #E9DAC7",
"y.	c #E1DAA3",
"z.	c #463B3E",
"A.	c #866D60",
"B.	c #BFA17A",
"C.	c #EAD9A4",
"D.	c #EEDFA9",
"E.	c #F6EED4",
"F.	c #3B3D47",
"G.	c #917C5E",
"H.	c #ECDEC6",
"I.	c #B7AB85",
"J.	c #383336",
"K.	c #F4EEE2",
"L.	c #F2ECD6",
"M.	c #DEC89A",
"N.	c #D0BE8C",
"O.	c #5D4D4A",
"P.	c #C6A77D",
"Q.	c #EADAA4",
"R.	c #F3E9C4",
"S.	c #F9F3E1",
"T.	c #3A3B42",
"U.	c #5E5145",
"V.	c #D3B786",
"W.	c #EDE3C9",
"X.	c #564B41",
"Y.	c #8B8869",
"Z.	c #F5F1D8",
"`.	c #DBC18E",
" +	c #DDC692",
".+	c #5C4F44",
"++	c #5A4E43",
"@+	c #393436",
"#+	c #CBAC7F",
"$+	c #F1E5B8",
"%+	c #E9E8E5",
"&+	c #2E313D",
"*+	c #947E5F",
"=+	c #B1A781",
"-+	c #D6D09C",
";+	c #E6D9A1",
">+	c #AC926C",
",+	c #B39870",
"'+	c #7F6D54",
")+	c #5C4D49",
"!+	c #9F826E",
"~+	c #C5A77D",
"{+	c #BEA276",
"]+	c #83765D",
"^+	c #333337",
"/+	c #484541",
"(+	c #3E3C3C",
"_+	c #8E8B6B",
":+	c #E7E0A8",
"<+	c #D2B281",
"[+	c #544940",
"}+	c #492835",
"|+	c #584C42",
"1+	c #C4A679",
"2+	c #806D55",
"3+	c #886F62",
"4+	c #AD9073",
"5+	c #E3CE9A",
"6+	c #D5C798",
"7+	c #B2A882",
"8+	c #8E866A",
"9+	c #928D7F",
"0+	c #262937",
"a+	c #7A6852",
"b+	c #D9CAA9",
"c+	c #ADA37E",
"d+	c #343638",
"e+	c #D4CE9B",
"f+	c #858266",
"g+	c #AA916B",
"h+	c #9B494C",
"i+	c #775248",
"j+	c #C5A87A",
"k+	c #9F8865",
"l+	c #544645",
"m+	c #9C806D",
"n+	c #9F836E",
"o+	c #C9AA7E",
"p+	c #D7B987",
"q+	c #F0E4B4",
"r+	c #FCFAF4",
"s+	c #B4B4B6",
"t+	c #BDA175",
"u+	c #F4ECD3",
"v+	c #D5C899",
"w+	c #898568",
"x+	c #DDD3A0",
"y+	c #998264",
"z+	c #D0B180",
"A+	c #5F5245",
"B+	c #9E4A4D",
"C+	c #8F5854",
"D+	c #A0836D",
"E+	c #BA9C77",
"F+	c #937D5E",
"G+	c #5D5144",
"H+	c #8C7264",
"I+	c #CBAC7E",
"J+	c #E1C996",
"K+	c #F0E3B1",
"L+	c #BBBBBB",
"M+	c #6D5E4C",
"N+	c #E4D1AB",
"O+	c #F2E7C1",
"P+	c #C3B186",
"Q+	c #CCBF8E",
"R+	c #A29676",
"S+	c #B2986F",
"T+	c #B2976F",
"U+	c #BE7663",
"V+	c #C0A277",
"W+	c #8D785C",
"X+	c #938566",
"Y+	c #B9A67C",
"Z+	c #CCC291",
"`+	c #ACA77F",
" @	c #5B4E43",
".@	c #D6B785",
"+@	c #F1E4B5",
"@@	c #CEC8B4",
"#@	c #C1B5A4",
"$@	c #ECDCA6",
"%@	c #EDDFAA",
"&@	c #7E7760",
"*@	c #744E49",
"=@	c #A97060",
"-@	c #472834",
";@	c #826F56",
">@	c #C1A97C",
",@	c #72614F",
"'@	c #D1B281",
")@	c #564A41",
"!@	c #BD6B61",
"~@	c #C3836A",
"{@	c #BFA276",
"]@	c #74644F",
"^@	c #776C56",
"/@	c #B29A72",
"(@	c #847057",
"_@	c #B49970",
":@	c #F6EFD6",
"<@	c #F5EDD1",
"[@	c #E5D19D",
"}@	c #C1AD82",
"|@	c #4C363A",
"1@	c #8A4A4A",
"2@	c #8F544F",
"3@	c #71383F",
"4@	c #C1A478",
"5@	c #73634E",
"6@	c #937B63",
"7@	c #BA645C",
"8@	c #CFA280",
"9@	c #ECE5AB",
"0@	c #D4B482",
"a@	c #6D6955",
"b@	c #B6A379",
"c@	c #6A5C4B",
"d@	c #C8BC90",
"e@	c #E7D8A3",
"f@	c #F1E6BB",
"g@	c #C7B88C",
"h@	c #462F43",
"i@	c #694445",
"j@	c #C27C6A",
"k@	c #763A40",
"l@	c #695A4A",
"m@	c #B0966E",
"n@	c #443A3D",
"o@	c #947869",
"p@	c #3D353A",
"q@	c #A46356",
"r@	c #B75756",
"s@	c #C27B6A",
"t@	c #DDC693",
"u@	c #E3D29B",
"v@	c #D7BA87",
"w@	c #D4B483",
"x@	c #736150",
"y@	c #1A1D2F",
"z@	c #432B42",
"A@	c #645748",
"B@	c #A69C79",
"C@	c #9C9473",
"D@	c #483F42",
"E@	c #673C5A",
"F@	c #502F44",
"G@	c #A05652",
"H@	c #B55555",
"I@	c #854045",
"J@	c #352231",
"K@	c #5B4C49",
"L@	c #6D5952",
"M@	c #2E2337",
"N@	c #B99C73",
"O@	c #CDA279",
"P@	c #BE7763",
"Q@	c #B85B58",
"R@	c #D8BC89",
"S@	c #D4B583",
"T@	c #8A735F",
"U@	c #201E2F",
"V@	c #A14E57",
"W@	c #894659",
"X@	c #683C59",
"Y@	c #58354F",
"Z@	c #2C2236",
"`@	c #2B2236",
" #	c #784056",
".#	c #51314B",
"+#	c #292231",
"@#	c #69363D",
"##	c #9F4B50",
"$#	c #834458",
"%#	c #4A2E47",
"&#	c #1B1D30",
"*#	c #974951",
"=#	c #B99D73",
"-#	c #E5D79F",
";#	c #DDC596",
">#	c #CFA67B",
",#	c #984B58",
"'#	c #AB5156",
")#	c #8B4759",
"!#	c #6E3E5B",
"~#	c #56344E",
"{#	c #683B56",
"]#	c #9D4D57",
"^#	c #784055",
"/#	c #2D2237",
"(#	c #7E675C",
"_#	c #927966",
":#	c #6D5C4D",
"<#	c #3F2A40",
"[#	c #603855",
"}#	c #35253B",
"|#	c #8E795C",
"1#	c #E0CC96",
"2#	c #EBE1A8",
"3#	c #C17C69",
"4#	c #C28068",
"5#	c #CEA379",
"6#	c #907762",
"7#	c #A34E57",
"8#	c #A24E57",
"9#	c #8D4759",
"0#	c #944853",
"a#	c #2D2235",
"b#	c #8A7163",
"c#	c #CFB081",
"d#	c #88735B",
"e#	c #3F2940",
"f#	c #492E46",
"g#	c #D5B684",
"h#	c #DEC994",
"i#	c #C4846E",
"j#	c #C07566",
"k#	c #BC6B60",
"l#	c #BE7863",
"m#	c #584C44",
"n#	c #A88F6B",
"o#	c #6B3E5B",
"p#	c #8E4859",
"q#	c #B15355",
"r#	c #B35455",
"s#	c #9C4B52",
"t#	c #412634",
"u#	c #776258",
"v#	c #D2B381",
"w#	c #A08865",
"x#	c #C28268",
"y#	c #BB655D",
"z#	c #473C3F",
"A#	c #8A7360",
"B#	c #181C2F",
"C#	c #412A41",
"D#	c #221F32",
"E#	c #2D2337",
"F#	c #5F4F4B",
"G#	c #7B6954",
"H#	c #6A5B4A",
"I#	c #9A8362",
"J#	c #CCA078",
"K#	c #A44D4F",
"L#	c #4C4041",
"M#	c #623956",
"N#	c #9E8764",
"O#	c #A54D4F",
"P#	c #554242",
"Q#	c #4B3F41",
"R#	c #171C2E",
"S#	c #9E8664",
"T#	c #A34D4E",
"U#	c #6B504C",
"V#	c #372332",
"W#	c #574846",
"X#	c #202130",
"                                                                            ",
"                      . + @                                                 ",
"                  # # $ % & * # #                                           ",
"                # = - ; > , ' ) ! ~                                         ",
"              # { ] ^ / ( _ : : ( < [                                       ",
"              } | 1 ^ 2 3 ( ( 4 4 ( 5 6                                     ",
"              7 8 9 0 a # b c ( d e ( f a                                   ",
"              g h i j k l m n o _ p q r s                                   ",
"              t u h v w w x # y z A B C D                                   ",
"                7 E F F G H   # I J K L M                                   ",
"                  # # # #     # N O P Q                                     ",
"                          R S T U V W X Y                                   ",
"                        Z `  ...+.@.@.#.$.%.#                         &.&.  ",
"                      *.=.-.;.>.>.,.'.).!.~.{.                      &.].^.  ",
"                    # R /.(._.:.<.[.}.|.1.2.3.4.                  5.6.7.#   ",
"                    # 8.9.0.a.:.b.c.d.e.f.g.h.i.                j.k.l.m.#   ",
"                    # n.o.&.p.q.:.:.:.r.s.t._.u.#               v.w.x.y.#   ",
"                  # z.A.B.&.&.p.C.D.E.l.F.G.H.I.J.            # K.L.M.N.#   ",
"                  # O./.P.&.&.&.&.Q.R.S.T.U.V.W.X.            Y.Z.`. +.+    ",
"      # ++@+      # O./.#+&.&.&.&.D.$+%+&+# *+=+#           # -+;+&.>+#     ",
"      # ++,+'+    # # )+!+~+{+]+^+# # # # # # /+(+          _+:+&.<+[+      ",
"      # }+|+1+2+# # # 3+4+&.&.5+6+7+8+9+0+# a+b+c+#       d+e+f+&.g+#       ",
"      # h+h+i+j+k+# # l+m+n+o+&.p+D.q+r+s+# t+u+v+#       w+x+y+z+A+        ",
"      # B+^ ^ C+D+E+F+G+)+H+I+&.&.J+:.K+L+M+N+O+P+# #   # Q+R+S+T+#         ",
"      # B+^ ^ U+V+W+X+Y+Z+`+ @&.&..@:.+@@@#@$@%@&@*@=@-@;@>@,@'@)@          ",
"      # B+^ !@~@&.0.{@]@^@/@*.(@_@.@:.:.:@<@[@}@|@1@2@3@4@5@6@g+#           ",
"      # B+^ 7@8@9@ +&.0@a@b@# # # c@d@e@<@f@g@h@i@j@k@l@m@n@o@p@            ",
"      # q@^ r@s@t@u@v@w@x@m@y@l z@y@# A@B@C@D@E@F@G@H@I@J@K@L@M@#           ",
"      # N@O@P@Q@t@ +R@S@T@m@U@V@W@X@Y@Z@# `@ #V@.#+#@###$#%#&#x *##         ",
"      # =#&.-#;#>#&.&.&.o.m@&#,#^ '#)#!#~#{#]#^#/#(#_#:#<#[#E }##           ",
"      # |#&.1#2#3#4#5#w@6#m@U@7#^ ^ ^ 8#9#]#0#a## b#c#z+d#y@e#f##           ",
"        U.z+g#h#i#j#k#l#m#n#&#o#p#q#r#r#r#s#t## # u#P.w@v## # #             ",
"        # w#&.&.x#y#^ H@z#A#B#z@z@z@z@z@C## #   D#E#F#G#H##                 ",
"          # I#&.J#^ ^ K#8.L## # # # # # #       E#M#B##                     ",
"            *.N#w@^ O#P#Q## # #     # # #       # R##                       ",
"              # S#T#U#R #   # # #   # # #                                   ",
"                # V#W#X#  # # # #   # # #                                   ",
"                  # #                                                       ",
"                                                                            ",
"                                                                            "};
