/* XPM */
static char * player_idle_right01_xpm[] = {
"38 40 457 2",
"  	c None",
". 	c #5A2F39",
"+ 	c #161C2E",
"@ 	c #5C4040",
"# 	c #543B3D",
"$ 	c #864045",
"% 	c #995852",
"& 	c #AC7262",
"* 	c #C17868",
"= 	c #C27C6A",
"- 	c #C5836E",
"; 	c #C07E6B",
"> 	c #A86259",
", 	c #614140",
"' 	c #8E4849",
") 	c #BE6F63",
"! 	c #C4816D",
"~ 	c #BF7365",
"{ 	c #C07566",
"] 	c #BE7063",
"^ 	c #C17B69",
"/ 	c #C2816D",
"( 	c #975D54",
"_ 	c #1D1D2F",
": 	c #6B353D",
"< 	c #B65555",
"[ 	c #C17968",
"} 	c #B07564",
"| 	c #744E49",
"1 	c #80564E",
"2 	c #BD7B69",
"3 	c #8F4D4B",
"4 	c #1F1D2F",
"5 	c #2C2236",
"6 	c #9C4B52",
"7 	c #BA655D",
"8 	c #B37665",
"9 	c #624342",
"0 	c #634342",
"a 	c #9F6A5C",
"b 	c #BD7E6A",
"c 	c #995F55",
"d 	c #865554",
"e 	c #B25657",
"f 	c #8F4448",
"g 	c #AA5052",
"h 	c #98484A",
"i 	c #272232",
"j 	c #3F2940",
"k 	c #4D3049",
"l 	c #1E1E31",
"m 	c #282331",
"n 	c #68373D",
"o 	c #B25354",
"p 	c #96474A",
"q 	c #9C4A4C",
"r 	c #60313A",
"s 	c #3E2940",
"t 	c #7B4158",
"u 	c #693540",
"v 	c #5D3753",
"w 	c #693D5B",
"x 	c #422B42",
"y 	c #924549",
"z 	c #81404E",
"A 	c #8C444D",
"B 	c #69343C",
"C 	c #D5B583",
"D 	c #8B4655",
"E 	c #994A56",
"F 	c #6C3E5A",
"G 	c #402A41",
"H 	c #504343",
"I 	c #745F56",
"J 	c #2C2834",
"K 	c #67394F",
"L 	c #372436",
"M 	c #4C2C3E",
"N 	c #74634F",
"O 	c #DEC6A4",
"P 	c #CFC4B7",
"Q 	c #3A273D",
"R 	c #683C5A",
"S 	c #8C4759",
"T 	c #6C3D59",
"U 	c #653B58",
"V 	c #492E46",
"W 	c #1C1F2F",
"X 	c #C9B8A4",
"Y 	c #DED0C1",
"Z 	c #C2BEC1",
"` 	c #C5BFC3",
" .	c #BCBCBE",
"..	c #E6E5E4",
"+.	c #F3EEE8",
"@.	c #8C8C8E",
"#.	c #DDC4A1",
"$.	c #FCFBF9",
"%.	c #B1AF9F",
"&.	c #33253A",
"*.	c #412A41",
"=.	c #312438",
"-.	c #7A6459",
";.	c #6C5E4F",
">.	c #BFAE84",
",.	c #F4EACA",
"'.	c #F4ECCC",
").	c #EDDFC3",
"!.	c #EBDCC0",
"~.	c #E8D7AD",
"{.	c #DCCB9A",
"].	c #BEAC81",
"^.	c #867258",
"/.	c #787569",
"(.	c #FBF9F6",
"_.	c #FAF8EA",
":.	c #AAA57E",
"<.	c #41373C",
"[.	c #947969",
"}.	c #C0A27B",
"|.	c #E6D29D",
"1.	c #EFE1AB",
"2.	c #F3E9C6",
"3.	c #F6EFD5",
"4.	c #FCFAF3",
"5.	c #FDFBF4",
"6.	c #FAF6E9",
"7.	c #E7D5B3",
"8.	c #CEB384",
"9.	c #4F453E",
"0.	c #E6DEC0",
"a.	c #FBF8F5",
"b.	c #E6D8AE",
"c.	c #987C6B",
"d.	c #DFC693",
"e.	c #EFE2AD",
"f.	c #F8F2DE",
"g.	c #C8C7C4",
"h.	c #EADCBA",
"i.	c #ECDDA7",
"j.	c #948364",
"k.	c #A39B92",
"l.	c #F7F4E0",
"m.	c #EADDCB",
"n.	c #DAC18D",
"o.	c #A39E79",
"p.	c #343035",
"q.	c #473F3B",
"r.	c #7C655B",
"s.	c #A2866F",
"t.	c #D8BA88",
"u.	c #E1CB97",
"v.	c #EFE1AC",
"w.	c #F7F0D8",
"x.	c #7C7A75",
"y.	c #B0966F",
"z.	c #ECDDB6",
"A.	c #BDB18D",
"B.	c #D4D1B9",
"C.	c #EBE1B4",
"D.	c #BEAE81",
"E.	c #443D3A",
"F.	c #B0966E",
"G.	c #40373C",
"H.	c #917667",
"I.	c #B99B78",
"J.	c #D7B886",
"K.	c #DFC794",
"L.	c #E8D5A1",
"M.	c #FFFFFF",
"N.	c #7F8084",
"O.	c #50463F",
"P.	c #DEC69B",
"Q.	c #D3C497",
"R.	c #72624E",
"S.	c #7B785F",
"T.	c #EBE4AB",
"U.	c #DCC38F",
"V.	c #675949",
"W.	c #332231",
"X.	c #5A4E43",
"Y.	c #CAAC7D",
"Z.	c #7B6952",
"`.	c #443A3D",
" +	c #977B6B",
".+	c #C7A87D",
"++	c #EAD8A3",
"@+	c #EFE1AD",
"#+	c #F7F0DA",
"$+	c #7C7A73",
"%+	c #2A2932",
"&+	c #C1A478",
"*+	c #F0E5CA",
"=+	c #30323A",
"-+	c #272A33",
";+	c #CDC796",
">+	c #DDCC97",
",+	c #B39870",
"'+	c #884145",
")+	c #904448",
"!+	c #735248",
"~+	c #C4A679",
"{+	c #907B5D",
"]+	c #2D2B33",
"^+	c #3B3339",
"/+	c #80695D",
"(+	c #B69976",
"_+	c #C8A97E",
":+	c #CBAC7D",
"<+	c #B59A71",
"[+	c #C7B88C",
"}+	c #CCC095",
"|+	c #CBC9C5",
"1+	c #494A52",
"2+	c #635647",
"3+	c #867D63",
"4+	c #1F2330",
"5+	c #78765D",
"6+	c #D8D29E",
"7+	c #9B8665",
"8+	c #D2B381",
"9+	c #6C5D4B",
"0+	c #8C4347",
"a+	c #976158",
"b+	c #987D69",
"c+	c #B19473",
"d+	c #8E795C",
"e+	c #6E5B53",
"f+	c #D1B181",
"g+	c #D1B281",
"h+	c #C4B388",
"i+	c #726C59",
"j+	c #7F7961",
"k+	c #D0CA98",
"l+	c #AFA480",
"m+	c #B69B72",
"n+	c #B9635A",
"o+	c #C4A277",
"p+	c #9E8765",
"q+	c #A08B69",
"r+	c #CDB888",
"s+	c #B4A87E",
"t+	c #A9A57D",
"u+	c #5C5044",
"v+	c #D8BD8B",
"w+	c #E7D4A0",
"x+	c #DDCF9E",
"y+	c #BBB088",
"z+	c #C0BAA7",
"A+	c #78797D",
"B+	c #7A6952",
"C+	c #E4D1AB",
"D+	c #D3C799",
"E+	c #71614D",
"F+	c #E0D8A3",
"G+	c #7D6857",
"H+	c #CFB07F",
"I+	c #6B5C4B",
"J+	c #BC695F",
"K+	c #BE7363",
"L+	c #C9AB7C",
"M+	c #6D5D4B",
"N+	c #7F7B61",
"O+	c #C9B384",
"P+	c #CFB080",
"Q+	c #E6D39E",
"R+	c #F7F1DB",
"S+	c #CECDCA",
"T+	c #252631",
"U+	c #C0A885",
"V+	c #F5EDDA",
"W+	c #E9DBA8",
"X+	c #9E6A5B",
"Y+	c #905A52",
"Z+	c #B99D73",
"`+	c #8B7E61",
" @	c #AB916C",
".@	c #B49970",
"+@	c #B9615B",
"@@	c #C88E74",
"#@	c #EBE2A9",
"$@	c #D2B382",
"%@	c #463F3C",
"&@	c #CDBC8B",
"*@	c #DABE8B",
"=@	c #EEE0AA",
"-@	c #F1E4B6",
";@	c #CDCBC7",
">@	c #3A3537",
",@	c #E1CA98",
"'@	c #F0E3B0",
")@	c #C3B084",
"!@	c #814D4A",
"~@	c #7C4144",
"{@	c #9D5853",
"]@	c #6F5F4C",
"^@	c #BFA276",
"/@	c #332E36",
"(@	c #C2A47B",
"_@	c #655748",
":@	c #90524C",
"<@	c #DDC594",
"[@	c #E3D39C",
"}@	c #D7B987",
"|@	c #534841",
"1@	c #C3A679",
"2@	c #C7A97B",
"3@	c #EEDFA9",
"4@	c #E4DCC0",
"5@	c #DDD7D0",
"6@	c #EBDBA6",
"7@	c #EDDEA9",
"8@	c #79735D",
"9@	c #A1695B",
"0@	c #AF675C",
"a@	c #402633",
"b@	c #A38A67",
"c@	c #7E6C54",
"d@	c #786258",
"e@	c #7E675C",
"f@	c #A38966",
"g@	c #CB9B75",
"h@	c #BC6F60",
"i@	c #B85D59",
"j@	c #D6B78A",
"k@	c #E0CD97",
"l@	c #DCC490",
"m@	c #796557",
"n@	c #52473F",
"o@	c #7F6D54",
"p@	c #BEA276",
"q@	c #F6EED2",
"r@	c #E7D39F",
"s@	c #A99570",
"t@	c #422C41",
"u@	c #64373D",
"v@	c #B35B57",
"w@	c #AA5051",
"x@	c #65333B",
"y@	c #7C665B",
"z@	c #524245",
"A@	c #211F32",
"B@	c #A48C68",
"C@	c #E0CC97",
"D@	c #DEC797",
"E@	c #D0A97D",
"F@	c #9C806C",
"G@	c #1C1D30",
"H@	c #282832",
"I@	c #888066",
"J@	c #CFBE8F",
"K@	c #EBDDAB",
"L@	c #EEE0AD",
"M@	c #BBB087",
"N@	c #56364D",
"O@	c #5F3853",
"P@	c #302438",
"Q@	c #362733",
"R@	c #8A4246",
"S@	c #A04D56",
"T@	c #673A52",
"U@	c #3B283E",
"V@	c #2D2337",
"W@	c #773F55",
"X@	c #7F3D43",
"Y@	c #7D6B53",
"Z@	c #E9DEA6",
"`@	c #C89377",
" #	c #C3856A",
".#	c #8C7362",
"+#	c #8A4656",
"@#	c #60364D",
"##	c #3E293F",
"$#	c #292135",
"%#	c #656151",
"&#	c #736D59",
"*#	c #37263C",
"=#	c #864457",
"-#	c #703B4E",
";#	c #927768",
">#	c #8B745F",
",#	c #493D3E",
"'#	c #51314B",
")#	c #623A56",
"!#	c #2B2236",
"~#	c #48403C",
"{#	c #D8BB88",
"]#	c #CC997A",
"^#	c #C17867",
"/#	c #BC6B60",
"(#	c #C18168",
"_#	c #544441",
":#	c #BA9E75",
"<#	c #A74F54",
"[#	c #AF5256",
"}#	c #944958",
"|#	c #663B57",
"1#	c #50314A",
"2#	c #252033",
"3#	c #35263B",
"4#	c #864557",
"5#	c #954A58",
"6#	c #402A40",
"7#	c #4F4242",
"8#	c #AE9173",
"9#	c #BDA175",
"0#	c #584B45",
"a#	c #4C2F48",
"b#	c #322439",
"c#	c #9D8664",
"d#	c #D4B583",
"e#	c #C58D6E",
"f#	c #BD6C61",
"g#	c #B65655",
"h#	c #3C2633",
"i#	c #9B8169",
"j#	c #AD5154",
"k#	c #B35455",
"l#	c #8F4859",
"m#	c #6E3E5A",
"n#	c #844459",
"o#	c #974A58",
"p#	c #6E3742",
"q#	c #9F846C",
"r#	c #D2B282",
"s#	c #A48B68",
"t#	c #A08865",
"u#	c #CEA479",
"v#	c #B75856",
"w#	c #B05253",
"x#	c #705751",
"y#	c #6B5851",
"z#	c #693D5A",
"A#	c #914958",
"B#	c #A85056",
"C#	c #A44E52",
"D#	c #6E3843",
"E#	c #2F2338",
"F#	c #44383E",
"G#	c #63524C",
"H#	c #877358",
"I#	c #3D3738",
"J#	c #9A8362",
"K#	c #B05353",
"L#	c #6C4244",
"M#	c #61504C",
"N#	c #272034",
"O#	c #4F3049",
"P#	c #181D2E",
"Q#	c #9E8764",
"R#	c #B56059",
"S#	c #693F42",
"T#	c #3C353A",
"U#	c #171C2E",
"V#	c #4B2935",
"W#	c #60504B",
"X#	c #383238",
"                                                                            ",
"                                                                            ",
"                                                                            ",
"                                                                            ",
"                                                                            ",
"                                                                            ",
"              . + @ @ @ # +                                                 ",
"          + $ % & * = - ; > , +                                             ",
"          + ' ) ! ~ { ] ^ / / ( _                                           ",
"        + : < [ - - - - } | 1 2 3 4                                         ",
"        5 6 < 7 8 1 9 0 a b c d e f +                                       ",
"        + g < h i j k l + m n o p q r                                       ",
"        s t < u v w w x + + + y z A B                                 C     ",
"        + D < E F w w G H I J K L M N N +                           O P     ",
"          Q R S T U V W X Y Z `  . ...+.@.+                       #.$.%.    ",
"          + &.*.=.+ + -.;.>.,.'.).!.~.{.].^.                    /.(._.:.    ",
"                  + <.[.}.|.1.2.3.4.5.6.7.8.9.                C 0.a.b.:.    ",
"                  + I c.C d.1.1.1.e.f.g.h.i.j.                k.l.m.n.o.    ",
"      p.q.        + r.s.C t.u.1.1.v.w.x.y.z.A.+             + B.C.C D.+     ",
"      E.F.N     + G.H.I.C C J.K.L.3.M.N.O.P.Q.R.            S.T.U.C V.      ",
"      W.X.Y.Z.+ + `. +.+C C C C ++@+#+$+%+&+*+=+          -+;+>+C ,++       ",
"      '+)+!+~+{+]+^+/+(+_+:+<+<+[+}+|+1++ 2+3+4+          5+6+7+8+9+        ",
"      0+< o a+b+c+d++ e+f+g+h+i++ + + + + + i+j++       + k+l+&+m++         ",
"      0+< < n+o+p+q+r+s+t+u+v+w+x+y+z+A++ B+C+D++       E+F+G+H+I+          ",
"      0+< J+K+C L+,+M+N+O++ P+C Q+v.R+S+T+U+V+W++ X+Y++ Z+`+ @.@+           ",
"      0+< +@@@#@U.C $@%@&@+ P+C *@=@-@;@>@,@'@)@!@~@{@]@^@/@(@_@            ",
"      :@< < [ <@[@}@C |@1@+ 2@C C 3@1.4@5@6@7@8@9@0@a@b@c@d@e@+             ",
"      f@g@h@i@j@k@l@C m@1@+ n@o@p@3@1.w.q@r@s@t@u@v@w@x@+ y@z@A@+           ",
"      B@C C@D@E@C C C F@1@+ G@+ H@I@J@K@L@M@N@O@P@Q@R@S@T@U@V@W@X@          ",
"      Y@C k@Z@`@ #E@C .#1@+ +#@###$#+ %#&#*#=#-#G.;#>#,#'#)#G !#+           ",
"      ~#:+{#k@]#^#/#(#_#:#+ <#[#}#|#1#2#3#4#5#6#7#8#C 9#0#$#a#b#            ",
"      + c#d#C e#f#g#< h#i#+ j#< < k#l#m#n#o#p#+ ^+q#r#C s#+ + +             ",
"        + t#C u#v#< w#x#y#G z#A#B#B#B#B#C#D#+ + E#F#G#H#I#                  ",
"          + J#C n+K#L#M#+ V@b#b#b#b#b#b#N#+ + + a#O#+ +                     ",
"            P#Q#R#S#T#+ + + + + + + + + + + + + + U#                        ",
"              + V#W#X#  + + +         + + + + +                             ",
"                + +     + + + +                                             ",
"                                                                            ",
"                                                                            ",
"                                                                            "};
