/* XPM */
static char * player_idle_right00_xpm[] = {
"80 80 10 1",
" 	c None",
".	c #161C2E",
"+	c #B65555",
"@	c #C5836E",
"#	c #693D5B",
"$	c #977B6B",
"%	c #D5B583",
"&	c #FFFFFF",
"*	c #EFE1AB",
"=	c #EDE6AC",
"                                                                                ",
"                                                                                ",
"                                                                                ",
"                                                                                ",
"                                                                                ",
"                                                                                ",
"                                                                                ",
"                                                                                ",
"                                                                                ",
"                                                                                ",
"                       ....                                                     ",
"                    ....+......                                                 ",
"                   ....++@@@@...                                                ",
"                  ...++++@@++@@++.                                              ",
"                  .##++@@@@++@@@@..                                             ",
"                 ..++++@@@@@@+@@@++.                                            ",
"                ...++++@@@@@@++@@@+.                                            ",
"                ..#++++....@@@@.@@@..                                           ",
"                ..#++.......@@@+.@@+.                                           ",
"                ..+++####....@@@@.@@..                                          ",
"                ..#++#####....+@@..@..                                          ",
"                 .#++######....+@..#..                                          ",
"                 ..#######.....#+.++#.                                          ",
"                  .........  ..++..#.                                           ",
"                   .......   ..++.+..                                           ",
"                          .....+..+...                                          ",
"                        ..$$$.#....%%...                    %%                  ",
"                       ..%%%$.#....&&&..                   %%%                  ",
"                      .....%%&&&&&&%%....                 %%&.                  ",
"                      ..$...****%%%***%%..               %%&&.                  ",
"                     ...$$%******&&&&*%%..              .%&&=.                  ",
"                     ..$$$%%***&&&&&&&**%.             ..&&&=.                  ",
"                     ..$$%%%********..***%.            .=&&==.                  ",
"                     ..$$%%%*******&..%**%.           %%=&&==.                  ",
"                    ...$$%%%%******&..%%&*..         ..&=&%%=.                  ",
"                    ..$$$%%%%%%***&&...%**..         ..&=%%%=.                  ",
"                    ..$$$%%%%%%%****...%%&..         .===%%..                   ",
"            ..     ...$$%%%%%%%%***&....%*..        ..==%%%..                   ",
"           ..%..   ...$$$%%%%%%%***&........        .==%%%%.                    ",
"           ..%..   .....$$$%................        .==%%%..                    ",
"           ...%%..  ...$$%%%%**...........*..      .==.%%..                     ",
"           ....%%.. ...$$%%%%****.......%%*..     ..=..%%..                     ",
"           .++..%%.....$$$$$%%%%***&&...%***.     ..=.%%%.                      ",
"           .++++.%%.....$$$%%%%%***&&...%&**.     .==.%%..                      ",
"           .+++++$$%%%...$$%%%%%%***&..%**%%...  .%=$%%..                       ",
"           .++++++%%%%%%....%%%%%***&..%***..... .%=$%%..                       ",
"           .++++++%%....===..%%%%****&&***...@@+..%..%%.                        ",
"           .+++@@+%%%%...%%..%%%%***&&&***..+.@+.%%.$%..                        ",
"           .++++@@==%%%%.=%......***&&**%...@+..%%..$..                         ",
"           .+++++@=%%%%%.=%.......******....@@..%%..$..                         ",
"           .+++++@=%%%%%.%%..#.......*...#..++++...$$...                        ",
"           .%++++@%==%%%$%%..###........####.++++....#...                       ",
"           .%%%%++%%%%%%$%%..++####....#++#.....++##..#+.                       ",
"           .%%%%=@%%%%%%$%%..++++###..##++#..$...####....                       ",
"           .%%%===+%%%%%$%%..#+++++####+##..$$%%....###.                        ",
"           ..%%%==@@++%%.%%..++++++++++#....$$%%%%.....                         ",
"            .%%%%=@@@@+%.%%..##+++++++++....$$%%%%.....                         ",
"            ..%%%%+@@+++.$%..#########.... ...$$%%..                            ",
"            ..%%%%%+++++.$$.............. ..........                            ",
"              ..%%%+++++.$............    ..##....                              ",
"              ..%%%++++.$......    ...    ..##.                                 ",
"                ..%+++.$.. ....   ....     ...                                  ",
"                ..%++....   ...   ...                                           ",
"                  .+.$$.   ....  .....                                          ",
"                  ...$.   .....  .....                                          ",
"                   ...                                                          ",
"                    .                                                           ",
"                                                                                ",
"                                                                                ",
"                                                                                ",
"                                                                                ",
"                                                                                ",
"                                                                                ",
"                                                                                ",
"                                                                                ",
"                                                                                ",
"                                                                                ",
"                                                                                ",
"                                                                                ",
"                                                                                "};
