/* XPM */
static char * enemy_move_right00_xpm[] = {
"40 33 517 2",
"  	c None",
". 	c #F7C8AE",
"+ 	c #DCB29C",
"@ 	c #C29E8B",
"# 	c #F1C4AB",
"$ 	c #4D4143",
"% 	c #261E2F",
"& 	c #4D2735",
"* 	c #271E2F",
"= 	c #342131",
"- 	c #FACBB1",
"; 	c #D0A994",
"> 	c #161C2E",
", 	c #442533",
"' 	c #462533",
") 	c #A14449",
"! 	c #EA6162",
"~ 	c #A9474C",
"{ 	c #B84D51",
"] 	c #5F5931",
"^ 	c #873A42",
"/ 	c #E15D5E",
"( 	c #C15054",
"_ 	c #7D363F",
": 	c #A04349",
"< 	c #65373A",
"[ 	c #1D4D35",
"} 	c #304B35",
"| 	c #F6E87C",
"1 	c #F6E778",
"2 	c #E5D766",
"3 	c #987146",
"4 	c #FFCFB4",
"5 	c #C09C8A",
"6 	c #412432",
"7 	c #622D39",
"8 	c #332131",
"9 	c #672F3A",
"0 	c #DF5C5D",
"a 	c #F66666",
"b 	c #EC6162",
"c 	c #2F9447",
"d 	c #319A49",
"e 	c #38B251",
"f 	c #80C45B",
"g 	c #48683C",
"h 	c #FAF9F5",
"i 	c #FBF6D7",
"j 	c #F6E98A",
"k 	c #E5BB54",
"l 	c #63524F",
"m 	c #C35154",
"n 	c #DC5B5D",
"o 	c #D3575A",
"p 	c #DB8278",
"q 	c #77615B",
"r 	c #56354A",
"s 	c #C46279",
"t 	c #894455",
"u 	c #20323A",
"v 	c #389655",
"w 	c #35A74D",
"x 	c #297F41",
"y 	c #246B3B",
"z 	c #297D40",
"A 	c #68B755",
"B 	c #80C35B",
"C 	c #33693B",
"D 	c #17282F",
"E 	c #BC9D7E",
"F 	c #DFB056",
"G 	c #EDD14B",
"H 	c #E6BE53",
"I 	c #D9945F",
"J 	c #A2444A",
"K 	c #B24A4F",
"L 	c #984047",
"M 	c #C95356",
"N 	c #F76666",
"O 	c #9E5B58",
"P 	c #BA8E7E",
"Q 	c #2C1F30",
"R 	c #A86080",
"S 	c #191D2F",
"T 	c #365D59",
"U 	c #3D935E",
"V 	c #33A14B",
"W 	c #1B4233",
"X 	c #8D8D90",
"Y 	c #DDDDDE",
"Z 	c #A1A2A4",
"` 	c #44584F",
" .	c #297E41",
"..	c #329E4A",
"+.	c #246A3B",
"@.	c #B8B8B9",
"#.	c #DBD9CE",
"$.	c #D8D8D9",
"%.	c #5B5D62",
"&.	c #EDB99A",
"*.	c #DDAC8F",
"=.	c #B78564",
"-.	c #D8935E",
";.	c #F36465",
">.	c #EE6263",
",.	c #DE5C5D",
"'.	c #925069",
").	c #A14D5E",
"!.	c #BB4E52",
"~.	c #BF4F53",
"{.	c #5F384E",
"].	c #2C4B4B",
"^.	c #417067",
"/.	c #2F544E",
"(.	c #BABABB",
"_.	c #EFE6E2",
":.	c #FCF7F0",
"<.	c #FAF4CB",
"[.	c #D3D3D4",
"}.	c #75767A",
"|.	c #B2A9A6",
"1.	c #E3B79E",
"2.	c #F8EEAC",
"3.	c #FCF9E3",
"4.	c #E7E7E7",
"5.	c #606166",
"6.	c #886F65",
"7.	c #6D5A55",
"8.	c #7C363F",
"9.	c #F16464",
"0.	c #BE4F53",
"a.	c #6C4058",
"b.	c #935571",
"c.	c #F46565",
"d.	c #E86061",
"e.	c #1E2F38",
"f.	c #243B3F",
"g.	c #1E1F34",
"h.	c #64616E",
"i.	c #F1EBE8",
"j.	c #DC9F74",
"k.	c #EED473",
"l.	c #F6E986",
"m.	c #FDFAE8",
"n.	c #F6F6F6",
"o.	c #89898C",
"p.	c #9D9EA0",
"q.	c #EDD4C8",
"r.	c #E4B855",
"s.	c #F4E341",
"t.	c #F4E44A",
"u.	c #FCF7DA",
"v.	c #A4A4A6",
"w.	c #5E4E4C",
"x.	c #79635C",
"y.	c #9C7365",
"z.	c #2F2030",
"A.	c #8C4453",
"B.	c #AB5A73",
"C.	c #9C5A77",
"D.	c #5E394F",
"E.	c #462D41",
"F.	c #793A48",
"G.	c #D9616E",
"H.	c #C85B69",
"I.	c #85465A",
"J.	c #1E1E30",
"K.	c #6C4C89",
"L.	c #6A4A87",
"M.	c #563E70",
"N.	c #7D728C",
"O.	c #FBF6F4",
"P.	c #E2B27A",
"Q.	c #F3E043",
"R.	c #F5E55D",
"S.	c #FEFBF0",
"T.	c #CDCECE",
"U.	c #949497",
"V.	c #F2E2DB",
"W.	c #EFD8A6",
"X.	c #F4E44E",
"Y.	c #FCF8E0",
"Z.	c #DEB49E",
"`.	c #BE9A88",
" +	c #C19C8A",
".+	c #806960",
"++	c #4A393D",
"@+	c #57354B",
"#+	c #AB6282",
"$+	c #8F536F",
"%+	c #56344A",
"&+	c #A7607F",
"*+	c #8B506C",
"=+	c #1A1D2F",
"-+	c #4F3A68",
";+	c #5F447B",
">+	c #6F4D79",
",+	c #845E7F",
"'+	c #EFEBE6",
")+	c #F7EA8F",
"!+	c #F5E66F",
"~+	c #EFEEE4",
"{+	c #717276",
"]+	c #483560",
"^+	c #707075",
"/+	c #D1D2D2",
"(+	c #FDFBED",
"_+	c #FDFBEF",
":+	c #DEDFDF",
"<+	c #4D4F56",
"[+	c #EABEA6",
"}+	c #A68778",
"|+	c #211F31",
"1+	c #804A64",
"2+	c #A96180",
"3+	c #70425A",
"4+	c #8E526E",
"5+	c #9F5B79",
"6+	c #402B3E",
"7+	c #2E8F46",
"8+	c #398D59",
"9+	c #464250",
"0+	c #9B688F",
"a+	c #825879",
"b+	c #7F6B7D",
"c+	c #B7B5AB",
"d+	c #CCCABC",
"e+	c #BDB6B8",
"f+	c #675E75",
"g+	c #674983",
"h+	c #6F4D7F",
"i+	c #6E4B69",
"j+	c #67686D",
"k+	c #4B585B",
"l+	c #2A4748",
"m+	c #966572",
"n+	c #DEA9A0",
"o+	c #8F6B6B",
"p+	c #232331",
"q+	c #3F2A3E",
"r+	c #A15C7B",
"s+	c #422B3F",
"t+	c #2E8E45",
"u+	c #39AF53",
"v+	c #407067",
"w+	c #263F42",
"x+	c #423147",
"y+	c #845A7C",
"z+	c #9C6990",
"A+	c #A06C94",
"B+	c #815995",
"C+	c #533C6C",
"D+	c #2B494A",
"E+	c #23273B",
"F+	c #704D78",
"G+	c #97668C",
"H+	c #9F6B92",
"I+	c #553B55",
"J+	c #2D4C4C",
"K+	c #9D5A78",
"L+	c #CB6379",
"M+	c #8C4E68",
"N+	c #3D2E43",
"O+	c #A06C95",
"P+	c #6C4B7C",
"Q+	c #402E4D",
"R+	c #352639",
"S+	c #2E2336",
"T+	c #2D8D45",
"U+	c #329F4B",
"V+	c #1B2834",
"W+	c #284446",
"X+	c #365D58",
"Y+	c #21353C",
"Z+	c #2D2539",
"`+	c #34293E",
" @	c #303847",
".@	c #375C59",
"+@	c #417168",
"@@	c #3A9B58",
"#@	c #69AC51",
"$@	c #2A2837",
"%@	c #33283D",
"&@	c #171E2F",
"*@	c #1B2934",
"=@	c #182130",
"-@	c #BC5C6F",
";@	c #944F66",
">@	c #533C69",
",@	c #815997",
"'@	c #9D6A97",
")@	c #6E4D8C",
"!@	c #5F4263",
"~@	c #26713D",
"{@	c #23683B",
"]@	c #17262F",
"^@	c #182131",
"/@	c #3A655F",
"(@	c #3E8C61",
"_@	c #38AF51",
":@	c #3D8860",
"<@	c #355C57",
"[@	c #305350",
"}@	c #315451",
"|@	c #38605B",
"1@	c #3E8E60",
"2@	c #92D361",
"3@	c #81B857",
"4@	c #513247",
"5@	c #C35F74",
"6@	c #DF6571",
"7@	c #874E69",
"8@	c #25223B",
"9@	c #573F71",
"0@	c #3A2D50",
"a@	c #3B2D43",
"b@	c #755074",
"c@	c #7F578E",
"d@	c #9B6998",
"e@	c #63467F",
"f@	c #181E30",
"g@	c #161F2E",
"h@	c #284345",
"i@	c #388657",
"j@	c #3C975D",
"k@	c #345B56",
"l@	c #2A4647",
"m@	c #233B3F",
"n@	c #31974A",
"o@	c #39B251",
"p@	c #72C45A",
"q@	c #91D261",
"r@	c #643C53",
"s@	c #BB637E",
"t@	c #C7637A",
"u@	c #6A3F57",
"v@	c #26233C",
"w@	c #775396",
"x@	c #735192",
"y@	c #392C4F",
"z@	c #4D3866",
"A@	c #362B4D",
"B@	c #34294A",
"C@	c #6D4D8B",
"D@	c #212037",
"E@	c #5B3F5A",
"F@	c #7E5576",
"G@	c #573D57",
"H@	c #294039",
"I@	c #2A8141",
"J@	c #398759",
"K@	c #345A56",
"L@	c #215C38",
"M@	c #205A38",
"N@	c #172030",
"O@	c #744E5C",
"P@	c #664554",
"Q@	c #493661",
"R@	c #745292",
"S@	c #54416D",
"T@	c #3E2F55",
"U@	c #24223A",
"V@	c #3C2F53",
"W@	c #553E6E",
"X@	c #24233A",
"Y@	c #553C55",
"Z@	c #A26D95",
"`@	c #75506F",
" #	c #936388",
".#	c #714D6B",
"+#	c #3D6A63",
"@#	c #3B6760",
"##	c #335854",
"$#	c #205837",
"%#	c #87C95D",
"&#	c #88C45B",
"*#	c #32743E",
"=#	c #5B4175",
"-#	c #6F4F8C",
";#	c #52436C",
">#	c #403258",
",#	c #6D4C8A",
"'#	c #684C84",
")#	c #433D5B",
"!#	c #2A2A41",
"~#	c #1A3C32",
"{#	c #2B8643",
"]#	c #5F545E",
"^#	c #443249",
"/#	c #1A3A31",
"(#	c #30554F",
"_#	c #3F6E65",
":#	c #37605A",
"<#	c #1A2733",
"[#	c #634460",
"}#	c #5D415C",
"|#	c #274244",
"1#	c #375F59",
"2#	c #33A04B",
"3#	c #4EB854",
"4#	c #5CBC56",
"5#	c #1A3831",
"6#	c #403057",
"7#	c #745193",
"8#	c #503B69",
"9#	c #684C85",
"0#	c #55446F",
"a#	c #70508E",
"b#	c #574571",
"c#	c #473E5F",
"d#	c #33304A",
"e#	c #327250",
"f#	c #36AD4F",
"g#	c #246C3C",
"h#	c #35A94E",
"i#	c #2C8743",
"j#	c #1F3139",
"k#	c #1C2B36",
"l#	c #3B6660",
"m#	c #7A5376",
"n#	c #21363C",
"o#	c #38A154",
"p#	c #39AC54",
"q#	c #1A3732",
"r#	c #392C41",
"s#	c #4B365B",
"t#	c #322948",
"u#	c #63467E",
"v#	c #5B4675",
"w#	c #725190",
"x#	c #755294",
"y#	c #493F61",
"z#	c #302E46",
"A#	c #171F30",
"B#	c #417567",
"C#	c #27763E",
"D#	c #2A8041",
"E#	c #233A3F",
"F#	c #3E2F53",
"G#	c #8A5E97",
"H#	c #1D2D37",
"I#	c #3A705D",
"J#	c #3E8D61",
"K#	c #366258",
"L#	c #785274",
"M#	c #75518A",
"N#	c #543C63",
"O#	c #5D4277",
"P#	c #644780",
"Q#	c #4B3963",
"R#	c #664B83",
"S#	c #674B83",
"T#	c #453E5D",
"U#	c #191E31",
"V#	c #161D2F",
"W#	c #3F8463",
"X#	c #3AA856",
"Y#	c #349D4D",
"Z#	c #35494B",
"`#	c #583F72",
" $	c #1A2633",
".$	c #765295",
"+$	c #294647",
"@$	c #192331",
"#$	c #202036",
"$$	c #65477A",
"%$	c #A06C97",
"&$	c #745081",
"*$	c #654774",
"=$	c #3B2D49",
"-$	c #2A2440",
";$	c #45345D",
">$	c #36304C",
",$	c #3C3854",
"'$	c #2B2A41",
")$	c #3C2E53",
"!$	c #2E2744",
"~$	c #284445",
"{$	c #26313F",
"]$	c #60447B",
"^$	c #513B6A",
"/$	c #1F1F35",
"($	c #733E52",
"_$	c #874C65",
":$	c #272133",
"<$	c #262236",
"[$	c #624463",
"}$	c #745189",
"|$	c #9F6B99",
"1$	c #7D568A",
"2$	c #8A5E87",
"3$	c #865B86",
"4$	c #62457D",
"5$	c #704E8D",
"6$	c #684984",
"7$	c #62467E",
"8$	c #28233E",
"9$	c #315552",
"0$	c #533348",
"a$	c #DE626D",
"b$	c #CF6477",
"c$	c #482E42",
"d$	c #583E58",
"e$	c #523B64",
"f$	c #895D86",
"g$	c #785284",
"h$	c #3D2F54",
"i$	c #3F3056",
"j$	c #3A2D51",
"k$	c #253E41",
"l$	c #161D2E",
"m$	c #5F3950",
"n$	c #BC637D",
"o$	c #AF6281",
"p$	c #302437",
"q$	c #804B65",
"r$	c #282133",
"                                                                                ",
"                      .         + @                                             ",
"                      # $     % & * =                                           ",
"            - ;     > , , ' > ) ! ~ { >                                 ]       ",
"              > >   ^ / ( / > _ : < [ [ [ } >                       | 1 2 3     ",
"    4 5     6 7 ' 8 9 0 a b > [ c d e e e f g >                     h i j k     ",
"      l > > m n o p q r s t u v e w x y z A B C D   > > >         > E F G H I   ",
"    _ J K L M N / O P Q R S T U V W X Y Z `  ...+.> @.#.$.%.          &.*.=.-.  ",
"  > m ;.>.,.'.).~ K !.~.{.].^./.W (._.:.<.[.}.> > |.1.2.3.4.5.          6.7.    ",
"    8.N 9.0.a.b./ >.c.d.= e.f.g.h.i.j.k.l.m.n.o.p.q.r.s.t.u.v.        w.x.> > y.",
"    z.A.B.C.D.E.F.G.H.I.J.K.L.M.N.O.P.Q.s.R.S.T.U.V.W.s.X.Y.v.      > Z.`. +.+++",
"      @+#+#+$+> %+&+#+*+=+-+;+>+,+@.'+)+s.!+~+{+]+^+/+(+_+:+<+      > [+4 4 }+> ",
"      |+1+#+2+3+> 4+5+6+7+8+].9+0+a+b+c+d+e+f+> g+h+i+j+j+k+l+      > m+n+o+p+> ",
"      > q+r+#+b.> r s+t+e u+v+w+x+y+z+A+A+B+C+D+E+F+G+H+I+J+^.l+    > K+L+M+>   ",
"    N+O+P+Q+R+S+> > T+e e U+V+W+X+Y+Z+`+`+ @.@+@@@#@$@%@> &@*@=@    > -@a ;@>   ",
"    S >@,@'@)@!@> ~@e V {@]@^@/@(@_@:@<@[@}@|@1@e 2@3@>             4@5@6@7@>   ",
"  8@9@0@a@b@c@d@e@f@=@g@> > > h@i@e e j@+@k@l@m@n@o@p@q@x >         r@s@t@u@>   ",
"  v@w@x@y@z@A@B@]+C@K.D@E@F@F@F@G@H@I@J@+@+@+@K@V+L@I@I@M@>       N@> O@P@> >   ",
"  Q@w@R@S@w@w@T@U@V@W@X@Y@Z@`@`@ #A+.#e.+#+@+@+@@###w+> >       =@}@$#%#&#*#g@  ",
"  =#w@-#;#w@w@>#,#'#)#)#!#> ~#T+{#]#^#/#(#_#+@+@+@:#<#[#}#      |#1#2#3#4#e 5#  ",
"  6#7#8#9#w@w@0#a#'#b#c#d#> e#e e f#g#h#i#j#].].].k#l#m# #8@  > > n#o#e e p#q#  ",
"  r#s#t#u#w@a#v#w@w#x#y#z#A#B#u+e e C#D#7+E#T T T @#+@F#G#-+> > > H#I#J#J#K#=@  ",
"  L#M#N#O#w@P#Q#w@R#S#T#U#V#K@W#X#Y#Z#`# $:#+@+@+@+@+@D@.$Q@>     > H#+$+$@$>   ",
"  #$$$%$&$*$=$-$;$>$,$'$)$!$A#~$~${$]$^$].+@+@+@+@+@+@/$M.>       > ($_$:$>     ",
"    <$[$}$|$1$2$3$4$U@> )@5$6$6$6$6$7$8$X++@+@+@+@+@9$> >         0$a$b$c$      ",
"      > Z+d$e$f$g$h$> > !$i$i$i$i$j$> > V+k$k$k$k$k$l$            m$n$o$c$      ",
"            > > > > > > > > >   > >     > > > > > >               p$7@q$r$      ",
"                                > >       > > > >                 > > >         ",
"                                            > > > >                             ",
"                                              > >                               ",
"                                                                                ",
"                                                                                ",
"                                                                                "};
