/* XPM */
static char * enemy_move_right01_xpm[] = {
"40 33 464 2",
"  	c None",
". 	c #76605A",
"+ 	c #FDCDB2",
"@ 	c #D1AA95",
"# 	c #D2AB96",
"$ 	c #9E8073",
"% 	c #161C2E",
"& 	c #EEC1A8",
"* 	c #78625B",
"= 	c #291F2F",
"- 	c #9C4248",
"; 	c #71323C",
"> 	c #823840",
", 	c #B39181",
"' 	c #504345",
") 	c #A04449",
"! 	c #5D2C38",
"~ 	c #CC5557",
"{ 	c #362131",
"] 	c #66363A",
"^ 	c #1F5336",
"/ 	c #345237",
"( 	c #FBCCB2",
"_ 	c #E35E5F",
": 	c #E65F60",
"< 	c #BE4F52",
"[ 	c #1D4B34",
"} 	c #309748",
"| 	c #319B49",
"1 	c #38B251",
"2 	c #7FC55B",
"3 	c #4F723F",
"4 	c #D3AC96",
"5 	c #492634",
"6 	c #C75355",
"7 	c #7D373F",
"8 	c #B14A4E",
"9 	c #6A524F",
"0 	c #622D39",
"a 	c #8D3C43",
"b 	c #203139",
"c 	c #389456",
"d 	c #35A64D",
"e 	c #297E41",
"f 	c #23663A",
"g 	c #27773F",
"h 	c #63B353",
"i 	c #38713E",
"j 	c #182D30",
"k 	c #682F3A",
"l 	c #402432",
"m 	c #7B363F",
"n 	c #873A42",
"o 	c #F76666",
"p 	c #EA6161",
"q 	c #EC6262",
"r 	c #DFAE99",
"s 	c #493E41",
"t 	c #365D58",
"u 	c #3E905F",
"v 	c #33A24C",
"w 	c #1B4233",
"x 	c #8B8C8E",
"y 	c #E1E1E2",
"z 	c #ABABAD",
"A 	c #4D5B56",
"B 	c #27783F",
"C 	c #319C4A",
"D 	c #256D3C",
"E 	c #B8B9BA",
"F 	c #DFDDD0",
"G 	c #DEDEDF",
"H 	c #64656A",
"I 	c #542936",
"J 	c #EA6162",
"K 	c #C35154",
"L 	c #F26464",
"M 	c #90404B",
"N 	c #D15C65",
"O 	c #BD4F52",
"P 	c #A3454A",
"Q 	c #644B4A",
"R 	c #A44A4D",
"S 	c #2C4A4A",
"T 	c #417168",
"U 	c #2E514E",
"V 	c #1B4132",
"W 	c #B8B8BA",
"X 	c #EFE6E1",
"Y 	c #FBF6EF",
"Z 	c #FAF3C6",
"` 	c #DADADB",
" .	c #7E7F82",
"..	c #B1A8A5",
"+.	c #E2B499",
"@.	c #F8ECA6",
"#.	c #FCF7DE",
"$.	c #ECECED",
"%.	c #67686D",
"&.	c #4C2734",
"*.	c #E96061",
"=.	c #9A4754",
"-.	c #A15C7B",
";.	c #984653",
">.	c #F46565",
",.	c #C55255",
"'.	c #6C313B",
").	c #1D2C36",
"!.	c #22393E",
"~.	c #1B1E32",
"{.	c #5B5768",
"].	c #F3EEEC",
"^.	c #DC9E74",
"/.	c #EDD16F",
"(.	c #F6E87D",
"_.	c #FCF9E4",
":.	c #F8F8F8",
"<.	c #949597",
"[.	c #9A9A9D",
"}.	c #EED7CC",
"|.	c #E4B755",
"1.	c #F4E341",
"2.	c #F4E345",
"3.	c #FBF5D4",
"4.	c #ABACAD",
"5.	c #9E7466",
"6.	c #D49160",
"7.	c #A5454B",
"8.	c #CF585C",
"9.	c #B05465",
"0.	c #6D3D52",
"a.	c #7D4963",
"b.	c #89404D",
"c.	c #DD5B5D",
"d.	c #502835",
"e.	c #6C4C89",
"f.	c #6D4D8B",
"g.	c #543C6E",
"h.	c #746685",
"i.	c #FCF8F7",
"j.	c #E2B380",
"k.	c #F3E043",
"l.	c #F5E457",
"m.	c #FDFBEC",
"n.	c #D3D3D4",
"o.	c #F1E4DD",
"p.	c #EFD8AC",
"q.	c #F4E344",
"r.	c #F4E349",
"s.	c #D8945F",
"t.	c #352639",
"u.	c #985775",
"v.	c #AB6282",
"w.	c #9F5B79",
"x.	c #3B283C",
"y.	c #9F5975",
"z.	c #9C526A",
"A.	c #241E2F",
"B.	c #4B3763",
"C.	c #5F437A",
"D.	c #6C4B76",
"E.	c #875E81",
"F.	c #AFAFB1",
"G.	c #EDE9E6",
"H.	c #F7EB98",
"I.	c #F5E66E",
"J.	c #EFEDE2",
"K.	c #737478",
"L.	c #493662",
"M.	c #65656C",
"N.	c #CACACB",
"O.	c #FDFBF0",
"P.	c #FEFCF1",
"Q.	c #E0E0E1",
"R.	c #484A52",
"S.	c #DEA75A",
"T.	c #D9945F",
"U.	c #794760",
"V.	c #75455E",
"W.	c #5E394F",
"X.	c #422B3F",
"Y.	c #2E8E45",
"Z.	c #3A915A",
"`.	c #2D4E4D",
" +	c #3D414C",
".+	c #99678D",
"++	c #875B7D",
"@+	c #7D6479",
"#+	c #AFAEA6",
"$+	c #C8C6BC",
"%+	c #BCB5B9",
"&+	c #635973",
"*+	c #64467F",
"=+	c #724F83",
"-+	c #724E6C",
";+	c #5C5D63",
">+	c #5B5D62",
",+	c #465557",
"'+	c #F1DC45",
")+	c #DA985E",
"!+	c #1E1E30",
"~+	c #945572",
"{+	c #A96181",
"]+	c #4F3146",
"^+	c #2D8D45",
"/+	c #38B052",
"(+	c #264043",
"_+	c #382B40",
":+	c #815879",
"<+	c #9B688F",
"[+	c #A36E96",
"}+	c #835A96",
"|+	c #553D6F",
"1+	c #212939",
"2+	c #6B4A73",
"3+	c #95648A",
"4+	c #583D57",
"5+	c #2A4848",
"6+	c #E4B855",
"7+	c #F6E988",
"8+	c #E7BF58",
"9+	c #634460",
"0+	c #6F4C6A",
"a+	c #452D41",
"b+	c #804A65",
"c+	c #3E293D",
"d+	c #2D8C45",
"e+	c #329F4B",
"f+	c #192432",
"g+	c #274244",
"h+	c #37605A",
"i+	c #242134",
"j+	c #292437",
"k+	c #293541",
"l+	c #375D59",
"m+	c #3B9B59",
"n+	c #6AB053",
"o+	c #293134",
"p+	c #161D2E",
"q+	c #171F2F",
"r+	c #E7D5B2",
"s+	c #FFFEFD",
"t+	c #D2B854",
"u+	c #684868",
"v+	c #815996",
"w+	c #865B90",
"x+	c #634572",
"y+	c #2F2745",
"z+	c #38B151",
"A+	c #33A14B",
"B+	c #23673A",
"C+	c #161E2E",
"D+	c #171E2F",
"E+	c #3A655E",
"F+	c #3E8B61",
"G+	c #3E8C60",
"H+	c #365E59",
"I+	c #315451",
"J+	c #3E8C61",
"K+	c #8FD261",
"L+	c #84BD59",
"M+	c #1D282F",
"N+	c #AEAEAF",
"O+	c #E3E3E4",
"P+	c #31333C",
"Q+	c #1C1E33",
"R+	c #1F1F36",
"S+	c #47355F",
"T+	c #93638D",
"U+	c #845B95",
"V+	c #795384",
"W+	c #222137",
"X+	c #181D2F",
"Y+	c #202032",
"Z+	c #378056",
"`+	c #37AF50",
" @	c #3C9A5C",
".@	c #2B4A4A",
"+@	c #22373D",
"@@	c #309149",
"#@	c #37B050",
"$@	c #6FC359",
"%@	c #92D361",
"&@	c #2A8142",
"*@	c #4F4244",
"=@	c #5E4379",
"-@	c #745192",
";@	c #3D2F54",
">@	c #1A1E32",
",@	c #362B4C",
"'@	c #6F4C6F",
")@	c #74508C",
"!@	c #4A3662",
"~@	c #493661",
"{@	c #714D6C",
"]@	c #A8719A",
"^@	c #A7719A",
"/@	c #5F425D",
"(@	c #333C3E",
"_@	c #297D40",
":@	c #378557",
"<@	c #355C58",
"[@	c #1E2E37",
"}@	c #1F5737",
"|@	c #205B38",
"1@	c #C5A08D",
"2@	c #685652",
"3@	c #B79584",
"4@	c #1A1D31",
"5@	c #61447C",
"6@	c #775396",
"7@	c #6B4C88",
"8@	c #583F72",
"9@	c #714F8F",
"0@	c #503A69",
"a@	c #342A4B",
"b@	c #644780",
"c@	c #202037",
"d@	c #704C6A",
"e@	c #775171",
"f@	c #9D6A91",
"g@	c #754F6E",
"h@	c #1C2B36",
"i@	c #3C6961",
"j@	c #345A56",
"k@	c #274143",
"l@	c #2D2639",
"m@	c #E2B7A0",
"n@	c #FFCFB4",
"o@	c #A68779",
"p@	c #302746",
"q@	c #594573",
"r@	c #6A4D88",
"s@	c #664882",
"t@	c #3B2D51",
"u@	c #60447B",
"v@	c #3D3554",
"w@	c #36334D",
"x@	c #27273D",
"y@	c #1A3A31",
"z@	c #2E9046",
"A@	c #2D8B44",
"B@	c #314A3E",
"C@	c #45334A",
"D@	c #1B3F32",
"E@	c #2E544D",
"F@	c #3E6C64",
"G@	c #375F5A",
"H@	c #644561",
"I@	c #805778",
"J@	c #39273B",
"K@	c #85475D",
"L@	c #A65D7B",
"M@	c #D19B98",
"N@	c #FCCCB2",
"O@	c #D2AA95",
"P@	c #4E4143",
"Q@	c #2D2643",
"R@	c #735192",
"S@	c #725090",
"T@	c #4E3E67",
"U@	c #735191",
"V@	c #694B86",
"W@	c #53406D",
"X@	c #4B4064",
"Y@	c #493F61",
"Z@	c #191E31",
"`@	c #326D50",
" #	c #37AE50",
".#	c #256E3C",
"+#	c #35A94E",
"@#	c #1D2E37",
"##	c #2B4949",
"$#	c #3B665F",
"%#	c #61456C",
"&#	c #9F6B97",
"*#	c #70425A",
"=#	c #B25D76",
"-#	c #F0666A",
";#	c #D76474",
">#	c #955673",
",#	c #91766B",
"'#	c #876E64",
")#	c #3F3056",
"!#	c #654781",
"~#	c #3D3154",
"{#	c #674B83",
"]#	c #694C85",
"^#	c #60497C",
"/#	c #634A7F",
"(#	c #417268",
"_#	c #39AD53",
":#	c #28783F",
"<#	c #287A40",
"[#	c #23393E",
"}#	c #3C6760",
"|#	c #182030",
"1#	c #765395",
"2#	c #46345D",
"3#	c #8F4F68",
"4#	c #E36570",
"5#	c #D26273",
"6#	c #87485D",
"7#	c #5B374D",
"8#	c #392B41",
"9#	c #845A81",
"0#	c #392D50",
"a#	c #382C4E",
"b#	c #4F3F68",
"c#	c #6F4F8C",
"d#	c #6B4B88",
"e#	c #5A4374",
"f#	c #191E30",
"g#	c #325753",
"h#	c #3F8064",
"i#	c #3AA657",
"j#	c #349D4E",
"k#	c #324848",
"l#	c #543C6D",
"m#	c #1A2633",
"n#	c #704E8D",
"o#	c #353348",
"p#	c #645751",
"q#	c #935471",
"r#	c #664778",
"s#	c #825A95",
"t#	c #714E70",
"u#	c #25223B",
"v#	c #5F447A",
"w#	c #5B4376",
"x#	c #1D2034",
"y#	c #312847",
"z#	c #25303E",
"A#	c #5C4277",
"B#	c #3E6B63",
"C#	c #344F4B",
"D#	c #59954A",
"E#	c #587E43",
"F#	c #1E1F34",
"G#	c #7A5377",
"H#	c #936392",
"I#	c #79538C",
"J#	c #865B80",
"K#	c #4D385C",
"L#	c #49355C",
"M#	c #372B4D",
"N#	c #523B6B",
"O#	c #674883",
"P#	c #563E70",
"Q#	c #3A2D51",
"R#	c #284345",
"S#	c #39625C",
"T#	c #20343B",
"U#	c #1C4834",
"V#	c #215C38",
"W#	c #322948",
"X#	c #775177",
"Y#	c #855B83",
"Z#	c #845B93",
"`#	c #A46E9A",
" $	c #78538F",
".$	c #3A2C48",
"+$	c #47344F",
"@$	c #2E2744",
"                                                                                ",
"                                                                                ",
"                                . +                                             ",
"                      @ #         $ %                                           ",
"              &       % * %   = - ; > %                                         ",
"              , '   % ) ! ~ % { ] ^ ^ ^ / %                                     ",
"      (       % % % % _ : < [ } | 1 1 1 2 3 %                                   ",
"      4 %   5 6 7 8 9 0 a b c 1 d e f g h 2 i j   % % %                         ",
"      k l m n o p q r s % t u v w x y z A B C D % E F G H                       ",
"    I J K L M N O P Q R S T U V W X Y Z `  .% % ..+.@.#.$.%.                    ",
"    &.*.o o =.-.;.>.,.'.).!.~.{.].^./.(._.:.<.[.}.|.1.2.3.4.              5.6.  ",
"    % 7.8.9.0.a.b.c.o d.e.f.g.h.i.j.k.1.l.m.n.x o.p.q.r.#.4.                s.  ",
"      t.u.v.w.x.% y.z.A.B.C.D.E.F.G.H.1.I.J.K.L.M.N.O.P.Q.R.                S.T.",
"      % U.v.v.V.% W.X.Y.Z.`. +.+++@+#+$+%+&+% *+=+-+;+>+,+S %             T.'+)+",
"      % !+~+v.{+]+% ^+1 /+T (+_+:+<+[+[+}+|+S 1+2+3+[+4+5+T S             6+7+8+",
"      9+0+a+b+b+c+d+1 1 e+f+g+h+!.i+j+j+k+l+T m+n+o+j+% p+f+q+            r+s+t+",
"    % u+v+w+x+y+D z+A+B+C+D+E+F+z+G+H+I+I+H+J+1 K+L+M+                    N+O+P+",
"    Q+R+S+T+U+V+W+X+% Y+j+j+(+Z+`+1  @T t .@+@@@#@$@%@&@%                 *@%   ",
"    =@-@;@>@,@'@)@!@~@{@]@^@:+/@(@_@:@T T T <@[@}@_@_@|@%       % * 1@2@% 3@    ",
"  4@5@6@7@8@9@0@% a@b@c@d@-+-+e@f@g@h@i@T T T i@j@k@% l@      % t.m@n@o@% %     ",
"  p@6@6@q@r@6@s@t@u@v@w@x@y@z@A@B@C@D@E@F@T T T G@h@H@I@% % J@K@L@M@N@O@P@      ",
"  Q@R@S@T@U@6@V@W@6@X@Y@Z@`@1 1  #.#+#^+@#######@#$#%#&#% *#=#-#;#>#,#'#%       ",
"  % )#!#~#6@6@{#]#6@^#/#Z@(#_#1 1 :#<#z@[#G@G@G@}#T |#1#2#3#4#5#6#7#%           ",
"  8#9#0#a#6@6@b#c#-@d#e#f#g#h#i#j#k#l#m#G@T T T T T |#n#o#p#q#7#%               ",
"    r#s#t#b@5@u#v#w#x#b@8@y#k@k@z#A#)#j@T T T T T B#q+C#D#E#% %                 ",
"    F#G#H#I#J#K#/@L#M#N#O#C.P#P#l#Q#% R#S#S#S#S#S#T#% U#V#%                     ",
"      % W#X#Y#Z#`# $a#% % % % % % % % % % % % % % % %                           ",
"          % % .$+$@$% % % % % % % % % %     % % % % % % %                       ",
"                            % % % % %               % % %                       ",
"                            %                       % %                         ",
"                                                                                ",
"                                                                                ",
"                                                                                "};
