/* XPM */
static char * enemy_move_right00_xpm[] = {
"80 80 15 1",
" 	c None",
".	c #161C2E",
"+	c #FFCFB4",
"@	c #F76666",
"#	c #38B251",
"$	c #95D562",
"%	c #F4E341",
"&	c #FFFFFF",
"*	c #AB6282",
"=	c #417168",
"-	c #D9945F",
";	c #775396",
">	c #A8719A",
",	c #9E7466",
"'	c #433D5B",
"                                                                                ",
"                                                                                ",
"                                                                                ",
"                                                                                ",
"                                                                                ",
"                                                                                ",
"                                                                                ",
"                                                                                ",
"                                                                                ",
"                                                                                ",
"                                                                                ",
"                                                                                ",
"                                                                                ",
"                                                                                ",
"                                                                                ",
"                                                                                ",
"                                                                                ",
"                                                                                ",
"                                                                                ",
"                                                                                ",
"                                                                                ",
"                                                                                ",
"                                                                                ",
"                                                                                ",
"                                                                                ",
"                            ...                                                 ",
"                     ..+       +.                                               ",
"                       +.     ....                                              ",
"                        .   .......                                             ",
"                ++.  ........@@.......                                          ",
"           .    ...  ..@.@.............                                         ",
"          ++    ......@@@@@..########$..                   %%%..                ",
"          ++   ........@@@..#########$$...                &&&%%%                ",
"           .....@@.@@...*..=###.......###.........       .-&%%%%                ",
"          ......@@@@@+..*..=###..&&&...###...&&&..       ..--%%-                ",
"         ..@.@..@@@@.+..*.===#...&&&&.......&&%&&..      ...----                ",
"         .@@@@@.*..@@.@@..==...&&-&%&&&....--%%%&&..       +..--                ",
"         .@@@@@.**.@@@@@.......&--%%&&&&..&--%%%%&..        ++--                ",
"         ..@@@..**.@@@@@.;;;;;.&-%%%%%&&..&--%%%%&..      .....                 ",
"         ....***....@@...;;;;;.&&%%%%%&&...&&%%%&&..     ......                 ",
"          ..****...****.....>>>..&%%%%&..;;..&&&&..      +++....---             ",
"           .****....**..##...>>...&&&&...;;.........    .+++++..---             ",
"           ..****...*...##==..>>>....;;...;>>....==.    .+++++.. --             ",
"           ...****....####==.....>>>>;..=....>>...==.   .***...                 ",
"          ....****...#####...=.........===#..........  ..***..                  ",
"         ..>;;......####....===##=======###$$...       ..@@@*.     ,            ",
"         ...;;>;....###.....==###=.....=###$$...       ..@@@*.     ,            ",
"         .....>;>>;...........=####====...###$$#..     .*@@*..     ,            ",
"         ;;;....>>;.....>>>>....###=====...#####..    ..*@@*..                  ",
"        .;;;......;.;;..>>>>>>....=======.........  ....*@@*..                  ",
"        .;;;;.;;;....;;........>>...=========...    .=.......                   ",
"        .;;;'';;;...............>...========...>.  .==.#$....                   ",
"        .;;;'';;;..;;''''..#####..##..=====...>>....=..##$$#..                  ",
"        .;;;';;;;'';;''''..=########........=.;>;.....######..                  ",
"        .;;;';;;;'';;';''.==########.......==..;;....=######..                  ",
"        .....;;;'';;;;;''.==#####.....=======..;;.  ..=####..                   ",
"        .>...;;;'';;;;;'...==###.;;..========..;..  ..=====..                   ",
"         ;;;..;;..;;''..;;.......;..=========....  .........                    ",
"         .;>>;.......'..;;;.....;...=========...   .........                    ",
"         ...;;>>;>>;;.........................    ..**@*...                     ",
"          ....>>;>>;;........................     ..*@@*.                       ",
"           .....;>>;........................      ..*@@*.                       ",
"                ............  ...   ...           ..***..                       ",
"                              ..    ... ..        .......                       ",
"                                      ....          ...                         ",
"                                      ...                                       ",
"                                                                                ",
"                                                                                ",
"                                                                                ",
"                                                                                ",
"                                                                                ",
"                                                                                ",
"                                                                                ",
"                                                                                ",
"                                                                                ",
"                                                                                ",
"                                                                                ",
"                                                                                ",
"                                                                                ",
"                                                                                "};
