/* XPM */
static char * player_attack_right00_xpm[] = {
"61 40 542 2",
"  	c None",
". 	c #161C2E",
"+ 	c #452734",
"@ 	c #864045",
"# 	c #251D2F",
"$ 	c #0F1A2D",
"% 	c #1D1E30",
"& 	c #6F373F",
"* 	c #843F44",
"= 	c #B3605A",
"- 	c #BD7A68",
"; 	c #BC7C69",
"> 	c #B37765",
", 	c #734D48",
"' 	c #171C2E",
") 	c #0E1B2E",
"! 	c #813F4A",
"~ 	c #AF5256",
"{ 	c #BD6D61",
"] 	c #C07466",
"^ 	c #C27A69",
"/ 	c #B95F5A",
"( 	c #C37E6B",
"_ 	c #C27C6A",
": 	c #794846",
"< 	c #0C192D",
"[ 	c #37263C",
"} 	c #7F404F",
"| 	c #B45455",
"1 	c #B65555",
"2 	c #BF7365",
"3 	c #C5836E",
"4 	c #C17968",
"5 	c #C07A68",
"6 	c #764243",
"7 	c #1B1D30",
"8 	c #793D4B",
"9 	c #AE5256",
"0 	c #AF5253",
"a 	c #833E44",
"b 	c #8D5B52",
"c 	c #AB7261",
"d 	c #C3826D",
"e 	c #C4806C",
"f 	c #B9655D",
"g 	c #C4826E",
"h 	c #6B4041",
"i 	c #35263B",
"j 	c #914858",
"k 	c #B35455",
"l 	c #763F54",
"m 	c #52324C",
"n 	c #0A192D",
"o 	c #A36D5E",
"p 	c #AB6C5E",
"q 	c #A86A5D",
"r 	c #C4816D",
"s 	c #814848",
"t 	c #151C2E",
"u 	c #35253B",
"v 	c #814459",
"w 	c #974B58",
"x 	c #6D3E5B",
"y 	c #693D5B",
"z 	c #4D3049",
"A 	c #5E4140",
"B 	c #C07A69",
"C 	c #AF7463",
"D 	c #855950",
"E 	c #63353C",
"F 	c #3A283E",
"G 	c #55334C",
"H 	c #623A56",
"I 	c #5C3753",
"J 	c #231F33",
"K 	c #131C2E",
"L 	c #AD5E5B",
"M 	c #AA685C",
"N 	c #8A5750",
"O 	c #8E4955",
"P 	c #131B2D",
"Q 	c #141C2D",
"R 	c #111B2E",
"S 	c #A04D55",
"T 	c #7B3E4F",
"U 	c #964955",
"V 	c #593144",
"W 	c #232331",
"X 	c #4D2A36",
"Y 	c #9D4A4D",
"Z 	c #522C37",
"` 	c #82404B",
" .	c #191D2F",
"..	c #3D3738",
"+.	c #89715B",
"@.	c #876E5E",
"#.	c #311936",
"$.	c #522C49",
"%.	c #000724",
"&.	c #2F2135",
"*.	c #B7A895",
"=.	c #918C89",
"-.	c #30333E",
";.	c #383234",
">.	c #BEB6AF",
",.	c #E4D8CA",
"'.	c #E9E8E9",
").	c #E7E7E8",
"!.	c #E7E7E7",
"~.	c #F1E8DD",
"{.	c #BCB3A8",
"].	c #2D303C",
"^.	c #312D36",
"/.	c #8C7264",
"(.	c #A2916F",
"_.	c #DACD9D",
":.	c #F0E3B1",
"<.	c #EFE1AF",
"[.	c #E6D2A4",
"}.	c #E7D5AD",
"|.	c #EFE2B3",
"1.	c #EADDA9",
"2.	c #D0B282",
"3.	c #655748",
"4.	c #61504C",
"5.	c #9C7F6D",
"6.	c #D0B081",
"7.	c #E8D5A1",
"8.	c #EFE1AB",
"9.	c #F5EDD2",
"0.	c #F7F1DB",
"a.	c #FDFBF6",
"b.	c #FFFFFF",
"c.	c #FAF6EE",
"d.	c #E8D5A6",
"e.	c #B29A73",
"f.	c #8F7466",
"g.	c #AA8D72",
"h.	c #D5B583",
"i.	c #E4D09B",
"j.	c #EFE0AB",
"k.	c #EFE1AA",
"l.	c #F0E3B2",
"m.	c #EAE5D2",
"n.	c #998D80",
"o.	c #E9D7A3",
"p.	c #E6D4A0",
"q.	c #5D5044",
"r.	c #EBE2A9",
"s.	c #2A2833",
"t.	c #866D61",
"u.	c #B99B78",
"v.	c #E2CC98",
"w.	c #F4EBC9",
"x.	c #E9E4D3",
"y.	c #000B27",
"z.	c #CAAE82",
"A.	c #F4EBCB",
"B.	c #6C6754",
"C.	c #ECE3AA",
"D.	c #11192D",
"E.	c #604F4B",
"F.	c #977B6B",
"G.	c #C4A57C",
"H.	c #DCC28F",
"I.	c #EBDBA5",
"J.	c #F8F3E1",
"K.	c #EAE6D9",
"L.	c #000726",
"M.	c #9B8463",
"N.	c #E4D0A1",
"O.	c #C0B29B",
"P.	c #E4D59E",
"Q.	c #EDE6AC",
"R.	c #8B765A",
"S.	c #6E5E4C",
"T.	c #5F4F4B",
"U.	c #9C806D",
"V.	c #D3B382",
"W.	c #D7B986",
"X.	c #F2E8C0",
"Y.	c #EAE9E5",
"Z.	c #000725",
"`.	c #4C423D",
" +	c #D7BD8D",
".+	c #BCB290",
"++	c #E2D09A",
"@+	c #222531",
"#+	c #B39870",
"$+	c #A48B68",
"%+	c #1E212F",
"&+	c #3E363B",
"*+	c #705C54",
"=+	c #AD9073",
"-+	c #C8A97E",
";+	c #BCA075",
">+	c #907A5D",
",+	c #8B785C",
"'+	c #9B9272",
")+	c #A09B8C",
"!+	c #727377",
"~+	c #1A1E2F",
"{+	c #0A152C",
"]+	c #0B1B2D",
"^+	c #884145",
"/+	c #57363A",
"(+	c #B49970",
"_+	c #A48C68",
":+	c #8D7365",
"<+	c #D6B683",
"[+	c #DBCC9B",
"}+	c #A19776",
"|+	c #615C4E",
"1+	c #1B1F2F",
"2+	c #1A1F30",
"3+	c #705F4B",
"4+	c #D0C6A6",
"5+	c #303136",
"6+	c #071A2D",
"7+	c #AD5152",
"8+	c #B45454",
"9+	c #954A4B",
"0+	c #A18767",
"a+	c #A68A6D",
"b+	c #68584D",
"c+	c #322F34",
"d+	c #141B2E",
"e+	c #6E5B53",
"f+	c #B89A77",
"g+	c #CBAC7F",
"h+	c #D6B785",
"i+	c #ECDEA9",
"j+	c #EDE2BB",
"k+	c #F0EDE5",
"l+	c #67686D",
"m+	c #2E2C33",
"n+	c #C8AE82",
"o+	c #EEE0B1",
"p+	c #A49A78",
"q+	c #E7D8B7",
"r+	c #FBFAF0",
"s+	c #FDFDF8",
"t+	c #AC5152",
"u+	c #B47966",
"v+	c #B59973",
"w+	c #BB9F75",
"x+	c #BDA77C",
"y+	c #A48F6A",
"z+	c #837F64",
"A+	c #736758",
"B+	c #8A7163",
"C+	c #D4B483",
"D+	c #D6B684",
"E+	c #E9D8A3",
"F+	c #F6EED3",
"G+	c #8C8D90",
"H+	c #867358",
"I+	c #E9D9C0",
"J+	c #F1E6C3",
"K+	c #A39774",
"L+	c #E9DBC2",
"M+	c #F4F0D1",
"N+	c #EDE6AB",
"O+	c #B75A57",
"P+	c #BC6B60",
"Q+	c #C79271",
"R+	c #CBAD7E",
"S+	c #9A8362",
"T+	c #7C7058",
"U+	c #867E62",
"V+	c #D1C593",
"W+	c #8B8164",
"X+	c #6A5750",
"Y+	c #DDC490",
"Z+	c #F4EAC6",
"`+	c #8C8983",
" @	c #B69D76",
".@	c #EEDFA9",
"+@	c #ECDDA7",
"@@	c #4D463F",
"#@	c #E2D099",
"$@	c #EDE6AE",
"%@	c #BC685F",
"&@	c #D3AE85",
"*@	c #E2D19B",
"=@	c #D6B885",
"-@	c #D4B482",
";@	c #978161",
">@	c #A89A74",
",@	c #816E55",
"'@	c #74644F",
")@	c #CEAF7F",
"!@	c #DCC18E",
"~@	c #F9F6EB",
"{@	c #F5EDD3",
"]@	c #ECDCA6",
"^@	c #B0A17B",
"/@	c #181D2E",
"(@	c #E3D2A2",
"_@	c #F5F1D5",
":@	c #FEFDFA",
"<@	c #AC5051",
"[@	c #B85E59",
"}@	c #CE9D7E",
"|@	c #E7DAA2",
"1@	c #DBC28E",
"2@	c #B0956E",
"3@	c #A3906C",
"4@	c #2C2236",
"5@	c #0A162D",
"6@	c #544940",
"7@	c #A89570",
"8@	c #EADDA8",
"9@	c #F6EED4",
"0@	c #EFE1AE",
"a@	c #BFAA7F",
"b@	c #3F3838",
"c@	c #F8F4EF",
"d@	c #00122C",
"e@	c #C19671",
"f@	c #BD7361",
"g@	c #B65756",
"h@	c #C17C69",
"i@	c #E0CE98",
"j@	c #E8DCA4",
"k@	c #D5B684",
"l@	c #C0A27A",
"m@	c #A28A67",
"n@	c #816F56",
"o@	c #482D46",
"p@	c #613956",
"q@	c #402A41",
"r@	c #201E31",
"s@	c #12192D",
"t@	c #4F4C44",
"u@	c #A4916E",
"v@	c #DED19F",
"w@	c #B5AB84",
"x@	c #39393A",
"y@	c #D5B582",
"z@	c #FDFBF9",
"A@	c #FFFFFE",
"B@	c #FEFEFD",
"C@	c #00112C",
"D@	c #CAAC7D",
"E@	c #D9BE90",
"F@	c #C78D72",
"G@	c #C2A37B",
"H@	c #B29672",
"I@	c #6D3744",
"J@	c #8A4659",
"K@	c #683D5B",
"L@	c #683C5A",
"M@	c #55334E",
"N@	c #101B2E",
"O@	c #1A1F2F",
"P@	c #1F1E31",
"Q@	c #2B2236",
"R@	c #10192D",
"S@	c #633D3F",
"T@	c #563D3E",
"U@	c #DEC6A0",
"V@	c #FAF8ED",
"W@	c #F2EDC7",
"X@	c #F0EABB",
"Y@	c #09162C",
"Z@	c #B99D73",
"`@	c #D7B987",
" #	c #E4D49D",
".#	c #E6D7A2",
"+#	c #C07D66",
"@#	c #CFA77B",
"##	c #BB9E76",
"$#	c #B99B77",
"%#	c #7D3C42",
"&#	c #A14E57",
"*#	c #7C425A",
"=#	c #7A425A",
"-#	c #90464F",
";#	c #252034",
">#	c #52324B",
",#	c #492E46",
"'#	c #544645",
")#	c #897063",
"!#	c #876E61",
"~#	c #823F44",
"{#	c #C37D6B",
"]#	c #9F5A54",
"^#	c #7D524B",
"/#	c #F0EBBF",
"(#	c #F9F7E7",
"_#	c #FEFEFC",
":#	c #917C5E",
"<#	c #DEC793",
"[#	c #E7DAA3",
"}#	c #C47F6C",
"|#	c #BC6A5F",
"1#	c #C3846A",
"2#	c #AA8867",
"3#	c #A88E6C",
"4#	c #7E3C42",
"5#	c #B55555",
"6#	c #A54F57",
"7#	c #803F4A",
"8#	c #151C2F",
"9#	c #1E1E30",
"0#	c #1E2030",
"a#	c #AD9072",
"b#	c #AC8F72",
"c#	c #5D4142",
"d#	c #95494B",
"e#	c #734243",
"f#	c #BC7A68",
"g#	c #1C1E2F",
"h#	c #D5B685",
"i#	c #F6F1E9",
"j#	c #FFFEFD",
"k#	c #2D2B33",
"l#	c #CBAD7D",
"m#	c #D3B080",
"n#	c #BE7162",
"o#	c #BA655D",
"p#	c #B85C59",
"q#	c #96464A",
"r#	c #776256",
"s#	c #796753",
"t#	c #5F3345",
"u#	c #A65057",
"v#	c #A75057",
"w#	c #A54F55",
"x#	c #7D3E48",
"y#	c #1B1D2E",
"z#	c #202230",
"A#	c #CBAC7E",
"B#	c #9A8264",
"C#	c #813E45",
"D#	c #9C4A4D",
"E#	c #5B4E43",
"F#	c #6E4542",
"G#	c #522A36",
"H#	c #E2CDB1",
"I#	c #5F5245",
"J#	c #CCAD7E",
"K#	c #C17E67",
"L#	c #96474A",
"M#	c #7D665B",
"N#	c #473C3F",
"O#	c #221F32",
"P#	c #2C2237",
"Q#	c #272135",
"R#	c #141C2E",
"S#	c #BFA277",
"T#	c #AE936F",
"U#	c #282433",
"V#	c #7F4358",
"W#	c #44293C",
"X#	c #887459",
"Y#	c #CBAC7D",
"Z#	c #2A2932",
"`#	c #EFE5D8",
" $	c #625446",
".$	c #CDAE7E",
"+$	c #CDA178",
"@$	c #B65455",
"#$	c #A94F50",
"$$	c #70534E",
"%$	c #504343",
"&$	c #222430",
"*$	c #4F314A",
"=$	c #5C3652",
"-$	c #4D4142",
";$	c #5E4E4A",
">$	c #5E5145",
",$	c #AE956E",
"'$	c #D4C693",
")$	c #A09C77",
"!$	c #685A49",
"~$	c #D9BD93",
"{$	c #C49973",
"]$	c #A94E50",
"^$	c #573B3F",
"/$	c #383238",
"($	c #272134",
"_$	c #54334D",
":$	c #39273D",
"<$	c #8E7365",
"[$	c #9D826A",
"}$	c #826F57",
"|$	c #8C7D67",
"1$	c #CEC395",
"2$	c #E7D9A2",
"3$	c #DBC18D",
"4$	c #D5B481",
"5$	c #F6F0E9",
"6$	c #59393B",
"7$	c #482C36",
"8$	c #756057",
"9$	c #131A2D",
"0$	c #302338",
"a$	c #4A2E47",
"b$	c #482D44",
"c$	c #442B42",
"d$	c #282733",
"e$	c #8B775B",
"f$	c #C4A679",
"g$	c #9D8665",
"h$	c #716A55",
"i$	c #DED6A0",
"j$	c #E1CCAF",
"k$	c #171D2E",
"l$	c #793C46",
"m$	c #512B36",
"n$	c #282832",
"o$	c #968060",
"p$	c #CAAB7D",
"q$	c #E6D9A1",
"r$	c #D8BC88",
"s$	c #DBC19C",
"t$	c #FBF8F5",
"u$	c #0C1B2D",
"v$	c #443C3A",
"w$	c #927C5E",
"x$	c #D8BB88",
"y$	c #EBDECB",
"z$	c #FBF9F7",
"A$	c #302D34",
"B$	c #947E5F",
"C$	c #D4BE8B",
"D$	c #DDC693",
"E$	c #E5D4B8",
"F$	c #FEFEFB",
"G$	c #393235",
"H$	c #BBAC81",
"I$	c #D0C997",
"J$	c #D2CCA2",
"K$	c #DBD9CD",
"L$	c #F3F4F4",
"M$	c #F8F3ED",
"N$	c #000A2A",
"O$	c #000727",
"P$	c #847E79",
"Q$	c #D8BA8D",
"                                                                                                                          ",
"                                                      . + @ # $                                                           ",
"                                                  % & * = - ; > , '                                                       ",
"                                                ) ! ~ { ] ^ / ( _ : <                                                     ",
"                                              [ } | 1 2 3 3 4 ( 3 5 6                                                     ",
"                                            7 8 9 0 a b c d e f g e h .                                                   ",
"                                            i j k l m % n o 3 p q r s t                                                   ",
"                                            u v w x y z . A B C D ( E                                                     ",
"                                            . F G H I J . K L M N O .                                                     ",
"                                              . t P Q     R S T U V t                                                     ",
"                                                        W X Y Z `  .                                                      ",
"                                                    ..+.@.#.$.%.&.*.=.-.                                                  ",
"                                                  . ;.>.,.'.'.).!.~.{.]..                                                 ",
"                                                . ^./.(._.:.<.[.}.|.1.2.3.                                                ",
"                                                . 4.5.6.7.8.9.0.a.b.c.d.e.                                                ",
"                                                t f.g.h.i.j.k.k.l.m.n.o.p.q.                                  h.    r.    ",
"                                                s.t.u.h.h.v.8.8.w.x.y.z.A.B.                                  h.    C.    ",
"                                  D.          . E.F.G.h.h.h.H.I.J.K.L.M.N.O.                                  h.  h.P.Q.  ",
"                                . R.S.        . T.U.V.h.h.h.W.8.X.Y.Z.`. +.+.                                 h.  h.++Q.  ",
"                                . @+#+$+%+    . &+*+=+-+;+>+,+'+)+!+. . ~+{+t                               h.h.  h.++Q.  ",
"                                ]+^+/+(+_+t   . t :+g.<+W.[+}+|+1+2+. . 3+4+5+                              h.h.  h.++Q.  ",
"                                6+7+8+9+0+a+b+c+d+e+=+f+g+h+v.i+j+k+l+m+n+o+p+                              h.  h.h.q+r+s+",
"                                6+t+1 1 u+v+w+x+y+z+A+B+C+h.D+E+8.F+G+H+I+J+K+                              h.  h.h.L+M+N+",
"                                6+t+O+P+Q+R+S+T+U+V+W+X+V.h.h.Y+8.Z+`+ @.@+@@@                            h.  h.h.h.#@Q.$@",
"                                6+t+1 %@&@*@=@-@;@>@,@1+'@;+)@!@8.:.~@{@]@^@/@                            h.  h.h.h.(@_@:@",
"                                6+<@1 [@}@|@1@h.2@3@,@4@. 5@6@7@8@l.9@0@a@b@                            h.  h.h.h.h.c@b.b.",
"                                d@e@f@g@h@i@j@k@l@m@n@o@p@q@r@s@t@u@v@w@x@                                  h.  h.y@z@A@B@",
"                                C@D@h.E@F@k@h.h.G@H@n@I@J@K@L@M@F N@O@. P@Q@t R@R@    S@T@                h.  h.h.U@V@W@X@",
"                                Y@Z@`@ #.#+#@#h.##$#n@%#| &#*#y =#-#;#. >#,#'#)#!#&+~#{#]#^#                  h.h.#@/#(#_#",
"                                  :#h.<#[#}#|#1#2#3#n@4#1 1 5#&#6#7#8#. 9#0#a#V.b#c#0 d#e#f#g#              h.h.h#i#j#b.  ",
"                                  k#l#h.m#n#o#p#q#r#s#t#u#v#v#w#x#y#.     z#A#h.B#C#D#E#F#G#              h.h.h.H#b.b.b.  ",
"                                    I#J#h.K#1 1 L#M#N#O#P#P#P#Q#R#. . .   %+S#T#U#V#W#X#Y#;@Z#.       h.h.h.h.h.`#b.b.b.  ",
"                                       $.$+$@$#$$$%$. . . . . .   . . .   . &$z#*$=$-$;$>$,$'$)$!$D+h.h.h.h.h.~$B@b.b.b.  ",
"                                         ${$]$^$/$t               . .         ($_$:$'#<$[$}$|$1$2$3$h.h.h.h.4$5$b.b.b.b.  ",
"                                          6$7$8$9$              . . . .       0$a$b$c$d$e$J#f$g$h$i$++D+h.h.j$A@b.b.b.    ",
"                                          . . k$                              . . l$m$  . n$o$p$h.h.++q$r$s$t$b.b.b.b.    ",
"                                                                                  u$          v$w$D@h.x$y$z$b.b.b.b.b.    ",
"                                                                                                t A$B$C$D$E$F$b.b.b.b.    ",
"                                                                                                    t G$H$I$J$K$L$M$      ",
"                                                                                                          N$N$O$P$Q$      "};
