/* XPM */
static char * player_attack_right01_xpm[] = {
"61 40 566 2",
"  	c None",
". 	c #091B2D",
"+ 	c #7C3C42",
"@ 	c #532B37",
"# 	c #0D1A2D",
"$ 	c #462834",
"% 	c #6D363D",
"& 	c #934B4B",
"* 	c #B26B5F",
"= 	c #AC7362",
"- 	c #AD7362",
"; 	c #77504A",
"> 	c #111B2E",
", 	c #161C2E",
"' 	c #482938",
") 	c #A04D55",
"! 	c #BA625B",
"~ 	c #BE6F63",
"{ 	c #C17968",
"] 	c #BB665E",
"^ 	c #BF7365",
"/ 	c #C4826D",
"( 	c #8D504C",
"_ 	c #1D1F2F",
": 	c #272134",
"< 	c #613342",
"[ 	c #A44D51",
"} 	c #B65555",
"| 	c #B95F5A",
"1 	c #C5836E",
"2 	c #C47F6C",
"3 	c #C27A69",
"4 	c #C5816D",
"5 	c #8D564F",
"6 	c #1D1D2F",
"7 	c #512E3F",
"8 	c #994B56",
"9 	c #B15356",
"0 	c #9C4A4C",
"a 	c #9A5B54",
"b 	c #AA7261",
"c 	c #C5826D",
"d 	c #BA635C",
"e 	c #C4816D",
"f 	c #9D5A54",
"g 	c #1B1D2E",
"h 	c #211F32",
"i 	c #7B4054",
"j 	c #B35455",
"k 	c #9C4C55",
"l 	c #50314A",
"m 	c #241F33",
"n 	c #21202F",
"o 	c #875A51",
"p 	c #C37C6A",
"q 	c #935952",
"r 	c #A8635A",
"s 	c #1F1D2F",
"t 	c #1F1E31",
"u 	c #6E3C55",
"v 	c #964A58",
"w 	c #81445A",
"x 	c #693D5B",
"y 	c #5E3854",
"z 	c #151C2E",
"A 	c #222030",
"B 	c #B87766",
"C 	c #C5846E",
"D 	c #523A3C",
"E 	c #C6846E",
"F 	c #965852",
"G 	c #35263B",
"H 	c #5C344C",
"I 	c #6F3E5A",
"J 	c #683D5A",
"K 	c #432B43",
"L 	c #904A4B",
"M 	c #53373B",
"N 	c #AE6863",
"O 	c #542F3B",
"P 	c #1B1D2F",
"Q 	c #7B3D49",
"R 	c #974B57",
"S 	c #8C454F",
"T 	c #814253",
"U 	c #221F33",
"V 	c #B0966E",
"W 	c #DCC29D",
"X 	c #EADCCA",
"Y 	c #F7F1EB",
"Z 	c #FFFFFF",
"` 	c #1D1D2E",
" .	c #934649",
"..	c #8A4246",
"+.	c #7F3D44",
"@.	c #36263C",
"#.	c #D3B381",
"$.	c #AA9C80",
"%.	c #ECE6E0",
"&.	c #5D4E48",
"*.	c #7C665A",
"=.	c #40363C",
"-.	c #59354F",
";.	c #312335",
">.	c #3F283B",
",.	c #83735F",
"'.	c #817363",
").	c #333640",
"!.	c #30333E",
"~.	c #EDE6DC",
"{.	c #F8F4E2",
"].	c #FEFEFD",
"^.	c #111A2D",
"/.	c #B4A797",
"(.	c #DED1C1",
"_.	c #D4D0D1",
":.	c #D6D2D5",
"<.	c #D0D1D2",
"[.	c #EBE7E4",
"}.	c #E8E0D8",
"|.	c #717276",
"1.	c #121A2D",
"2.	c #73705A",
"3.	c #D9D5BA",
"4.	c #F1EACC",
"5.	c #E4D1B2",
"6.	c #E0C9AB",
"7.	c #FFFEFE",
"8.	c #7A645A",
"9.	c #7B6955",
"0.	c #BCAE83",
"a.	c #F1E6BC",
"b.	c #F2E8C0",
"c.	c #EADBB6",
"d.	c #E8D7B3",
"e.	c #E9D8A9",
"f.	c #E3D3A0",
"g.	c #CCB789",
"h.	c #887459",
"i.	c #0F172D",
"j.	c #94906F",
"k.	c #E5DEA6",
"l.	c #E6D9A1",
"m.	c #D8BC88",
"n.	c #D5B583",
"o.	c #D6B786",
"p.	c #F9F5F0",
"q.	c #332E36",
"r.	c #907567",
"s.	c #BD9F79",
"t.	c #E2CB98",
"u.	c #EFE1AB",
"v.	c #F3E9C5",
"w.	c #F6EFD5",
"x.	c #FCFAF4",
"y.	c #FEFEFC",
"z.	c #FCF9EF",
"A.	c #E8D7B5",
"B.	c #CBB283",
"C.	c #3C3637",
"D.	c #402F37",
"E.	c #3C2D35",
"F.	c #3F403D",
"G.	c #B1AC82",
"H.	c #E7E0A8",
"I.	c #CCBC8C",
"J.	c #EEE3D4",
"K.	c #6B5851",
"L.	c #977B6B",
"M.	c #D2B282",
"N.	c #DCC28F",
"O.	c #EFE2AC",
"P.	c #EFE1AA",
"Q.	c #EFE2AD",
"R.	c #F8F1DB",
"S.	c #AFADAA",
"T.	c #E6D5AC",
"U.	c #EDDEA8",
"V.	c #8E7B5F",
"W.	c #191D2E",
"X.	c #714845",
"Y.	c #9E6257",
"Z.	c #A2685B",
"`.	c #141A2E",
" +	c #4B423D",
".+	c #C3BD8F",
"++	c #CFC596",
"@+	c #897E63",
"#+	c #C8AA7C",
"$+	c #E4D5A2",
"%+	c #FCFBF5",
"&+	c #68564F",
"*+	c #A3866F",
"=+	c #D3B382",
"-+	c #D6B785",
";+	c #DEC592",
">+	c #EFE0AA",
",+	c #F0E2AF",
"'+	c #F9F3DE",
")+	c #6E6C69",
"!+	c #AD936C",
"~+	c #EFE2C3",
"{+	c #B1A684",
"]+	c #1E1F2F",
"^+	c #BD7B69",
"/+	c #5A323A",
"(+	c #713E41",
"_+	c #877358",
":+	c #CCAE7E",
"<+	c #908264",
"[+	c #8F785F",
"}+	c #C9AA7C",
"|+	c #E3D49D",
"1+	c #F4F0D2",
"2+	c #232331",
"3+	c #95796A",
"4+	c #B09374",
"5+	c #E7D4A0",
"6+	c #F6EED4",
"7+	c #FEFCF6",
"8+	c #6F7071",
"9+	c #5C5044",
"0+	c #DEC493",
"a+	c #D3C5A2",
"b+	c #675949",
"c+	c #1C1D2E",
"d+	c #B15D58",
"e+	c #894146",
"f+	c #6C5D4B",
"g+	c #BDA176",
"h+	c #7C6A53",
"i+	c #796655",
"j+	c #E4D49D",
"k+	c #EDE6AD",
"l+	c #FAF8EA",
"m+	c #11192D",
"n+	c #232431",
"o+	c #967A6A",
"p+	c #C3A57C",
"q+	c #E9D8A3",
"r+	c #EFE2AE",
"s+	c #FAF6E5",
"t+	c #6F6E6E",
"u+	c #302D34",
"v+	c #C3A578",
"w+	c #EBE0BD",
"x+	c #0E182D",
"y+	c #131A2D",
"z+	c #3D353A",
"A+	c #793A41",
"B+	c #B15353",
"C+	c #392231",
"D+	c #272533",
"E+	c #866D61",
"F+	c #9B8069",
"G+	c #CCAD7E",
"H+	c #E6D7AC",
"I+	c #EDE6AC",
"J+	c #F1EBBF",
"K+	c #10192D",
"L+	c #9E8765",
"M+	c #1E2030",
"N+	c #715D54",
"O+	c #A2866D",
"P+	c #C0A17A",
"Q+	c #CBAC7D",
"R+	c #A48B67",
"S+	c #A08865",
"T+	c #AFA27D",
"U+	c #B5AB87",
"V+	c #AEADAD",
"W+	c #262A37",
"X+	c #413A39",
"Y+	c #504D45",
"Z+	c #4B4041",
"`+	c #6D5951",
" @	c #7F3E47",
".@	c #613750",
"+@	c #393239",
"@@	c #725D55",
"#@	c #2F2A35",
"$@	c #AC926C",
"%@	c #D6B788",
"&@	c #FAF8F0",
"*@	c #F9F7E9",
"=@	c #50463F",
"-@	c #C5A77A",
";@	c #806E55",
">@	c #0B172D",
",@	c #695650",
"'@	c #D3BF8F",
")@	c #9C9373",
"!@	c #605C4E",
"~@	c #000E2A",
"{@	c #000D29",
"]@	c #3F3938",
"^@	c #9F9680",
"/@	c #7A735D",
"(@	c #C2A47B",
"_@	c #C3A57A",
":@	c #43373C",
"<@	c #623956",
"[@	c #593550",
"}@	c #683950",
"|@	c #3E2031",
"1@	c #D6B888",
"2@	c #F3EECB",
"3@	c #EFE8B6",
"4@	c #422634",
"5@	c #864045",
"6@	c #584840",
"7@	c #C4A679",
"8@	c #7F6D54",
"9@	c #181D2E",
"0@	c #524544",
"a@	c #C0A27A",
"b@	c #C6A77D",
"c@	c #D7B987",
"d@	c #E2CB97",
"e@	c #E6D7A3",
"f@	c #D9CD9F",
"g@	c #E2DECE",
"h@	c #939396",
"i@	c #131A2E",
"j@	c #9B8463",
"k@	c #E8D7AA",
"l@	c #CBC093",
"m@	c #000C2A",
"n@	c #171C2E",
"o@	c #6B5852",
"p@	c #C3A47B",
"q@	c #957F60",
"r@	c #2A2136",
"s@	c #5C3652",
"t@	c #2B2236",
"u@	c #743942",
"v@	c #592E38",
"w@	c #FEFEFE",
"x@	c #F9F7E7",
"y@	c #482835",
"z@	c #B75555",
"A@	c #915950",
"B@	c #A78D6C",
"C@	c #987F66",
"D@	c #5D4F46",
"E@	c #212330",
"F@	c #191D2F",
"G@	c #756057",
"H@	c #E4CE9A",
"I@	c #F4EBCC",
"J@	c #C7C6C3",
"K@	c #423B39",
"L@	c #D1BA98",
"M@	c #F8F2E0",
"N@	c #D4C697",
"O@	c #000729",
"P@	c #141C2E",
"Q@	c #5E3753",
"R@	c #1A1E2F",
"S@	c #7A6755",
"T@	c #978161",
"U@	c #141B2E",
"V@	c #3F2940",
"W@	c #3C283E",
"X@	c #DCC392",
"Y@	c #FFFFFE",
"Z@	c #EFE9B7",
"`@	c #B45857",
" #	c #BA8C6F",
".#	c #B29771",
"+#	c #BB9F75",
"@#	c #BDAA7E",
"##	c #948161",
"$#	c #2C2E35",
"%#	c #534645",
"&#	c #8F7466",
"*#	c #C4A67C",
"=#	c #D8BA88",
"-#	c #EEDFA9",
";#	c #F1E4B6",
">#	c #C4C1B7",
",#	c #71604A",
"'#	c #E6D29D",
")#	c #A59572",
"!#	c #2D2237",
"~#	c #07152C",
"{#	c #E3D29C",
"]#	c #FAF8EB",
"^#	c #F6F3DB",
"/#	c #B9605A",
"(#	c #BB665D",
"_#	c #CFA87C",
":#	c #C2A578",
"<#	c #917C5E",
"[#	c #6F6954",
"}#	c #9B9270",
"|#	c #DCCE99",
"1#	c #3D3B3A",
"2#	c #191C2F",
"3#	c #302C35",
"4#	c #6E5E4D",
"5#	c #BCA075",
"6#	c #D3B482",
"7#	c #EDDEA9",
"8#	c #F1ECD9",
"9#	c #F3EFE6",
"0#	c #EEDFA8",
"a#	c #E4D3A0",
"b#	c #42413E",
"c#	c #D5B482",
"d#	c #EAE0A7",
"e#	c #F8F5E2",
"f#	c #FDFCF7",
"g#	c #B65756",
"h#	c #BD6C61",
"i#	c #DDC594",
"j#	c #E0CD97",
"k#	c #D2B281",
"l#	c #6C5C4B",
"m#	c #C7B284",
"n#	c #393436",
"o#	c #141C2D",
"p#	c #5D3753",
"q#	c #51314B",
"r#	c #1E1E31",
"s#	c #1F2230",
"t#	c #483F3B",
"u#	c #A78E69",
"v#	c #E6D8A4",
"w#	c #F5EDD0",
"x#	c #DFCA97",
"y#	c #766651",
"z#	c #D9BD8A",
"A#	c #ECE4AA",
"B#	c #BC695F",
"C#	c #DABC91",
"D#	c #E3D29B",
"E#	c #D8BC89",
"F#	c #8B765A",
"G#	c #C3AA7D",
"H#	c #2C2236",
"I#	c #673C59",
"J#	c #613955",
"K#	c #442B43",
"L#	c #5F5A4D",
"M#	c #AC9B76",
"N#	c #D9CB9A",
"O#	c #DCCF9D",
"P#	c #888166",
"Q#	c #E3D39C",
"R#	c #F7F5E0",
"S#	c #544840",
"T#	c #CA9974",
"U#	c #B9635A",
"V#	c #B85B58",
"W#	c #CD9E7C",
"X#	c #E1CE98",
"Y#	c #E4D59E",
"Z#	c #A58A6C",
"`#	c #C0A377",
" $	c #33253A",
".$	c #6B3E5B",
"+$	c #673C58",
"@$	c #52324C",
"#$	c #3B283E",
"$$	c #181C2F",
"%$	c #383839",
"&$	c #39383A",
"*$	c #4D2F49",
"=$	c #633A57",
"-$	c #D8BB88",
";$	c #ECE5AB",
">$	c #F3EFCE",
",$	c #554A41",
"'$	c #D6B684",
")$	c #D7B88E",
"!$	c #CA9675",
"~$	c #AE9272",
"{$	c #C6A87C",
"]$	c #54334D",
"^$	c #713F5B",
"/$	c #7C425A",
"($	c #82445A",
"_$	c #A95156",
":$	c #A54F57",
"<$	c #76415A",
"[$	c #683D5B",
"}$	c #4C2F48",
"|$	c #79415A",
"1$	c #613854",
"2$	c #443D3A",
"3$	c #DAC18D",
"4$	c #D9BC90",
"5$	c #C4896C",
"6$	c #D2AD7F",
"7$	c #A98E6F",
"8$	c #CAAB7E",
"9$	c #3A273D",
"0$	c #9A4C58",
"a$	c #8A4659",
"b$	c #B25455",
"c$	c #9C4C58",
"d$	c #77415A",
"e$	c #6A3D5B",
"f$	c #84455A",
"g$	c #A44F57",
"h$	c #56334C",
"i$	c #DBC38F",
"j$	c #B49971",
"k$	c #E2D09A",
"l$	c #DDC495",
"m$	c #C37F6C",
"n$	c #BB695E",
"o$	c #C58C6E",
"p$	c #90785D",
"q$	c #492E46",
"r$	c #653B58",
"s$	c #80435A",
"t$	c #B45455",
"u$	c #B05355",
"v$	c #6E3C52",
"w$	c #231F32",
"x$	c #EBE2A8",
"y$	c #CDA178",
"z$	c #BE7063",
"A$	c #B9615B",
"B$	c #B75756",
"C$	c #773840",
"D$	c #9E846A",
"E$	c #363136",
"F$	c #583550",
"G$	c #6C3E5B",
"H$	c #9E4D57",
"I$	c #AC5156",
"J$	c #6F3845",
"K$	c #121B2D",
"L$	c #D5B683",
"M$	c #867258",
"N$	c #D4B482",
"O$	c #B85D58",
"P$	c #7E4446",
"Q$	c #826A5E",
"R$	c #673C5A",
"S$	c #76405A",
"T$	c #9A4B57",
"U$	c #984A53",
"V$	c #643442",
"W$	c #181C2E",
"X$	c #877459",
"Y$	c #C58B6D",
"Z$	c #98484B",
"`$	c #705B53",
" %	c #373138",
".%	c #1A1D2F",
"+%	c #E6D8A1",
"@%	c #09162D",
"#%	c #897559",
"$%	c #C48B6D",
"%%	c #97474A",
"&%	c #47393D",
"*%	c #383138",
"=%	c #DEC893",
"-%	c #693E3F",
";%	c #564544",
">%	c #5D4D4A",
",%	c #D6B885",
"                                                    . + @ #                                                               ",
"                                                $ % & * = - ; >                                                           ",
"                                            , ' ) ! ~ { ] ^ / ( _                                                         ",
"                                          : < [ } | 1 1 2 3 1 4 5 6                                                       ",
"                                          7 8 9 0 a b 1 c d e e f g                                                       ",
"                                        h i j k l m n o 1 p q 1 r s                                                       ",
"                                        t u v w x y z A B C D E F ,                                                       ",
"                                        , G H I J K , , L { M N O                                                         ",
"                                          , , P P ,   , Q R S T U                                             V W X Y Z   ",
"                                                      `  ...+.@.,                                         #.$.%.Z Z Z Z   ",
"                                                , &.*.=.-.;.>.,.'.).                                    !.~.{.].Z Z Z Z Z ",
"                                              , ^./.(._.:.<.<.[.}.|.1.                                2.3.4.5.6.7.Z Z Z Z ",
"                                              1.8.9.0.a.b.c.d.e.f.g.h.                            i.j.k.l.m.n.o.p.Z Z Z Z ",
"                                              q.r.s.t.u.v.w.x.y.z.A.B.C.                D.E.    F.G.H.I.n.n.n.n.J.Z Z Z Z ",
"                                            , K.L.M.N.O.u.P.Q.R.S.T.U.V.            W.X.Y.Z.`. +.+++@+#+n.n.n.n.$+%+Z Z Z ",
"                                            , &+*+=+-+;+>+u.,+'+)+!+~+{+,           ]+^+/+(+_+:+<+[+}+n.n.n.n.n.|+1+Z Z Z ",
"                                            2+3+4+n.n.n.N.5+6+7+8+9+0+a+b+          c+d+e+f+g+h+i+n.n.n.n.n.n.n.j+k+l+Z Z ",
"                    , m+                  , n+o+p+n.n.n.n.q+r+s+t+u+v+w+x+        y+z+A+B+C+D+E+F+G+n.n.n.n.n.n.H+I+J+Z Z ",
"                    K+L+ +                , M+N+O+P+Q+R+S+T+U+V+W+z X+Y+,       , Z+o+`+ @.@+@@@#@$@n.n.n.n.n.%@&@I+k+*@Z ",
"                    z =@-@;@>@              , ,@L.M.n.'@)@!@~@{@y+, ]@^@/@,     , 8.(@_@:@<@[@t }@|@n.n.n.n.n.1@7.2@I+3@  ",
"                    4@5@6@7@8@9@            , 0@*+a@b@c@d@e@f@g@h@i@j@k@l@m@  , n@o@p@n.q@r@s@t@u@v@  n.n.n.n.1@w@x@I+I+  ",
"                    y@z@B+A@B@C@D@E@          F@G@L.(@n.n.H@u.I@J@K@L@M@N@O@  P@Q@R@S@Q+T@U@V@W@U@L+  n.n.n.n.X@7.Y@Z@I+  ",
"                    y@z@} `@ #.#+#@###j.$#    , %#&#*#n.n.=#-#;#>#,#'#>+)#    , !#, , ~#1.  , ,   n.    n.n.n.{#]#Z ^#    ",
"                    y@z@/#(#_#:#<#[#}#|#1#    , 2#3#4#5#6#n.7#P.8#9#0#a#b#                        n.n.  n.n.c#d#e#Z f#    ",
"                    y@z@g#h#i#j#n.k#l#m#n#    o#p#q#r#s#t#u#v#u.w#b.x#y#,                         n.n.  n.n.z#A#e#Z       ",
"                    y@z@} B#C#D#E#n.F#G#n#, , H#I#x J#K#, m+L#M#N#O#P#V@,                         n.n.n.  n.Q#I+R#        ",
"                    S#T#U#V#W#X#Y#n.Z#`#n#, ,  $x x x .$+$@$#$$$%$&$*$=$,                     n.  n.n.n.  -$;$I+>$        ",
"                    ,$'$n.)$!$n.n.n.~${$n#, , ]$^$/$($_$:$<$[$p##$}$|$1$,                     n.  n.n.n.    I+I+          ",
"                    2$G+3$l.4$5$6$n.7$8$n#, , 9$^$0$a$} } b$c$d$e$f$g$h$,                     n.  n.n.n.i$  I+            ",
"                    x+j$'$k$l$m$n$o$p$_@n#, F@q$r$s$a$j } } } t$j u$v$w$                      n.n.n.n.E#x$  I+            ",
"                      f+=+n.y$z$A$B$C$D$E$, , h F$G$H$t$} } } } I$J$K$                        n.n.n.L$l.I+                ",
"                      x+M$N$n.O$} } P$Q$2+  , , #$y R$S$T$T$T$U$V$W$,                       n.  n.n.3$I+                  ",
"                        9@X$=+Y$} Z$`$ %      , , F@P P P P P .%, , ,                       n.  n.-++%                    ",
"                          @%#%$%%%&%*%          , , ,           , , , ,                   n.n.  n.=%                      ",
"                            z -%;%>%          , , ,             , , ,                     n.n.  ,%                        ",
"                              , n@          , , ,               , , ,                   n.n.  n.                          ",
"                                                                                        n.                                ",
"                                                                                      n.                                  ",
"                                                                                    n.                                    ",
"                                                                                                                          "};
