/* XPM */
static char * player_attack_right00_xpm[] = {
"80 80 10 1",
" 	c None",
".	c #161C2E",
"+	c #B65555",
"@	c #C5836E",
"#	c #693D5B",
"$	c #FFFFFF",
"%	c #D5B583",
"&	c #977B6B",
"*	c #EDE6AC",
"=	c #EFE1AB",
"                                                                                ",
"                                                                                ",
"                                                                                ",
"                                                                                ",
"                                                                                ",
"                                                                                ",
"                                                                                ",
"                                                                                ",
"                                                                                ",
"                                                                                ",
"                            ...                                                 ",
"                        ....+++...                                              ",
"                      ...+++@@@@@@..                                            ",
"                     ...+++++@@@@@...                                           ",
"                    ...+++@@@@@@@@@@..                                          ",
"                   ..##++++@@@@+++@@@.                                          ",
"                   .##+++...@@@@++@@@..                                         ",
"                   .#++###.....@@@.@@@.                                         ",
"                   .##+#####...@@@.@@+.                                         ",
"                   .##++####....@@.@@+.                                      $$ ",
"                   ....###......+@.@+.                                  %%%$$$$ ",
"                     ....... ...##+##.                               %.%$$$$$$$ ",
"                       ...  ....++.++..                             %%.$$$$$$$$ ",
"                           .&&&.#.+......                          .%$$$$$$$$$$$",
"                         ...$$$$$$$$$$%...                       ..$$*$$$$$$$$$$",
"                         ....%%$$$$$$%....                      ..*$*%$$$$$$$$$$",
"                        ..&&%===========%..                    ..***%*$$$$$$$$$$",
"                        ..&&%%==$$$$$$$$=%.            ..    ..***%%**$$$$$$$$$$",
"                       ...&&%%======$$$$=%.           ....  ...**.%***$$$$$$$$$$",
"                       ..&&&%%=======$.%==%.        ....@. ..**&.%*****$$$$$$$$$",
"                       ...&%%%%=====$$..%$=..       ..@....%%.&.*******$$$$$$$$$",
"                       ..&&%%%%%===$$$..%==..       ..@...%%%..********$$$$$$$$$",
"       ..              ..&&%%%%%%%====..%%$..       ..++.%%..&*********$$$$$$$$$",
"      ....            ...&%%%%%%%%===$...%=..      ...+++...&&********$$$$$$$$$ ",
"      ..%..           ...&&%%%%%%%==$........     ..&..++..&&.********$$$$$$$$$ ",
"      ...%%..         ....&&%%%...............   ...&&..+#...*********$$$$$$$$$ ",
"      .+..%%..         ..&&&%%%===.......%%=..   ..&%%%..##..**********$$$$$$$$ ",
"      .++..%%...       ...&%%%%%=====$...%%==.   ..&%%%..###.**********$$$$$$$  ",
"      .++++..&&...      ..&&&%%%%%===$...%$==.  ....&%%%..##.***********$$$$$$  ",
"      .++++++%%%%%....   ..&&%%%%%====..%==%%.  .##...%......***********$$$$$$  ",
"      .+++++%...*%%*..   ..&&%%%%%%==$..%===..  ..#..........************$$$$$  ",
"      .+++@+%%%%...%..   .....%%%%%===$$===..    ..          ********$***$$$    ",
"      .+++@@**%%%%.*..   ..#.....%%======%%..               ********$$***$$$    ",
"      .++++@**%%%%.*..   ..##.....%===$$=%....              ********$$****$     ",
"      .++++@@%%%%%.%.. ...#####......%===.#...              *******$$$****$     ",
"      .%%++++***%%&%.. ...########.......###..             ********$$$$***      ",
"      .%%%+++%%%%%&%.. ...#########......##...             ********$$$$**       ",
"      .%%%**@%%%%%&%......##+#++++####..#++#.             *********$$$$*        ",
"      ..%%%**++%%%.%.. ...#####+++++####++#..        %    ********$$$$$         ",
"      ..%%***@++%%.%.. ..####+#++++++###+##..       %%   *********$$$$$         ",
"       .%%%%%@++++.&.. ...###++++++++++++..        %%%   *********$$$$          ",
"       ..%%%%+++++.&.. ....####+++++++++...        %%   *******$**$$$           ",
"        ..%%%+++++.&..  ....####++++++#...        %%%  ********$**$$            ",
"         ..%%%+++.&..    ..................      %%%   ********$**$             ",
"          ..%%++.&..      .................     %%%%  *******$$***              ",
"           ..%++...       .....        ....    %%%%  ********$$*                ",
"            ....&.        ...         ...%    %%%%%%********$$$                 ",
"             ....        ...          %%%    %%%%%%********$$$                  ",
"              ..       .....         %%%.   %%%%%%********$$$                   ",
"                                  %%%%    %%%%%%%********$$$                    ",
"                             %%%%%%%%   %%%%%%%%*******$$$                      ",
"                           %%%%%%%%%    %%%%%%%%*******$$                       ",
"                      %%%%%%%%%%%%    %%%%%%%%******$$$                         ",
"               %%%%%%%%%%%%%%%%%     %%%%%%%%******$$                           ",
"            %%%%%%%%%%%%%%%%%%%    %%%%%%%%%*******$                            ",
"             %%%%%%%%%%%%%%%%     %%%%%%%%*******                               ",
"                %%%%%%%%%%%     %%%%%%%%%*****                                  ",
"                 %%%%%%%%%      %%%%%%%%****                                    ",
"                      %%     %%%%%%%%%**                                        ",
"                           %%%%%%%                                              ",
"                                                                                ",
"                                                                                ",
"                                                                                ",
"                                                                                ",
"                                                                                ",
"                                                                                ",
"                                                                                ",
"                                                                                ",
"                                                                                ",
"                                                                                "};
