/* XPM */
static char * player_idle_left01_xpm[] = {
"80 80 10 1",
" 	c None",
".	c #161C2E",
"+	c #C5836E",
"@	c #B65555",
"#	c #693D5B",
"$	c #D5B583",
"%	c #FFFFFF",
"&	c #977B6B",
"*	c #EDE6AC",
"=	c #EFE1AB",
"                                                                                ",
"                                                                                ",
"                                                                                ",
"                                                                                ",
"                                                                                ",
"                                                                                ",
"                                                                                ",
"                                                                                ",
"                                                                                ",
"                                                                                ",
"                                                                                ",
"                                                                                ",
"                                                                                ",
"                                                                                ",
"                                                                                ",
"                                                                                ",
"                                                     .......                    ",
"                                                  ...+++++++..@.                ",
"                                                ...@@++++@+++.@@.               ",
"                                               ..+++++++++@@+++@...             ",
"                                              ..@+++++@@@++++@@@...             ",
"                                              ..+++...++++++++@@...             ",
"                                            ..@@+..+++++++++++@@@...            ",
"                                            ..@@+..++++....+++@@@##.            ",
"                                            .@.@@@@...........@@@@..            ",
"               $                            @@.@@@......###...@@@@..            ",
"               $$$                         .@@##@......######.@@@##.            ",
"               $$$                       ....@..@......######.@@##..            ",
"               .%$$                     .....#..#..&...#######@@@#..            ",
"               .%%$$$                  ..%%%....##.&$$$..####@###..             ",
"               .*%%$$                 ...$%%%%%%%%%%%%...#######...             ",
"               .**%%%.$              ..$$===$$$$====...&.........               ",
"               .**%%%.$              ..$$============$&&........                ",
"               .**$%%%$              .$==%%%%%%%%===$$&&&..                     ",
"               .*$$%%%$.             .$==%%%%=======$$$&&...                    ",
"               .*$$$%%%.            .$===..=========$$$&&...                    ",
"                ..$$$*%..          ..==$$..=======$$$$$&&...      ....          ",
"                ..$$$**..          ..=%$$..%%======$$$$&&...     ..$..          ",
"                 .$$$$**..         .$==$...%%%=$$$$$$$$&&&..   ..$$...          ",
"                 ..$$$$**.         ..%$$...=====$$$$$$$&&&..  ..$$$...          ",
"                  ..$$$**..       ...=$....%====$$$$$$$$&&.....$$...@.          ",
"                  ..$$$.*...      ..........%===$$$$$$$&&&....$$...@@.          ",
"                  ...$$.**..      ..................$&&&.....$$$.@@@@.          ",
"                   ..$$.&**.      ..=............==$$$$...$$$&&&@@@@@.          ",
"                    .$$..**..     ..=$$........====$....$$$$$$@@@@@@@.          ",
"                     .$$..*$. .....===$...%%%===$$$..***....$$$@@@@@@.          ",
"                     ..$$.$$...++..==%$...%%====$$$..$$...$$$$$@++@@@.          ",
"                     ..$$..$$.@+.@.$$==$..%====$$$$..$*.$$$$***++@@@@.          ",
"                      .$$...$.@..@..===$..%%==$$$$$..$*.$$$$$**+@@@@@.          ",
"                      ..&&..$$..@+..===$$.====$$$$$..$$.$$$$**++@@@@@.          ",
"                      ...&&....@++...===%%%===$$$$$..$$&$$$**$++@@@@$.          ",
"                     ....&&...@@@@...$$=======$$.....$$&$$$*$*@@@@@$$.          ",
"                    .@@#....##@@....#..=======.......$$&$$$$$$++*$$$$.          ",
"                    .@#...##@@....####.====$.........$$&$$$$$$+**$$$$.          ",
"                     ....###..&&&&..###.........###..$$.$$$$@@**$$$$..          ",
"                     ..###....$$&&..#@#.......###@@..$$.$$@@++***$$$..          ",
"                     ..##....$$$&&..#@@#....####@@@..$$.$@+@++**$$$$.           ",
"                      ......$$$$&&...@@######@@@@@@..$&.@@@@+@$$$$$..           ",
"                         ...$$$$&.....#@@###@@@@@@@..&&.@@@@@@$$$$$..           ",
"                          .............#@@@@@@@@####..&.@@@@@@$$$..             ",
"                           ......#.. ....############..&.@@@@$$$...             ",
"                               .##......................&.@@@$$..               ",
"                               ............................@@$..                ",
"                                ..........      .........&..@$..                ",
"                                    .......        ..    .&...                  ",
"                                     ...  .      .....   .....                  ",
"                                                           .                    ",
"                                                                                ",
"                                                                                ",
"                                                                                ",
"                                                                                ",
"                                                                                ",
"                                                                                ",
"                                                                                ",
"                                                                                ",
"                                                                                ",
"                                                                                ",
"                                                                                ",
"                                                                                ",
"                                                                                "};
