/* XPM */
static char * player_idle_left00_xpm[] = {
"38 40 457 2",
"  	c None",
". 	c #422633",
"+ 	c #7D3C42",
"@ 	c #5D3039",
"# 	c #161C2E",
"$ 	c #8D5E54",
"% 	c #916055",
"& 	c #B5635B",
"* 	c #6A353D",
"= 	c #784645",
"- 	c #A2665A",
"; 	c #C37D6A",
"> 	c #BD6D61",
", 	c #C4816D",
"' 	c #C07666",
") 	c #B85E59",
"! 	c #9D4A4C",
"~ 	c #4A2B3B",
"{ 	c #8B4D4B",
"] 	c #C4826D",
"^ 	c #C5836E",
"/ 	c #C17968",
"( 	c #C4806C",
"_ 	c #BF7465",
": 	c #B65555",
"< 	c #994A51",
"[ 	c #522B37",
"} 	c #4D353A",
"| 	c #B97464",
"1 	c #BF7365",
"2 	c #C4836E",
"3 	c #BA635C",
"4 	c #AA5156",
"5 	c #793E51",
"6 	c #302438",
"7 	c #291F30",
"8 	c #985852",
"9 	c #9C6057",
"0 	c #B57464",
"a 	c #9F6A5C",
"b 	c #533A3C",
"c 	c #874045",
"d 	c #B45454",
"e 	c #8B4658",
"f 	c #34253A",
"g 	c #2A2030",
"h 	c #B97263",
"i 	c #996659",
"j 	c #965E55",
"k 	c #966256",
"l 	c #1B1E2F",
"m 	c #262034",
"n 	c #593550",
"o 	c #5D3753",
"p 	c #6A3B52",
"q 	c #AF5254",
"r 	c #A85056",
"s 	c #402A41",
"t 	c #282031",
"u 	c #A25B5E",
"v 	c #644342",
"w 	c #BE7666",
"x 	c #A65A55",
"y 	c #1E1D2F",
"z 	c #54334D",
"A 	c #693D5B",
"B 	c #8F4859",
"C 	c #683C58",
"D 	c #1B1D2F",
"E 	c #38273C",
"F 	c #894556",
"G 	c #81404E",
"H 	c #9E4C53",
"I 	c #6D3848",
"J 	c #282134",
"K 	c #50314B",
"L 	c #5F3854",
"M 	c #55334E",
"N 	c #5F313D",
"O 	c #8F454C",
"P 	c #7E3F4E",
"Q 	c #743940",
"R 	c #2E2C33",
"S 	c #393236",
"T 	c #663543",
"U 	c #2D2133",
"V 	c #6A384A",
"W 	c #191D2F",
"X 	c #554745",
"Y 	c #2A2833",
"Z 	c #D5B583",
"` 	c #6E6F74",
" .	c #DCD4CB",
"..	c #E0D9CF",
"+.	c #86868A",
"@.	c #958B93",
"#.	c #90898F",
"$.	c #C2B0A2",
"%.	c #C2AE98",
"&.	c #443C3A",
"*.	c #877358",
"=.	c #E9DDD0",
"-.	c #453D3B",
";.	c #968667",
">.	c #D1C19B",
",.	c #E9DABA",
"'.	c #EFE5D8",
").	c #F0E5D8",
"!.	c #F9F3E2",
"~.	c #CEBFA3",
"{.	c #6B6C70",
"].	c #5D4D49",
"^.	c #181D2E",
"/.	c #EEEDE3",
"(.	c #F2E9DF",
"_.	c #C4A87E",
":.	c #1A1E2F",
"<.	c #AF966F",
"[.	c #DDC393",
"}.	c #F3E9C8",
"|.	c #F7F1DA",
"1.	c #F7F0DA",
"2.	c #F0E4B5",
"3.	c #F0E3B2",
"4.	c #EFE1AB",
"5.	c #EDDEA8",
"6.	c #CDB386",
"7.	c #977B6B",
"8.	c #E4DEB5",
"9.	c #FFFFFF",
"0.	c #DBD7CF",
"a.	c #927E60",
"b.	c #5D5145",
"c.	c #E4D09B",
"d.	c #F1E6C4",
"e.	c #E2E2E2",
"f.	c #FBF8ED",
"g.	c #F6EED3",
"h.	c #F4ECCC",
"i.	c #F3E9C5",
"j.	c #E2CD99",
"k.	c #D1B181",
"l.	c #A0846E",
"m.	c #796359",
"n.	c #E1DAA3",
"o.	c #E9DAC7",
"p.	c #FAF8E9",
"q.	c #DAC6A4",
"r.	c #A69672",
"s.	c #CBB284",
"t.	c #454243",
"u.	c #F4EBCC",
"v.	c #E6D39F",
"w.	c #DDC390",
"x.	c #A58870",
"y.	c #927768",
"z.	c #D0BE8C",
"A.	c #DEC89A",
"B.	c #F2ECD6",
"C.	c #F4EEE2",
"D.	c #383336",
"E.	c #B7AB85",
"F.	c #ECDEC6",
"G.	c #917C5E",
"H.	c #3B3D47",
"I.	c #F6EED4",
"J.	c #EEDFA9",
"K.	c #EAD9A4",
"L.	c #BFA17A",
"M.	c #866D60",
"N.	c #463B3E",
"O.	c #5C4F44",
"P.	c #DDC692",
"Q.	c #DBC18E",
"R.	c #F5F1D8",
"S.	c #8B8869",
"T.	c #564B41",
"U.	c #EDE3C9",
"V.	c #D3B786",
"W.	c #5E5145",
"X.	c #3A3B42",
"Y.	c #F9F3E1",
"Z.	c #F3E9C4",
"`.	c #EADAA4",
" +	c #C6A77D",
".+	c #5D4D4A",
"++	c #AC926C",
"@+	c #E6D9A1",
"#+	c #D6D09C",
"$+	c #B1A781",
"%+	c #947E5F",
"&+	c #2E313D",
"*+	c #E9E8E5",
"=+	c #F1E5B8",
"-+	c #CBAC7F",
";+	c #393436",
">+	c #5A4E43",
",+	c #544940",
"'+	c #D2B281",
")+	c #E7E0A8",
"!+	c #8E8B6B",
"~+	c #3E3C3C",
"{+	c #484541",
"]+	c #333337",
"^+	c #83765D",
"/+	c #BEA276",
"(+	c #C5A77D",
"_+	c #9F826E",
":+	c #5C4D49",
"<+	c #7F6D54",
"[+	c #B39870",
"}+	c #AA916B",
"|+	c #858266",
"1+	c #D4CE9B",
"2+	c #343638",
"3+	c #ADA37E",
"4+	c #D9CAA9",
"5+	c #7A6852",
"6+	c #262937",
"7+	c #928D7F",
"8+	c #8E866A",
"9+	c #B2A882",
"0+	c #D5C798",
"a+	c #E3CE9A",
"b+	c #AD9073",
"c+	c #886F62",
"d+	c #806D55",
"e+	c #C4A679",
"f+	c #584C42",
"g+	c #492835",
"h+	c #5F5245",
"i+	c #D0B180",
"j+	c #998264",
"k+	c #DDD3A0",
"l+	c #898568",
"m+	c #D5C899",
"n+	c #F4ECD3",
"o+	c #BDA175",
"p+	c #B4B4B6",
"q+	c #FCFAF4",
"r+	c #F0E4B4",
"s+	c #D7B987",
"t+	c #C9AA7E",
"u+	c #9F836E",
"v+	c #9C806D",
"w+	c #544645",
"x+	c #9F8865",
"y+	c #C5A87A",
"z+	c #775248",
"A+	c #9B494C",
"B+	c #B2976F",
"C+	c #B2986F",
"D+	c #A29676",
"E+	c #CCBF8E",
"F+	c #C3B186",
"G+	c #F2E7C1",
"H+	c #E4D1AB",
"I+	c #6D5E4C",
"J+	c #BBBBBB",
"K+	c #F0E3B1",
"L+	c #E1C996",
"M+	c #CBAC7E",
"N+	c #8C7264",
"O+	c #5D5144",
"P+	c #937D5E",
"Q+	c #BA9C77",
"R+	c #A0836D",
"S+	c #8F5854",
"T+	c #9E4A4D",
"U+	c #564A41",
"V+	c #D1B281",
"W+	c #72614F",
"X+	c #C1A97C",
"Y+	c #826F56",
"Z+	c #472834",
"`+	c #A97060",
" @	c #744E49",
".@	c #7E7760",
"+@	c #EDDFAA",
"@@	c #ECDCA6",
"#@	c #C1B5A4",
"$@	c #CEC8B4",
"%@	c #F1E4B5",
"&@	c #D6B785",
"*@	c #5B4E43",
"=@	c #ACA77F",
"-@	c #CCC291",
";@	c #B9A67C",
">@	c #938566",
",@	c #8D785C",
"'@	c #C0A277",
")@	c #BE7663",
"!@	c #937B63",
"~@	c #73634E",
"{@	c #C1A478",
"]@	c #71383F",
"^@	c #8F544F",
"/@	c #8A4A4A",
"(@	c #4C363A",
"_@	c #C1AD82",
":@	c #E5D19D",
"<@	c #F5EDD1",
"[@	c #F6EFD6",
"}@	c #B49970",
"|@	c #847057",
"1@	c #B29A72",
"2@	c #776C56",
"3@	c #74644F",
"4@	c #BFA276",
"5@	c #C3836A",
"6@	c #BD6B61",
"7@	c #3D353A",
"8@	c #947869",
"9@	c #443A3D",
"0@	c #B0966E",
"a@	c #695A4A",
"b@	c #763A40",
"c@	c #C27C6A",
"d@	c #694445",
"e@	c #462F43",
"f@	c #C7B88C",
"g@	c #F1E6BB",
"h@	c #E7D8A3",
"i@	c #C8BC90",
"j@	c #6A5C4B",
"k@	c #B6A379",
"l@	c #6D6955",
"m@	c #D4B482",
"n@	c #ECE5AB",
"o@	c #CFA280",
"p@	c #BA645C",
"q@	c #2E2337",
"r@	c #6D5952",
"s@	c #5B4C49",
"t@	c #352231",
"u@	c #854045",
"v@	c #B55555",
"w@	c #A05652",
"x@	c #502F44",
"y@	c #673C5A",
"z@	c #483F42",
"A@	c #9C9473",
"B@	c #A69C79",
"C@	c #645748",
"D@	c #1A1D2F",
"E@	c #432B42",
"F@	c #736150",
"G@	c #D4B483",
"H@	c #D7BA87",
"I@	c #E3D29B",
"J@	c #DDC693",
"K@	c #C27B6A",
"L@	c #B75756",
"M@	c #A46356",
"N@	c #974951",
"O@	c #1B1D30",
"P@	c #4A2E47",
"Q@	c #834458",
"R@	c #9F4B50",
"S@	c #69363D",
"T@	c #292231",
"U@	c #51314B",
"V@	c #A14E57",
"W@	c #784056",
"X@	c #2B2236",
"Y@	c #2C2236",
"Z@	c #58354F",
"`@	c #683C59",
" #	c #894659",
".#	c #201E2F",
"+#	c #8A735F",
"@#	c #D4B583",
"##	c #D8BC89",
"$#	c #B85B58",
"%#	c #BE7763",
"&#	c #CDA279",
"*#	c #B99C73",
"=#	c #35253B",
"-#	c #603855",
";#	c #3F2A40",
">#	c #6D5C4D",
",#	c #927966",
"'#	c #7E675C",
")#	c #2D2237",
"!#	c #784055",
"~#	c #9D4D57",
"{#	c #683B56",
"]#	c #56344E",
"^#	c #6E3E5B",
"/#	c #8B4759",
"(#	c #AB5156",
"_#	c #984B58",
":#	c #CFA67B",
"<#	c #DDC596",
"[#	c #E5D79F",
"}#	c #B99D73",
"|#	c #492E46",
"1#	c #3F2940",
"2#	c #88735B",
"3#	c #CFB081",
"4#	c #8A7163",
"5#	c #2D2235",
"6#	c #944853",
"7#	c #8D4759",
"8#	c #A24E57",
"9#	c #A34E57",
"0#	c #907762",
"a#	c #CEA379",
"b#	c #C28068",
"c#	c #C17C69",
"d#	c #EBE1A8",
"e#	c #E0CC96",
"f#	c #8E795C",
"g#	c #D2B381",
"h#	c #776258",
"i#	c #412634",
"j#	c #9C4B52",
"k#	c #B35455",
"l#	c #B15355",
"m#	c #8E4859",
"n#	c #6B3E5B",
"o#	c #A88F6B",
"p#	c #584C44",
"q#	c #BE7863",
"r#	c #BC6B60",
"s#	c #C07566",
"t#	c #C4846E",
"u#	c #DEC994",
"v#	c #D5B684",
"w#	c #6A5B4A",
"x#	c #7B6954",
"y#	c #5F4F4B",
"z#	c #2D2337",
"A#	c #221F32",
"B#	c #412A41",
"C#	c #181C2F",
"D#	c #8A7360",
"E#	c #473C3F",
"F#	c #BB655D",
"G#	c #C28268",
"H#	c #A08865",
"I#	c #623956",
"J#	c #4C4041",
"K#	c #A44D4F",
"L#	c #CCA078",
"M#	c #9A8362",
"N#	c #171C2E",
"O#	c #4B3F41",
"P#	c #554242",
"Q#	c #A54D4F",
"R#	c #9E8764",
"S#	c #6B504C",
"T#	c #A34D4E",
"U#	c #9E8664",
"V#	c #202130",
"W#	c #574846",
"X#	c #372332",
"                                                                            ",
"                                                . + @                       ",
"                                          # # $ % & * # #                   ",
"                                        = - ; > , ' ) ! ~ #                 ",
"                                      { ] ^ / / ( ^ _ : < [ #               ",
"                                    } | ^ 1 1 ^ ^ 2 3 : 4 5 6               ",
"                                  7 8 ^ 9 0 ^ a b # 7 c d e f               ",
"                                  g h i j ( k l m n o p q r s               ",
"                                  t u v w x y # z A A B r C D               ",
"                                  E F G H I #   J K L L M f                 ",
"                                    N O P Q #     # # # #                   ",
"                                  R S T U V W X Y                           ",
"  Z Z                         # `  ...+.+.@.#.$.%.&.                        ",
"  *.=.Z                       -.;.>.,.'.).!.!.~.{.].^.                      ",
"  # /.(._.                  :.<.[.}.|.1.2.3.4.5.6.7.Y #                     ",
"  # 8.9.0.a.                b.c.d.e.f.g.h.i.4.j.k.l.m.#                     ",
"  # n.o.p.q.              # r.5.s.t.u.4.4.4.v.w.Z x.y.#                     ",
"  # z.A.B.C.#             D.E.F.G.H.9.I.J.K.w.Z Z L.M.N.#                   ",
"    O.P.Q.R.S.            T.U.V.W.X.Y.Z.`.Z Z Z Z  +7..+#                   ",
"    # ++Z @+#+#           # $+%+# &+*+=+J.Z Z Z Z -+7..+#       ;+>+#       ",
"      ,+'+Z )+!+          ~+{+# # # # # # ]+^+/+(+_+:+# #     <+[+>+#       ",
"      # }+Z |+1+2+      # 3+4+5+# 6+7+8+9+0+a+Z Z b+c+# # # d+e+f+g+#       ",
"        h+i+j+k+l+      # m+n+o+# p+q+r+J.s+Z t+u+v+w+# # x+y+z+A+A+#       ",
"        # B+C+D+E+#   # # F+G+H+I+J+K+4.L+Z Z M+N+:+O+P+Q+R+S+: : T+#       ",
"          U+V+W+X+Y+Z+`+ @.@+@@@#@$@%@4.&@Z Z *@=@-@;@>@,@'@)@: : T+#       ",
"          # }+!@~@{@]@^@/@(@_@:@<@[@4.4.&@}@|@^.1@2@3@4@k.Z 5@6@: T+#       ",
"            7@8@9@0@a@b@c@d@e@f@g@<@h@i@j@# # # k@l@m@Z P.n@o@p@: T+#       ",
"          # q@r@s@t@u@v@w@x@y@z@A@B@C@# D@E@n D@0@F@G@H@I@J@K@L@: M@#       ",
"        # N@z O@P@Q@R@S@T@U@V@W@X@# Y@Z@`@ #V@.#0@+#@###P.J@$#%#&#*##       ",
"          # =#M -#;#>#,#'#)#!#~#{#]#^#/#(#: _#O@0@x.Z Z Z :#<#[#Z }##       ",
"          # |#1#D@2#i+3#4## 5#6#~#7#8#: : : 9#.#0@0#G@a#b#c#d#e#Z f##       ",
"            # # # g#G@ +h## # i#j#k#k#k#l#m#n#O@o#p#q#r#s#t#u#v#i+W.        ",
"                # w#x#y#z#A#  # # B#E@E@E@E@E@C#D#E#v@: F#G#Z Z H##         ",
"                    # C#I#z#      # # # # # # # J#m.K#: : L#Z M##           ",
"                      # N##       # # #     # # # O#P#Q#: G@R#^.            ",
"                                  # # #   # # #   # Y S#T#U##               ",
"                                  # # #   # # # #   V#W#X##                 ",
"                                                      # #                   ",
"                                                                            ",
"                                                                            "};
