/* XPM */
static char * player_idle_left01_xpm[] = {
"38 40 457 2",
"  	c None",
". 	c #161C2E",
"+ 	c #543B3D",
"@ 	c #5C4040",
"# 	c #5A2F39",
"$ 	c #614140",
"% 	c #A86259",
"& 	c #C07E6B",
"* 	c #C5836E",
"= 	c #C27C6A",
"- 	c #C17868",
"; 	c #AC7262",
"> 	c #995852",
", 	c #864045",
"' 	c #1D1D2F",
") 	c #975D54",
"! 	c #C2816D",
"~ 	c #C17B69",
"{ 	c #BE7063",
"] 	c #C07566",
"^ 	c #BF7365",
"/ 	c #C4816D",
"( 	c #BE6F63",
"_ 	c #8E4849",
": 	c #1F1D2F",
"< 	c #8F4D4B",
"[ 	c #BD7B69",
"} 	c #80564E",
"| 	c #744E49",
"1 	c #B07564",
"2 	c #C17968",
"3 	c #B65555",
"4 	c #6B353D",
"5 	c #8F4448",
"6 	c #B25657",
"7 	c #865554",
"8 	c #995F55",
"9 	c #BD7E6A",
"0 	c #9F6A5C",
"a 	c #634342",
"b 	c #624342",
"c 	c #B37665",
"d 	c #BA655D",
"e 	c #9C4B52",
"f 	c #2C2236",
"g 	c #60313A",
"h 	c #9C4A4C",
"i 	c #96474A",
"j 	c #B25354",
"k 	c #68373D",
"l 	c #282331",
"m 	c #1E1E31",
"n 	c #4D3049",
"o 	c #3F2940",
"p 	c #272232",
"q 	c #98484A",
"r 	c #AA5052",
"s 	c #D5B583",
"t 	c #69343C",
"u 	c #8C444D",
"v 	c #81404E",
"w 	c #924549",
"x 	c #422B42",
"y 	c #693D5B",
"z 	c #5D3753",
"A 	c #693540",
"B 	c #7B4158",
"C 	c #3E2940",
"D 	c #CFC4B7",
"E 	c #DEC6A4",
"F 	c #74634F",
"G 	c #4C2C3E",
"H 	c #372436",
"I 	c #67394F",
"J 	c #2C2834",
"K 	c #745F56",
"L 	c #504343",
"M 	c #402A41",
"N 	c #6C3E5A",
"O 	c #994A56",
"P 	c #8B4655",
"Q 	c #B1AF9F",
"R 	c #FCFBF9",
"S 	c #DDC4A1",
"T 	c #8C8C8E",
"U 	c #F3EEE8",
"V 	c #E6E5E4",
"W 	c #BCBCBE",
"X 	c #C5BFC3",
"Y 	c #C2BEC1",
"Z 	c #DED0C1",
"` 	c #C9B8A4",
" .	c #1C1F2F",
"..	c #492E46",
"+.	c #653B58",
"@.	c #6C3D59",
"#.	c #8C4759",
"$.	c #683C5A",
"%.	c #3A273D",
"&.	c #AAA57E",
"*.	c #FAF8EA",
"=.	c #FBF9F6",
"-.	c #787569",
";.	c #867258",
">.	c #BEAC81",
",.	c #DCCB9A",
"'.	c #E8D7AD",
").	c #EBDCC0",
"!.	c #EDDFC3",
"~.	c #F4ECCC",
"{.	c #F4EACA",
"].	c #BFAE84",
"^.	c #6C5E4F",
"/.	c #7A6459",
"(.	c #312438",
"_.	c #412A41",
":.	c #33253A",
"<.	c #E6D8AE",
"[.	c #FBF8F5",
"}.	c #E6DEC0",
"|.	c #4F453E",
"1.	c #CEB384",
"2.	c #E7D5B3",
"3.	c #FAF6E9",
"4.	c #FDFBF4",
"5.	c #FCFAF3",
"6.	c #F6EFD5",
"7.	c #F3E9C6",
"8.	c #EFE1AB",
"9.	c #E6D29D",
"0.	c #C0A27B",
"a.	c #947969",
"b.	c #41373C",
"c.	c #A39E79",
"d.	c #DAC18D",
"e.	c #EADDCB",
"f.	c #F7F4E0",
"g.	c #A39B92",
"h.	c #948364",
"i.	c #ECDDA7",
"j.	c #EADCBA",
"k.	c #C8C7C4",
"l.	c #F8F2DE",
"m.	c #EFE2AD",
"n.	c #DFC693",
"o.	c #987C6B",
"p.	c #BEAE81",
"q.	c #EBE1B4",
"r.	c #D4D1B9",
"s.	c #BDB18D",
"t.	c #ECDDB6",
"u.	c #B0966F",
"v.	c #7C7A75",
"w.	c #F7F0D8",
"x.	c #EFE1AC",
"y.	c #E1CB97",
"z.	c #D8BA88",
"A.	c #A2866F",
"B.	c #7C655B",
"C.	c #473F3B",
"D.	c #343035",
"E.	c #675949",
"F.	c #DCC38F",
"G.	c #EBE4AB",
"H.	c #7B785F",
"I.	c #72624E",
"J.	c #D3C497",
"K.	c #DEC69B",
"L.	c #50463F",
"M.	c #7F8084",
"N.	c #FFFFFF",
"O.	c #E8D5A1",
"P.	c #DFC794",
"Q.	c #D7B886",
"R.	c #B99B78",
"S.	c #917667",
"T.	c #40373C",
"U.	c #B0966E",
"V.	c #443D3A",
"W.	c #B39870",
"X.	c #DDCC97",
"Y.	c #CDC796",
"Z.	c #272A33",
"`.	c #30323A",
" +	c #F0E5CA",
".+	c #C1A478",
"++	c #2A2932",
"@+	c #7C7A73",
"#+	c #F7F0DA",
"$+	c #EFE1AD",
"%+	c #EAD8A3",
"&+	c #C7A87D",
"*+	c #977B6B",
"=+	c #443A3D",
"-+	c #7B6952",
";+	c #CAAC7D",
">+	c #5A4E43",
",+	c #332231",
"'+	c #6C5D4B",
")+	c #D2B381",
"!+	c #9B8665",
"~+	c #D8D29E",
"{+	c #78765D",
"]+	c #1F2330",
"^+	c #867D63",
"/+	c #635647",
"(+	c #494A52",
"_+	c #CBC9C5",
":+	c #CCC095",
"<+	c #C7B88C",
"[+	c #B59A71",
"}+	c #CBAC7D",
"|+	c #C8A97E",
"1+	c #B69976",
"2+	c #80695D",
"3+	c #3B3339",
"4+	c #2D2B33",
"5+	c #907B5D",
"6+	c #C4A679",
"7+	c #735248",
"8+	c #904448",
"9+	c #884145",
"0+	c #B69B72",
"a+	c #AFA480",
"b+	c #D0CA98",
"c+	c #7F7961",
"d+	c #726C59",
"e+	c #C4B388",
"f+	c #D1B281",
"g+	c #D1B181",
"h+	c #6E5B53",
"i+	c #8E795C",
"j+	c #B19473",
"k+	c #987D69",
"l+	c #976158",
"m+	c #8C4347",
"n+	c #6B5C4B",
"o+	c #CFB07F",
"p+	c #7D6857",
"q+	c #E0D8A3",
"r+	c #71614D",
"s+	c #D3C799",
"t+	c #E4D1AB",
"u+	c #7A6952",
"v+	c #78797D",
"w+	c #C0BAA7",
"x+	c #BBB088",
"y+	c #DDCF9E",
"z+	c #E7D4A0",
"A+	c #D8BD8B",
"B+	c #5C5044",
"C+	c #A9A57D",
"D+	c #B4A87E",
"E+	c #CDB888",
"F+	c #A08B69",
"G+	c #9E8765",
"H+	c #C4A277",
"I+	c #B9635A",
"J+	c #B49970",
"K+	c #AB916C",
"L+	c #8B7E61",
"M+	c #B99D73",
"N+	c #905A52",
"O+	c #9E6A5B",
"P+	c #E9DBA8",
"Q+	c #F5EDDA",
"R+	c #C0A885",
"S+	c #252631",
"T+	c #CECDCA",
"U+	c #F7F1DB",
"V+	c #E6D39E",
"W+	c #CFB080",
"X+	c #C9B384",
"Y+	c #7F7B61",
"Z+	c #6D5D4B",
"`+	c #C9AB7C",
" @	c #BE7363",
".@	c #BC695F",
"+@	c #655748",
"@@	c #C2A47B",
"#@	c #332E36",
"$@	c #BFA276",
"%@	c #6F5F4C",
"&@	c #9D5853",
"*@	c #7C4144",
"=@	c #814D4A",
"-@	c #C3B084",
";@	c #F0E3B0",
">@	c #E1CA98",
",@	c #3A3537",
"'@	c #CDCBC7",
")@	c #F1E4B6",
"!@	c #EEE0AA",
"~@	c #DABE8B",
"{@	c #CDBC8B",
"]@	c #463F3C",
"^@	c #D2B382",
"/@	c #EBE2A9",
"(@	c #C88E74",
"_@	c #B9615B",
":@	c #7E675C",
"<@	c #786258",
"[@	c #7E6C54",
"}@	c #A38A67",
"|@	c #402633",
"1@	c #AF675C",
"2@	c #A1695B",
"3@	c #79735D",
"4@	c #EDDEA9",
"5@	c #EBDBA6",
"6@	c #DDD7D0",
"7@	c #E4DCC0",
"8@	c #EEDFA9",
"9@	c #C7A97B",
"0@	c #C3A679",
"a@	c #534841",
"b@	c #D7B987",
"c@	c #E3D39C",
"d@	c #DDC594",
"e@	c #90524C",
"f@	c #211F32",
"g@	c #524245",
"h@	c #7C665B",
"i@	c #65333B",
"j@	c #AA5051",
"k@	c #B35B57",
"l@	c #64373D",
"m@	c #422C41",
"n@	c #A99570",
"o@	c #E7D39F",
"p@	c #F6EED2",
"q@	c #BEA276",
"r@	c #7F6D54",
"s@	c #52473F",
"t@	c #796557",
"u@	c #DCC490",
"v@	c #E0CD97",
"w@	c #D6B78A",
"x@	c #B85D59",
"y@	c #BC6F60",
"z@	c #CB9B75",
"A@	c #A38966",
"B@	c #7F3D43",
"C@	c #773F55",
"D@	c #2D2337",
"E@	c #3B283E",
"F@	c #673A52",
"G@	c #A04D56",
"H@	c #8A4246",
"I@	c #362733",
"J@	c #302438",
"K@	c #5F3853",
"L@	c #56364D",
"M@	c #BBB087",
"N@	c #EEE0AD",
"O@	c #EBDDAB",
"P@	c #CFBE8F",
"Q@	c #888066",
"R@	c #282832",
"S@	c #1C1D30",
"T@	c #9C806C",
"U@	c #D0A97D",
"V@	c #DEC797",
"W@	c #E0CC97",
"X@	c #A48C68",
"Y@	c #2B2236",
"Z@	c #623A56",
"`@	c #51314B",
" #	c #493D3E",
".#	c #8B745F",
"+#	c #927768",
"@#	c #703B4E",
"##	c #864457",
"$#	c #37263C",
"%#	c #736D59",
"&#	c #656151",
"*#	c #292135",
"=#	c #3E293F",
"-#	c #60364D",
";#	c #8A4656",
">#	c #8C7362",
",#	c #C3856A",
"'#	c #C89377",
")#	c #E9DEA6",
"!#	c #7D6B53",
"~#	c #322439",
"{#	c #4C2F48",
"]#	c #584B45",
"^#	c #BDA175",
"/#	c #AE9173",
"(#	c #4F4242",
"_#	c #402A40",
":#	c #954A58",
"<#	c #864557",
"[#	c #35263B",
"}#	c #252033",
"|#	c #50314A",
"1#	c #663B57",
"2#	c #944958",
"3#	c #AF5256",
"4#	c #A74F54",
"5#	c #BA9E75",
"6#	c #544441",
"7#	c #C18168",
"8#	c #BC6B60",
"9#	c #C17867",
"0#	c #CC997A",
"a#	c #D8BB88",
"b#	c #48403C",
"c#	c #A48B68",
"d#	c #D2B282",
"e#	c #9F846C",
"f#	c #6E3742",
"g#	c #974A58",
"h#	c #844459",
"i#	c #6E3E5A",
"j#	c #8F4859",
"k#	c #B35455",
"l#	c #AD5154",
"m#	c #9B8169",
"n#	c #3C2633",
"o#	c #B65655",
"p#	c #BD6C61",
"q#	c #C58D6E",
"r#	c #D4B583",
"s#	c #9D8664",
"t#	c #3D3738",
"u#	c #877358",
"v#	c #63524C",
"w#	c #44383E",
"x#	c #2F2338",
"y#	c #6E3843",
"z#	c #A44E52",
"A#	c #A85056",
"B#	c #914958",
"C#	c #693D5A",
"D#	c #6B5851",
"E#	c #705751",
"F#	c #B05253",
"G#	c #B75856",
"H#	c #CEA479",
"I#	c #A08865",
"J#	c #4F3049",
"K#	c #272034",
"L#	c #61504C",
"M#	c #6C4244",
"N#	c #B05353",
"O#	c #9A8362",
"P#	c #171C2E",
"Q#	c #3C353A",
"R#	c #693F42",
"S#	c #B56059",
"T#	c #9E8764",
"U#	c #181D2E",
"V#	c #383238",
"W#	c #60504B",
"X#	c #4B2935",
"                                                                            ",
"                                                                            ",
"                                                                            ",
"                                                                            ",
"                                                                            ",
"                                                                            ",
"                                                . + @ @ @ . #               ",
"                                            . $ % & * = - ; > , .           ",
"                                          ' ) ! ! ~ { ] ^ / ( _ .           ",
"                                        : < [ } | 1 * * * * 2 3 4 .         ",
"                                      . 5 6 7 8 9 0 a b } c d 3 e f         ",
"                                      g h i j k l . m n o p q 3 r .         ",
"    s                                 t u v w . . . x y y z A 3 B C         ",
"    D E                           . F F G H I J K L M y y N O 3 P .         ",
"    Q R S                       . T U V W W X Y Z `  ...+.@.#.$.%.          ",
"    &.*.=.-.                    ;.>.,.'.).!.~.{.].^./.. . (._.:..           ",
"    &.<.[.}.s                 |.1.2.3.4.5.6.7.8.9.0.a.b..                   ",
"    c.d.e.f.g.                h.i.j.k.l.m.8.8.8.n.s o.K .                   ",
"    . p.s q.r..             . s.t.u.v.w.x.8.8.y.z.s A.B..         C.D.      ",
"      E.s F.G.H.            I.J.K.L.M.N.6.O.P.Q.s s R.S.T..     F U.V.      ",
"      . W.s X.Y.Z.          `. +.+++@+#+$+%+s s s s &+*+=+. . -+;+>+,+      ",
"        '+)+!+~+{+          ]+^+/+. (+_+:+<+[+[+}+|+1+2+3+4+5+6+7+8+9+      ",
"        . 0+.+a+b+.       . c+d+. . . . . . d+e+f+g+h+. i+j+k+l+j 3 m+      ",
"          n+o+p+q+r+      . s+t+u+. v+w+x+y+z+A+B+C+D+E+F+G+H+I+3 3 m+      ",
"          . J+K+L+M+. N+O+. P+Q+R+S+T+U+x.V+s W+. X+Y+Z+W.`+s  @.@3 m+      ",
"            +@@@#@$@%@&@*@=@-@;@>@,@'@)@!@~@s W+. {@]@^@s F./@(@_@3 m+      ",
"            . :@<@[@}@|@1@2@3@4@5@6@7@8.8@s s 9@. 0@a@s b@c@d@2 3 3 e@      ",
"          . f@g@h@. i@j@k@l@m@n@o@p@w.8.8@q@r@s@. 0@t@s u@v@w@x@y@z@A@      ",
"          B@C@D@E@F@G@H@I@J@K@L@M@N@O@P@Q@R@. S@. 0@T@s s s U@V@W@s X@      ",
"          . Y@M Z@`@ #.#+#T.@###$#%#&#. *#=#-#;#. 0@>#s U@,#'#)#v@s !#      ",
"            ~#{#*#]#^#s /#(#_#:#<#[#}#|#1#2#3#4#. 5#6#7#8#9#0#v@a#}+b#      ",
"            . . . c#s d#e#3+. f#g#h#i#j#k#3 3 l#. m#n#3 o#p#q#s r#s#.       ",
"                  t#u#v#w#x#. . y#z#A#A#A#A#B#C#M D#E#F#3 G#H#s I#.         ",
"                    . . J#{#. . . K#~#~#~#~#~#~#D@. L#M#N#I+s O#.           ",
"                        P#. . . . . . . . . . . . . . Q#R#S#T#U#            ",
"                            . . . . .         . . .   V#W#X#.               ",
"                                            . . . .     . .                 ",
"                                                                            ",
"                                                                            ",
"                                                                            "};
