/* XPM */
static char * banner_xpm[] = {
"60 59 644 2",
"  	c None",
". 	c #161C2E",
"+ 	c #151C2E",
"@ 	c #151B2E",
"# 	c #433F3D",
"$ 	c #453F3E",
"% 	c #81745E",
"& 	c #9D8772",
"* 	c #A49B7F",
"= 	c #989479",
"- 	c #474744",
"; 	c #494945",
"> 	c #494842",
", 	c #45413E",
"' 	c #474541",
") 	c #454140",
"! 	c #897C63",
"~ 	c #9E8F70",
"{ 	c #A09372",
"] 	c #A49C78",
"^ 	c #909170",
"/ 	c #494944",
"( 	c #464241",
"_ 	c #45403E",
": 	c #443C3E",
"< 	c #453E3E",
"[ 	c #484841",
"} 	c #4A4A44",
"| 	c #9E8B72",
"1 	c #82755E",
"2 	c #423B3D",
"3 	c #353337",
"4 	c #C9B48B",
"5 	c #CBB48D",
"6 	c #CDBB90",
"7 	c #D6CEA3",
"8 	c #D7D1A7",
"9 	c #D6D0A7",
"0 	c #D7D1A6",
"a 	c #D6CF9D",
"b 	c #CCB98E",
"c 	c #D0C09A",
"d 	c #D8D3A6",
"e 	c #D3C79F",
"f 	c #CEBD90",
"g 	c #DBD9A3",
"h 	c #DCDCA5",
"i 	c #D8D4A6",
"j 	c #D7D2A6",
"k 	c #D6D0A0",
"l 	c #D4CB9A",
"m 	c #CBB390",
"n 	c #C8AA8D",
"o 	c #C9AB8E",
"p 	c #C9AA8E",
"q 	c #D1C396",
"r 	c #D8D5A1",
"s 	c #DAD8A5",
"t 	c #D7D1A3",
"u 	c #CEBC90",
"v 	c #CAB38D",
"w 	c #C6A88C",
"x 	c #9C8471",
"y 	c #343037",
"z 	c #908267",
"A 	c #CCB88D",
"B 	c #CAAE8F",
"C 	c #DAD9A6",
"D 	c #D8D2A7",
"E 	c #D4CBA3",
"F 	c #D8D3A7",
"G 	c #D8D4A0",
"H 	c #D8D39F",
"I 	c #D9D5A6",
"J 	c #DAD8A6",
"K 	c #DBDAA5",
"L 	c #D7D1A5",
"M 	c #D6CD9D",
"N 	c #D0C093",
"O 	c #D7D09D",
"P 	c #D7D1A2",
"Q 	c #DBD9A6",
"R 	c #DCDBA5",
"S 	c #D7D0A3",
"T 	c #CAAC8F",
"U 	c #8E7868",
"V 	c #3A3739",
"W 	c #C2AF87",
"X 	c #CAAE8E",
"Y 	c #CBB192",
"Z 	c #DBDBA5",
"` 	c #D9D6A6",
" .	c #DAD7A6",
"..	c #C1A987",
"+.	c #3A3839",
"@.	c #7D6F5C",
"#.	c #CBB38E",
"$.	c #D1C09C",
"%.	c #CBB28D",
"&.	c #CDB98D",
"*.	c #7D715C",
"=.	c #594D49",
"-.	c #483F40",
";.	c #0D172C",
">.	c #0F182D",
",.	c #7B685C",
"'.	c #CAAA8E",
").	c #D1C39B",
"!.	c #D8D4A7",
"~.	c #D7D2A7",
"{.	c #D0C09C",
"].	c #CDB88D",
"^.	c #7C715B",
"/.	c #0D182C",
"(.	c #9F8A72",
"_.	c #C2AE87",
":.	c #9F8C74",
"<.	c #917C6D",
"[.	c #4A4142",
"}.	c #927C6A",
"|.	c #CBB28E",
"1.	c #D7D19D",
"2.	c #D6CE9E",
"3.	c #CCB98D",
"4.	c #94866A",
"5.	c #9E8774",
"6.	c #BFA187",
"7.	c #9E8672",
"8.	c #9F9071",
"9.	c #C1AB88",
"0.	c #9E8776",
"a.	c #4F4545",
"b.	c #B89C83",
"c.	c #C9AC8E",
"d.	c #CCB88E",
"e.	c #D9D6A1",
"f.	c #B99E83",
"g.	c #C0A688",
"h.	c #CCB68D",
"i.	c #9F8E71",
"j.	c #C2A58A",
"k.	c #4F4645",
"l.	c #CBB38D",
"m.	c #CDBB8F",
"n.	c #D7D0A6",
"o.	c #C4AC8A",
"p.	c #B99D85",
"q.	c #B9A282",
"r.	c #CEBD92",
"s.	c #D0C099",
"t.	c #CBB48E",
"u.	c #D5CD9B",
"v.	c #D4C9A2",
"w.	c #C9AB8F",
"x.	c #A68F7A",
"y.	c #C8B48B",
"z.	c #CAB08E",
"A.	c #AE947E",
"B.	c #9F8876",
"C.	c #B9A781",
"D.	c #CDB894",
"E.	c #D3C7A1",
"F.	c #D8D4A4",
"G.	c #D2C696",
"H.	c #DBD9A5",
"I.	c #BAA682",
"J.	c #4E4445",
"K.	c #C1A888",
"L.	c #CCB78D",
"M.	c #AE947F",
"N.	c #524847",
"O.	c #7E6F5D",
"P.	c #CAAF8E",
"Q.	c #DAD9A5",
"R.	c #CDB695",
"S.	c #CBB58D",
"T.	c #BBA882",
"U.	c #4E4545",
"V.	c #B09580",
"W.	c #C8B38B",
"X.	c #786D59",
"Y.	c #AE977E",
"Z.	c #7B695C",
"`.	c #CAAD8F",
" +	c #CDB796",
".+	c #9A856F",
"++	c #514746",
"@+	c #C5B089",
"#+	c #494440",
"$+	c #AF997E",
"%+	c #CBB58E",
"&+	c #D9D4A6",
"*+	c #D2C59F",
"=+	c #D0BF9B",
"-+	c #CAAD8E",
";+	c #9F8776",
">+	c #B8A383",
",+	c #AF987E",
"'+	c #D7D0A2",
")+	c #D0C295",
"!+	c #7C6E5C",
"~+	c #484340",
"{+	c #B29781",
"]+	c #D9D6A3",
"^+	c #60534F",
"/+	c #C9AD8E",
"(+	c #C4AE89",
"_+	c #9D8676",
":+	c #7D6C61",
"<+	c #7A6A5B",
"[+	c #CAAB8E",
"}+	c #CBB18D",
"|+	c #897668",
"1+	c #A28C78",
"2+	c #C3AF88",
"3+	c #CBB78C",
"4+	c #A9937B",
"5+	c #897568",
"6+	c #7A685B",
"7+	c #CAB18E",
"8+	c #D9D7A6",
"9+	c #D2C69B",
"0+	c #887568",
"a+	c #BA9E85",
"b+	c #AB927D",
"c+	c #B0987F",
"d+	c #9F8F71",
"e+	c #C6B28A",
"f+	c #A08977",
"g+	c #D5CC9A",
"h+	c #CCB58E",
"i+	c #C5A88C",
"j+	c #C7B38B",
"k+	c #7A6B5B",
"l+	c #CBB08E",
"m+	c #C4AC89",
"n+	c #4A4540",
"o+	c #7A695B",
"p+	c #D2C39E",
"q+	c #D1C19C",
"r+	c #7C705B",
"s+	c #9B8C6E",
"t+	c #D6CFA5",
"u+	c #CBB68D",
"v+	c #9D8771",
"w+	c #9D8671",
"x+	c #CCB68E",
"y+	c #DBDAA4",
"z+	c #CDB98E",
"A+	c #7B6C5B",
"B+	c #C3A78A",
"C+	c #9D8571",
"D+	c #9D8776",
"E+	c #D8D3A5",
"F+	c #9B8B6E",
"G+	c #C2A48A",
"H+	c #7B6D5B",
"I+	c #D6D09D",
"J+	c #7B6F5B",
"K+	c #C4AD89",
"L+	c #4B4541",
"M+	c #CBB18E",
"N+	c #DBDBA4",
"O+	c #C5A78C",
"P+	c #C6AA8B",
"Q+	c #AC967D",
"R+	c #CCB48E",
"S+	c #D3C89B",
"T+	c #CBB28F",
"U+	c #9F8D71",
"V+	c #B09A7F",
"W+	c #AD977D",
"X+	c #BCA885",
"Y+	c #A9917C",
"Z+	c #CBB68C",
"`+	c #C3AD88",
" @	c #D4CC9A",
".@	c #7E6C61",
"+@	c #C5B189",
"@@	c #CAAC8E",
"#@	c #AE957E",
"$@	c #61544F",
"%@	c #CEB991",
"&@	c #DAD7A3",
"*@	c #DAD7A5",
"=@	c #7B6A5C",
"-@	c #B49E81",
";@	c #D1C595",
">@	c #D9D7A1",
",@	c #B7A283",
"'@	c #D4C99A",
")@	c #D6CF9E",
"!@	c #99816E",
"~@	c #CCB68F",
"{@	c #D0C195",
"]@	c #D8D4A5",
"^@	c #776C58",
"/@	c #C6A98C",
"(@	c #B19B7F",
"_@	c #C2AE88",
":@	c #CEB998",
"<@	c #D6CEA5",
"[@	c #D3C7A0",
"}@	c #CCB494",
"|@	c #9E8B71",
"1@	c #D1C19D",
"2@	c #D0BD9A",
"3@	c #CEBD93",
"4@	c #BBA982",
"5@	c #BAA185",
"6@	c #9E8A71",
"7@	c #D9D6A5",
"8@	c #D5CBA3",
"9@	c #CBAF90",
"0@	c #C3A98A",
"a@	c #C6B18A",
"b@	c #D8D3A1",
"c@	c #CCB78E",
"d@	c #BAA782",
"e@	c #C3A68B",
"f@	c #A9907C",
"g@	c #484041",
"h@	c #D6CFA4",
"i@	c #CEBA98",
"j@	c #95866A",
"k@	c #9C8573",
"l@	c #000F2A",
"m@	c #D4CAA2",
"n@	c #CCB691",
"o@	c #D0C199",
"p@	c #CFBD96",
"q@	c #D6CFA6",
"r@	c #9C8673",
"s@	c #A69674",
"t@	c #3F393C",
"u@	c #1E2030",
"v@	c #D4CA9E",
"w@	c #D5CB9B",
"x@	c #CBB291",
"y@	c #D1C29D",
"z@	c #00102A",
"A@	c #9D8A72",
"B@	c #C5B289",
"C@	c #584F48",
"D@	c #907B6C",
"E@	c #302D36",
"F@	c #D3C59B",
"G@	c #D9D5A0",
"H@	c #D8D2A5",
"I@	c #CFBD95",
"J@	c #D0BE9B",
"K@	c #9D8773",
"L@	c #736557",
"M@	c #574C4A",
"N@	c #73635A",
"O@	c #202231",
"P@	c #CBB092",
"Q@	c #D3C6A0",
"R@	c #CDB793",
"S@	c #CCB594",
"T@	c #D7D1A0",
"U@	c #D0BE9A",
"V@	c #9E8A73",
"W@	c #80745E",
"X@	c #0E182D",
"Y@	c #131A2D",
"Z@	c #867A61",
"`@	c #00112A",
" #	c #D7D2A2",
".#	c #D6CF9F",
"+#	c #CCB394",
"@#	c #D4C99F",
"##	c #CCB493",
"$#	c #D2C698",
"%#	c #CDB893",
"&#	c #C9B58B",
"*#	c #AD9C79",
"=#	c #302F35",
"-#	c #383638",
";#	c #BCA983",
">#	c #9D8873",
",#	c #01112B",
"'#	c #B3987F",
")#	c #79705B",
"!#	c #4D4F45",
"~#	c #484440",
"{#	c #463E3F",
"]#	c #494442",
"^#	c #5B5C4E",
"/#	c #A19179",
"(#	c #BDA884",
"_#	c #BAA584",
":#	c #A59475",
"<#	c #897F65",
"[#	c #4D4E45",
"}#	c #4B4B46",
"|#	c #473F40",
"1#	c #4C4D45",
"2#	c #505047",
"3#	c #4E4D47",
"4#	c #4F4F46",
"5#	c #4A4942",
"6#	c #4C4D46",
"7#	c #4C4C46",
"8#	c #77695B",
"9#	c #CAB38C",
"0#	c #B89F82",
"a#	c #01122B",
"b#	c #9E8B73",
"c#	c #BCA285",
"d#	c #AB917D",
"e#	c #82765F",
"f#	c #BAA881",
"g#	c #C5A78B",
"h#	c #957E6C",
"i#	c #8E7968",
"j#	c #907F68",
"k#	c #928469",
"l#	c #847760",
"m#	c #2B2B34",
"n#	c #2E2B35",
"o#	c #2E2C35",
"p#	c #323136",
"q#	c #8D7C67",
"r#	c #907A69",
"s#	c #907B69",
"t#	c #908268",
"u#	c #918269",
"v#	c #A49077",
"w#	c #978370",
"x#	c #918069",
"y#	c #917E69",
"z#	c #907D69",
"A#	c #B5A080",
"B#	c #9E8875",
"C#	c #97846F",
"D#	c #917C69",
"E#	c #928269",
"F#	c #8F7968",
"G#	c #8F7D68",
"H#	c #97876C",
"I#	c #C6AE8B",
"J#	c #79685B",
"K#	c #B8A182",
"L#	c #82755F",
"M#	c #AC967C",
"N#	c #A18974",
"O#	c #9F8877",
"P#	c #7A6F5A",
"Q#	c #595248",
"R#	c #A98F79",
"S#	c #BEA188",
"T#	c #A18978",
"U#	c #A28A78",
"V#	c #C7B08B",
"W#	c #BEA187",
"X#	c #B19980",
"Y#	c #C6AF8A",
"Z#	c #C9AD8D",
"`#	c #B69E83",
" $	c #A38C79",
".$	c #A38C78",
"+$	c #B29C7F",
"@$	c #A18B78",
"#$	c #A38D78",
"$$	c #C1A788",
"%$	c #B5A081",
"&$	c #C8A98E",
"*$	c #B59A83",
"=$	c #C0A289",
"-$	c #A18A78",
";$	c #BEA288",
">$	c #AA9778",
",$	c #4D4842",
"'$	c #B7A481",
")$	c #584D4A",
"!$	c #1D212F",
"~$	c #655750",
"{$	c #C3A58A",
"]$	c #C1A389",
"^$	c #C2A589",
"/$	c #C8AE8C",
"($	c #A38B78",
"_$	c #998373",
":$	c #AC937D",
"<$	c #C4B188",
"[$	c #C2A988",
"}$	c #C1A589",
"|$	c #C4B088",
"1$	c #B2A07C",
"2$	c #8D8066",
"3$	c #8E8166",
"4$	c #8F8166",
"5$	c #8E7C67",
"6$	c #8D7867",
"7$	c #8E7E67",
"8$	c #847363",
"9$	c #998372",
"0$	c #988272",
"a$	c #C0A388",
"b$	c #9A8373",
"c$	c #9B8474",
"d$	c #C7A88C",
"e$	c #C7AA8D",
"f$	c #C2A489",
"g$	c #C3AC88",
"h$	c #C8AD8D",
"i$	c #AF957F",
"j$	c #A28B78",
"k$	c #C7B38A",
"l$	c #66584F",
"m$	c #C5B08A",
"n$	c #494340",
"o$	c #BDAB83",
"p$	c #8B776A",
"q$	c #1D2030",
"r$	c #836F61",
"s$	c #BAA184",
"t$	c #A08877",
"u$	c #C7A88D",
"v$	c #9D8572",
"w$	c #1F2130",
"x$	c #1B1F2F",
"y$	c #756459",
"z$	c #716158",
"A$	c #6A5B54",
"B$	c #2F2D36",
"C$	c #1E2130",
"D$	c #1E2230",
"E$	c #1B202F",
"F$	c #171D2E",
"G$	c #716156",
"H$	c #877263",
"I$	c #1F2230",
"J$	c #9D8672",
"K$	c #C9B38C",
"L$	c #A48E79",
"M$	c #C2AD88",
"N$	c #857860",
"O$	c #484240",
"P$	c #48433F",
"Q$	c #564B49",
"R$	c #B89F83",
"S$	c #212231",
"T$	c #322F37",
"U$	c #141B2E",
"V$	c #3F393D",
"W$	c #272833",
"X$	c #A8927B",
"Y$	c #B9A483",
"Z$	c #C0A389",
"`$	c #8B7E64",
" %	c #C1A489",
".%	c #8A7669",
"+%	c #A88F7A",
"@%	c #766B58",
"#%	c #7D6B60",
"$%	c #5D514D",
"%%	c #9C8574",
"&%	c #7F715E",
"*%	c #C8B28B",
"=%	c #B4A27E",
"-%	c #C0A489",
";%	c #524745",
">%	c #A68D79",
",%	c #BB9F86",
"'%	c #B7A181",
")%	c #685C52",
"!%	c #91806B",
"~%	c #8A7668",
"{%	c #A78E79",
"]%	c #514B44",
"^%	c #C1A789",
"/%	c #CBAF8E",
"(%	c #C8AB8D",
"_%	c #AD937E",
":%	c #7B695F",
"<%	c #78675D",
"[%	c #716159",
"}%	c #534845",
"|%	c #C7AC8C",
"1%	c #98896C",
"2%	c #0A152C",
"3%	c #121A2D",
"4%	c #C7AB8C",
"5%	c #AD947E",
"6%	c #CCB38E",
"7%	c #4C4242",
"8%	c #5F524C",
"9%	c #A99778",
"0%	c #837064",
"a%	c #413A3E",
"b%	c #06152B",
"c%	c #463E40",
"d%	c #2C2B34",
"e%	c #C8B18B",
"f%	c #C0AD85",
"g%	c #BDA086",
"h%	c #2C2C34",
"i%	c #A78F78",
"j%	c #60534C",
"k%	c #655C4E",
"l%	c #8B7D64",
"m%	c #C5A98B",
"n%	c #967F6D",
"o%	c #78665B",
"p%	c #8C786A",
"q%	c #6B5C55",
"r%	c #736657",
"s%	c #BAA382",
"t%	c #CAB18D",
"u%	c #BFAB86",
"v%	c #BFAC85",
"w%	c #BFAB85",
"x%	c #BFAA86",
"y%	c #C4A88B",
"z%	c #8B7C64",
"A%	c #C3A58B",
"B%	c #B79B84",
"C%	c #847165",
"D%	c #AB9A78",
"E%	c #11192D",
"F%	c #A6907A",
"G%	c #1D2130",
"H%	c #837061",
"I%	c #A48B76",
"J%	c #706255",
"K%	c #262633",
"L%	c #968171",
"M%	c #98816E",
"N%	c #96876B",
"O%	c #2E2E35",
"P%	c #998A6E",
"Q%	c #B09680",
"R%	c #A69675",
"S%	c #857961",
"T%	c #3B363A",
"U%	c #222431",
"V%	c #171C2E",
"W%	c #3A343A",
"X%	c #383339",
"Y%	c #312F37",
"Z%	c #3B383A",
"`%	c #202330",
"                  . . + + + . . . . . . . . . + @ @ @ @ . . . . . . . . . . . . . . . . . . + + + . .                   ",
"              . + # $ % & * = - ; > , ' ; ; ) ! ~ { ] ^ / ; ; ; ( , _ : : : < , $ [ } ; - = * | 1 , 2 + .               ",
"              3 ~ 4 5 6 7 8 8 9 0 a b c 9 d e b f g h h i 9 9 j k l m n o p 5 b q r s 9 9 8 8 t u v w x y               ",
"            @ z A o B 7 C 8 8 D C C 7 E 8 8 F G H h C I D J J K K i L M N q O P F 8 Q F 8 8 I R S T p p U @             ",
"            V W A X Y 8 Z I F R ` 8 8 8 8 F Z h h J 8 I K h R  .F  .R K  .h h Q 8 8  .Q 8 J C F 8 Y p p ..+.            ",
". . . .   . @.#.X p $.8 i h i F 8 8 8 8 F Z h h K 8 i Q h h F F J h h K D Q I F 8 8 8 K J F 8 8 8 $.p %.&.*..   . . . . ",
". =.-.;.>.@ ,.'.p p ).8 8 J ` 8 8 8 8 F Z h h h h  .` 8 F F 8 F i K h ` 8 8 8 8 F D 8 !.K ~.8 8 8 {.%.A ].^.@ >./.-.=.. ",
"+ (._.:.<.[.}.p p |.1.I 8 8 Q F 8 8 I R h h h R  .8 8 8 8 8 8 8 J h J 8 8 8 8 F R K 8 8 I J 8 8 8 2.3.A A 4.[.<.5.6.7.+ ",
"+ 8.A 9.0.a.b.p c.d.e.Z F 8  .` 8 8 ~.F F F F D 8 8 Q K K K K Z h R F 8 8 8 8 J h h  .8 F Q ~.8 8 0 B c.c.f.a.0.g.h.i.+ ",
"+ 8.5 j.0.k.b.c.h.l.m.e.J F 8  .F I 8 8 8 8 8 ~.` F Z h h h h h R !.8 8 8 8  .K K h R I 8 F  .F !.n.T p p b.k.0.o.A 8.+ ",
"@ i.o p.0.a.q.h.r.s.t.u.h I 8 I K K ~.8 8 8 8 J h h h h h h h h ` 8 8 8 F J h I  .K h K 8 F J R I v.w.p p b.a.x.y.A 8.+ ",
"@ 8.z.A.B.a.C.A D.E.F.G.h  .` h ` 8 8 8 8 8 I h J J h h h h h h K 8 8 D Z h H.8 ~.R h Z i K K D 8 {.p p o I.J.K.L.A 8.+ ",
"@ 8.h.M.B.N.O.P.p T n.Q.` K Z F 8 8 8 8 8 I h  .8  .h h h R i Q h I 8  .h  .~.8 8 I K ` h  .8 8 n.R.p o S.T.U.V.W.A 8.+ ",
"+ X.L.Y.B.N.Z.X P.`.n.I K h h Q 8 8 8 8 I h  .8  .h h h h i 8 ~.h Q Z h I ~. .D ~.D J h h h F 8  +T o S.L..+++0.@+A 8.+ ",
". #+A $+B.N.^.].A %+0 Z h h h Q 8 8 8 &+h  .8  .h h h h Q 8 8 ~.J h R I i R h R F  .h h h h F 8 *+=+S.h.-+,.N.;+>+A 8.+ ",
". #+A ,+B.N.^.&.l.T n.8 H.h Z i 8 8 F Q  .8  .h h h h h  .8 D K h K D i R h R F 8 8 &+h h  .~.8 ~.'+)+c.-+!+N.B.$+A 8.+ ",
". ~+z.{+B.++^.t.p T n.8 i R h J 8 I Z ` ~. .h h h h h h Z !.K h K ~. .h h R F 8 8 8 8 C h R D ~.K ]+Y X L.^.^+;+$+A 8.+ ",
". -./+(+_+:+<+[+p T n.8 8 i J F ~.K F D Z  .I h h h h h h h h ` D  .R h h i 8 8 8 8 8 8 J I 8  . .{.}+L.X <+|+0.1+2+8.+ ",
". ~+L.3+4+5+6+'.7+T n.8 8 8 8 F K !.D K h K 8 H.` F F J h h h 8+J h h h J 8 D I 8 8 8 8 8 ~.` C 8 9+A A P.6+0+a+b+c+d++ ",
". #+A e+f+5+6+P.z.T n.Q 8 8 8 K h K R h h h &+F F 8 ` h h h h h h h h J 8 D ` D 8 ` I 8 8 i h R K g+A A h+6+5+b+i+j+8.@ ",
". #+A @+_+5+k+l+p T n.R F 8 8 K h h h h h h  .8 8 ~.Z h h h h h h h J 8 8 ` D 8 8  . .8 8 i h h h g+A A L.k+5+_+m+A 8.@ ",
". n+L.o._+5+o+[+p p+8 K  .i I  .h h F D K h K 8 8 Q h h J K h h h Q F D J D 8 8 8 I R F ` i R h J q+z.A ].r+5+_+@+A 8.@ ",
"@ s+z.j.0.5+6+'.o $.8  .h h K D H.F 8 !.Q C ~.D F  .h ` 8 C h h K 8 D Q D 8 8 8 8 D h h h !. .` 8 t+|.L.X 6+5+_+@+u+v+@ ",
"@ w+o o._+5+6+'.u+x+y+K h h K I D 8 J h h Q  .h Q 8 i 8 J h h R ~.F K F 8 8 I Q R Q h h h I I 8 !.y+z+L.|.A+5+0.B+o C+@ ",
"@ 8.A o.D+5+6+X S.x+E+h h h Q 8 F Q h h h h h h ` 8 F Q h h h h h K F 8 8 8  .h I K h h h F 8 ` R R g+A ].r+5+0.j.7+F+@ ",
"@ 8.%.G+0.5+H+A 5 7+l h h  .D ~.J h h h h h Z I 8 ` R h h h h h R F 8 8 ~.J R ` C h h K I 8 i R h h I+A A J+5+_+K+A L+. ",
"@ i.c.G+D+5+J+M+o c.q+h  .8 F R h h h h R R I ~. .h h h h h h Z  .8 8 !.R C F ~.~. .K D 8 J h h h N+b A h+6+5+_+@+A #+. ",
"@ C+O+P+Q+5+H+R+5 A S+Z 8 8 !.h h h h Z F F ~.Q h h h h h Z I 8 8 8  .R h Q J K K K I 8 8 K h h h N+T+X [+o+5+f+e+A #+. ",
"+ U+V+W+X+0+r+].A A g+K 8 8 I h h h Q F !.Q Z h Q ` h h h K Q Q Q H.h h h h h h h h &+8 F K h h h d `.7+h+r+5+Y+Z+A #+. ",
"+ U+`+1+0.|+r+&.S.h. @I 8 F R h h J F ` h h h J D ` h h K Q Q Q K h Q Q K h Z H.h K 8 8 J h h R i j d.A &.r+.@_++@A #+. ",
"+ C+@@#@;+$@^.#.c.%@&@8 8 i R R  .8 F h h h I 8 J h h Z ~.8 8 8 8 F 8 ~.H.Z F i h ` 8 ~.Q h H.F 8 *@z+A h+=@++;+-@A #+. ",
"+ C+p M.B.N.=@[+z.;@>@I 8 C H.!.8 D K h h I 8 F K h h J 8 8 8 8 8 8 I Z Q F 8 R h K 8 F R  .8 8  .N+z+S.[+,.N.B.$+A #+. ",
"+ C+P.,@;+N.,.'.l.A '@)@8 ~.8 8 8 K h K I 8 D h h h h H.8 8 8 8 ~.Q Z ` 8 8 F h K h I 8 D 8 8 I h N+t.o '.,.N.B.$+A #+. ",
"+ d+L.K+0.++!@|.A l.~@{@I 8 8 8 F R K ~.8 !.F h h h h h I 8 8 i R R F D i F R K Q J K 8 8 8 8 J h ]@T o -+,.N.B.$+A ^@+ ",
"+ d+X /@(@J.T.A A o R.0 K 8 8 I K ` 8 8 8 8 I h h Z I ~.!.R R h J ~.` R h h h  .8 8 J I 8 F J K j n.T p @@O.N.B.Y.@@w+@ ",
"+ w+z.A _@J.T.A L.X {.~.K  .F K D 8 8 8 8 I h h h ` 8 J h h Q !.D K h Q I h h C 8 8 I Z F Q ` 8 :@<@[@}@S.C.a.B.A.-+d+@ ",
"+ |@L.y.x.a.f.X p w.v.8 F h i 8 8 8 8 8 I h h h K ~.` ` Z Z 8 i Q h h K ~.I ~.8 8 8 8 J H.8 8 8 1@T 2@3@A 4@a.0.5@7+6@@ ",
"+ C+7+@+0.k.b.p p `.7@~.8 I  .8 8 8 ~.I h h h h h  .i 8 8 8 8 8 F Z h F 8 8 8 8 I &+8 ~.Q F 8 8 8@9@S.A A 4@a.0.0@o C++ ",
"+ U+A a@f+k.b.p p x+N+8+8 8 Q !.8 8 I Z K K K K i 8 D F F F F F K h ` 8 8 8 8 &+h R ~.8 !.Q 8 8 8 b@c@h.h.d@a.f+e@c.v++ ",
"+ 8.A l+f@g@b.p P.d.N+h !.8 I  .8 8 8 8 8 8 8 8 8 8 K h h h h h h K ~.8 8 8 ~.K R h Q 8 ~.*@h@t+i@<@T p p b.g@f@P.A j@+ ",
"+ 8.z.p k@l@b.P.A #.K h K !.8 I I J ~.8 8 8 8 !.Q ` R h h h h h K ~.8 8 8 ~.K C Q h h J 8 m@n@o@p@q@T p p b.l@r@h+s@t@u@",
"+ d+o p k@l@I.A 5 @@v@h h ` ~.J Z  .8 8 8 8 8 H.h h h h h h h h  .8 8 8 I K h F I K h Z ~.I w@S.x@y@p p p f.z@A@B@C@D@E@",
"@ 8.%.p k@l@4@L.c.p F@h K  .Q K !.8 8 8 8 8 J G@H@` h h h h Z h R ~.8 F h h  .8 8 Z h J ` R I@ +:@J@p p X T.l@K@L@M@N@O@",
"@ 8.h.o K@l@q.o p p P@I  .R Z i 8 Q@n.8 8 J y+R@S@T@h h h K D ` h I !.K Z !.8 Q@8 F J Q h J U@8@8 P@p X L.I.l@V@W@X@Y@  ",
"@ Z@A L.A@`@f.%.l.P.T  #Z h h .#+#p  +m@s Z @#o S.b g+y+R j {.##K Z Z Z j i $#%#j i K h h h d 8 E T -+L.5 b.`@A@&#*#=#  ",
". -#;#L.>#,#d@A 3+P.'#)#!#!#!#~#{#{#{#]#!#^#/#(#y._#:#<#[#}#]#|#1#!#!#2#3#4#~#5#6#1#!#!#!#!#7#}#8#'#L.9#o 0#a#b#A A #+. ",
". . n+c#d#a.e#f#<+g#h#i#j#k#l#m#n#o#p#q#r#s#t#u#v#0.w#t#j#r#x#k#k#y#z#A#B#C#x#r#r#r#D#k#k#E#r#F#G#H#I#J#K#L#a.M#A A #+. ",
"  . X@N#O#N.P#Q#R#S#T#U#Y+h.3+V#W#X#Y#X Z#`# $.$+$+$@$#$W+$$A A l.o v %$0.c+o &$*$=$p z.A L.-+f@.$-$;$>$Q#P#N.O#+@A #+. ",
"  + ,$'$O#)$!$~${$U#A.]$]$^$/$G+($_$:$$$<$[$}$|$<$<$|$1$2$3$4$5$6$7$8$9$0$9$W#a$b$c$a+d$P.e$f$g$h$i$j$k$l$!$)$O#m$L.n$. ",
". V o$A $+p$q$r$s$t$u$v$w$x$y$z$A$B$x$C$D$C$C$D$D$D$D$E$. . . . . . F$x$x$x$C$C$x$x$x$G$H$y$x$I$J$K$L$M$N$q$p$M.p X O$. ",
". P$A A `+0.Q$H+R$t$f$S$T$U$.                                                             . U$V$W$B@X$Y$r+Q$0.Z$-+L.P$. ",
"@ `$A h. %D+.%O@+%O#a+@%#%$%                                                                ++%%&%*%j$=%O@.%D+-%5 A `$@ ",
"@ 8.S.-+Z$D+O#++;%>%,%'%)%!%                                                                Q$~%0#p {%]%++O#D+^%A A i.+ ",
"+ i./%(%_%_$:%<%[%}%|%|.1%2%                                                                3%h#p 4%}%[%<%:%_$5%v 6%7.+ ",
". 7%8%9%0%a%b%.@c%d%e%L.f%>.                                                                >.g%7+&#h%c%.@b%a%0%i%j%7%. ",
". k%l%m%n%o%p%q%r%s%t%u%v%>.                                                                >.w%x%3+4@r%q%p%o%n%y%z%k%. ",
". Q#z.A%M.B%C%p$b+$$x.W+D%E%                                                                E%D%W+F%_@Q+0.0.B%M.m$A Q#. ",
"  G%H%I%/@J%C$K%L%0.M%N%O%                                                                    O%N%P%B.;+Q%_%X$y.R%S%G%  ",
"    . I$T%U%    n#o#V%@                                                                         @ V%o#E@W%X%Y%Z%`%.     "};
