/* XPM */
static char * exit_xpm[] = {
"80 160 11 1",
" 	c None",
".	c #161C2E",
"+	c #8FE2B9",
"@	c #5AB9BB",
"#	c #448E9F",
"$	c #435B7D",
"%	c #483F61",
"&	c #B48355",
"*	c #DAB570",
"=	c #866353",
"-	c #5A4646",
"                                                                                ",
"                                                                                ",
"                                                                                ",
"                                                                                ",
"                                                                                ",
"                                                                                ",
"                                                                                ",
"                                                                                ",
"                                                                                ",
"                                                                                ",
"                                                                                ",
"                                                                                ",
"                                                                                ",
"                                                                                ",
"                                                                                ",
"                                                                                ",
"                                                                                ",
"                                                                                ",
"                                                                                ",
"                                                                                ",
"                                                                                ",
"                                                                                ",
"                                                                                ",
"                                                                                ",
"                                                                                ",
"                                                                                ",
"                                                                                ",
"                                                                                ",
"                                                                                ",
"                                                                                ",
"                                                                                ",
"                                                                                ",
"                            .....              .....                            ",
"                        .........              .........                        ",
"                     ......++++@.              .++@++......                     ",
"                  ......++++++@@.              .++@+++++......                  ",
"                 ..++++@++++@+++..            .++++@+++++++++.                  ",
"                 ..+++@@@@@@++++..            .+++++@@@@+++++.                  ",
"                 ...+++++@++++++..  ........  .@++++++@++@@@..                  ",
"                 ..#$+++++.$$$.......@@@@@#.......$$$#+++++$#.                  ",
"                 ..##$+++$$$$$$$..@@@@@@@@#@@@.$$$$$$$$++@$##.                  ",
"                 ..##...$$$$$$$$..#@#@@@@@##@@.$$$$$$$$$...##.                  ",
"                 ..###.$$$$$$$$$..@@$$....$$@@.$$$$$$$$$$.###.                  ",
"                 ..###$$$$$$$$$$..$$$$$..$$$$$.$$$$%$$$$$.###.                  ",
"       ..+.     ...###$$$$%%$$$$$%$$$$$$$$$$$$%$$$$$$$$$$.###...     .+.        ",
"       ..+...  .....##$$%%%%$$$$$%$$$$$$$$$$$$%$$$$$$$$$$.##.....  ...+..       ",
"      ..++++....@@##.#$$$$$%$%%%$$$$$%%%$$%$$%%%%%%$$$$$$.#.##@@...+++++..      ",
"      .++++++@@.@####.$$$$$%$$$$$$$%$$$$$$$$%$$$$$$%$$$$$..###@@.@@+++++..      ",
"      .+++++@@@.##@#..%$$$$%$$$$$$$$%$$$$$$$$$$$$$$$$$$$$%..#@##.@@++++++.      ",
"     .@@@+@@++..@@@$$$%$%%%%%$$$$$............$$$$$%$%%$$$$$$@@@..++@@+@@@.     ",
"     .++@@@+++..@@$$$$%%%%$$%$$..................$$%$$$%%$$$$$@@..+++@@@++.     ",
"     .+++++@..%.@.$$$$%%$$$....&&&&&&&&&&&&&&&&&&....$$$%$$$$$.@.%..@+++++.     ",
"    ..++++++..%..%$$$$$%$...&&&&&&&&&&&&&&&&&&&&&&&&...$%$$$$$%..%.+++++++..    ",
"    ..++++++..%.%%$$$$$%..&&&&&&&&*&&&&&&***&&&**&&&&&..%$$$$$%%.%.+++++++..    ",
"    ..+++$$...%.%%%$$$.................&&..&.............$$$$%%%.%...$$+++..    ",
"    ....$$##..%.%%%$$$.=&&&&&&&&&&&&******&&&&&&&&&&&&&&&.$$$%%%.%.###$$....    ",
"    ..###$##..%%%%%$..&&&&****************************&&&&..$%%%%%.###$###..    ",
"    ..###$###.%%%%%..=..&******************************&&&&..%%%%%.###$###..    ",
"    ..###$###.%%%%..=&&&&*******************************&&&=..%%%%.###$###..    ",
"     .#$$$$##.%%%.........&&&&**....&&&&&.......****&&........%%%%.##$$$$#.     ",
"     .$###$$#.%%%....==&********************************===...%%%%.#$$##$$.     ",
"     .#####...%%...=&&&&********************************&&&==...%%...#####.     ",
"     .....##@....@+.&&&&&&&**************************&&&&===.+.....@##..#..     ",
"      ...##@@...+++..&&&&&&******..&&&***********&***&&&&=...+.+...@@##...      ",
"      .##@@...+++++++...&&&***************************&&...+++@+++...@@#..      ",
"      .#@@@..+++++++++..&&****************************&&.+++++@++++..@@@#.      ",
"      .@@@@.#++++@++++..&&*************************&&&&&..+++@@++++..@@@..      ",
"      ...@@.@###@++++$##&&******...............*******&&#$$@@+@@###@.@@...      ",
"      ..$@@.@@###++++$##&&******..+++++..+++++.*******&&##$+++@###@@.@@$..      ",
"      .##$@.@@@#@....##$..&*****..+++++@@+++++..*****&&.$##....@#@@@.@$#..      ",
"      .##$..@@##@....#$#&&&*****.+++++@@+++++++.*****&&&###...@@##@@..$#..      ",
"      ..###.@@#@@@@@.#$#.&&****..+@@@++++++@@@+..****&&.#$#.@@@@@#@#.###..      ",
"      ..#######@@@@@###....&&&&.++++@+++++@@+++..&&&&....###@@@@@##@####..      ",
"      ..##$#@##@@@@@###.@..&&&&.++++.+++++@@+++..&&&...@.###@@@@@##@#$##..      ",
"      ..$$$#@@@@#@@@.#.@@@#@@.....##........##....@@@#@@@.#.@@##@@@@#$$$..      ",
"       .#$$$@@@@@##@.#.@@@#@@@@.@@###......###@..@@@@@@@@.#.@##@@@@@$#$#.       ",
"       ..###@@@@@@@@..@@@@@@@@@.@@@@#@@@@@#@@@@@.@@@###@@@..#@@@@@@####..       ",
"       ..###@@@@@@@@..@@@#@@@@@.@@@@#@@@@@@@@@@@.##@@@@@@...@@@@@@@####.        ",
"       ..$$#@@##@@@@@@####@@@@@@@@@@#@@@@@@@@@@@@@@@@@####@@@@@@@@@##$$.        ",
"        .##$$@@###@@#@@@@###@@@##@@@#@@@@@@@@@@##@@#@@#@@@@#@@@@#@@$$##.        ",
"        .###$$@#@##@#@@@@@@@@..#######@@@@@@@@###..#@@@@@@@#@#@@#@$####.        ",
"         .######@@@###@@@@@@@@@@@#@@@@@@@###@@@@@@@@@@@@@####@@@######.         ",
"         ..###$#@@@@@@@##@@@@@@@@@@@@@@@@@@@@@@@@@@@@@@##@@@@@@@#$###..         ",
"          ..##$##@@@@@@@##@@@@@@@@@@@@@@@@@@@@@@@@@@@@##@@@@@@@##$##..          ",
"           ..#$@@##@@@@@@@@##@@@@@#@@@@@@@@###@@@@##@@@@@@@@@#@@@$#..           ",
"            ..##@@###@@@@@@@#@@@@####@@#########@@@#@@@@@@@@#@@@#$..            ",
"             ...@@@@##@@@@@@#@####@@@@@@#@@@@@@@@@@@@@@@@@##@@@@...             ",
"              ...@@@#@@@@@###@@@@@@@@@@##@@@@@@@@@@###@@@@@#@@#...              ",
"               ..##@##@@@@####@@@@@@@@@##@@@@@@@@@####@@@@@#@#...               ",
"                ...@#@####@@@#####@@@@@##@@@@@#####@@@####@#@...                ",
"                ....#@@@#@@@@@@@################@@@@@@@#@@@@....                ",
"                ......@@##@@@@@@@#@@@@@@@@@@@@@#@@@@@@##@.......                ",
"                ..$$$$....@@@@@@##@@@@@@@@@@@@@@@@@@@@....$$$$..                ",
"                ..$$$$$....@@@@@##@@@@@@@@@@@@#@@@@@@....$$$$$..                ",
"                ..$$$$$$$$........@@@@@@@@@@@@........$$$%$$$$..                ",
"                ..$$$%$$$$$.........................$$$$$%%$$$..                ",
"                ..%$$%$$$$$%$$$$$..............$$$$$$$$$$%%$$%..                ",
"                ..$$%%$$$$$%$$$$$$$$%$$$$$$%$$$$$$$$$$$$$$%%$$..                ",
"                ..$$$%$$$$$%$$$$$$$$%$$$$$$%$$$$$$$$$$$$$$%$$$..                ",
"                ..$$$$%%$$$%$$$$$$$%%$$$$$$%%%%$$$$$%$$$%%$$$$..                ",
"                ..$$$$%%%$$%$$%%$$$%%$$$$$%%$$$$$$$$%$$%%%$$$$..                ",
"                ..%$$$%%####$$$$%$$$%%%$$$%%$$$$$%$$####%$$$$%..                ",
"                ..$%%$%$#########$$$$%%$$$$$$$$##$$#####$$$%%$..                ",
"                ..$%%%%##########$###$$#######$##$$######$%%%$..                ",
"                ..$%$$$#$$#######$###$$#######$##$####$$#%$$%$..                ",
"                ..$%$$$##$$#####$$###$$#######$##$#######$$$%$..                ",
"               ...$%$$#######$$$#####$$########$$#$######$$$%$...               ",
"              .=..%%%$##$####$##....******&*...###$####$#$$%%%..=.              ",
"              .=..%%%$##$####$#...&*******&**&...#$###$$#$$%%%..=.              ",
"              .-=.$%%%$#$##$$...****************...$###$#%%%%$.=-.              ",
"             .===.$$$%$$$####..***===......===***..####$$%%$$$.===.             ",
"             .===..$$$#$###..**=...&&&=&&=&&&...=**.####$$$$$..===.             ",
"             ..--=.%$$#$###..*..&&&&&&&&&&&&&&&...*.#####$$$%.=--..             ",
"             ...&=.$%$#####.*..=&&&&&&&&&&&&&&&==..*.####$$%$.&&...             ",
"             ...&&&.$$##$$$...&&&&&&&&&&&&&&&&&&&&...$$$#$$$.&&&...             ",
"             ...&&&..$$$###...&&&&&&........&&&&&&...###$$$..&&&...             ",
"             .-.&&==..#####..&&&=..............=&&&..####$..==&&.-.             ",
"             .--.==**..####..&&&...$.$$$$$..$...&&&..####..**=..--.             ",
"             .--..****..###..&&...$$.$$$$$$.$$...&&..###..****..--.             ",
"             .--...***.&..#.&&&..$$$.$$##$$.$$$..&&&.#..&.***...--.             ",
"             .--.=.**&**....&&&.$$$$.######.$$$..&&&....*&&**...--.             ",
"             .--.=&..*****..&=&.$#$#.##@###$#$#..&=&..*****..&=.--.             ",
"             .-=-=&.&.&*....&=&.##$#$#@@#@#$#$#$.&=&....*&.&.&=-=-.             ",
"             .-=-=&.&=....&.&=&.##$#$#@@#@#$#$##.&=&.&....=&.&=-=-.             ",
"             .-=-=&.&=&.&&*.&=&.##$@$#@##@@##$##.&=&.*&&.&=&.&=-=-.             ",
"             .-===&.&=&.*&*.&&&.##$@$#@##@@$#$##.&&&.*&*.&=&.&===-.             ",
"             .-=-=&=&=&.*&*.&&&.###@$#@#@@@$@###.&&&.*&*.&=&=&=-=-.             ",
"             .-=-=&&&=&.*&*.&&&.###@##@@@@@$@###.&&&.*&*.&=&&&=-=-.             ",
"             .-=-=&&&=&.*&*.&&&.###@.#@@@@@#@###.&&&.*&*.&=&&&=-=-.             ",
"             .-=.=&=&=&=***.&&&.####.#@@@@##@###.&&&.***=&=&=&=.=-.             ",
"             .-=.=&=&&&=***.&&&.######@@@@##@###.&&&.***=&&&=&=.=-.             ",
"              .=.=&=&&&=***.&&&.####$#@@#@##@###.&&&.***=&&&=&=.=.              ",
"              ...==.&&&=***.&=&.#$##$#@##@#$##$#.&=&.***=&&&.=....              ",
"              ...==.&&&&***.&=&.#$##$#@##@#$##$#.&=&.***&&&&.=....              ",
"                 ...&&&.*&*.&=&.#$##.####@#$##$#.&=&.*&*&=&&.=..                ",
"                 ....&&.*&*.&=&.#$##.######.##$#.&=&.*&*&=&&....                ",
"                 .  .&&&*&&..==.#$##.######.##$#.==&&&&*&.....                  ",
"                    .&&&&....==.#$##.######.##$..==......   .                   ",
"                    ..&&.. . .....##.#$####.##...... .. .                       ",
"                      ..         ..............                                 ",
"                                                                                ",
"                                                                                ",
"                                                                                ",
"                                                                                ",
"                                                                                ",
"                                                                                ",
"                                                                                ",
"                                                                                ",
"                                                                                ",
"                                                                                ",
"                                                                                ",
"                                                                                ",
"                                                                                ",
"                                                                                ",
"                                                                                ",
"                                                                                ",
"                                                                                ",
"                                                                                ",
"                                                                                ",
"                                                                                "};
