/* XPM */
static char * exit_xpm[] = {
"40 40 591 2",
"  	c None",
". 	c #6B5C4B",
"+ 	c #72614E",
"@ 	c #5F5245",
"# 	c #A18967",
"$ 	c #847157",
"% 	c #433C3A",
"& 	c #CDAE7F",
"* 	c #DDBC89",
"= 	c #DFBD8A",
"- 	c #E4C38D",
"; 	c #E9D196",
"> 	c #DFBF8B",
", 	c #65524D",
"' 	c #8C7164",
") 	c #998065",
"! 	c #E3C18C",
"~ 	c #AC976F",
"{ 	c #DBC28C",
"] 	c #F0E4A2",
"^ 	c #F2E8A5",
"/ 	c #E6C991",
"( 	c #E9D296",
"_ 	c #66534E",
": 	c #97796A",
"< 	c #AB8977",
"[ 	c #B39375",
"} 	c #BA9C79",
"| 	c #C1B185",
"1 	c #F2EBA7",
"2 	c #F5EFA9",
"3 	c #EBD799",
"4 	c #E8CE94",
"5 	c #E4C48E",
"6 	c #C5A47D",
"7 	c #A17F70",
"8 	c #222331",
"9 	c #7C645A",
"0 	c #A18170",
"a 	c #AF8C79",
"b 	c #9C7A6C",
"c 	c #D6B485",
"d 	c #D6B586",
"e 	c #C8A67F",
"f 	c #EEE6A4",
"g 	c #F4ECA7",
"h 	c #E5C78F",
"i 	c #D1AF83",
"j 	c #A28070",
"k 	c #8C7064",
"l 	c #AE8C79",
"m 	c #BA977D",
"n 	c #B9967C",
"o 	c #AA8876",
"p 	c #BD9C7A",
"q 	c #ECDA9B",
"r 	c #E7CB92",
"s 	c #F1E4A2",
"t 	c #F2EAA6",
"u 	c #DCCA93",
"v 	c #D6B686",
"w 	c #CDAC81",
"x 	c #AB8876",
"y 	c #C09E7F",
"z 	c #BD9B7E",
"A 	c #584347",
"B 	c #40343B",
"C 	c #AD8B78",
"D 	c #BD9A7E",
"E 	c #E1BF8B",
"F 	c #D1AF85",
"G 	c #A48273",
"H 	c #CDAB81",
"I 	c #EBD79A",
"J 	c #F4EDA8",
"K 	c #EDE5A3",
"L 	c #AB9175",
"M 	c #C9A87F",
"N 	c #D4B385",
"O 	c #9F7D6F",
"P 	c #B7947C",
"Q 	c #392F38",
"R 	c #725555",
"S 	c #8A6763",
"T 	c #68514F",
"U 	c #AE8B78",
"V 	c #BA987D",
"W 	c #D8B688",
"X 	c #D2B086",
"Y 	c #AC8977",
"Z 	c #CFAD82",
"` 	c #E3C28D",
" .	c #E8D095",
"..	c #F3EAA6",
"+.	c #E3C28C",
"@.	c #A78573",
"#.	c #D7B587",
"$.	c #CEAC84",
"%.	c #C3A180",
"&.	c #AF8C78",
"*.	c #392F39",
"=.	c #715554",
"-.	c #8A6E62",
";.	c #B5937B",
">.	c #C5A480",
",.	c #A98772",
"'.	c #DCBA88",
").	c #BEA57F",
"!.	c #ECDE9F",
"~.	c #EFE09F",
"{.	c #E8CF95",
"].	c #DFBE8A",
"^.	c #A17E70",
"/.	c #DEBC8A",
"(.	c #252332",
"_.	c #7D5D5B",
":.	c #9C796D",
"<.	c #7D5E5B",
"[.	c #755D57",
"}.	c #B6947B",
"|.	c #D3B186",
"1.	c #E1C08B",
"2.	c #E0BE8A",
"3.	c #B09175",
"4.	c #D3C792",
"5.	c #EEDF9F",
"6.	c #DAB889",
"7.	c #AF8D79",
"8.	c #D2B085",
"9.	c #BF9C7E",
"0.	c #BF9D7F",
"a.	c #B4927B",
"b.	c #6C5751",
"c.	c #7D5E5C",
"d.	c #98756B",
"e.	c #7E5F5C",
"f.	c #4A3A40",
"g.	c #926F67",
"h.	c #A88575",
"i.	c #8F6C66",
"j.	c #81655F",
"k.	c #CDAB84",
"l.	c #C9A782",
"m.	c #A07E70",
"n.	c #DCBC89",
"o.	c #E4D79A",
"p.	c #EADF9F",
"q.	c #C4AE84",
"r.	c #DEBD8A",
"s.	c #E2C08C",
"t.	c #B08D79",
"u.	c #DDBB8A",
"v.	c #B4917B",
"w.	c #A88675",
"x.	c #926F68",
"y.	c #745756",
"z.	c #97756B",
"A.	c #A78474",
"B.	c #876662",
"C.	c #947569",
"D.	c #B6937B",
"E.	c #C5A381",
"F.	c #AB8A72",
"G.	c #E6D69A",
"H.	c #F4EEA9",
"I.	c #D7CC95",
"J.	c #A58770",
"K.	c #DBB988",
"L.	c #AD8A77",
"M.	c #C8A682",
"N.	c #DBB989",
"O.	c #B5927B",
"P.	c #866461",
"Q.	c #A68474",
"R.	c #5C4B49",
"S.	c #84655F",
"T.	c #AA8776",
"U.	c #705456",
"V.	c #99786C",
"W.	c #E0BE8B",
"X.	c #A78772",
"Y.	c #E9DA9C",
"Z.	c #E5C790",
"`.	c #BB9C7A",
" +	c #C4B588",
".+	c #F1EAA6",
"++	c #DAC691",
"@+	c #D2B184",
"#+	c #E3CC93",
"$+	c #AE9679",
"%+	c #DAB888",
"&+	c #A98676",
"*+	c #9C7A6E",
"=+	c #7E5E5C",
"-+	c #493940",
";+	c #503E43",
">+	c #82615E",
",+	c #97746A",
"'+	c #9D7A6E",
")+	c #77595A",
"!+	c #99796C",
"~+	c #B18E7A",
"{+	c #BB987D",
"]+	c #CBA983",
"^+	c #C2A080",
"/+	c #A48472",
"(+	c #C7A981",
"_+	c #EBD599",
":+	c #E5C58F",
"<+	c #D3BB8A",
"[+	c #EFE6A3",
"}+	c #EAD598",
"|+	c #E6CB92",
"1+	c #A88A74",
"2+	c #C7A581",
"3+	c #775959",
"4+	c #A68374",
"5+	c #9B786D",
"6+	c #8B6A63",
"7+	c #372D38",
"8+	c #7F5F5C",
"9+	c #A98675",
"0+	c #7E5E5D",
"a+	c #B8967C",
"b+	c #D2B186",
"c+	c #AA8774",
"d+	c #E4C68F",
"e+	c #F0E3A1",
"f+	c #EDDC9D",
"g+	c #F3EBA6",
"h+	c #F2E8A4",
"i+	c #ECD99B",
"j+	c #ECDA9C",
"k+	c #E0C18D",
"l+	c #927466",
"m+	c #B3907A",
"n+	c #7F5F5D",
"o+	c #99766C",
"p+	c #957269",
"q+	c #43383D",
"r+	c #202130",
"s+	c #896662",
"t+	c #98766B",
"u+	c #674E4F",
"v+	c #AE8B79",
"w+	c #AE8E76",
"x+	c #DCBA89",
"y+	c #F1E8A4",
"z+	c #DAD497",
"A+	c #C8C48C",
"B+	c #A09D72",
"C+	c #C6C18A",
"D+	c #F0E7A4",
"E+	c #776257",
"F+	c #B19078",
"G+	c #745757",
"H+	c #A58273",
"I+	c #8F6D66",
"J+	c #222131",
"K+	c #A27F71",
"L+	c #9E7C6F",
"M+	c #60494B",
"N+	c #A98775",
"O+	c #756154",
"P+	c #AF956E",
"Q+	c #E7D397",
"R+	c #E3DA9B",
"S+	c #A7A376",
"T+	c #AFAA7A",
"U+	c #6A604A",
"V+	c #444240",
"W+	c #2F273B",
"X+	c #564241",
"Y+	c #503E40",
"Z+	c #625B49",
"`+	c #ADA97A",
" @	c #A5A075",
".@	c #DACD94",
"+@	c #E5CF95",
"@@	c #AD936E",
"#@	c #5F494B",
"$@	c #937468",
"%@	c #80665D",
"&@	c #A2856D",
"*@	c #917B5E",
"=@	c #E9DB9C",
"-@	c #D6D194",
";@	c #5C5848",
">@	c #6E5248",
",@	c #8E6A4A",
"'@	c #8E7550",
")@	c #3D2F43",
"!@	c #6F5348",
"~@	c #735548",
"{@	c #EFE9A5",
"]@	c #948362",
"^@	c #9D816B",
"/@	c #907166",
"(@	c #96736A",
"_@	c #735955",
":@	c #916F67",
"<@	c #654F4E",
"[@	c #6E5952",
"}@	c #C6A67F",
"|@	c #D4B684",
"1@	c #B2A276",
"2@	c #2A2339",
"3@	c #45334A",
"4@	c #594341",
"5@	c #A37751",
"6@	c #9A7953",
"7@	c #9B8155",
"8@	c #876349",
"9@	c #916A49",
"0@	c #9D8255",
"a@	c #9C7B54",
"b@	c #9E7351",
"c@	c #584241",
"d@	c #BAB682",
"e@	c #D5BA87",
"f@	c #B8987A",
"g@	c #6E5953",
"h@	c #765C57",
"i@	c #5B4A48",
"j@	c #5F4B4A",
"k@	c #896763",
"l@	c #8B6864",
"m@	c #906F66",
"n@	c #7B6854",
"o@	c #BB9F75",
"p@	c #8D785C",
"q@	c #5F4B3F",
"r@	c #7A5A42",
"s@	c #937750",
"t@	c #937350",
"u@	c #6D513F",
"v@	c #9D724D",
"w@	c #674D3C",
"x@	c #715440",
"y@	c #6E5240",
"z@	c #A27750",
"A@	c #6A4F3D",
"B@	c #8F704E",
"C@	c #9B7F55",
"D@	c #836748",
"E@	c #5B5042",
"F@	c #98956D",
"G@	c #BEA579",
"H@	c #766352",
"I@	c #906E66",
"J@	c #95736A",
"K@	c #5B4748",
"L@	c #866460",
"M@	c #886C61",
"N@	c #9E8C6A",
"O@	c #D9C68E",
"P@	c #9D8665",
"Q@	c #4C3C3F",
"R@	c #7E5D50",
"S@	c #9A7154",
"T@	c #AD7E55",
"U@	c #B38255",
"V@	c #AB7D54",
"W@	c #AF8055",
"X@	c #BB8D5A",
"Y@	c #BC8F5B",
"Z@	c #B78757",
"`@	c #B48355",
" #	c #A27654",
".#	c #876453",
"+#	c #624A45",
"@#	c #645548",
"##	c #DABA87",
"$#	c #AC936D",
"%#	c #927567",
"&#	c #886762",
"*#	c #40333C",
"=#	c #886961",
"-#	c #987A6B",
";#	c #A58473",
">#	c #86705B",
",#	c #332E36",
"'#	c #553C4F",
")#	c #53374F",
"!#	c #4A354A",
"~#	c #3A2F36",
"{#	c #5C4540",
"]#	c #49383A",
"^#	c #583A4E",
"/#	c #5A3B50",
"(#	c #55394D",
"_#	c #4D3547",
":#	c #593745",
"<#	c #5A3A46",
"[#	c #603B4D",
"}#	c #56394E",
"|#	c #3F3138",
"1#	c #51384D",
"2#	c #54384F",
"3#	c #52394E",
"4#	c #342F37",
"5#	c #876D61",
"6#	c #957769",
"7#	c #7E615C",
"8#	c #362D38",
"9#	c #161C2E",
"0#	c #534044",
"a#	c #7B635A",
"b#	c #A78574",
"c#	c #695550",
"d#	c #40343A",
"e#	c #4A3347",
"f#	c #874B63",
"g#	c #9A4F5E",
"h#	c #994F5F",
"i#	c #634541",
"j#	c #9A7052",
"k#	c #684A40",
"l#	c #AC5359",
"m#	c #B1605F",
"n#	c #A86C66",
"o#	c #984B4E",
"p#	c #A05B54",
"q#	c #AC6C64",
"r#	c #A95B57",
"s#	c #A85053",
"t#	c #725040",
"u#	c #997050",
"v#	c #634842",
"w#	c #8C4C63",
"x#	c #9A4E5C",
"y#	c #483245",
"z#	c #725C55",
"A#	c #82685E",
"B#	c #695250",
"C#	c #3D343A",
"D#	c #44393D",
"E#	c #4D3C3D",
"F#	c #75574D",
"G#	c #4A3245",
"H#	c #A2505A",
"I#	c #AB5259",
"J#	c #9E505E",
"K#	c #6D4C42",
"L#	c #A77951",
"M#	c #71513F",
"N#	c #984C4E",
"O#	c #9C5252",
"P#	c #90534D",
"Q#	c #874946",
"R#	c #874A47",
"S#	c #9F5856",
"T#	c #9A4F4F",
"U#	c #974B4C",
"V#	c #AF7F55",
"W#	c #744D40",
"X#	c #B75555",
"Y#	c #A8525A",
"Z#	c #AA5258",
"`#	c #4C3346",
" $	c #70544B",
".$	c #53403F",
"+$	c #322A33",
"@$	c #815F4F",
"#$	c #A47853",
"$$	c #573B4A",
"%$	c #AA5259",
"&$	c #9E505D",
"*$	c #A2515D",
"=$	c #6F4C41",
"-$	c #996F4B",
";$	c #70533F",
">$	c #937050",
",$	c #B38D5B",
"'$	c #B48E5B",
")$	c #BC9360",
"!$	c #BC9460",
"~$	c #B28D5C",
"{$	c #947050",
"]$	c #70523F",
"^$	c #A07551",
"/$	c #674741",
"($	c #AA525A",
"_$	c #A3515C",
":$	c #9B4F5D",
"<$	c #4F3649",
"[$	c #966E53",
"}$	c #836151",
"|$	c #332B34",
"1$	c #433434",
"2$	c #9F744F",
"3$	c #5A3B54",
"4$	c #9C4F5D",
"5$	c #634046",
"6$	c #7A5941",
"7$	c #4C3A36",
"8$	c #58433F",
"9$	c #7F5D45",
"0$	c #886347",
"a$	c #8D6747",
"b$	c #926B49",
"c$	c #775846",
"d$	c #3E3136",
"e$	c #705341",
"f$	c #6E3F43",
"g$	c #A2505C",
"h$	c #A9525A",
"i$	c #5E3B55",
"j$	c #A87A55",
"k$	c #3B3034",
"l$	c #4F3C36",
"m$	c #B08055",
"n$	c #9F744D",
"o$	c #473142",
"p$	c #87504D",
"q$	c #965A4C",
"r$	c #8B5850",
"s$	c #90594E",
"t$	c #725454",
"u$	c #836158",
"v$	c #866557",
"w$	c #876260",
"x$	c #7C595E",
"y$	c #725556",
"z$	c #715454",
"A$	c #715455",
"B$	c #7C5E54",
"C$	c #8A665A",
"D$	c #885850",
"E$	c #8F524B",
"F$	c #44303F",
"G$	c #A67954",
"H$	c #523F39",
"I$	c #7D5C42",
"J$	c #A07550",
"K$	c #A1754E",
"L$	c #59433C",
"M$	c #AD865A",
"N$	c #B08958",
"O$	c #AF895A",
"P$	c #AC8758",
"Q$	c #B88F5D",
"R$	c #B78E5D",
"S$	c #B68D5D",
"T$	c #B48C5C",
"U$	c #B28B5C",
"V$	c #AF8859",
"W$	c #AB8556",
"X$	c #AA8556",
"Y$	c #A88054",
"Z$	c #57423C",
"`$	c #9F744E",
" %	c #956D4E",
".%	c #7B5B42",
"+%	c #5B443E",
"@%	c #7D5C44",
"#%	c #AC7D53",
"$%	c #5C453F",
"%%	c #9A704E",
"&%	c #A0744E",
"*%	c #936B4B",
"=%	c #A17651",
"-%	c #AD7E54",
";%	c #A97B54",
">%	c #A87B54",
",%	c #956C4A",
"'%	c #AB7D52",
")%	c #AA7C51",
"!%	c #A87A53",
"~%	c #99704C",
"{%	c #A17653",
"]%	c #56413E",
"^%	c #8C674D",
"/%	c #8E684A",
"(%	c #775742",
"_%	c #151C2E",
":%	c #262431",
"<%	c #433435",
"[%	c #413333",
"}%	c #63493B",
"|%	c #4D3A36",
"1%	c #382E32",
"2%	c #715441",
"3%	c #815F49",
"4%	c #694D3D",
"5%	c #131B2E",
"6%	c #141B2E",
"7%	c #60483B",
"8%	c #956D4A",
"9%	c #795941",
"0%	c #664C3C",
"                                                                                ",
"                                                                                ",
"                                                                                ",
"                                                                                ",
"                                                                                ",
"                                . + @ # # @ + $                                 ",
"                              % & * = - ; > * & %                               ",
"                          , ' ) ! ~ { ] ^ / ( ! ) ' ,                           ",
"                        _ : < [ ! } | 1 2 3 4 5 6 7 : _                         ",
"                    8 9 0 a b c ! d e f g h ! ! i j a 0 9 8                     ",
"                    k l m n o p - q r s t u v ! w x y z l k                     ",
"                A B C D E F G H ! 5 I J K L M ! N O F E P C B A                 ",
"            Q R S T U V W X Y Z ! `  ...2 s +.! Z @.#.$.%.&.T S R Q             ",
"          *.=.S =.-.a ;.E >.,.'.E ).!.g J ~.{.].p ^.z /.;.a -.=.S =.*.          ",
"          (._.:.<.[.a }.! |.:.1.2.3.4.5.J ; ! ! 6.7.8.9.0.a.b.c.d.e.(.          ",
"          f.g.h.i.j.0.y k.l.m.1.! n.o.2 2 p.q.r.s.t.W u.D v.j.i.w.x.f.          ",
"          y.z.A.B.C.D.E./.8.F.s.! s.G.2 H.I.J.].K.L.M.N.z O.C.P.Q.m.y.          ",
"        R.S.m.T.U.V.a v.W./.X.Y.Z.`. +.+J ++@+! #+$+%+! z a V.U.&+*+=+-+        ",
"        ;+>+,+'+)+!+~+{+]+^+/+(+_+:+<+[+2 }+/ |+N 1+* W.2+a !+3+4+5+6+_         ",
"        7+8+m.9+0+C.{+a+b+= c+d+e+f+g+h+2 g+i+j+k+l+N./.k.m+C.n+o+p+e.q+        ",
"        r+s+t+h.u+o v+w+x+x+l+y+z+A+B+C+C+B+A+z+D+E+]+/.F+z < G+H+^.I+r+        ",
"        J+s+K+L+M+N+O+P+Q+R+S+T+U+V+W+X+Y+W+V+Z+`+ @.@+@@@O+N+#@d.'+i.J+        ",
"        f.S *+$@%@t.&@*@=@-@;@>@,@'@)@!@~@)@'@,@>@;@-@{@]@^@v+%@/@(@S f.        ",
"        _@S :@<@[@}@r |@1@2@3@4@5@6@7@8@9@0@a@b@c@3@2@d@e@! f@g@<@(@S h@        ",
"      i@j@k@l@m@n@Z.o@p@q@r@s@t@u@v@w@x@x@y@z@A@B@C@D@E@F@G@%+H@I@J@k@K@i@      ",
"        y.L@M@x N@O@P@Q@R@S@T@U@V@W@X@Y@Y@Y@Y@Y@Z@`@ #.#+#@###$#%#M@&#y.        ",
"      *#y.=#-#;#>#,#'#)#!#~#{#]#^#/#(#_#:#<#[#}#]#{#|#1#2#3#4#5#;#-#6#7#8#      ",
"      9#0#a#b#c#d#e#f#g#h#i#j#k#l#m#n#o#p#q#r#s#t#u#v#w#h#x#y#d#z#b#A#B#        ",
"          C#D#E#F#G#H#I#J#K#L#M#N#O#P#Q#R#S#T#U#M#V#W#X#Y#Z#`# $.$D#C#          ",
"            +$@$#$$$%$&$*$=$-$;$>$,$'$)$!$!$~${$]$^$/$($_$:$<$[$}$|$            ",
"            1$T@2$3$4$($h#5$6$7$8$9$0$r@r@a$b$c$d$e$f$l#g$h$i$2$j$k$            ",
"            l$m$n$o$p$q$r$s$t$u$v$w$x$y$z$A$A$B$C$R D$q$r$E$F$n$G$H$            ",
"            I$J$K$L$M$N$N$N$O$P$Q$R$S$T$U$V$W$N$X$T$N$N$N$Y$Z$`$ %.%            ",
"            +%@%#%$%%%&%*%&%=%-%`@;%>%v@n$,%'%`@)%!%&%~%%%{%]%^%/%(%            ",
"            _%:%<%_%[%}%|%1%2%3%4%|%5%  6%6%7%/%8%9%1%|%0%  9#  6%              ",
"                                                                                ",
"                                                                                ",
"                                                                                ",
"                                                                                ",
"                                                                                "};
