/* XPM */
static char * exit_xpm[] = {
"40 80 734 2",
"  	c None",
". 	c #273C3E",
"+ 	c #3E6257",
"@ 	c #3D6257",
"# 	c #1D333E",
"$ 	c #1A2431",
"% 	c #3E6C66",
"& 	c #69A78B",
"* 	c #78BF9D",
"= 	c #81D1AF",
"- 	c #72C8B7",
"; 	c #2E4946",
"> 	c #8BDDB5",
", 	c #6EC1B0",
"' 	c #5C937B",
") 	c #88D7B0",
"! 	c #7BD2BA",
"~ 	c #75CCBA",
"{ 	c #81D6BA",
"] 	c #7DD2BA",
"^ 	c #8EE1B9",
"/ 	c #52826E",
"( 	c #8BDFB9",
"_ 	c #76CDBA",
": 	c #78CFBA",
"< 	c #77CEBA",
"[ 	c #8BDEBA",
"} 	c #345F6C",
"| 	c #7EC5AA",
"1 	c #8DE0B9",
"2 	c #7BC9AB",
"3 	c #69A893",
"4 	c #7DC4A9",
"5 	c #66A289",
"6 	c #27474D",
"7 	c #1B2C39",
"8 	c #2E5D63",
"9 	c #387377",
"0 	c #377176",
"a 	c #254A57",
"b 	c #72BFAE",
"c 	c #80D5B9",
"d 	c #8CDFB9",
"e 	c #68B3AA",
"f 	c #335E6C",
"g 	c #387483",
"h 	c #40788B",
"i 	c #66A58C",
"j 	c #527B83",
"k 	c #435B7C",
"l 	c #435B7D",
"m 	c #425A7C",
"n 	c #2B4358",
"o 	c #4DA0A8",
"p 	c #51A7AF",
"q 	c #56B1B6",
"r 	c #5AB8BB",
"s 	c #50A5AD",
"t 	c #57B3B5",
"u 	c #2E4C5C",
"v 	c #435C7D",
"w 	c #537C84",
"x 	c #408595",
"y 	c #31425D",
"z 	c #42597B",
"A 	c #435A7C",
"B 	c #2F4B5E",
"C 	c #5098A2",
"D 	c #497A8F",
"E 	c #3B6D79",
"F 	c #5099A2",
"G 	c #455475",
"H 	c #445577",
"I 	c #5F977E",
"J 	c #436A5D",
"K 	c #1E3540",
"L 	c #316573",
"M 	c #408696",
"N 	c #3B5170",
"O 	c #464C6E",
"P 	c #44587A",
"Q 	c #435172",
"R 	c #435071",
"S 	c #406659",
"T 	c #8BDCB4",
"U 	c #8CDEB6",
"V 	c #6FB49A",
"W 	c #377276",
"X 	c #54ACAF",
"Y 	c #4793A1",
"Z 	c #346C7A",
"` 	c #455071",
" .	c #455173",
"..	c #445879",
"+.	c #455273",
"@.	c #455072",
"#.	c #455375",
"$.	c #464E70",
"%.	c #464D6F",
"&.	c #4794A1",
"*.	c #55AFB1",
"=.	c #387276",
"-.	c #69AF9A",
";.	c #5BA49B",
">.	c #88DCB9",
",.	c #7ED3BA",
"'.	c #7DD3BA",
").	c #508F87",
"!.	c #54ADB3",
"~.	c #4B95A2",
"{.	c #364D68",
"].	c #454F70",
"^.	c #41597A",
"/.	c #3A4967",
"(.	c #3A4866",
"_.	c #394E6C",
":.	c #3A4B69",
"<.	c #445476",
"[.	c #455274",
"}.	c #445779",
"|.	c #455172",
"1.	c #364E69",
"2.	c #4C96A2",
"3.	c #54AEB3",
"4.	c #508E87",
"5.	c #0F0728",
"6.	c #86D5AF",
"7.	c #7ED4BA",
"8.	c #75CBB8",
"9.	c #70B599",
"0.	c #2C4A55",
"a.	c #4B999C",
"b.	c #435D7D",
"c.	c #464A6C",
"d.	c #445576",
"e.	c #3C5070",
"f.	c #333950",
"g.	c #564645",
"h.	c #7A5A44",
"i.	c #976E4B",
"j.	c #926A49",
"k.	c #966E4B",
"l.	c #986F4B",
"m.	c #996F4B",
"n.	c #3C5170",
"o.	c #435779",
"p.	c #6EAF90",
"q.	c #75CAB7",
"r.	c #33504B",
"s.	c #8FE2B9",
"t.	c #89D8B1",
"u.	c #42665C",
"v.	c #342F4A",
"w.	c #3B3552",
"x.	c #424E6F",
"y.	c #2B3C55",
"z.	c #674C3C",
"A.	c #A4774F",
"B.	c #B88858",
"C.	c #BA8B59",
"D.	c #BD925D",
"E.	c #A0754E",
"F.	c #A57C52",
"G.	c #BD935D",
"H.	c #BC935D",
"I.	c #B68757",
"J.	c #C1955E",
"K.	c #BE915D",
"L.	c #A57850",
"M.	c #795941",
"N.	c #343F56",
"O.	c #37574F",
"P.	c #69A78A",
"Q.	c #619995",
"R.	c #549195",
"S.	c #273D4F",
"T.	c #3E3756",
"U.	c #473F60",
"V.	c #3F5576",
"W.	c #5B4B4E",
"X.	c #846145",
"Y.	c #8A6949",
"Z.	c #A07B51",
"`.	c #9E774F",
" +	c #A37E53",
".+	c #AD8B59",
"++	c #B1915C",
"@+	c #C7A265",
"#+	c #C6A165",
"$+	c #A58053",
"%+	c #AA8858",
"&+	c #A27C52",
"*+	c #9F7850",
"=+	c #886446",
"-+	c #68534E",
";+	c #15192C",
">+	c #3D7F8F",
",+	c #438196",
"'+	c #448D9E",
")+	c #356474",
"!+	c #483F61",
"~+	c #3E3E5D",
"{+	c #3F353C",
"]+	c #765742",
"^+	c #AA8355",
"/+	c #D9B36F",
"(+	c #DAB570",
"_+	c #D6B06D",
":+	c #D8B26F",
"<+	c #D8B36F",
"[+	c #CCA567",
"}+	c #A67950",
"|+	c #5D4741",
"1+	c #15182B",
"2+	c #407E91",
"3+	c #436E89",
"4+	c #44899B",
"5+	c #3A7081",
"6+	c #453D5E",
"7+	c #352D38",
"8+	c #85614A",
"9+	c #956C4A",
"0+	c #AC8958",
"a+	c #C79F64",
"b+	c #C89F64",
"c+	c #BB9C62",
"d+	c #CBA366",
"e+	c #C89E63",
"f+	c #C9A467",
"g+	c #D8B46F",
"h+	c #D9B470",
"i+	c #D0A969",
"j+	c #B99760",
"k+	c #9A704C",
"l+	c #7B5B4A",
"m+	c #407C8F",
"n+	c #3F7187",
"o+	c #345A6C",
"p+	c #473E60",
"q+	c #36314D",
"r+	c #644B44",
"s+	c #946C4E",
"t+	c #AF8256",
"u+	c #D4AE6C",
"v+	c #D7B16E",
"w+	c #D9B46F",
"x+	c #D4AF6C",
"y+	c #AB7F56",
"z+	c #88644E",
"A+	c #634A44",
"B+	c #355E6E",
"C+	c #28505E",
"D+	c #366F7F",
"E+	c #458F9B",
"F+	c #3E7C85",
"G+	c #3F5B58",
"H+	c #63A998",
"I+	c #6BA186",
"J+	c #AA7C51",
"K+	c #B9915C",
"L+	c #CDAA6A",
"M+	c #D5AF6D",
"N+	c #C09F64",
"O+	c #BF9A61",
"P+	c #CAA165",
"Q+	c #D3AD6C",
"R+	c #CEAB6A",
"S+	c #D0AC6B",
"T+	c #CFA768",
"U+	c #D2AD6C",
"V+	c #A37751",
"W+	c #705346",
"X+	c #6A9F84",
"Y+	c #548671",
"Z+	c #44898D",
"`+	c #46919C",
" @	c #326875",
".@	c #52A9B0",
"+@	c #448C8F",
"@@	c #558872",
"#@	c #89D9B2",
"$@	c #8DE1B9",
"%@	c #7AC2A0",
"&@	c #4C6154",
"*@	c #A98054",
"=@	c #C29F64",
"-@	c #C7A567",
";@	c #D2AC6B",
">@	c #C9A668",
",@	c #D4AD6C",
"'@	c #D0AB6A",
")@	c #CAA768",
"!@	c #CFAA6A",
"~@	c #C19E63",
"{@	c #9C714C",
"]@	c #425E53",
"^@	c #7ACDB5",
"/@	c #2E5E6A",
"(@	c #25474F",
"_@	c #55B0B2",
":@	c #5BA39E",
"<@	c #81D0B3",
"[@	c #73C7B4",
"}@	c #87D6B1",
"|@	c #2F5B66",
"1@	c #A77B51",
"2@	c #D6B16E",
"3@	c #B89861",
"4@	c #977E53",
"5@	c #BE9E64",
"6@	c #CAA265",
"7@	c #A5774F",
"8@	c #305B66",
"9@	c #80CFB2",
"0@	c #73CBBA",
"a@	c #1C3241",
"b@	c #4A8897",
"c@	c #3A777B",
"d@	c #5AB8BA",
"e@	c #4FA2AA",
"f@	c #437978",
"g@	c #72B89C",
"h@	c #4F8289",
"i@	c #408193",
"j@	c #75553F",
"k@	c #BB9860",
"l@	c #D3AD6B",
"m@	c #BE9C63",
"n@	c #5B6956",
"o@	c #75C4AC",
"p@	c #73BEA4",
"q@	c #B79860",
"r@	c #D3AC6B",
"s@	c #815E42",
"t@	c #4B7F89",
"u@	c #71B79C",
"v@	c #498887",
"w@	c #1D3342",
"x@	c #428295",
"y@	c #294E5B",
"z@	c #58B5B8",
"A@	c #57B2B4",
"B@	c #41878A",
"C@	c #3B7888",
"D@	c #3F748A",
"E@	c #986F4A",
"F@	c #BF925D",
"G@	c #D2AB6A",
"H@	c #C8A668",
"I@	c #599483",
"J@	c #74CCBA",
"K@	c #79D0BA",
"L@	c #79CFBA",
"M@	c #8EE2B9",
"N@	c #C9A064",
"O@	c #996F4A",
"P@	c #161C2E",
"Q@	c #428A9B",
"R@	c #457A90",
"S@	c #50A6AE",
"T@	c #5AB9BB",
"U@	c #44889B",
"V@	c #3A7685",
"W@	c #557371",
"X@	c #866A51",
"Y@	c #B48857",
"Z@	c #8D6D4A",
"`@	c #72B595",
" #	c #8EE1BA",
".#	c #79C7AB",
"+#	c #8FE3B9",
"@#	c #73C9B7",
"##	c #B88C59",
"$#	c #86664D",
"%#	c #547170",
"&#	c #42738B",
"*#	c #45778E",
"=#	c #57B2B7",
"-#	c #52AAB1",
";#	c #3A7786",
">#	c #408388",
",#	c #50A5AB",
"'#	c #55989A",
")#	c #3E585B",
"!#	c #3E7D80",
"~#	c #5AA7A6",
"{#	c #3D7275",
"]#	c #4D857A",
"^#	c #3F777A",
"/#	c #3E595C",
"(#	c #5CABAC",
"_#	c #55B0B5",
":#	c #397786",
"<#	c #51A8AF",
"[#	c #457B91",
"}#	c #397383",
"|#	c #4590A0",
"1#	c #57B4B7",
"2#	c #54ADB0",
"3#	c #213D48",
"4#	c #56B1B4",
"5#	c #56B1B5",
"6#	c #58B4B8",
"7#	c #3A787C",
"8#	c #59B7B9",
"9#	c #57B3B7",
"0#	c #346C74",
"a#	c #51A8B0",
"b#	c #203C47",
"c#	c #51A7AC",
"d#	c #448E9F",
"e#	c #34586D",
"f#	c #436D88",
"g#	c #519FA8",
"h#	c #4FA4AD",
"i#	c #59B7BA",
"j#	c #4B9BA7",
"k#	c #59B8BA",
"l#	c #489599",
"m#	c #56B2B6",
"n#	c #59B6B9",
"o#	c #53ABB1",
"p#	c #58B6B9",
"q#	c #489499",
"r#	c #55B0B4",
"s#	c #4C9EA9",
"t#	c #345F72",
"u#	c #213E4C",
"v#	c #438B9C",
"w#	c #468A9C",
"x#	c #57B2B6",
"y#	c #4896A4",
"z#	c #57B4B8",
"A#	c #56B1B3",
"B#	c #469195",
"C#	c #4FA3AC",
"D#	c #4DA0AB",
"E#	c #4EA2AC",
"F#	c #469095",
"G#	c #52A9AE",
"H#	c #2B5765",
"I#	c #438A9C",
"J#	c #468396",
"K#	c #53ABB2",
"L#	c #2B4F60",
"M#	c #498C9A",
"N#	c #55AFB4",
"O#	c #4DA0AA",
"P#	c #55AEB4",
"Q#	c #4EA1AB",
"R#	c #50A5AE",
"S#	c #4A9AA6",
"T#	c #498896",
"U#	c #2B5060",
"V#	c #1F3948",
"W#	c #4D9FA6",
"X#	c #55AFB5",
"Y#	c #53ACB2",
"Z#	c #203C49",
"`#	c #4997A5",
" $	c #4B9CA8",
".$	c #54ACB2",
"+$	c #1B2738",
"@$	c #3B7980",
"#$	c #4FA3AD",
"$$	c #4A99A6",
"%$	c #3E7F83",
"&$	c #1B2839",
"*$	c #3D5373",
"=$	c #2C4056",
"-$	c #346970",
";$	c #4FA3A5",
">$	c #58B6B8",
",$	c #5ABABB",
"'$	c #445678",
")$	c #3D5372",
"!$	c #2E3E59",
"~$	c #2E505E",
"{$	c #2C585E",
"]$	c #264C56",
"^$	c #3F8185",
"/$	c #42898C",
"($	c #29525A",
"_$	c #434E6F",
":$	c #46496B",
"<$	c #405677",
"[$	c #3B506F",
"}$	c #354461",
"|$	c #363F5C",
"1$	c #354864",
"2$	c #41587A",
"3$	c #455476",
"4$	c #455374",
"5$	c #43597B",
"6$	c #464B6D",
"7$	c #44597B",
"8$	c #435A7B",
"9$	c #425576",
"0$	c #464E6E",
"a$	c #44798F",
"b$	c #456B83",
"c$	c #43607F",
"d$	c #465071",
"e$	c #454F71",
"f$	c #464C6D",
"g$	c #47496A",
"h$	c #435F7F",
"i$	c #444A6B",
"j$	c #455F7B",
"k$	c #448D9F",
"l$	c #44879A",
"m$	c #44758D",
"n$	c #43758D",
"o$	c #456A83",
"p$	c #457088",
"q$	c #44728A",
"r$	c #43778E",
"s$	c #446E88",
"t$	c #448599",
"u$	c #446B85",
"v$	c #447A91",
"w$	c #448196",
"x$	c #448699",
"y$	c #448498",
"z$	c #447E93",
"A$	c #447C92",
"B$	c #448A9C",
"C$	c #4B3A3B",
"D$	c #2B2632",
"E$	c #434F70",
"F$	c #448296",
"G$	c #448B9D",
"H$	c #43708A",
"I$	c #3E7589",
"J$	c #326172",
"K$	c #707370",
"L$	c #7C7E75",
"M$	c #7C867C",
"N$	c #707D79",
"O$	c #447F94",
"P$	c #4E3C3D",
"Q$	c #3E3237",
"R$	c #444869",
"S$	c #464E6F",
"T$	c #44778E",
"U$	c #447990",
"V$	c #40617E",
"W$	c #38545F",
"X$	c #998056",
"Y$	c #C9A568",
"Z$	c #D3AE6C",
"`$	c #436B87",
" %	c #795A4D",
".%	c #5C4541",
"+%	c #3A4F6E",
"@%	c #445677",
"#%	c #446784",
"$%	c #418898",
"%%	c #595A53",
"&%	c #AE8F5E",
"*%	c #917950",
"=%	c #7F6148",
"-%	c #816046",
";%	c #715541",
">%	c #44889A",
",%	c #446D88",
"'%	c #5A4540",
")%	c #89654E",
"!%	c #353B52",
"~%	c #448598",
"{%	c #387382",
"]%	c #9F8456",
"^%	c #655040",
"/%	c #966E4C",
"(%	c #AF7F55",
"_%	c #B08055",
":%	c #B18155",
"<%	c #44899C",
"[%	c #448195",
"}%	c #533F3A",
"|%	c #B08054",
"1%	c #815F45",
"2%	c #3D4E6E",
"3%	c #43788F",
"4%	c #305A6B",
"5%	c #473735",
"6%	c #AE7F53",
"7%	c #B38255",
"8%	c #9E744F",
"9%	c #815E45",
"0%	c #141B2E",
"a%	c #41353B",
"b%	c #8B6549",
"c%	c #917153",
"d%	c #77654C",
"e%	c #3D7689",
"f%	c #306372",
"g%	c #836044",
"h%	c #B18154",
"i%	c #5F473F",
"j%	c #272A3A",
"k%	c #253249",
"l%	c #202B40",
"m%	c #5D4745",
"n%	c #382E35",
"o%	c #B18E5B",
"p%	c #D3AF6D",
"q%	c #625649",
"r%	c #387180",
"s%	c #306271",
"t%	c #9C724D",
"u%	c #8A6546",
"v%	c #2A3952",
"w%	c #3E5575",
"x%	c #364A67",
"y%	c #436885",
"z%	c #354966",
"A%	c #684F46",
"B%	c #6F5346",
"C%	c #876748",
"D%	c #AD8B5A",
"E%	c #A88B5A",
"F%	c #2C2933",
"G%	c #A77A53",
"H%	c #6A4F3E",
"I%	c #3C5D77",
"J%	c #44748D",
"K%	c #3A7686",
"L%	c #4794A3",
"M%	c #458FA0",
"N%	c #3E798B",
"O%	c #775849",
"P%	c #805F4E",
"Q%	c #976E4C",
"R%	c #8C674A",
"S%	c #A78658",
"T%	c #90764F",
"U%	c #604D3D",
"V%	c #A37753",
"W%	c #6B5347",
"X%	c #47889A",
"Y%	c #438294",
"Z%	c #448095",
"`%	c #A38456",
" &	c #8B6649",
".&	c #74564A",
"+&	c #846251",
"@&	c #9A714E",
"#&	c #A67954",
"$&	c #95714C",
"%&	c #C69D63",
"&&	c #987F53",
"*&	c #A97B53",
"=&	c #6C5749",
"-&	c #509DA7",
";&	c #478799",
">&	c #4B92A0",
",&	c #775D43",
"'&	c #6D524A",
")&	c #7C5C50",
"!&	c #A97B54",
"~&	c #A77A54",
"{&	c #D0A869",
"]&	c #987E53",
"^&	c #AF7F53",
"/&	c #6D5749",
"(&	c #478F9F",
"_&	c #54AEB4",
":&	c #4E97A3",
"<&	c #9A754E",
"[&	c #77594D",
"}&	c #B78E5D",
"|&	c #A77E55",
"1&	c #4997A3",
"2&	c #448D94",
"3&	c #4C9DA9",
"4&	c #151C2E",
"5&	c #654C45",
"6&	c #71544A",
"7&	c #A57954",
"8&	c #3F8393",
"9&	c #48919C",
"0&	c #4D9FAA",
"a&	c #272431",
"b&	c #84614B",
"c&	c #B28254",
"d&	c #9E7350",
"e&	c #C7A668",
"f&	c #A67953",
"g&	c #6B5649",
"h&	c #448F9F",
"i&	c #438094",
"j&	c #4DA1AB",
"k&	c #A27651",
"l&	c #55413E",
"m&	c #392E35",
"n&	c #A47750",
"o&	c #7E5D46",
"p&	c #BD9961",
"q&	c #9D8255",
"r&	c #448FA0",
"s&	c #3A7888",
"t&	c #4591A1",
"u&	c #3F7C8F",
"v&	c #9F744F",
"w&	c #A67951",
"x&	c #614942",
"y&	c #8E6849",
"z&	c #9B7150",
"A&	c #9F7B51",
"B&	c #755B42",
"C&	c #6F5247",
"D&	c #7F624F",
"E&	c #42798E",
"F&	c #418395",
"G&	c #377382",
"H&	c #448297",
"I&	c #7D5C4A",
"J&	c #896A49",
"K&	c #8C714D",
"L&	c #2E2830",
"M&	c #181D2E",
"N&	c #302932",
"O&	c #6A4F3F",
"P&	c #25232F",
"Q&	c #232230",
"R&	c #2C2731",
"S&	c #1E2B3D",
"T&	c #2A5060",
"U&	c #294D5D",
"V&	c #3A5B74",
"W&	c #3A7989",
"X&	c #295361",
"Y&	c #212130",
"                                                                                ",
"                                                                                ",
"                                                                                ",
"                                                                                ",
"                                                                                ",
"                                                                                ",
"                                                                                ",
"                                                                                ",
"                                                                                ",
"                                                                                ",
"                                                                                ",
"                                                                                ",
"                                                                                ",
"                                                                                ",
"                                                                                ",
"                                                                                ",
"                            . +                 @ #                             ",
"                    $ % & * = - ;             ; > , * & % $                     ",
"                  ' ) ! ~ { ] ^ /             / ( _ : < [ ) '                   ",
"                  } | 1 2 3 4 5 6 7 8 9 0 a 7 6 5 4 b c d e f                   ",
"                  g h i j k l m n o p q r s t u m l v w i h g                   ",
"                  g x y z A l l B C D E E D F B l G H z y x g                   ",
"        I J     K L M N H O A P Q l l l A H l R P P H l N M L K     J I         ",
"      S T U V W X Y Z N l H `  ...+.@.#.A $.%.#. .@.H l N Z &.*.=.-.U T S       ",
"      ;.>.,.'.).!.~.{.].H ` H A ^./.(._._.:./.^.A <.[.}.|.1.2.3.4.'.,.>.;.      ",
"    5.6.7.8.9.0.a.b.l c.d.e.f.g.h.i.j.j.k.l.m.h.g.f.n.o.c.l b.a.0.p.q.7.6.5.    ",
"    r.T s.t.u.v.w.A l x.y.z.A.B.C.D.E.F.G.H.I.J.K.L.M.N.x.l A w.v.u.t.s.T r.    ",
"    O.P.Q.R.S.T.U.#.V.W.X.Y.Z.`. +.+++@+#+ +$+%+&+*+Z.=+-+V.#.U.T.S.R.Q.P.O.    ",
"    ;+>+,+'+)+!+!+~+{+]+^+/+(+_+:+(+(+(+(+(+(+(+_+<+[+&+}+|+~+!+!+)+'+,+>+;+    ",
"    1+2+3+4+5+!+6+7+8+9+0+a+b+<+c+c+d+e+f+c+c+c+g+h+i+j+k+l+7+6+!+5+4+3+2+1+    ",
"    1+m+'+n+o+p+q+r+s+t+u+v+w+(+<+<+w+w+w+<+<+<+(+(+v+x+y+z+A+q+p+B+n+'+m+1+    ",
"      C+D+E+F+G+H+I+i.J+J+K+L+M+N+O+P+Q+R+R+R+S+T+U+K+J+V+W+X+Y+G+Z+`+D+C+      ",
"       @.@+@@@#@$@^ %@&@*@=@-@;@>@,@,@'@-@-@-@)@,@!@~@{@]@%@^ ^@#@@@+@.@/@      ",
"      (@_@=.:@<@[@^ }@|@1@2@(+(+3@4@4@5@5@4@4@3@(+;@6@7@8@9@0@0@<@:@=._@(@      ",
"      a@b@c@d@e@f@g@h@i@j@k@l@m@n@T T o@p@T T n@q@r@k@s@i@t@u@v@e@d@c@b@a@      ",
"      w@x@y@z@.@A@B@C@D@E@F@G@H@I@J@K@L@M@>.< I@H@(+N@O@D@C@B@A@.@z@y@x@w@      ",
"      P@Q@R@S@.@T@d@U@V@W@X@Y@Z@`@ #.#+#+#@#^ `@Z@##$#%#V@U@d@T@.@S@R@Q@P@      ",
"      P@&#*#T@=#.@-#;#>#r ,#'#)#!#~#{#]#]#^#~#!#/#(#,#_#>#:#<#.@=#T@[#&#P@      ",
"        }#|#1#T@T@2#3#4#5#6#T@7#8#T@!.T@T@9#T@8#0#-#a#5#4#b#c#T@T@5#d#}#        ",
"        e#f#g#s h#i#o -#j#!.k#l#m#n#o#T@T@T@T@p#q#r#z@s#-#o d@T@z@g#f#t#        ",
"        u#v#w#s x#.@y#z#T@d@A#B#a#C#D#_#z@s !.E#F#G#T@T@z#y#.@8#s w#v#u#        ",
"          H#I#J#_#T@9#K#<#9#p#T@q 5#T@T@T@T@T@T@T@p#9#h#-#9#T@q J#I#H#          ",
"            L#M#q S@q T@k#N#O#z@P#Q#1#z@o#p s#R#k#S#N#p#i#m#o#9#T#U#            ",
"              V#W#i#j#p#i#X#Q#-#Y#r T@p#S@T@r p#T@p X#i#k#S#i#W#V#              ",
"                Z#q#`#-#N#Y# $Q#N#d@d@.$.$d@d@P#Q# $Y#p o#j#q#Z#                ",
"                P@+$@$2#h#T@T@d@p #$.$Q#Q#.$C#$$p#T@T@h#2#%$&$P@                ",
"                P@V.*$=$-$;$>$,$#$T@T@T@T@T@T@q T@>$;$-$=$*$V.P@                ",
"                P@^.'$H )$!$~${$]$^$/$/$/$/$^$(${$~$!$)$H '$^.P@                ",
"                P@_$:$P l '$A <$[$}$|$1$1$|$}$[$<$A '$l P :$_$P@                ",
"                P@2$3$[.l 4$5$l l <.@.l l @.6$P 7$8$4$l [.3$2$P@                ",
"                P@9$l 0$a$b$c$d$$.e$f$}.5$g$l l  .h$b$a$0$l 9$P@                ",
"                P@i$%.j$k$d#d#l$m$n$o$j$p$q$n$r$s$t$d#k$j$%.i$P@                ",
"                P@Q P u$v$w$x$4+r$d#y$z$d#d#d#A$A$x$B$w$u$P Q P@                ",
"              C$D$E$'$F$G$B$H$A$I$J$K$L$M$N$J$I$O$H$G$G$F$'$E$D$C$              ",
"              P$Q$R$S$T$U$y$V$W$X$Y$Z$<+<+Z$Y$X$W$V$A$`$m$S$R$Q$P$              ",
"               %.%+%@%#%z$$%%%&%*%=%-%;%;%-%=%*%&%%%$%>%,%@%+%.% %              ",
"              '%)%!%<.m$~%{%]%^%/%(%_%:%:%_%(%/%^%]%{%<%[%<.!%)%'%              ",
"            P@}%|%1%2%,%3%4%5%6%7%8%9%X.X.9%8%7%6%5%4%3%,%2%1%|%}%P@            ",
"            0%a%b%c%d%e%'+f%g%h%i%j%k%1$1$l%j%i%h%g%f%'+e%d%c%b%a%0%            ",
"            0%m%n%o%p%q%r%s%t%u%v%w%x%y%y%z%w%v%u%t%s%r%q%p%o%n%m%0%            ",
"            0%A%B%C%D%2@E%F%G%H%I%J%K%L%M%N%J%I%H%G%F%E%2@D%C%B%A%0%            ",
"            0%O%P%Q%R%S%T%U%V%W%t$X%Y%9#a#w$Z%t$W%V%U%T%`% &Q%P%O%0%            ",
"            0%.&+&@&#&$&%&&&*&=&d#-&;&!.!.>&z$d#=&*&&&%&,&#&@&+&.&0%            ",
"            0%'&)&!&~&`.{&]&^&/&d#S@(&_&p#:&h#d#/&^&]&{&<&~&!&)&'&0%            ",
"            0%'&[&}&~&|&r@]&^&/&d#1&2&8#8#3&S@d#/&^&]&r@|&~&}&[&'&0%            ",
"            4&5&6&7&7%#&Q+4@^&/&'+8&9&z@N#|#0&'+/&^&4@Q+#&7%7&6&5&4&            ",
"              a&.%b&c&d&e&4@f&g&Z%h&i&.@j&y$d#Z%g&f&4@e&k&c&b&l&a&              ",
"                4&m&n&o&p&q&V%g&Z%r&s&t&y#u&r&Z%g&V%q&p&v&w&x&m&                ",
"                    y&z&A&B&C&D&E&F&G&H&d#G&F&E&D&I&J&K&z.L&M&                  ",
"                    N&O&P&P@Q&R&S&T&U&V&W&X&T&S&R&Y&0%4&4&                      ",
"                                                                                ",
"                                                                                ",
"                                                                                ",
"                                                                                ",
"                                                                                ",
"                                                                                ",
"                                                                                ",
"                                                                                ",
"                                                                                ",
"                                                                                "};
