/* XPM */
static char * mushroom_xpm[] = {
"40 40 6 1",
" 	c None",
".	c #161C2E",
"+	c #DB4C4C",
"@	c #F1E2B9",
"#	c #7C4E5F",
"$	c #BCADA7",
"                                        ",
"                                        ",
"                                        ",
"                                        ",
"                                        ",
"                                        ",
"                                        ",
"                     ...                ",
"                   ......               ",
"                ....++++..              ",
"                ..+@++++#..             ",
"              ..++@$++++##.             ",
"            ...#++++++$@+#+..           ",
"            ..##++++++$$@#+..           ",
"            .##++++++++$$+##..          ",
"           .###++@@+++++++###.          ",
"         ...####+@@@++++++###..         ",
"         ..#$###++++++++++####..        ",
"         ..#$+###+++++#++##++##.        ",
"         ..#$$++++++++++++#@@##.        ",
"         ..###+++@@+++++++#@$##.        ",
"          ..#####$$+++++###$##..        ",
"            ....###########....         ",
"            ......######......          ",
"            ...$$...........            ",
"            ..$$$$$$$$$$$..             ",
"             .$$$@@$@@@@$$.             ",
"              ..$$$$$$$$$.              ",
"                                        ",
"                                        ",
"                                        ",
"                                        ",
"                                        ",
"                                        ",
"                                        ",
"                                        ",
"                                        ",
"                                        ",
"                                        ",
"                                        "};
