/* XPM */
static char * sprint_xpm[] = {
"40 40 13 1",
" 	c None",
".	c #17111A",
"+	c #FFFFFF",
"@	c #C1C9CE",
"#	c #848FB0",
"$	c #7E8AAD",
"%	c #7884AB",
"&	c #B2BCC2",
"*	c #96A1B7",
"=	c #544F6A",
"-	c #506281",
";	c #372538",
">	c #9F97A0",
"                           ...    ...   ",
"                           ...    ...   ",
"                          .+++....@##.  ",
"                  ... ....#++$++@@@##@..",
"                  ... ....#++$++@@@##@..",
"                  .++.++%%+@@@@@##@@@#..",
"                  .&&+++&&@**=&&++%%%.  ",
"                  .&&+++&&@**=&&++%%%.  ",
"              ....+&&-@@=====&@@**@&&.  ",
"              ....+&&-@@=====&@@**@&&.  ",
"           ...%%&&+&&===&&&+++####...   ",
"          .++&%%@@=&&@@@--*@@@##..      ",
"          .++&%%@@=&&@@@--*@@@##..      ",
"        ..%++@@@==&--%%%@@@###..        ",
"      ..++%++@;;&&@@@@@@&&....          ",
"      ..++%++@;;&&@@@@@@&&....          ",
"     .++++%@@;@@#####-@@..              ",
"     .++++%@@;@@#####-@@..              ",
"     .%%++@;;&%%+++++@##..              ",
"   ..+++--@;;+&&%%%---..                ",
"   ..+++--@;;+&&%%%---..                ",
".....+++&&;&&++++++++&..                ",
"..+**+&&;;&++%%%--&&&.                  ",
"..+**+&&;;&++%%%--&&&.                  ",
"  .++*;;&&+*******....                  ",
"  .++*;;&&+*******....                  ",
"..&+++;;&&++++&&..                      ",
"  .++>&&++&&&...                        ",
"  .++>&&++&&&...                        ",
"   ..;;;.....                           ",
"   ..;..                                ",
"   ..;..                                ",
"  .;;;..                                ",
"  .;;;..                                ",
"  .;;.                                  ",
"..;;;.                                  ",
"..;;;.                                  ",
"..;..                                   ",
"...                                     ",
"...                                     "};
