/* XPM */
static char * health3_xpm[] = {
"160 80 11 1",
" 	c None",
".	c #8B7768",
"+	c #B0957D",
"@	c #B3A27C",
"#	c #8F8471",
"$	c #141B1B",
"%	c #965340",
"&	c #FFFFFF",
"*	c #E0394C",
"=	c #E46D3A",
"-	c #FE9D80",
"                                                                                                                                                                ",
"                                                                                                                                                                ",
"                                                                                                                                                                ",
"                                                                                                                                                                ",
"                                                                                                                                                                ",
"                                                                                                                                                                ",
"                                                                                                                                                                ",
"                                                                                                                                                                ",
"                                                                                                                                                                ",
"                                                                                                                                                                ",
"                                                                                                                                                                ",
"                                                                                                                                                                ",
"                                                                                                                                                                ",
"                                                                                                                                                                ",
"                                                                                                                                                                ",
"                                                                                                                                                                ",
"                                                                                                                                                                ",
"                                                                                                                                                                ",
"                                                                                                                                                                ",
"                                                                                                                                                                ",
"                                                                                                                                                                ",
"                       ..                                                                                                                                       ",
"                      ...                                           ...                                                                                         ",
"         ....  ..........................   ..................      ............                  ...    ....................   .............. ..........  ...  ",
"   ...  ..... .......... ................  ........................  .............           .... ............................  .......................... .... ",
"  .... +.... @..........@................++........................@  ............+++@@@@    ....+............................+  ......................... .....",
" ..... +@@   @@@++++..@@@+...@@@@@@@@+++++++++++++@@+++++++...+@@@@@  @++++++@..+++@@@@@@@  +++++++++++++@@+++++++++++@@@@@.@@++++++@@@+++@@@@...@@++..+++ ##...",
" ...##+@@   @@@@@@@+++++++++++++@@@+++++++++++++++@@+++++++...@@@@@@@@@@@@+++++++++++++@@@+++++++++++++++@@++++++++++@@@@@@@@@@@@+++++++++++++...++++++++++ ##..",
" ... ++@    @@@@@++++++++++++++@@@@+++++++++@@+++++@@+++++++..@@@@@@@@@@++++++++++++++@@@@+++++++++@@+++++@@+++++++++@@@@@@@@@@++++++++++++++@@..+++++++++@@  ..",
"    +@@   @@@@+++++++++++++++@@@@++++++++++@@@@+++++@@++++++@@@@@@@@@+++++++++++++++@@@@++++++++++@@@@+++++@@++++++@@@@@@@@@+++++++++++++++@@@@++++++++++@@@@+  ",
"   ++++  ++++++++++@@@@@@@@@@@@@@++++++++++@@@@@++++@@++++++++++++++++++++@@@@@@@@@@@@@@++++++++++@@@@@++++@@++++++++++++++++++++@@@@@@@@@@@@@@++++++++++@@@@@. ",
" ..++++ +++++$$$$$$$$$$$$$$$$$$$$$$$$$$$$$$$$$$$@++++@@++++++++$$$$$$$$$$$$$$$$$$$$$$$$$$$$$$$$$$$@@@@@@++++@@+++$$$$$$$$$$$$$$$$$$$$$$$$$$$$$$$$$$$++++@@@@@@..",
" ..++   +++++$$$$$$$$$$$$$$$$$$$$$$$$$$$$$$$$$$$@+++++@@+++++++$$$$$$$$$$$$$$$$$$$$$$$$$$$$$$$$$$$@@@@@@+++++@@++$$$$$$$$$$$$$$$$$$$$$$$$$$$$$$$$$$$+++@@@@@@@..",
" ..@   ++++++$$$$$$$$$$$$$$$$$$$$$$$$$$$$$$$$$$$@@+++++@+@@++++$$$$$$$$$$$$$$$$$$$$$$$$$$$$$$$$$$$+@@@@@@+++++@+@$$$$$$$$$$$$$$$$$$$$$$$$$$$$$$$$$$$++@@@+@@@@..",
" ..@   ++++$$%%%&&&&&&&&&&&&%%%%%&&&&&&&&&&&&%%%$$++++++@@@++$$%%%&&&&&&&&&&&&%%%%%&&&&&&&&&&&&%%%$$@@@@@++++++$$%%%&&&&&&&&&&&&%%%%%&&&&&&&&&&&&%%%$$@@@++@@@..",
" ..  ++++++$$%%%&&&&&&&&&&&&%%%%%&&&&&&&&&&&&%%%$$@++@@@+++++$$%%%&&&&&&&&&&&&%%%%%&&&&&&&&&&&&%%%$$@@@@@@++@@@$$%%%&&&&&&&&&&&&%%%%%&&&&&&&&&&&&%%%$$@@+++@@@@.",
" .+++++++++$$%%%&&&&&&&&&&&&%%%%%&&&&&&&&&&&&%%%$$++@@@@+++++$$%%%&&&&&&&&&&&&%%%%%&&&&&&&&&&&&%%%$$@@@@@++@@@@$$%%%&&&&&&&&&&&&%%%%%&&&&&&&&&&&&%%%$$@++++@@@@.",
" +++++++$$$%%&&&************&&&&&************&&&%%$$$@++++$$$%%&&&************&&&&&************&&&%%$$$@+@@@$$$%%&&&************&&&&&************&&&%%$$$+++@@@.",
" +++++++$$$%%&&&************&&&&&************&&&%%$$$+++++$$$%%&&&************&&&&&************&&&%%$$$@+@@@$$$%%&&&************&&&&&************&&&%%$$$++++@@.",
" +++++++$$$%%&&&************&&&&&************&&&%%$$$@@+++$$$%%&&&************&&&&&************&&&%%$$$+@@@@$$$%%&&&************&&&&&************&&&%%$$$++++++.",
" .++++++$$$&&******=========*****===-----====***&&$$$@@+++$$$&&******=========*****===-----====***&&$$$@@@@@$$$&&******=========*****===-----====***&&$$$++++@@.",
" .+++++@$$$&&******=========*****===-----====***&&$$$@@+++$$$&&******=========*****===-----====***&&$$$@@@@@$$$&&******=========*****===-----====***&&$$$@++@@@.",
" .+++++@$$$&&******=========*****===-----====***&&$$$@@+++$$$&&******=========*****===-----====***&&$$$@@@@@$$$&&******=========*****===-----====***&&$$$+++++@.",
" .++++@@$$$&&******=================-----====***&&$$$+++++$$$&&******=================-----====***&&$$$+@@@@$$$&&******=================-----====***&&$$$++++++.",
" .++@@@+$$$&&******=================-----====***&&$$$@++++$$$&&******=================-----====***&&$$$+@@@@$$$&&******=================-----====***&&$$$++++++.",
" ..@@@@+$$$&&******=================-----====***&&$$$@@+++$$$&&******=================-----====***&&$$$++@@@$$$&&******=================-----====***&&$$$+++++..",
" ..@@+++$$$&&******==========================***&&$$$@@++@$$$&&******==========================***&&$$$++@@@$$$&&******==========================***&&$$$+++++. ",
"   ++++@$$$&&******==========================***&&$$$+++@@$$$&&******==========================***&&$$$+++++$$$&&******==========================***&&$$$+++++++",
"   +++@@$$$%%&&&******===================*******&&$$$+++@+$$$%%&&&******===================*******&&$$$+++++$$$%%&&&******===================*******&&$$$+++++++",
" @+++@@@$$$%%&&&******===================*******&&$$$+@@@+$$$%%&&&******===================*******&&$$$+++++$$$%%&&&******===================*******&&$$$+++++++",
" @@@@@@@$$$%%&&&******===================*******&&$$$+@@@@$$$%%&&&******===================*******&&$$$+++++$$$%%&&&******===================*******&&$$$+++@@++",
" @@@@@@@@@@$$&&&*********==============******&&&%%$$$+@@@@@@@$$&&&*********==============******&&&%%$$$++++++@@$$&&&*********==============******&&&%%$$$+++@@++",
" @@@@@@@@@@$$&&&*********==============******&&&%%$$$+@@@@@@@$$&&&*********==============******&&&%%$$$++++++@@$$&&&*********==============******&&&%%$$$+++@@++",
" .@@@@@@@@@$$&&&*********==============******&&&%%$$$+@@@@@@@$$&&&*********==============******&&&%%$$$@+++++@@$$&&&*********==============******&&&%%$$$+++@@@+",
" .@@++++@@@$$%%%&&&*********========*****&&&&%%%$$@@@++@@@@++$$%%%&&&*********========*****&&&&%%%$$++@@@@@@++@$$%%%&&&*********========*****&&&&%%%$$+++++++@@@",
" .++++++@@@$$%%%&&&*********========*****&&&&%%%$$@@@+++@++++$$%%%&&&*********========*****&&&&%%%$$++@@@@@@+++$$%%%&&&*********========*****&&&&%%%$$+++++++@@@",
" .+++++@@@+$$%%%&&&*********========*****&&&&%%%$$@@@++@+++++$$%%%&&&*********========*****&&&&%%%$$++@@@@@@++@$$%%%&&&*********========*****&&&&%%%$$+++++++@@@",
" .+++@@@@@+++$$$%%%&&&*****************&&%%%%$$$@@@@@++@++++@@@$$$%%%&&&*****************&&%%%%$$$+@@+@@@@@@++@++$$$%%%&&&*****************&&%%%%$$$+++@@+@@+@@@",
" .++@@@@@@@@@$$$%%%&&&*****************&&%%%%$$$@@@@@+@++++@@@@$$$%%%&&&*****************&&%%%%$$$@@@@@@@@@@+@+++$$$%%%&&&*****************&&%%%%$$$+++@@@@@@@  ",
" .+@@@@@@@@@@@@@$$$%%%&&&&&&*****&&&&&&%%$$$$+@@@@@@@+++++@@@@@@@@$$$%%%&&&&&&*****&&&&&&%%$$$$++@@++@@@@@@@+++++@@@$$$%%%&&&&&&*****&&&&&&%%$$$$+++++++@@++@   ",
"   @@@@@@@@@@@++$$$%%%&&&&&&*****&&&&&&%%$$$$@@@@@@@++++@@@@@@@@@@$$$%%%&&&&&&*****&&&&&&%%$$$$@@@@@@@@@@@@++++@@@@@$$$%%%&&&&&&*****&&&&&&%%$$$$++++@@@@@@@   @",
"    @@@@@@@@@+++$$$%%%&&&&&&*****&&&&&&%%$$$$@@@@@++++++@@@@@@@@@@$$$%%%&&&&&&*****&&&&&&%%$$$$@@++@@@@@@++++++@@@@@$$$%%%&&&&&&*****&&&&&&%%$$$$+++@@@@++@   @@",
" @  @@@@@@@@++++$$$%%%&&&&&&*****&&&&&&%%$$$$+@@@@++++@@@@@@@@@@@@$$$%%%&&&&&&*****&&&&&&%%$$$$@+++++@@@@++++@@@@@@@$$$%%%&&&&&&*****&&&&&&%%$$$$++@@@@+++    @@",
" @   @@@@@@@+++@@@@$$$$$$%%%&&&&&%%%$$$$$+++++@@@++++@@@@@@@@@@@@@@++$$$$$$%%%&&&&&%%%$$$$$@@@+++++++@@@++++@@@@@@@@@@@$$$$$$%%%&&&&&%%%$$$$$+++++@@@+++++   @@+",
" @@  @@+@@+++@@@@@@$$$$$$%%%&&&&&%%%$$$$$++@++@@+++++@@@@@@@@@+@@+++@$$$$$$%%%&&&&&%%%$$$$$@@+++++@++@@+++++@@@@@@@@@+@$$$$$$%%%&&&&&%%%$$$$$++++@@@+++++   @@++",
" @@   @++++++@@@@@@$$$$$$%%%&&&&&%%%$$$$$@@@@@@@+++++@@@@@@@@@++++++@$$$$$$%%%&&&&&%%%$$$$$@@@@@@@@@@@@+++++@@@@@@@@@++$$$$$$%%%&&&&&%%%$$$$$++@@@@@@@@@  @@@@+ ",
" @@@@  ++@@@@@@@++@@@@@@@$$$$$$$$$$$@@@@@@@@@@@@+++++@@@@@@@++++@@@@@@@++@@$$$$$$$$$$$@@@@@@@@@@@@@@@@@+++++@@@@@@@++++@@@@@@$$$$$$$$$$$@@@@@@@@@@@@@@@@@@@@@   ",
"  @@@  @@@@@@@@+++@@@@@@@$$$$$$$$$$$@@@@@@@@@@@++++@@@@@@@@@++@@@@@ @@+++@@$$$$$$$$$$$@@@@@@@@@@@@@@@@++++@@@@@@@@@++@@@@@@@@$$$$$$$$$$$@@@@@@@@@@@@@@@@@@@@    ",
"  @+++ @@@@@@@++++@@@@@@@@@@@@@@@@@@@@@@@@@@@@@++++@@@@@@@++++@@@@@  ++++@@@@@@@@@@@@@@@@@@@@@@@@@@@@@++++@@@@@@@++++@@@@@@@++++@@@@@@@@@@@@@@@@@@@@@@@@@@@@    ",
"   +++  @@@@@+++@@@@@@+++++++++@++++++@@@+++@@++++++@@@@@++++@@@@@@@ ++@@@@@@+++++++++@++++++@@@+++  ++++++@@@@@++++@@@@@@@+++@  @@@+++++++++@+++   @@@+++@     ",
"   +++@ @@@@+++@@@@@@@+++++++++++++++@@@++++@@+++++@@@@@+++++@@@      @@@@@@@  +++++++++++++@@@+++  @+++++@@@@@+++++@@@@@@+++@@  @@@++++++++++++    @@++++      ",
"    +@@  @@+ ++@@@@@@+++++++++++++++@@@+++@@@   ++@@@@@+++++@@            @@   +++++++++++         @@++++@@@@@+++++@@@@@@++++@@@  @+++++++++++++   @@+++@@      ",
"           ++                                                            @@                                                                                     ",
"                                                                         @                                                                                      ",
"                                                                                                                                                                ",
"                                                                                                                                                                ",
"                                                                                                                                                                ",
"                                                                                                                                                                ",
"                                                                                                                                                                ",
"                                                                                                                                                                "};
