/* XPM */
static char * health2_xpm[] = {
"69 60 4 1",
" 	c None",
".	c #F4F4F4",
"+	c #1A1C2C",
"@	c #3B5DC9",
"                                                                     ",
"                                                                     ",
"                                                                     ",
"                                                                     ",
"                                                                     ",
"                                                                     ",
"                                                                     ",
"                                                                     ",
"                                                                     ",
"                                                                     ",
"                                                                     ",
"                                                                     ",
"                                                                     ",
"                                                                     ",
"                                                                     ",
"                                                                     ",
"                                                                     ",
"                                                                     ",
"                                                                     ",
"                                                                     ",
"   ...............         ...............         ...............   ",
"   ...............         ...............         ...............   ",
"   ...............         ...............         ...............   ",
"...+++++++++++++++...   ...+++++++++++++++...   ...+++++++++++++++...",
"...+++++++++++++++...   ...+++++++++++++++...   ...+++++++++++++++...",
"...+++++++++++++++...   ...+++++++++++++++...   ...+++++++++++++++...",
"...+++++++++++++++...   ...+++@@@@@@@@@+++...   ...+++@@@@@@@@@+++...",
"...+++++++++++++++...   ...+++@@@@@@@@@+++...   ...+++@@@@@@@@@+++...",
"...+++++++++++++++...   ...+++@@@@@@@@@+++...   ...+++@@@@@@@@@+++...",
"...+++++++++++++++...   ...+++@@@@@@@@@+++...   ...+++@@@@@@@@@+++...",
"...+++++++++++++++...   ...+++@@@@@@@@@+++...   ...+++@@@@@@@@@+++...",
"...+++++++++++++++...   ...+++@@@@@@@@@+++...   ...+++@@@@@@@@@+++...",
"...+++++++++++++++...   ...++++++@@@++++++...   ...++++++@@@++++++...",
"...+++++++++++++++...   ...++++++@@@++++++...   ...++++++@@@++++++...",
"...+++++++++++++++...   ...++++++@@@++++++...   ...++++++@@@++++++...",
"   ...+++++++++...         ...+++++++++...         ...+++++++++...   ",
"   ...+++++++++...         ...+++++++++...         ...+++++++++...   ",
"   ...+++++++++...         ...+++++++++...         ...+++++++++...   ",
"      .........               .........               .........      ",
"      .........               .........               .........      ",
"      .........               .........               .........      ",
"                                                                     ",
"                                                                     ",
"                                                                     ",
"                                                                     ",
"                                                                     ",
"                                                                     ",
"                                                                     ",
"                                                                     ",
"                                                                     ",
"                                                                     ",
"                                                                     ",
"                                                                     ",
"                                                                     ",
"                                                                     ",
"                                                                     ",
"                                                                     ",
"                                                                     ",
"                                                                     ",
"                                                                     "};
