/* XPM */
static char * walls2_xpm[] = {
"40 40 692 2",
"  	c #E2612D",
". 	c #E36A2E",
"+ 	c #F9E33B",
"@ 	c #FFF73E",
"# 	c #EA9C33",
"$ 	c #E1512D",
"% 	c #E25D2D",
"& 	c #E15B2D",
"* 	c #F1C337",
"= 	c #FFF93E",
"- 	c #FFF83E",
"; 	c #F4CF38",
"> 	c #E15D2D",
", 	c #E25F2D",
"' 	c #E78930",
") 	c #FDF23D",
"! 	c #FDF03D",
"~ 	c #E68130",
"{ 	c #E3632E",
"] 	c #FAE53D",
"^ 	c #FFF83F",
"/ 	c #ECA733",
"( 	c #E15A2D",
"_ 	c #F0BC36",
": 	c #F6D439",
"< 	c #E2602D",
"[ 	c #FCF03E",
"} 	c #FCED3D",
"| 	c #FBEA3C",
"1 	c #FABB28",
"2 	c #FAAC20",
"3 	c #FBC137",
"4 	c #FCC93E",
"5 	c #FCE13E",
"6 	c #FCF03F",
"7 	c #FBCF31",
"8 	c #FAAB1F",
"9 	c #FAC72D",
"0 	c #FCEC3D",
"a 	c #FCEC3C",
"b 	c #FBE339",
"c 	c #FAB022",
"d 	c #FAB223",
"e 	c #FCE83B",
"f 	c #FCD33F",
"g 	c #FED23E",
"h 	c #FBB72A",
"i 	c #FBDA35",
"j 	c #FBD131",
"k 	c #FAC42C",
"l 	c #FCF13E",
"m 	c #FEF33D",
"n 	c #FABA26",
"o 	c #FAAD21",
"p 	c #F98014",
"q 	c #F87010",
"r 	c #F99B1D",
"s 	c #FAA821",
"t 	c #FDC636",
"u 	c #FFD840",
"v 	c #FCB02E",
"w 	c #FA7B11",
"x 	c #FA7A13",
"y 	c #FA941B",
"z 	c #FAB425",
"A 	c #FAB524",
"B 	c #FAB624",
"C 	c #FAAC22",
"D 	c #FA7F14",
"E 	c #FA7C13",
"F 	c #FB8D19",
"G 	c #FEEF3C",
"H 	c #FFDA40",
"I 	c #FA9325",
"J 	c #F97212",
"K 	c #F99E1D",
"L 	c #FAAF21",
"M 	c #FAB021",
"N 	c #F9951A",
"O 	c #F86F0F",
"P 	c #F98917",
"Q 	c #FAAE21",
"R 	c #FBBD27",
"S 	c #FFF43D",
"T 	c #FB8918",
"U 	c #F97611",
"V 	c #F87111",
"W 	c #E75125",
"X 	c #E34528",
"Y 	c #F36819",
"Z 	c #F9730F",
"` 	c #F97A17",
" .	c #F97B1A",
"..	c #FBC12F",
"+.	c #FEDE3C",
"@.	c #FECB3D",
"#.	c #FECC3D",
"$.	c #FECE3D",
"%.	c #FED83C",
"&.	c #FEE73B",
"*.	c #FDCC3C",
"=.	c #FDCB3C",
"-.	c #FEC93B",
";.	c #FECC3B",
">.	c #FDE83B",
",.	c #FEF43F",
"'.	c #FEDA40",
").	c #EA7C2F",
"!.	c #E34628",
"~.	c #F2661A",
"{.	c #F97210",
"].	c #EF601E",
"^.	c #E24428",
"/.	c #E24528",
"(.	c #EA5722",
"_.	c #F9720F",
":.	c #F97612",
"<.	c #FA8E1B",
"[.	c #FAAE22",
"}.	c #F8670D",
"|.	c #E64C25",
"1.	c #E0402A",
"2.	c #DF3E2B",
"3.	c #E24429",
"4.	c #E34728",
"5.	c #E44C28",
"6.	c #E56A2C",
"7.	c #F2C538",
"8.	c #FFE940",
"9.	c #FFD341",
"0.	c #FCC639",
"a.	c #F9AD24",
"b.	c #F4A527",
"c.	c #E46B2F",
"d.	c #E8772E",
"e.	c #F8A725",
"f.	c #F7A625",
"g.	c #E67F2E",
"h.	c #E68230",
"i.	c #FAE33D",
"j.	c #FACD3E",
"k.	c #E67631",
"l.	c #E14329",
"m.	c #E0412A",
"n.	c #E64D25",
"o.	c #F87210",
"p.	c #F8680E",
"q.	c #E0482C",
"r.	c #DF462C",
"s.	c #EF9D37",
"t.	c #F9D83E",
"u.	c #F9D133",
"v.	c #FAB124",
"w.	c #F29829",
"x.	c #E4662D",
"y.	c #E45929",
"z.	c #E35329",
"A.	c #DF3D2B",
"B.	c #E0422B",
"C.	c #E35829",
"D.	c #E35729",
"E.	c #DF3F2B",
"F.	c #DF412B",
"G.	c #E4752F",
"H.	c #E57330",
"I.	c #F4B33A",
"J.	c #E87D32",
"K.	c #F8670E",
"L.	c #F86C11",
"M.	c #E34F29",
"N.	c #E0462C",
"O.	c #E04837",
"P.	c #F1C43C",
"Q.	c #F9D23D",
"R.	c #EE9936",
"S.	c #E57A30",
"T.	c #E5732C",
"U.	c #E45B28",
"V.	c #E25229",
"W.	c #DF3C2B",
"X.	c #DF3B2B",
"Y.	c #E4692F",
"Z.	c #F4B23A",
"`.	c #E98332",
" +	c #E0472C",
".+	c #E0492C",
"++	c #E34F2B",
"@+	c #F86E2A",
"#+	c #FEC63A",
"$+	c #F9DE3C",
"%+	c #F8C63D",
"&+	c #F9C13D",
"*+	c #F9DC3F",
"=+	c #F9E7C8",
"-+	c #EDAF92",
";+	c #E67B23",
">+	c #E2592D",
",+	c #DF382B",
"'+	c #F6B93C",
")+	c #FBC93F",
"!+	c #F9C03D",
"~+	c #F9D23C",
"{+	c #F9E53C",
"]+	c #F9D73C",
"^+	c #F8CB3D",
"/+	c #F8DB3C",
"(+	c #F8C13D",
"_+	c #F9C73B",
":+	c #F9E368",
"<+	c #FEE9DE",
"[+	c #FA8D22",
"}+	c #EA8C2F",
"|+	c #E87F31",
"1+	c #F7A82A",
"2+	c #FED63C",
"3+	c #FFE180",
"4+	c #EA8F5D",
"5+	c #DE3226",
"6+	c #E56C2F",
"7+	c #F8BE3D",
"8+	c #FDC133",
"9+	c #FAB027",
"0+	c #FAB028",
"a+	c #FAB727",
"b+	c #FABE27",
"c+	c #FBB927",
"d+	c #F4A12B",
"e+	c #E78031",
"f+	c #E78831",
"g+	c #EB872F",
"h+	c #FBB82C",
"i+	c #FFDD4F",
"j+	c #FFE08C",
"k+	c #F8660D",
"l+	c #E24028",
"m+	c #E55F28",
"n+	c #F6A228",
"o+	c #FBB120",
"p+	c #F9BA34",
"q+	c #E98233",
"r+	c #F1A538",
"s+	c #FAB730",
"t+	c #EE8727",
"u+	c #E56127",
"v+	c #E66327",
"w+	c #E66227",
"x+	c #E35828",
"y+	c #DF392B",
"z+	c #E0432A",
"A+	c #E97328",
"B+	c #F9AE27",
"C+	c #FAB11E",
"D+	c #E55D28",
"E+	c #E66627",
"F+	c #E8782F",
"G+	c #F2AA39",
"H+	c #EA8833",
"I+	c #DE362B",
"J+	c #DF3F29",
"K+	c #F7BB3C",
"L+	c #F09932",
"M+	c #E14A29",
"N+	c #DF3A2B",
"O+	c #E0442A",
"P+	c #E66427",
"Q+	c #E66527",
"R+	c #F15D1A",
"S+	c #E24329",
"T+	c #DE382B",
"U+	c #E56F30",
"V+	c #F1A738",
"W+	c #EB8F34",
"X+	c #DE342A",
"Y+	c #F5B73B",
"Z+	c #F6D53B",
"`+	c #F6BE3C",
" @	c #F6BA43",
".@	c #F6D5C4",
"+@	c #FDED89",
"@@	c #EA992A",
"#@	c #DE302B",
"$@	c #E14129",
"%@	c #F15C1A",
"&@	c #F9680E",
"*@	c #E56A2F",
"=@	c #F6CA3B",
"-@	c #FBE83E",
";@	c #F5D83A",
">@	c #F6CC3B",
",@	c #F6B63B",
"'@	c #F6B73B",
")@	c #F6C03B",
"!@	c #F6D83A",
"~@	c #F6D43B",
"{@	c #F7B939",
"]@	c #FBB92D",
"^@	c #FCC52B",
"/@	c #FBB72C",
"(@	c #ED9232",
"_@	c #EB8C38",
":@	c #FBD592",
"<@	c #FFE56A",
"[@	c #F9DD39",
"}@	c #E79131",
"|@	c #DE302A",
"1@	c #DE312A",
"2@	c #EBA734",
"3@	c #FBDF3E",
"4@	c #FED938",
"5@	c #FCCA2B",
"6@	c #FCC42C",
"7@	c #FCB92C",
"8@	c #F7AD2F",
"9@	c #EB9434",
"0@	c #EBA534",
"a@	c #EBA234",
"b@	c #EB8B32",
"c@	c #E86F27",
"d@	c #E86B26",
"e@	c #E86A26",
"f@	c #E87C27",
"g@	c #EB8A30",
"h@	c #F9CE3D",
"i@	c #FACB3E",
"j@	c #F5B53B",
"k@	c #EA8733",
"l@	c #DE352A",
"m@	c #F8650C",
"n@	c #DE372B",
"o@	c #DE352B",
"p@	c #DE322A",
"q@	c #ECAC34",
"r@	c #EA7C2D",
"s@	c #E96C25",
"t@	c #E96E25",
"u@	c #E97025",
"v@	c #DE362A",
"w@	c #DE332B",
"x@	c #E77931",
"y@	c #EC9135",
"z@	c #EC9034",
"A@	c #F1A438",
"B@	c #EA8933",
"C@	c #DE342B",
"D@	c #FCB634",
"E@	c #F5B039",
"F@	c #F3B03A",
"G@	c #F3C93A",
"H@	c #F4B93A",
"I@	c #F4B03A",
"J@	c #FCD63F",
"K@	c #F5BD3A",
"L@	c #E4642F",
"M@	c #DE2D2A",
"N@	c #DE3A2B",
"O@	c #DE272A",
"P@	c #F1BA38",
"Q@	c #FBD63E",
"R@	c #F3BB39",
"S@	c #F3D039",
"T@	c #F3C53A",
"U@	c #F3AF3A",
"V@	c #F3B63A",
"W@	c #F3CA3A",
"X@	c #F5B339",
"Y@	c #FDB634",
"Z@	c #FCBC30",
"`@	c #FCBD2F",
" #	c #FDBD2F",
".#	c #FCCD2F",
"+#	c #F1A834",
"@#	c #ED9736",
"##	c #F9C23D",
"$#	c #F8C03D",
"%#	c #F3BF39",
"&#	c #EA9E33",
"*#	c #DF352B",
"=#	c #E68530",
"-#	c #F6D23B",
";#	c #FFEE42",
">#	c #FEE13B",
",#	c #FCCB2E",
"'#	c #FDC12F",
")#	c #FAC930",
"!#	c #F09D34",
"~#	c #FBA32C",
"{#	c #F88413",
"]#	c #ED7822",
"^#	c #EB7624",
"/#	c #EB7424",
"(#	c #DE332A",
"_#	c #E87F32",
":#	c #EE9B36",
"<#	c #EEAB36",
"[#	c #F0B237",
"}#	c #F2B639",
"|#	c #F2CA39",
"1#	c #EDAF35",
"2#	c #DF372B",
"3#	c #E89832",
"4#	c #F7CD34",
"5#	c #FDCA2F",
"6#	c #F6A42C",
"7#	c #E96D25",
"8#	c #E34227",
"9#	c #F8640C",
"0#	c #F9670D",
"a#	c #E24228",
"b#	c #DE392B",
"c#	c #DE2C2A",
"d#	c #E67431",
"e#	c #F5AE35",
"f#	c #FDC931",
"g#	c #FDD730",
"h#	c #FACA33",
"i#	c #F2A939",
"j#	c #EE9A36",
"k#	c #F1B738",
"l#	c #F7C336",
"m#	c #EB7422",
"n#	c #E76627",
"o#	c #F9680D",
"p#	c #EB5521",
"q#	c #E1422A",
"r#	c #E45B27",
"s#	c #EC7B23",
"t#	c #EC7823",
"u#	c #ED862A",
"v#	c #F0A237",
"w#	c #F0A338",
"x#	c #E98232",
"y#	c #E77B32",
"z#	c #E25A2D",
"A#	c #F0A337",
"B#	c #EE9C36",
"C#	c #DE2F2A",
"D#	c #EFB337",
"E#	c #DD2029",
"F#	c #F9620A",
"G#	c #E23E28",
"H#	c #E2562D",
"I#	c #EFA137",
"J#	c #EFB537",
"K#	c #EFA136",
"L#	c #EFB336",
"M#	c #EFB936",
"N#	c #EFA637",
"O#	c #FAC63F",
"P#	c #FFE742",
"Q#	c #FFE242",
"R#	c #EF9F37",
"S#	c #E88032",
"T#	c #FBBD2D",
"U#	c #EF9E35",
"V#	c #E2532C",
"W#	c #FBBE33",
"X#	c #FDDA34",
"Y#	c #FFE83F",
"Z#	c #FFEE41",
"`#	c #FEE237",
" $	c #FDCC34",
".$	c #FDC234",
"+$	c #F7B737",
"@$	c #F2AB39",
"#$	c #EEA636",
"$$	c #EEB736",
"%$	c #EFB036",
"&$	c #EB8C34",
"*$	c #E23B28",
"=$	c #FCD033",
"-$	c #F4B238",
";$	c #EDAB36",
">$	c #EDA036",
",$	c #E3632F",
"'$	c #E0422A",
")$	c #EE8123",
"!$	c #FAB72E",
"~$	c #FFE63E",
"{$	c #FDCC37",
"]$	c #F29427",
"^$	c #EE8221",
"/$	c #EF8422",
"($	c #EF8521",
"_$	c #E66426",
":$	c #E77B31",
"<$	c #F3CD39",
"[$	c #F3C539",
"}$	c #EE9836",
"|$	c #ED9C36",
"1$	c #EFAE34",
"2$	c #FBA42C",
"3$	c #F9630B",
"4$	c #E34A29",
"5$	c #FCC337",
"6$	c #FEDC35",
"7$	c #FECF36",
"8$	c #F2A635",
"9$	c #ED9535",
"0$	c #E04A2C",
"a$	c #EB8D34",
"b$	c #ED9536",
"c$	c #F2AC39",
"d$	c #F3AD39",
"e$	c #F08E27",
"f$	c #E35429",
"g$	c #DE322B",
"h$	c #E4662F",
"i$	c #F5B439",
"j$	c #FDCA36",
"k$	c #FEDD35",
"l$	c #FDC836",
"m$	c #EF5A1D",
"n$	c #E14229",
"o$	c #DF3D2A",
"p$	c #ED7D23",
"q$	c #F08721",
"r$	c #F3A634",
"s$	c #F5B43B",
"t$	c #F0AE37",
"u$	c #EC9D34",
"v$	c #E56D30",
"w$	c #E04C2C",
"x$	c #ED9A36",
"y$	c #FDDC3F",
"z$	c #F4B13A",
"A$	c #E1542D",
"B$	c #E25029",
"C$	c #EF8621",
"D$	c #EF8721",
"E$	c #E84F24",
"F$	c #EBA834",
"G$	c #FBE03E",
"H$	c #EA9934",
"I$	c #EBA034",
"J$	c #EE9F37",
"K$	c #FFE641",
"L$	c #FEF53F",
"M$	c #EBA934",
"N$	c #E04F2C",
"O$	c #E03E2A",
"P$	c #E84D24",
"Q$	c #E47C2F",
"R$	c #F5D03B",
"S$	c #FFEE3D",
"T$	c #FEDA37",
"U$	c #FEC838",
"V$	c #FBCD39",
"W$	c #F8D53A",
"X$	c #FEC938",
"Y$	c #FECE38",
"Z$	c #FCE238",
"`$	c #F7DB3B",
" %	c #FDEB3F",
".%	c #ED9A35",
"+%	c #E67330",
"@%	c #E98333",
"#%	c #F5C636",
"$%	c #FEDB39",
"%%	c #F8AF2F",
"&%	c #F18C20",
"*%	c #F28E20",
"=%	c #F28F20",
"-%	c #EC7D24",
";%	c #E45828",
">%	c #F18D20",
",%	c #EF8622",
"'%	c #E3592C",
")%	c #E98433",
"!%	c #E1522D",
"~%	c #E23F28",
"{%	c #F8650D",
"]%	c #E24128",
"^%	c #E68630",
"/%	c #E98832",
"(%	c #F7B637",
"_%	c #FECC3A",
":%	c #F7AC2D",
"<%	c #F2901F",
"[%	c #E97226",
"}%	c #ECA135",
"|%	c #E88632",
"1%	c #DF362B",
"2%	c #E0502C",
"3%	c #EA9230",
"4%	c #FA8F23",
"5%	c #EA8130",
"6%	c #E88E32",
"7%	c #E89332",
"8%	c #FAE03D",
"9%	c #FACF3E",
"0%	c #F3921F",
"a%	c #E86C27",
"b%	c #E0462B",
"c%	c #F2C738",
"d%	c #FDE13F",
"e%	c #F0B037",
"f%	c #E78231",
"g%	c #E88932",
"h%	c #E89232",
"i%	c #E87E32",
"j%	c #E88332",
"k%	c #E79031",
"l%	c #FEE93F",
"m%	c #FEC539",
"n%	c #FDC239",
"o%	c #F9C23C",
"p%	c #FDE53A",
"q%	c #E98732",
"r%	c #DF402B",
"s%	c #E58130",
"t%	c #F9DD3D",
"u%	c #FFF541",
"v%	c #FEDB3D",
"w%	c #FEDD3A",
"x%	c #FEEC3A",
"y%	c #FEDE3A",
"z%	c #FBC63B",
"A%	c #F8BF3D",
"B%	c #F9CA3C",
"C%	c #FEEE3B",
"D%	c #FFF740",
"E%	c #FED73D",
"F%	c #FA7813",
"G%	c #F86A10",
"H%	c #E45028",
"I%	c #F19123",
"J%	c #FCE036",
"K%	c #FFF33F",
"L%	c #EEA736",
"M%	c #E14E2C",
"N%	c #E57030",
"O%	c #F9DE3D",
"P%	c #FEDA3D",
"Q%	c #FECD3B",
"R%	c #F8AD2C",
"S%	c #F4951F",
"T%	c #F49720",
"U%	c #F4971F",
"V%	c #ED7F25",
"W%	c #DF422C",
"X%	c #DF412C",
"Y%	c #E55E29",
"Z%	c #F6AC27",
"`%	c #FEED3B",
" &	c #FFEA3D",
".&	c #FB9522",
"+&	c #F18E23",
"@&	c #F8BC38",
"#&	c #FDD040",
"$&	c #FAC53E",
"%&	c #FBC93E",
"&&	c #F6A62A",
"*&	c #F5981F",
"=&	c #E86D27",
"-&	c #E45B29",
";&	c #F59F27",
">&	c #FAC53D",
",&	c #FFD340",
"'&	c #E0432B",
")&	c #F3AE39",
"!&	c #E2582D",
"~&	c #DF432B",
"{&	c #E57D30",
"]&	c #FAC83E",
"^&	c #FBC73E",
"/&	c #E67731",
"(&	c #E0442B",
"_&	c #E4652E",
":&	c #FCC23A",
"<&	c #F56315",
"[&	c #F0A438",
"}&	c #FAC63E",
"|&	c #EFA236",
"1&	c #E4702F",
"2&	c #E46A2F",
"3&	c #E46E2F",
"4&	c #FBEB3E",
"5&	c #FED940",
"6&	c #E77831",
"7&	c #E24629",
"8&	c #F56918",
"9&	c #EEB636",
"0&	c #FADA3E",
"a&	c #FAC43E",
"b&	c #FAD03D",
"c&	c #E04E2C",
"d&	c #E1562D",
"e&	c #E1532C",
"f&	c #E1572C",
"g&	c #E1582C",
"h&	c #E1522C",
"i&	c #DF422B",
"    . + @ # $ % & * = - ; >     , ' ) @ ! ~ { ] ^ @ / &   ( _ - - : <           ",
"[ } | 1 2 3 4 5 6 7 8 8 9 0 a a 0 b c 2 d e f g h 8 i } a } j 8 8 k 0 a a } l l ",
"m n o p q r s t u v w x y z A B z C D E F G H I J q K L L M N O O P L L Q R S ^ ",
"T U V W X Y Z `  ...+.@.#.$.%.&.*.=.-.;.>.,.'.).!.X ~.Z {.Z ].^./.(._.{._.:.<.[.",
"}.|.!.1.2.3.4.!.5.6.7.8.9.0.a.b.c.d.e.f.g.h.i.j.k.2.3.4.!.4.l.2.2.m.4.!.!.!.n.o.",
"p.X 2.2.2.2.q.r.s.t.u.v.w.x.y.z.A.B.C.D.E.F.G.H.I.J.A.2.2.2.2.2.2.2.2.2.2.2.X K.",
"L.M.N.N.q.O.P.Q.R.S.T.U.V.W.A.A.2.2.A.A.2.2.X.A.Y.Z.`.F.N.N. +.+q.N. +q.N.N.++@+",
"#+$+%+&+*+=+-+;+>+,+X.A.A.2.2.2.2.2.2.2.2.2.2.2.2.'+)+&+&+!+~+{+]+!+^+/+(+_+:+<+",
"[+}+|+1+2+3+4+5+A.2.2.2.2.2.2.2.2.2.2.2.2.2.2.2.2.6+7+8+9+0+a+b+c+d+e+f+g+h+i+j+",
"k+l+X.m+n+o+p+q+,+2.2.2.2.2.2.2.2.2.2.2.2.2.2.2.E.r+s+t+u+v+w+w+v+x+y+,+z+A+B+C+",
"|.1.2.A.D+E+F+G+H+I+2.2.2.2.2.2.2.2.2.A.A.A.A.A.J+K+L+M+N+W.W.W.W.W.2.2.A.O+P+Q+",
"R+S+2.2.W.X.T+U+V+K+W+X+X.X.X.X.N+y+>+Y+Z+`+'+ @.@+@@@#@2.2.2.2.2.2.2.2.2.A.$@%@",
"&@!.2.2.2.2.2.T+*@=@-@;@>@,@'@)@!@~@{@]@^@/@(@_@:@<@[@}@|@W.2.2.2.2.2.2.2.2.!.&@",
"p.X 2.2.2.2.2.1@2@3@4@5@6@7@8@9@0@a@b@c@d@e@z+y+f@g@h@i@j@k@l@2.2.2.2.2.2.2.X p.",
"m@l+n@o@n@n@p@q@5 )@r@s@t@u@v+v@w@w@n@N+N+X.A.2.,+v@x@y@z@A@B@|@C@o@n@n@n@C@l+m@",
"D@E@F@G@H@I@I@J@K@L@M@N+N@N@X.2.2.2.2.2.2.2.2.2.2.2.y+v@O@P@Q@R@S@T@U@U@V@W@X@Y@",
"Z@`@ #.#+#@#@###$#%#&#M@X+1@*#2.2.2.2.2.2.2.2.2.2.2.2.2.y+=#-#;#>#,# # #'#)#!#~#",
"{#]#^#/#M+C@(#_#:#<#[#G+}#|#1#n@n@2.2.2.2.2.2.2.2.2.2.2.2#3#4#5#6#/#^#^#^#7#8#9#",
"0#a#b#N@A.2.2.y+l@c#d#e#f#g#h#i#j#E.2.2.2.2.2.2.2.2.2.2.c#k#l#m#n#T+N@N@N@N@X o#",
"p#q#2.2.2.2.2.2.2.2.n@r#s#t#u#v#w#j#F.v@A.2.2.2.2.2.,+c#x#w#y#o@X.2.2.2.2.2.q#p#",
"p#q#2.2.2.2.2.2.2.2.2.W.b#N@T+p@z#A#v#B#.+|@X+1@C#p@H+D#h@s.E#y+2.2.2.2.2.2.q#p#",
"F#G#W.2.2.2.2.2.2.2.2.2.2.2.2.2.X.H#r+V+I#J#K#L#M#N#O#P#Q#K+R#S#C#|@1@n@2.2.!.o#",
"T#U#$ X+1@X+X.2.2.2.2.2.2.2.2.2.2.A.l@V#W#X#Y#Z#`# $.$.$.$+$@$A@#$$$%$&$y+C@*$9#",
"=$-$B#@#;$>$,$p@X.2.2.2.2.2.2.2.2.2.A.'$)$!$~${$]$^$/$/$($_$c#:$R@<$[$i#}$|$1$2$",
"3$4$r+5$6$7$8$9$*@C#N+2.2.2.2.2.2.W.0$a$b$c$d$e$f$b#N+N+N+W.2.X.o@g$C#h$i$j$k$l$",
"m$n$o$p$q$q$r$s$t$u$v$1@n@n@o@C@v@w$x$y$z$A$n@N+A.2.2.2.2.2.2.2.2.2.2.X.B$C$q$D$",
"E$m.2.W.X.X.y+1@F$G$=@H$&$&$9@I$&$J$K$L$M$N$W.2.2.2.2.2.2.2.2.2.2.2.2.2.A.X.O$P$",
"p.!.2.2.2.2.N+X+Q$R$S$T$U$U$V$W$X$Y$Z$`$ %.%w$n@A.2.2.2.2.2.2.2.2.2.2.2.2.2.!.p.",
"p.X 2.2.,+n@+%@%#%$%%%&%*%=%-%;%>%*%,%'%z$'@z@)%!%I+W.2.2.2.2.2.2.2.2.2.2.A.~%{%",
"{%]%2#N+^%/%(%_%:%<%[%N+2.2.2.2.2.2.2.2.A.0$U@K+}%|%H#I+,+2#2#,+y+y+y+y+1%2%3%I ",
"4%5%6%7%8%9%d+0%a%X.2.2.2.2.2.2.2.2.2.2.2.2.E.b%c%d%e%f%g%h%h%g%J.i%i%j%k%0@l%m%",
"n%o%p%^ K$q%,+r%E.2.2.2.2.2.2.2.2.2.2.2.2.2.2.2.s%t%u%v%w%x%x%y%z%A%7+B%C%D%E%F%",
"G%H%I%J%K%L%M%X.2.2.2.2.2.2.2.2.2.2.2.2.2.2.E.N%O%P%Q%R%S%T%T%U%V%W%X%Y%Z%`% &.&",
"p.!.b%+&@&#&B#$ N+A.2.2.2.2.2.2.2.2.2.2.2.E.N%$&%&&&*&=&E.B.B.B.F.2.2.A.-&;&>&,&",
"p.X 2.'&.+)&$&9$6+!&N+W.W.W.W.W.W.W.W.W.~&{&]&^&/&F.(&r%2.2.2.2.2.2.2.2.E.'&_&:&",
"<&3.2.2.2.q.q.[&}&|&1&Y.2&Y.3&G.2&2&2&c.^%4&5&6&2.2.2.2.2.2.2.2.2.2.2.2.2.2.7&8&",
"m.2.2.2.2.2.2.q. +9&0&a&a&a&b&8%$&a&a&]&] 4&j.v$X.2.2.2.2.2.2.2.2.2.2.2.2.2.2.m.",
"2.2.2.2.2.2.2.2.A.c&d&$ $ $ e&f&$ $ $ !%g&g&h&i&2.2.2.2.2.2.2.2.2.2.2.2.2.2.2.2.",
"2.2.2.2.2.2.2.2.2.2.2.2.2.2.2.2.2.2.2.2.2.2.2.2.2.2.2.2.2.2.2.2.2.2.2.2.2.2.2.2.",
"2.2.2.2.2.2.2.2.2.2.2.2.2.2.2.2.2.2.2.2.2.2.2.2.2.2.2.2.2.2.2.2.2.2.2.2.2.2.2.2."};
