/* XPM */
static char * player_attack_left00_xpm[] = {
"61 40 542 2",
"  	c None",
". 	c #0F1A2D",
"+ 	c #251D2F",
"@ 	c #864045",
"# 	c #452734",
"$ 	c #161C2E",
"% 	c #171C2E",
"& 	c #734D48",
"* 	c #B37765",
"= 	c #BC7C69",
"- 	c #BD7A68",
"; 	c #B3605A",
"> 	c #843F44",
", 	c #6F373F",
"' 	c #1D1E30",
") 	c #0C192D",
"! 	c #794846",
"~ 	c #C27C6A",
"{ 	c #C37E6B",
"] 	c #B95F5A",
"^ 	c #C27A69",
"/ 	c #C07466",
"( 	c #BD6D61",
"_ 	c #AF5256",
": 	c #813F4A",
"< 	c #0E1B2E",
"[ 	c #764243",
"} 	c #C07A68",
"| 	c #C5836E",
"1 	c #C17968",
"2 	c #BF7365",
"3 	c #B65555",
"4 	c #B45455",
"5 	c #7F404F",
"6 	c #37263C",
"7 	c #6B4041",
"8 	c #C4806C",
"9 	c #C4826E",
"0 	c #B9655D",
"a 	c #C3826D",
"b 	c #AB7261",
"c 	c #8D5B52",
"d 	c #833E44",
"e 	c #AF5253",
"f 	c #AE5256",
"g 	c #793D4B",
"h 	c #1B1D30",
"i 	c #151C2E",
"j 	c #814848",
"k 	c #C4816D",
"l 	c #A86A5D",
"m 	c #AB6C5E",
"n 	c #A36D5E",
"o 	c #0A192D",
"p 	c #52324C",
"q 	c #763F54",
"r 	c #B35455",
"s 	c #914858",
"t 	c #35263B",
"u 	c #63353C",
"v 	c #855950",
"w 	c #AF7463",
"x 	c #C07A69",
"y 	c #5E4140",
"z 	c #4D3049",
"A 	c #693D5B",
"B 	c #6D3E5B",
"C 	c #974B58",
"D 	c #814459",
"E 	c #35253B",
"F 	c #8E4955",
"G 	c #8A5750",
"H 	c #AA685C",
"I 	c #AD5E5B",
"J 	c #131C2E",
"K 	c #231F33",
"L 	c #5C3753",
"M 	c #623A56",
"N 	c #55334C",
"O 	c #3A283E",
"P 	c #593144",
"Q 	c #964955",
"R 	c #7B3E4F",
"S 	c #A04D55",
"T 	c #111B2E",
"U 	c #141C2D",
"V 	c #131B2D",
"W 	c #191D2F",
"X 	c #82404B",
"Y 	c #522C37",
"Z 	c #9D4A4D",
"` 	c #4D2A36",
" .	c #232331",
"..	c #30333E",
"+.	c #918C89",
"@.	c #B7A895",
"#.	c #2F2135",
"$.	c #000724",
"%.	c #522C49",
"&.	c #311936",
"*.	c #876E5E",
"=.	c #89715B",
"-.	c #3D3738",
";.	c #2D303C",
">.	c #BCB3A8",
",.	c #F1E8DD",
"'.	c #E7E7E7",
").	c #E7E7E8",
"!.	c #E9E8E9",
"~.	c #E4D8CA",
"{.	c #BEB6AF",
"].	c #383234",
"^.	c #655748",
"/.	c #D0B282",
"(.	c #EADDA9",
"_.	c #EFE2B3",
":.	c #E7D5AD",
"<.	c #E6D2A4",
"[.	c #EFE1AF",
"}.	c #F0E3B1",
"|.	c #DACD9D",
"1.	c #A2916F",
"2.	c #8C7264",
"3.	c #312D36",
"4.	c #B29A73",
"5.	c #E8D5A6",
"6.	c #FAF6EE",
"7.	c #FFFFFF",
"8.	c #FDFBF6",
"9.	c #F7F1DB",
"0.	c #F5EDD2",
"a.	c #EFE1AB",
"b.	c #E8D5A1",
"c.	c #D0B081",
"d.	c #9C7F6D",
"e.	c #61504C",
"f.	c #EBE2A9",
"g.	c #D5B583",
"h.	c #5D5044",
"i.	c #E6D4A0",
"j.	c #E9D7A3",
"k.	c #998D80",
"l.	c #EAE5D2",
"m.	c #F0E3B2",
"n.	c #EFE1AA",
"o.	c #EFE0AB",
"p.	c #E4D09B",
"q.	c #AA8D72",
"r.	c #8F7466",
"s.	c #ECE3AA",
"t.	c #6C6754",
"u.	c #F4EBCB",
"v.	c #CAAE82",
"w.	c #000B27",
"x.	c #E9E4D3",
"y.	c #F4EBC9",
"z.	c #E2CC98",
"A.	c #B99B78",
"B.	c #866D61",
"C.	c #2A2833",
"D.	c #EDE6AC",
"E.	c #E4D59E",
"F.	c #C0B29B",
"G.	c #E4D0A1",
"H.	c #9B8463",
"I.	c #000726",
"J.	c #EAE6D9",
"K.	c #F8F3E1",
"L.	c #EBDBA5",
"M.	c #DCC28F",
"N.	c #C4A57C",
"O.	c #977B6B",
"P.	c #604F4B",
"Q.	c #11192D",
"R.	c #E2D09A",
"S.	c #BCB290",
"T.	c #D7BD8D",
"U.	c #4C423D",
"V.	c #000725",
"W.	c #EAE9E5",
"X.	c #F2E8C0",
"Y.	c #D7B986",
"Z.	c #D3B382",
"`.	c #9C806D",
" +	c #5F4F4B",
".+	c #6E5E4C",
"++	c #8B765A",
"@+	c #0A152C",
"#+	c #1A1E2F",
"$+	c #727377",
"%+	c #A09B8C",
"&+	c #9B9272",
"*+	c #8B785C",
"=+	c #907A5D",
"-+	c #BCA075",
";+	c #C8A97E",
">+	c #AD9073",
",+	c #705C54",
"'+	c #3E363B",
")+	c #1E212F",
"!+	c #A48B68",
"~+	c #B39870",
"{+	c #222531",
"]+	c #303136",
"^+	c #D0C6A6",
"/+	c #705F4B",
"(+	c #1A1F30",
"_+	c #1B1F2F",
":+	c #615C4E",
"<+	c #A19776",
"[+	c #DBCC9B",
"}+	c #D6B683",
"|+	c #8D7365",
"1+	c #A48C68",
"2+	c #B49970",
"3+	c #57363A",
"4+	c #884145",
"5+	c #0B1B2D",
"6+	c #FDFDF8",
"7+	c #FBFAF0",
"8+	c #E7D8B7",
"9+	c #A49A78",
"0+	c #EEE0B1",
"a+	c #C8AE82",
"b+	c #2E2C33",
"c+	c #67686D",
"d+	c #F0EDE5",
"e+	c #EDE2BB",
"f+	c #ECDEA9",
"g+	c #D6B785",
"h+	c #CBAC7F",
"i+	c #B89A77",
"j+	c #6E5B53",
"k+	c #141B2E",
"l+	c #322F34",
"m+	c #68584D",
"n+	c #A68A6D",
"o+	c #A18767",
"p+	c #954A4B",
"q+	c #B45454",
"r+	c #AD5152",
"s+	c #071A2D",
"t+	c #EDE6AB",
"u+	c #F4F0D1",
"v+	c #E9DBC2",
"w+	c #A39774",
"x+	c #F1E6C3",
"y+	c #E9D9C0",
"z+	c #867358",
"A+	c #8C8D90",
"B+	c #F6EED3",
"C+	c #E9D8A3",
"D+	c #D6B684",
"E+	c #D4B483",
"F+	c #8A7163",
"G+	c #736758",
"H+	c #837F64",
"I+	c #A48F6A",
"J+	c #BDA77C",
"K+	c #BB9F75",
"L+	c #B59973",
"M+	c #B47966",
"N+	c #AC5152",
"O+	c #EDE6AE",
"P+	c #E2D099",
"Q+	c #4D463F",
"R+	c #ECDDA7",
"S+	c #EEDFA9",
"T+	c #B69D76",
"U+	c #8C8983",
"V+	c #F4EAC6",
"W+	c #DDC490",
"X+	c #6A5750",
"Y+	c #8B8164",
"Z+	c #D1C593",
"`+	c #867E62",
" @	c #7C7058",
".@	c #9A8362",
"+@	c #CBAD7E",
"@@	c #C79271",
"#@	c #BC6B60",
"$@	c #B75A57",
"%@	c #FEFDFA",
"&@	c #F5F1D5",
"*@	c #E3D2A2",
"=@	c #181D2E",
"-@	c #B0A17B",
";@	c #ECDCA6",
">@	c #F5EDD3",
",@	c #F9F6EB",
"'@	c #DCC18E",
")@	c #CEAF7F",
"!@	c #74644F",
"~@	c #816E55",
"{@	c #A89A74",
"]@	c #978161",
"^@	c #D4B482",
"/@	c #D6B885",
"(@	c #E2D19B",
"_@	c #D3AE85",
":@	c #BC685F",
"<@	c #F8F4EF",
"[@	c #3F3838",
"}@	c #BFAA7F",
"|@	c #EFE1AE",
"1@	c #F6EED4",
"2@	c #EADDA8",
"3@	c #A89570",
"4@	c #544940",
"5@	c #0A162D",
"6@	c #2C2236",
"7@	c #A3906C",
"8@	c #B0956E",
"9@	c #DBC28E",
"0@	c #E7DAA2",
"a@	c #CE9D7E",
"b@	c #B85E59",
"c@	c #AC5051",
"d@	c #FEFEFD",
"e@	c #FFFFFE",
"f@	c #FDFBF9",
"g@	c #D5B582",
"h@	c #39393A",
"i@	c #B5AB84",
"j@	c #DED19F",
"k@	c #A4916E",
"l@	c #4F4C44",
"m@	c #12192D",
"n@	c #201E31",
"o@	c #402A41",
"p@	c #613956",
"q@	c #482D46",
"r@	c #816F56",
"s@	c #A28A67",
"t@	c #C0A27A",
"u@	c #D5B684",
"v@	c #E8DCA4",
"w@	c #E0CE98",
"x@	c #C17C69",
"y@	c #B65756",
"z@	c #BD7361",
"A@	c #C19671",
"B@	c #00122C",
"C@	c #F0EABB",
"D@	c #F2EDC7",
"E@	c #FAF8ED",
"F@	c #DEC6A0",
"G@	c #563D3E",
"H@	c #633D3F",
"I@	c #10192D",
"J@	c #2B2236",
"K@	c #1F1E31",
"L@	c #1A1F2F",
"M@	c #101B2E",
"N@	c #55334E",
"O@	c #683C5A",
"P@	c #683D5B",
"Q@	c #8A4659",
"R@	c #6D3744",
"S@	c #B29672",
"T@	c #C2A37B",
"U@	c #C78D72",
"V@	c #D9BE90",
"W@	c #CAAC7D",
"X@	c #00112C",
"Y@	c #FEFEFC",
"Z@	c #F9F7E7",
"`@	c #F0EBBF",
" #	c #7D524B",
".#	c #9F5A54",
"+#	c #C37D6B",
"@#	c #823F44",
"##	c #876E61",
"$#	c #897063",
"%#	c #544645",
"&#	c #492E46",
"*#	c #52324B",
"=#	c #252034",
"-#	c #90464F",
";#	c #7A425A",
">#	c #7C425A",
",#	c #A14E57",
"'#	c #7D3C42",
")#	c #B99B77",
"!#	c #BB9E76",
"~#	c #CFA77B",
"{#	c #C07D66",
"]#	c #E6D7A2",
"^#	c #E4D49D",
"/#	c #D7B987",
"(#	c #B99D73",
"_#	c #09162C",
":#	c #FFFEFD",
"<#	c #F6F1E9",
"[#	c #D5B685",
"}#	c #1C1E2F",
"|#	c #BC7A68",
"1#	c #734243",
"2#	c #95494B",
"3#	c #5D4142",
"4#	c #AC8F72",
"5#	c #AD9072",
"6#	c #1E2030",
"7#	c #1E1E30",
"8#	c #151C2F",
"9#	c #803F4A",
"0#	c #A54F57",
"a#	c #B55555",
"b#	c #7E3C42",
"c#	c #A88E6C",
"d#	c #AA8867",
"e#	c #C3846A",
"f#	c #BC6A5F",
"g#	c #C47F6C",
"h#	c #E7DAA3",
"i#	c #DEC793",
"j#	c #917C5E",
"k#	c #E2CDB1",
"l#	c #522A36",
"m#	c #6E4542",
"n#	c #5B4E43",
"o#	c #9C4A4D",
"p#	c #813E45",
"q#	c #9A8264",
"r#	c #CBAC7E",
"s#	c #202230",
"t#	c #1B1D2E",
"u#	c #7D3E48",
"v#	c #A54F55",
"w#	c #A75057",
"x#	c #A65057",
"y#	c #5F3345",
"z#	c #796753",
"A#	c #776256",
"B#	c #96464A",
"C#	c #B85C59",
"D#	c #BA655D",
"E#	c #BE7162",
"F#	c #D3B080",
"G#	c #CBAD7D",
"H#	c #2D2B33",
"I#	c #EFE5D8",
"J#	c #2A2932",
"K#	c #CBAC7D",
"L#	c #887459",
"M#	c #44293C",
"N#	c #7F4358",
"O#	c #282433",
"P#	c #AE936F",
"Q#	c #BFA277",
"R#	c #141C2E",
"S#	c #272135",
"T#	c #2C2237",
"U#	c #221F32",
"V#	c #473C3F",
"W#	c #7D665B",
"X#	c #96474A",
"Y#	c #C17E67",
"Z#	c #CCAD7E",
"`#	c #5F5245",
" $	c #D9BD93",
".$	c #685A49",
"+$	c #A09C77",
"@$	c #D4C693",
"#$	c #AE956E",
"$$	c #5E5145",
"%$	c #5E4E4A",
"&$	c #4D4142",
"*$	c #5C3652",
"=$	c #4F314A",
"-$	c #222430",
";$	c #504343",
">$	c #70534E",
",$	c #A94F50",
"'$	c #B65455",
")$	c #CDA178",
"!$	c #CDAE7E",
"~$	c #625446",
"{$	c #F6F0E9",
"]$	c #D5B481",
"^$	c #DBC18D",
"/$	c #E7D9A2",
"($	c #CEC395",
"_$	c #8C7D67",
":$	c #826F57",
"<$	c #9D826A",
"[$	c #8E7365",
"}$	c #39273D",
"|$	c #54334D",
"1$	c #272134",
"2$	c #383238",
"3$	c #573B3F",
"4$	c #A94E50",
"5$	c #C49973",
"6$	c #E1CCAF",
"7$	c #DED6A0",
"8$	c #716A55",
"9$	c #9D8665",
"0$	c #C4A679",
"a$	c #8B775B",
"b$	c #282733",
"c$	c #442B42",
"d$	c #482D44",
"e$	c #4A2E47",
"f$	c #302338",
"g$	c #131A2D",
"h$	c #756057",
"i$	c #482C36",
"j$	c #59393B",
"k$	c #FBF8F5",
"l$	c #DBC19C",
"m$	c #D8BC88",
"n$	c #E6D9A1",
"o$	c #CAAB7D",
"p$	c #968060",
"q$	c #282832",
"r$	c #512B36",
"s$	c #793C46",
"t$	c #171D2E",
"u$	c #FBF9F7",
"v$	c #EBDECB",
"w$	c #D8BB88",
"x$	c #927C5E",
"y$	c #443C3A",
"z$	c #0C1B2D",
"A$	c #FEFEFB",
"B$	c #E5D4B8",
"C$	c #DDC693",
"D$	c #D4BE8B",
"E$	c #947E5F",
"F$	c #302D34",
"G$	c #F8F3ED",
"H$	c #F3F4F4",
"I$	c #DBD9CD",
"J$	c #D2CCA2",
"K$	c #D0C997",
"L$	c #BBAC81",
"M$	c #393235",
"N$	c #D8BA8D",
"O$	c #847E79",
"P$	c #000727",
"Q$	c #000A2A",
"                                                                                                                          ",
"                                                          . + @ # $                                                       ",
"                                                      % & * = - ; > , '                                                   ",
"                                                    ) ! ~ { ] ^ / ( _ : <                                                 ",
"                                                    [ } | { 1 | | 2 3 4 5 6                                               ",
"                                                  $ 7 8 9 0 8 a b c d e f g h                                             ",
"                                                  i j k l m | n o ' p q r s t                                             ",
"                                                    u { v w x y $ z A B C D E                                             ",
"                                                    $ F G H I J $ K L M N O $                                             ",
"                                                    i P Q R S T     U V i $                                               ",
"                                                      W X Y Z `  .                                                        ",
"                                                  ..+.@.#.$.%.&.*.=.-.                                                    ",
"                                                $ ;.>.,.'.).!.!.~.{.].$                                                   ",
"                                                ^./.(._.:.<.[.}.|.1.2.3.$                                                 ",
"                                                4.5.6.7.8.9.0.a.b.c.d.e.$                                                 ",
"    f.    g.                                  h.i.j.k.l.m.n.n.o.p.g.q.r.i                                                 ",
"    s.    g.                                  t.u.v.w.x.y.a.a.z.g.g.A.B.C.                                                ",
"  D.E.g.  g.                                  F.G.H.I.J.K.L.M.g.g.g.N.O.P.$           Q.                                  ",
"  D.R.g.  g.                                $ S.T.U.V.W.X.a.Y.g.g.g.Z.`. +$         .+++$                                 ",
"  D.R.g.  g.g.                              i @+#+$ $ $+%+&+*+=+-+;+>+,+'+$     )+!+~+{+$                                 ",
"  D.R.g.  g.g.                              ]+^+/+$ $ (+_+:+<+[+Y.}+q.|+i $   i 1+2+3+4+5+                                ",
"6+7+8+g.g.  g.                              9+0+a+b+c+d+e+f+z.g+h+i+>+j+k+l+m+n+o+p+q+r+s+                                ",
"t+u+v+g.g.  g.                              w+x+y+z+A+B+a.C+D+g.E+F+G+H+I+J+K+L+M+3 3 N+s+                                ",
"O+D.P+g.g.g.  g.                            Q+R+S+T+U+V+a.W+g.g.Z.X+Y+Z+`+ @.@+@@@#@$@N+s+                                ",
"%@&@*@g.g.g.  g.                            =@-@;@>@,@}.a.'@)@-+!@_+~@{@]@^@/@(@_@:@3 N+s+                                ",
"7.7.<@g.g.g.g.  g.                            [@}@|@1@m.2@3@4@5@$ 6@~@7@8@g.9@0@a@b@3 c@s+                                ",
"d@e@f@g@g.  g.                                  h@i@j@k@l@m@n@o@p@q@r@s@t@u@v@w@x@y@z@A@B@                                ",
"C@D@E@F@g.g.  g.                G@H@    I@I@i J@K@$ L@M@O N@O@P@Q@R@r@S@T@g.g.u@U@V@g.W@X@                                ",
"Y@Z@`@P+g.g.                   #.#+#@#'+##$#%#&#*#$ =#-#;#A >#,#4 '#r@)#!#g.~#{#]#^#/#(#_#                                ",
"  7.:#<#[#g.g.              }#|#1#2#e 3#4#Z.5#6#7#$ 8#9#0#,#a#3 3 b#r@c#d#e#f#g#h#i#g.j#                                  ",
"  7.7.7.k#g.g.g.              l#m#n#o#p#q#g.r#s#    $ t#u#v#w#w#x#y#z#A#B#C#D#E#F#g.G#H#                                  ",
"  7.7.7.I#g.g.g.g.g.      $ J#]@K#L#M#N#O#P#Q#)+  $ $ $ R#S#T#T#T#U#V#W#X#3 3 Y#g.Z#`#                                    ",
"  7.7.7.d@ $g.g.g.g.g.D+.$+$@$#$$$%$&$*$=$s#-$$   $ $ $   $ $ $ $ $ $ ;$>$,$'$)$!$~$                                      ",
"  7.7.7.7.{$]$g.g.g.g.^$/$($_$:$<$[$%#}$|$1$        $ $               i 2$3$4$5$~$                                        ",
"    7.7.7.e@6$g.g.D+R.7$8$9$0$Z#a$b$c$d$e$f$      $ $ $ $               g$h$i$j$                                          ",
"    7.7.7.7.k$l$m$n$R.g.g.o$p$q$$   r$s$$ $                               t$$ $                                           ",
"    7.7.7.7.7.u$v$w$g.W@x$y$          z$                                                                                  ",
"    7.7.7.7.A$B$C$D$E$F$i                                                                                                 ",
"      G$H$I$J$K$L$M$i                                                                                                     ",
"      N$O$P$Q$Q$                                                                                                          "};
