/* XPM */
static char * player_attack_left01_xpm[] = {
"80 80 10 1",
" 	c None",
".	c #EDE6AC",
"+	c #D5B583",
"@	c #161C2E",
"#	c #B65555",
"$	c #C5836E",
"%	c #693D5B",
"&	c #FFFFFF",
"*	c #977B6B",
"=	c #EFE1AB",
"                                   ...+                                         ",
"                               .....+                                           ",
"                             ....+++  +                                         ",
"                          .....++++  ++                                         ",
"                       ++.....++++  ++                                          ",
"                       ++....+++++ +++                                          ",
"                     .++...++++++ +++                                           ",
"                   ..++...+++++   ++                                            ",
"                  ..++...+++++   ++                                             ",
"                 ...+...++++++   ++                                             ",
"                ...++..+++++++ +++                                              ",
"               ...++..+++++++  ++                                               ",
"              ...+++.+++++++   +                                                ",
"              ...++.++++++++  +                 @@@@@@                          ",
"             ....++.+++++++   +               @@@###@@@@                        ",
"            ....++++++++++    +             @@@$$$$$##@@@                       ",
"           .....++++++++++   +             @@$$$#$$$$###@@@                     ",
"           ....+++++++++++   +             @$$$#$$$$$####@@@                    ",
"           ....+++++++++++   +            @#$$$##$$$$###%%@@                    ",
"          &....++++++ +++                 @$$$$$$$$@@@@@##%@@                   ",
"          &&...++++++ +++   +             @$$@$$$@@@%%%%##%@@                   ",
"         ..&..++++++ ++++   +             @$$@#$@@@@%%%%##%@@                   ",
"        ....&.++++++ +++                  @#$@@#@@@@@%%%%@@@                    ",
"        ....&&++++++ +++                  @%#@@#@@@@@@@@@@@@                    ",
"        ....&+++++++ +++                  @%#@@#@@@@  @@@                       ",
"       &&...++++++++ +++   +            @@+@@#@%@***@                           ",
"       &&&..+++++++  ++    +           @@@&&&&&&&&&&@@                          ",
"       &&&..+++++++  ++                @@@++&&&&&++@@@@                         ",
"      &&&&&.+++++++  ++               @++==========+*@@@                        ",
"      &&&&&++++++++  ++               @+=&&&&&&&==++**@@                        ",
"     ..&&&&++++++++  ++              @+==+@=======++**@@                        ",
"     ...&&&++++++++  ++              @==+@@=====++++**@@                        ",
"     ...&&&++++++++  ++              @=&+@@&=====++++*@@@                       ",
"     ....&&++++++++  ++              +=+@@@&&=+++++++**@@                       ",
"     &....&++++++++  +              @@=+@@@&===++++++**@@                       ",
"    &&&...+++++++++  +              @@@@@@@&===++++++**@@    @@@                ",
"    &&&...+++++++++  +              @@@@@@@@@@@@@@+**@@@@   @@@@                ",
"    &&&...+++++++++                @@=@@@@@@@@@@=+++**@@@ @@++@@                ",
"    &&&&..+++++++++                @@=+@@@@=====+++++*@@@@@++@@@                ",
"    &&&&&&+++++++++                @@=&+@@&&===++++**@@@@@++@##@                ",
"    &&&&&&++++++++++               @@+=+@@&===+++++**@@@**@####@                ",
"    &&&&&&++++++++++               @@===@@&==++++++*@@+++**####@                ",
"    &&&&&&++++++++++                @@==&&===++++@@.+.@@@+#####@                ",
"    &&&&&&+++++++++++                @++=====++@@@@+@@++++#$$##@                ",
"    &&&&&&&++++++++++                 @======@@@@@@.@+++..$$###@                ",
"    &&&&&&&++++++++++                  @===+@@@@@@@.@++++.$####@                ",
"    &&&&&&&++&+++++++++   @@   @@@ @@@ @@@@@@@@%%@@+@++++.$####@                ",
"    &&&&&&&++&+++++++++ @@$$@@@@@@@%%@ @@@@@%%%%%@@+*++.+.###++@                ",
"     &&&&&&++&++++++++++$@#$#@****@@%@ @@%#%%%%##@@+*+++++$.+++@                ",
"     &&&&&&++&+++++++++++$@@##@+++*@@@  @@##%####@@+*++++#...++@                ",
"     &&&&&&++++++++++++++#@@##@+++*@@   @@@%#####@@+@+++##.+++@@                ",
"     &&&&&&++++++++++++++@++@%@@+++@@   @@@@#####@@+@#$#$$.+++@                 ",
"     &&&&&&&++&++++++++++++@@%%@@+@@   @@@@@@@@@@@@*@###$#++++@                 ",
"     &&&&&&&++&++++++++++@@@*@%@@@@    @@@@ @@@@@@@*@####++++@                  ",
"     &&&&&&&++&+++++++++@@***@%%@@     @@@@      @@*@####+++@@                  ",
"      &&&&&&&++&++++++*@++**@@@%%@      @@@        @*@###++@@                   ",
"      &&&&&&&++&++++@++++@@@@%@%@@       @@         @@@##+@@                    ",
"      &&&&&&&&++&.+++++@@@  @#@@@      @@@@@         @*@#@                      ",
"      &&&&&&&&+&+++++@@@     @@                       @@@                       ",
"       &&&&&&&&+++++@@@                               @@@                       ",
"       &&&&&&&+..@@@                                                            ",
"       &&&&.....@@                                                              ",
"       +++@@@@@@                                                                ",
"                                                                                ",
"                                                                                ",
"                                                                                ",
"                                                                                ",
"                                                                                ",
"                                                                                ",
"                                                                                ",
"                                                                                ",
"                                                                                ",
"                                                                                ",
"                                                                                ",
"                                                                                ",
"                                                                                ",
"                                                                                ",
"                                                                                ",
"                                                                                ",
"                                                                                "};
