/* XPM */
static char * player_attack_left01_xpm[] = {
"61 40 566 2",
"  	c None",
". 	c #0D1A2D",
"+ 	c #532B37",
"@ 	c #7C3C42",
"# 	c #091B2D",
"$ 	c #111B2E",
"% 	c #77504A",
"& 	c #AD7362",
"* 	c #AC7362",
"= 	c #B26B5F",
"- 	c #934B4B",
"; 	c #6D363D",
"> 	c #462834",
", 	c #1D1F2F",
"' 	c #8D504C",
") 	c #C4826D",
"! 	c #BF7365",
"~ 	c #BB665E",
"{ 	c #C17968",
"] 	c #BE6F63",
"^ 	c #BA625B",
"/ 	c #A04D55",
"( 	c #482938",
"_ 	c #161C2E",
": 	c #1D1D2F",
"< 	c #8D564F",
"[ 	c #C5816D",
"} 	c #C5836E",
"| 	c #C27A69",
"1 	c #C47F6C",
"2 	c #B95F5A",
"3 	c #B65555",
"4 	c #A44D51",
"5 	c #613342",
"6 	c #272134",
"7 	c #1B1D2E",
"8 	c #9D5A54",
"9 	c #C4816D",
"0 	c #BA635C",
"a 	c #C5826D",
"b 	c #AA7261",
"c 	c #9A5B54",
"d 	c #9C4A4C",
"e 	c #B15356",
"f 	c #994B56",
"g 	c #512E3F",
"h 	c #1F1D2F",
"i 	c #A8635A",
"j 	c #935952",
"k 	c #C37C6A",
"l 	c #875A51",
"m 	c #21202F",
"n 	c #241F33",
"o 	c #50314A",
"p 	c #9C4C55",
"q 	c #B35455",
"r 	c #7B4054",
"s 	c #211F32",
"t 	c #965852",
"u 	c #C6846E",
"v 	c #523A3C",
"w 	c #C5846E",
"x 	c #B87766",
"y 	c #222030",
"z 	c #151C2E",
"A 	c #5E3854",
"B 	c #693D5B",
"C 	c #81445A",
"D 	c #964A58",
"E 	c #6E3C55",
"F 	c #1F1E31",
"G 	c #542F3B",
"H 	c #AE6863",
"I 	c #53373B",
"J 	c #904A4B",
"K 	c #432B43",
"L 	c #683D5A",
"M 	c #6F3E5A",
"N 	c #5C344C",
"O 	c #35263B",
"P 	c #FFFFFF",
"Q 	c #F7F1EB",
"R 	c #EADCCA",
"S 	c #DCC29D",
"T 	c #B0966E",
"U 	c #221F33",
"V 	c #814253",
"W 	c #8C454F",
"X 	c #974B57",
"Y 	c #7B3D49",
"Z 	c #1B1D2F",
"` 	c #ECE6E0",
" .	c #AA9C80",
"..	c #D3B381",
"+.	c #36263C",
"@.	c #7F3D44",
"#.	c #8A4246",
"$.	c #934649",
"%.	c #1D1D2E",
"&.	c #FEFEFD",
"*.	c #F8F4E2",
"=.	c #EDE6DC",
"-.	c #30333E",
";.	c #333640",
">.	c #817363",
",.	c #83735F",
"'.	c #3F283B",
").	c #312335",
"!.	c #59354F",
"~.	c #40363C",
"{.	c #7C665A",
"].	c #5D4E48",
"^.	c #FFFEFE",
"/.	c #E0C9AB",
"(.	c #E4D1B2",
"_.	c #F1EACC",
":.	c #D9D5BA",
"<.	c #73705A",
"[.	c #121A2D",
"}.	c #717276",
"|.	c #E8E0D8",
"1.	c #EBE7E4",
"2.	c #D0D1D2",
"3.	c #D6D2D5",
"4.	c #D4D0D1",
"5.	c #DED1C1",
"6.	c #B4A797",
"7.	c #111A2D",
"8.	c #F9F5F0",
"9.	c #D6B786",
"0.	c #D5B583",
"a.	c #D8BC88",
"b.	c #E6D9A1",
"c.	c #E5DEA6",
"d.	c #94906F",
"e.	c #0F172D",
"f.	c #887459",
"g.	c #CCB789",
"h.	c #E3D3A0",
"i.	c #E9D8A9",
"j.	c #E8D7B3",
"k.	c #EADBB6",
"l.	c #F2E8C0",
"m.	c #F1E6BC",
"n.	c #BCAE83",
"o.	c #7B6955",
"p.	c #7A645A",
"q.	c #EEE3D4",
"r.	c #CCBC8C",
"s.	c #E7E0A8",
"t.	c #B1AC82",
"u.	c #3F403D",
"v.	c #3C2D35",
"w.	c #402F37",
"x.	c #3C3637",
"y.	c #CBB283",
"z.	c #E8D7B5",
"A.	c #FCF9EF",
"B.	c #FEFEFC",
"C.	c #FCFAF4",
"D.	c #F6EFD5",
"E.	c #F3E9C5",
"F.	c #EFE1AB",
"G.	c #E2CB98",
"H.	c #BD9F79",
"I.	c #907567",
"J.	c #332E36",
"K.	c #FCFBF5",
"L.	c #E4D5A2",
"M.	c #C8AA7C",
"N.	c #897E63",
"O.	c #CFC596",
"P.	c #C3BD8F",
"Q.	c #4B423D",
"R.	c #141A2E",
"S.	c #A2685B",
"T.	c #9E6257",
"U.	c #714845",
"V.	c #191D2E",
"W.	c #8E7B5F",
"X.	c #EDDEA8",
"Y.	c #E6D5AC",
"Z.	c #AFADAA",
"`.	c #F8F1DB",
" +	c #EFE2AD",
".+	c #EFE1AA",
"++	c #EFE2AC",
"@+	c #DCC28F",
"#+	c #D2B282",
"$+	c #977B6B",
"%+	c #6B5851",
"&+	c #F4F0D2",
"*+	c #E3D49D",
"=+	c #C9AA7C",
"-+	c #8F785F",
";+	c #908264",
">+	c #CCAE7E",
",+	c #877358",
"'+	c #713E41",
")+	c #5A323A",
"!+	c #BD7B69",
"~+	c #1E1F2F",
"{+	c #B1A684",
"]+	c #EFE2C3",
"^+	c #AD936C",
"/+	c #6E6C69",
"(+	c #F9F3DE",
"_+	c #F0E2AF",
":+	c #EFE0AA",
"<+	c #DEC592",
"[+	c #D6B785",
"}+	c #D3B382",
"|+	c #A3866F",
"1+	c #68564F",
"2+	c #FAF8EA",
"3+	c #EDE6AD",
"4+	c #E4D49D",
"5+	c #796655",
"6+	c #7C6A53",
"7+	c #BDA176",
"8+	c #6C5D4B",
"9+	c #894146",
"0+	c #B15D58",
"a+	c #1C1D2E",
"b+	c #675949",
"c+	c #D3C5A2",
"d+	c #DEC493",
"e+	c #5C5044",
"f+	c #6F7071",
"g+	c #FEFCF6",
"h+	c #F6EED4",
"i+	c #E7D4A0",
"j+	c #B09374",
"k+	c #95796A",
"l+	c #232331",
"m+	c #F1EBBF",
"n+	c #EDE6AC",
"o+	c #E6D7AC",
"p+	c #CCAD7E",
"q+	c #9B8069",
"r+	c #866D61",
"s+	c #272533",
"t+	c #392231",
"u+	c #B15353",
"v+	c #793A41",
"w+	c #3D353A",
"x+	c #131A2D",
"y+	c #0E182D",
"z+	c #EBE0BD",
"A+	c #C3A578",
"B+	c #302D34",
"C+	c #6F6E6E",
"D+	c #FAF6E5",
"E+	c #EFE2AE",
"F+	c #E9D8A3",
"G+	c #C3A57C",
"H+	c #967A6A",
"I+	c #232431",
"J+	c #11192D",
"K+	c #F9F7E9",
"L+	c #FAF8F0",
"M+	c #D6B788",
"N+	c #AC926C",
"O+	c #2F2A35",
"P+	c #725D55",
"Q+	c #393239",
"R+	c #613750",
"S+	c #7F3E47",
"T+	c #6D5951",
"U+	c #4B4041",
"V+	c #504D45",
"W+	c #413A39",
"X+	c #262A37",
"Y+	c #AEADAD",
"Z+	c #B5AB87",
"`+	c #AFA27D",
" @	c #A08865",
".@	c #A48B67",
"+@	c #CBAC7D",
"@@	c #C0A17A",
"#@	c #A2866D",
"$@	c #715D54",
"%@	c #1E2030",
"&@	c #9E8765",
"*@	c #10192D",
"=@	c #EFE8B6",
"-@	c #F3EECB",
";@	c #D6B888",
">@	c #3E2031",
",@	c #683950",
"'@	c #593550",
")@	c #623956",
"!@	c #43373C",
"~@	c #C3A57A",
"{@	c #C2A47B",
"]@	c #7A735D",
"^@	c #9F9680",
"/@	c #3F3938",
"(@	c #000D29",
"_@	c #000E2A",
":@	c #605C4E",
"<@	c #9C9373",
"[@	c #D3BF8F",
"}@	c #695650",
"|@	c #0B172D",
"1@	c #806E55",
"2@	c #C5A77A",
"3@	c #50463F",
"4@	c #F9F7E7",
"5@	c #FEFEFE",
"6@	c #592E38",
"7@	c #743942",
"8@	c #2B2236",
"9@	c #5C3652",
"0@	c #2A2136",
"a@	c #957F60",
"b@	c #C3A47B",
"c@	c #6B5852",
"d@	c #171C2E",
"e@	c #000C2A",
"f@	c #CBC093",
"g@	c #E8D7AA",
"h@	c #9B8463",
"i@	c #131A2E",
"j@	c #939396",
"k@	c #E2DECE",
"l@	c #D9CD9F",
"m@	c #E6D7A3",
"n@	c #E2CB97",
"o@	c #D7B987",
"p@	c #C6A77D",
"q@	c #C0A27A",
"r@	c #524544",
"s@	c #181D2E",
"t@	c #7F6D54",
"u@	c #C4A679",
"v@	c #584840",
"w@	c #864045",
"x@	c #422634",
"y@	c #EFE9B7",
"z@	c #FFFFFE",
"A@	c #DCC392",
"B@	c #141B2E",
"C@	c #3C283E",
"D@	c #3F2940",
"E@	c #978161",
"F@	c #7A6755",
"G@	c #1A1E2F",
"H@	c #5E3753",
"I@	c #141C2E",
"J@	c #000729",
"K@	c #D4C697",
"L@	c #F8F2E0",
"M@	c #D1BA98",
"N@	c #423B39",
"O@	c #C7C6C3",
"P@	c #F4EBCC",
"Q@	c #E4CE9A",
"R@	c #756057",
"S@	c #191D2F",
"T@	c #212330",
"U@	c #5D4F46",
"V@	c #987F66",
"W@	c #A78D6C",
"X@	c #915950",
"Y@	c #B75555",
"Z@	c #482835",
"`@	c #F6F3DB",
" #	c #FAF8EB",
".#	c #E3D29C",
"+#	c #07152C",
"@#	c #2D2237",
"##	c #A59572",
"$#	c #E6D29D",
"%#	c #71604A",
"&#	c #C4C1B7",
"*#	c #F1E4B6",
"=#	c #EEDFA9",
"-#	c #D8BA88",
";#	c #C4A67C",
">#	c #8F7466",
",#	c #534645",
"'#	c #2C2E35",
")#	c #948161",
"!#	c #BDAA7E",
"~#	c #BB9F75",
"{#	c #B29771",
"]#	c #BA8C6F",
"^#	c #B45857",
"/#	c #FDFCF7",
"(#	c #F8F5E2",
"_#	c #EAE0A7",
":#	c #D5B482",
"<#	c #42413E",
"[#	c #E4D3A0",
"}#	c #EEDFA8",
"|#	c #F3EFE6",
"1#	c #F1ECD9",
"2#	c #EDDEA9",
"3#	c #D3B482",
"4#	c #BCA075",
"5#	c #6E5E4D",
"6#	c #302C35",
"7#	c #191C2F",
"8#	c #3D3B3A",
"9#	c #DCCE99",
"0#	c #9B9270",
"a#	c #6F6954",
"b#	c #917C5E",
"c#	c #C2A578",
"d#	c #CFA87C",
"e#	c #BB665D",
"f#	c #B9605A",
"g#	c #ECE4AA",
"h#	c #D9BD8A",
"i#	c #766651",
"j#	c #DFCA97",
"k#	c #F5EDD0",
"l#	c #E6D8A4",
"m#	c #A78E69",
"n#	c #483F3B",
"o#	c #1F2230",
"p#	c #1E1E31",
"q#	c #51314B",
"r#	c #5D3753",
"s#	c #141C2D",
"t#	c #393436",
"u#	c #C7B284",
"v#	c #6C5C4B",
"w#	c #D2B281",
"x#	c #E0CD97",
"y#	c #DDC594",
"z#	c #BD6C61",
"A#	c #B65756",
"B#	c #F7F5E0",
"C#	c #E3D39C",
"D#	c #888166",
"E#	c #DCCF9D",
"F#	c #D9CB9A",
"G#	c #AC9B76",
"H#	c #5F5A4D",
"I#	c #442B43",
"J#	c #613955",
"K#	c #673C59",
"L#	c #2C2236",
"M#	c #C3AA7D",
"N#	c #8B765A",
"O#	c #D8BC89",
"P#	c #E3D29B",
"Q#	c #DABC91",
"R#	c #BC695F",
"S#	c #F3EFCE",
"T#	c #ECE5AB",
"U#	c #D8BB88",
"V#	c #633A57",
"W#	c #4D2F49",
"X#	c #39383A",
"Y#	c #383839",
"Z#	c #181C2F",
"`#	c #3B283E",
" $	c #52324C",
".$	c #673C58",
"+$	c #6B3E5B",
"@$	c #33253A",
"#$	c #C0A377",
"$$	c #A58A6C",
"%$	c #E4D59E",
"&$	c #E1CE98",
"*$	c #CD9E7C",
"=$	c #B85B58",
"-$	c #B9635A",
";$	c #CA9974",
">$	c #544840",
",$	c #613854",
"'$	c #79415A",
")$	c #4C2F48",
"!$	c #683D5B",
"~$	c #76415A",
"{$	c #A54F57",
"]$	c #A95156",
"^$	c #82445A",
"/$	c #7C425A",
"($	c #713F5B",
"_$	c #54334D",
":$	c #C6A87C",
"<$	c #AE9272",
"[$	c #CA9675",
"}$	c #D7B88E",
"|$	c #D6B684",
"1$	c #554A41",
"2$	c #DBC38F",
"3$	c #56334C",
"4$	c #A44F57",
"5$	c #84455A",
"6$	c #6A3D5B",
"7$	c #77415A",
"8$	c #9C4C58",
"9$	c #B25455",
"0$	c #8A4659",
"a$	c #9A4C58",
"b$	c #3A273D",
"c$	c #CAAB7E",
"d$	c #A98E6F",
"e$	c #D2AD7F",
"f$	c #C4896C",
"g$	c #D9BC90",
"h$	c #DAC18D",
"i$	c #443D3A",
"j$	c #EBE2A8",
"k$	c #231F32",
"l$	c #6E3C52",
"m$	c #B05355",
"n$	c #B45455",
"o$	c #80435A",
"p$	c #653B58",
"q$	c #492E46",
"r$	c #90785D",
"s$	c #C58C6E",
"t$	c #BB695E",
"u$	c #C37F6C",
"v$	c #DDC495",
"w$	c #E2D09A",
"x$	c #B49971",
"y$	c #D5B683",
"z$	c #121B2D",
"A$	c #6F3845",
"B$	c #AC5156",
"C$	c #9E4D57",
"D$	c #6C3E5B",
"E$	c #583550",
"F$	c #363136",
"G$	c #9E846A",
"H$	c #773840",
"I$	c #B75756",
"J$	c #B9615B",
"K$	c #BE7063",
"L$	c #CDA178",
"M$	c #181C2E",
"N$	c #643442",
"O$	c #984A53",
"P$	c #9A4B57",
"Q$	c #76405A",
"R$	c #673C5A",
"S$	c #826A5E",
"T$	c #7E4446",
"U$	c #B85D58",
"V$	c #D4B482",
"W$	c #867258",
"X$	c #E6D8A1",
"Y$	c #1A1D2F",
"Z$	c #373138",
"`$	c #705B53",
" %	c #98484B",
".%	c #C58B6D",
"+%	c #877459",
"@%	c #DEC893",
"#%	c #383138",
"$%	c #47393D",
"%%	c #97474A",
"&%	c #C48B6D",
"*%	c #897559",
"=%	c #09162D",
"-%	c #D6B885",
";%	c #5D4D4A",
">%	c #564544",
",%	c #693E3F",
"                                                              . + @ #                                                     ",
"                                                          $ % & * = - ; >                                                 ",
"                                                        , ' ) ! ~ { ] ^ / ( _                                             ",
"                                                      : < [ } | 1 } } 2 3 4 5 6                                           ",
"                                                      7 8 9 9 0 a } b c d e f g                                           ",
"                                                      h i } j k } l m n o p q r s                                         ",
"                                                      _ t u v w x y z A B C D E F                                         ",
"                                                        G H I { J _ _ K L M N O _                                         ",
"  P Q R S T                                             U V W X Y _   _ Z Z _ _                                           ",
"  P P P P `  ...                                        _ +.@.#.$.%.                                                      ",
"P P P P P &.*.=.-.                                    ;.>.,.'.).!.~.{.]._                                                 ",
"P P P P ^./.(._.:.<.                                [.}.|.1.2.2.3.4.5.6.7._                                               ",
"P P P P 8.9.0.a.b.c.d.e.                            f.g.h.i.j.k.l.m.n.o.p.[.                                              ",
"P P P P q.0.0.0.0.r.s.t.u.    v.w.                x.y.z.A.B.C.D.E.F.G.H.I.J.                                              ",
"P P P K.L.0.0.0.0.M.N.O.P.Q.R.S.T.U.V.            W.X.Y.Z.`. +.+F.++@+#+$+%+_                                             ",
"P P P &+*+0.0.0.0.0.=+-+;+>+,+'+)+!+~+          _ {+]+^+/+(+_+F.:+<+[+}+|+1+_                                             ",
"P P 2+3+4+0.0.0.0.0.0.0.5+6+7+8+9+0+a+          b+c+d+e+f+g+h+i+@+0.0.0.j+k+l+                                            ",
"P P m+n+o+0.0.0.0.0.0.p+q+r+s+t+u+v+w+x+        y+z+A+B+C+D+E+F+0.0.0.0.G+H+I+_                   J+_                     ",
"P K+3+n+L+M+0.0.0.0.0.N+O+P+Q+R+S+T+H+U+_       _ V+W+z X+Y+Z+`+ @.@+@@@#@$@%@_                 Q.&@*@                    ",
"  =@n+-@^.;@0.0.0.0.0.>@,@F '@)@!@~@{@p._     _ ]@^@/@_ x+(@_@:@<@[@0.#+$+}@_               |@1@2@3@z                     ",
"  n+n+4@5@;@0.0.0.0.  6@7@8@9@0@a@0.b@c@d@_   e@f@g@h@i@j@k@l@m@n@o@p@q@|+r@_             s@t@u@v@w@x@                    ",
"  n+y@z@^.A@0.0.0.0.  &@B@C@D@B@E@+@F@G@H@I@  J@K@L@M@N@O@P@F.Q@0.0.{@$+R@S@          T@U@V@W@X@u+Y@Z@                    ",
"    `@P  #.#0.0.0.    0.  _ _   [.+#_ _ @#_     ##:+$#%#&#*#=#-#0.0.;#>#,#_     '#d.)#!#~#{#]#^#3 Y@Z@                    ",
"    /#P (#_#:#0.0.  0.0.                        <#[#}#|#1#.+2#0.3#4#5#6#7#_     8#9#0#a#b#c#d#e#f#Y@Z@                    ",
"      P (#g#h#0.0.  0.0.                        _ i#j#l.k#F.l#m#n#o#p#q#r#s#    t#u#v#w#0.x#y#z#A#Y@Z@                    ",
"        B#n+C#0.  0.0.0.                        _ D@D#E#F#G#H#J+_ I#J#B K#L#_ _ t#M#N#0.O#P#Q#R#3 Y@Z@                    ",
"        S#n+T#U#  0.0.0.  0.                    _ V#W#X#Y#Z#`# $.$+$B B B @$_ _ t##$$$0.%$&$*$=$-$;$>$                    ",
"          n+n+    0.0.0.  0.                    _ ,$'$)$`#r#!$~${$]$^$/$($_$_ _ t#:$<$0.0.0.[$}$0.|$1$                    ",
"            n+  2$0.0.0.  0.                    _ 3$4$5$6$7$8$9$3 3 0$a$($b$_ _ t#c$d$0.e$f$g$b.h$p+i$                    ",
"            n+  j$O#0.0.0.0.                      k$l$m$q n$3 3 3 q 0$o$p$q$S@_ t#~@r$s$t$u$v$w$|$x$y+                    ",
"                n+b.y$0.0.0.                        z$A$B$3 3 3 3 n$C$D$E$s _ _ F$G$H$I$J$K$L$0.}+8+                      ",
"                  n+h$0.0.  0.                      _ M$N$O$P$P$P$Q$R$A `#_ _   l+S$T$3 3 U$0.V$W$y+                      ",
"                    X$[+0.  0.                      _ _ _ Y$Z Z Z Z Z S@_ _       Z$`$ %3 .%}++%s@                        ",
"                      @%0.  0.0.                  _ _ _ _           _ _ _           #%$%%%&%*%=%                          ",
"                        -%  0.0.                    _ _ _             _ _ _           ;%>%,%z                             ",
"                          0.  0.0.                  _ _ _               _ _ _           d@_                               ",
"                                0.                                                                                        ",
"                                  0.                                                                                      ",
"                                    0.                                                                                    ",
"                                                                                                                          "};
