/* XPM */
static char * enemy_idle_right00_xpm[] = {
"40 33 534 2",
"  	c None",
". 	c #161C2E",
"+ 	c #C5A08D",
"@ 	c #F8CAAF",
"# 	c #9D7F72",
"$ 	c #7B655D",
"% 	c #D4AC97",
"& 	c #876E64",
"* 	c #3F363C",
"= 	c #4C2734",
"- 	c #B94D51",
"; 	c #5E2C38",
"> 	c #843941",
", 	c #987C6F",
"' 	c #3E2332",
") 	c #9B4248",
"! 	c #8B3C43",
"~ 	c #9F4349",
"{ 	c #171C2E",
"] 	c #B34B4F",
"^ 	c #F26464",
"/ 	c #D7595B",
"( 	c #D85A5B",
"_ 	c #D9945F",
": 	c #FFCFB4",
"< 	c #943F45",
"[ 	c #F56565",
"} 	c #E35E5F",
"| 	c #F76666",
"1 	c #1B1D2E",
"2 	c #2D1F30",
"3 	c #994147",
"4 	c #1B3F32",
"5 	c #1D4D35",
"6 	c #285136",
"7 	c #263631",
"8 	c #E2B357",
"9 	c #DFA75A",
"0 	c #E8C351",
"a 	c #A28476",
"b 	c #803840",
"c 	c #B54B50",
"d 	c #8C3C43",
"e 	c #8B4C4D",
"f 	c #342F37",
"g 	c #98434C",
"h 	c #E8646A",
"i 	c #CA565C",
"j 	c #181E2E",
"k 	c #287B40",
"l 	c #2F9447",
"m 	c #35A74D",
"n 	c #38B251",
"o 	c #5ABB55",
"p 	c #77AB52",
"q 	c #A26F4C",
"r 	c #F4E4A5",
"s 	c #F3E162",
"t 	c #E0AC59",
"u 	c #D9955F",
"v 	c #532936",
"w 	c #632E39",
"x 	c #D35759",
"y 	c #EE6263",
"z 	c #EF6363",
"A 	c #E7877C",
"B 	c #B49282",
"C 	c #442C40",
"D 	c #A05C7A",
"E 	c #503247",
"F 	c #2F524E",
"G 	c #38B151",
"H 	c #319B4A",
"I 	c #246B3B",
"J 	c #3E9849",
"K 	c #80C75C",
"L 	c #65A14E",
"M 	c #1D4A34",
"N 	c #948885",
"O 	c #FAF8F7",
"P 	c #E3C8A9",
"Q 	c #A7464B",
"R 	c #DE5C5D",
"S 	c #D5585A",
"T 	c #D25759",
"U 	c #A04955",
"V 	c #DF5E61",
"W 	c #AF494E",
"X 	c #7C363F",
"Y 	c #A7645E",
"Z 	c #78353E",
"` 	c #6E4159",
" .	c #1E2F38",
"..	c #417268",
"+.	c #39AB54",
"@.	c #297F41",
"#.	c #373943",
"$.	c #C4C4C5",
"%.	c #CFCFD0",
"&.	c #77787C",
"*.	c #205B38",
"=.	c #309548",
"-.	c #193731",
";.	c #5C5E63",
">.	c #D9DADA",
",.	c #DBD9CE",
"'.	c #B5B5B7",
").	c #EAEAEB",
"!.	c #A7816C",
"~.	c #A9474C",
"{.	c #854D68",
"].	c #8B506C",
"^.	c #CD5557",
"/.	c #DB5B5C",
"(.	c #DC5B5D",
"_.	c #EC6162",
":.	c #462533",
"<.	c #3C6961",
"[.	c #3D6A62",
"}.	c #23513D",
"|.	c #4E4F56",
"1.	c #E4E2E2",
"2.	c #F7EDE8",
"3.	c #FCF8DF",
"4.	c #F6F3E0",
"5.	c #A7A8A9",
"6.	c #464850",
"7.	c #5E5F64",
"8.	c #D7BBAE",
"9.	c #EFD8C0",
"0.	c #F8EEAC",
"a.	c #FCFBF0",
"b.	c #79635C",
"c.	c #402332",
"d.	c #D4585A",
"e.	c #D55D65",
"f.	c #93495B",
"g.	c #5B374D",
"h.	c #814B65",
"i.	c #BD4F52",
"j.	c #F16364",
"k.	c #EB6162",
"l.	c #B84D50",
"m.	c #2B1F30",
"n.	c #243B40",
"o.	c #332949",
"p.	c #B6B7B8",
"q.	c #EDD2C4",
"r.	c #DEA668",
"s.	c #F5E561",
"t.	c #FAF2C1",
"u.	c #FEFDF7",
"v.	c #D6D6D7",
"w.	c #43454D",
"x.	c #E3E3E4",
"y.	c #DDA27A",
"z.	c #F0D947",
"A.	c #F4E341",
"B.	c #F6E779",
"C.	c #F6F6F6",
"D.	c #F3C5AC",
"E.	c #C19D8A",
"F.	c #673D54",
"G.	c #A55F7E",
"H.	c #AB6282",
"I.	c #794760",
"J.	c #5A374D",
"K.	c #B7617C",
"L.	c #B1607B",
"M.	c #7C4862",
"N.	c #4B3764",
"O.	c #6C4C8A",
"P.	c #513A6A",
"Q.	c #6F4E8D",
"R.	c #C8C8C9",
"S.	c #EFD7CB",
"T.	c #E9C550",
"U.	c #F8EEAA",
"V.	c #FFFFFF",
"W.	c #737478",
"X.	c #DCDCDD",
"Y.	c #E9C7B4",
"Z.	c #F5E681",
"`.	c #F6E986",
" +	c #9B7E71",
".+	c #564848",
"++	c #342639",
"@+	c #A05C7B",
"#+	c #3C293C",
"$+	c #2D2336",
"%+	c #9E5B79",
"&+	c #523348",
"*+	c #27233D",
"=+	c #60447C",
"-+	c #4A3662",
";+	c #956596",
">+	c #7C727D",
",+	c #D8D7D7",
"'+	c #FAF4DD",
")+	c #F9F0B8",
"!+	c #C6C7C8",
"~+	c #433D54",
"{+	c #5C546B",
"]+	c #A4A5A7",
"^+	c #E8E6E0",
"/+	c #FDFBED",
"(+	c #FDFBF5",
"_+	c #A3A3A5",
":+	c #94786C",
"<+	c #543449",
"[+	c #915370",
"}+	c #71425B",
"|+	c #7D4963",
"1+	c #255037",
"2+	c #34A44C",
"3+	c #356157",
"4+	c #2D4B4B",
"5+	c #714D6B",
"6+	c #9F6B92",
"7+	c #73536F",
"8+	c #8D8589",
"9+	c #CCCABC",
"0+	c #CFCBC0",
"a+	c #998F9E",
"b+	c #3E3B4D",
"c+	c #3D2E53",
"d+	c #724F90",
"e+	c #6E4C6D",
"f+	c #6B5A6B",
"g+	c #67686D",
"h+	c #65676C",
"i+	c #2C4B4B",
"j+	c #22383D",
"k+	c #90756A",
"l+	c #FCCCB2",
"m+	c #886F65",
"n+	c #6D5A55",
"o+	c #3E353B",
"p+	c #2A2438",
"q+	c #724E6C",
"r+	c #4D364E",
"s+	c #74445D",
"t+	c #874E69",
"u+	c #76455E",
"v+	c #282133",
"w+	c #35A94E",
"x+	c #3D945E",
"y+	c #3B665F",
"z+	c #1A1D2F",
"A+	c #6D4A68",
"B+	c #8A5D80",
"C+	c #A36E96",
"D+	c #A06C94",
"E+	c #986794",
"F+	c #714F8F",
"G+	c #34394D",
"H+	c #274144",
"I+	c #43325B",
"J+	c #81587B",
"K+	c #8F6084",
"L+	c #182130",
"M+	c #3C6760",
"N+	c #705C56",
"O+	c #F5C7AD",
"P+	c #F6C8AE",
"Q+	c #F8C9AF",
"R+	c #5D4D4C",
"S+	c #292337",
"T+	c #8A5E8C",
"U+	c #7A5594",
"V+	c #79537D",
"W+	c #4B3763",
"X+	c #1E4E35",
"Y+	c #266C3E",
"Z+	c #192432",
"`+	c #37605A",
" @	c #2D4D4C",
".@	c #1C1E30",
"+@	c #34293E",
"@@	c #31283D",
"#@	c #32494F",
"$@	c #3F7D64",
"%@	c #52B054",
"&@	c #527B42",
"*@	c #33283D",
"=@	c #282336",
"-@	c #1B2834",
";@	c #925471",
">@	c #BF818D",
",@	c #CAA290",
"'@	c #A58677",
")@	c #262532",
"!@	c #28233D",
"~@	c #69497A",
"{@	c #A16C99",
"]@	c #7D5696",
"^@	c #90628E",
"/@	c #2E2644",
"(@	c #33A14B",
"_@	c #2D8C45",
":@	c #1A3C32",
"<@	c #161D2E",
"[@	c #263F42",
"}@	c #417367",
"|@	c #3AA557",
"1@	c #38A953",
"2@	c #3E6B63",
"3@	c #305350",
"4@	c #315552",
"5@	c #3E6C64",
"6@	c #3AA856",
"7@	c #69C158",
"8@	c #94D361",
"9@	c #557A42",
"0@	c #402B3E",
"a@	c #C25E71",
"b@	c #C9637A",
"c@	c #8C516D",
"d@	c #202037",
"e@	c #775396",
"f@	c #62467E",
"g@	c #181D2F",
"h@	c #1C1E31",
"i@	c #563D64",
"j@	c #7A547E",
"k@	c #3E2F55",
"l@	c #182030",
"m@	c #192130",
"n@	c #171E2F",
"o@	c #315952",
"p@	c #3AA656",
"q@	c #39AD53",
"r@	c #3F7E64",
"s@	c #3D6B63",
"t@	c #315451",
"u@	c #2B6447",
"v@	c #37AD4F",
"w@	c #58BA55",
"x@	c #84CC5E",
"y@	c #6FB254",
"z@	c #215F39",
"A@	c #8A485D",
"B@	c #EF666A",
"C@	c #D26476",
"D@	c #222138",
"E@	c #533C6C",
"F@	c #6E4D8B",
"G@	c #63467F",
"H@	c #5B4175",
"I@	c #755294",
"J@	c #2E2744",
"K@	c #795373",
"L@	c #7E5576",
"M@	c #7B5474",
"N@	c #292437",
"O@	c #2A693E",
"P@	c #2D8447",
"Q@	c #417168",
"R@	c #3D6962",
"S@	c #2B4849",
"T@	c #297B40",
"U@	c #2A8141",
"V@	c #3E293D",
"W@	c #B75D74",
"X@	c #EE656A",
"Y@	c #9E546E",
"Z@	c #583F72",
"`@	c #735191",
" #	c #4D4166",
".#	c #42325A",
"+#	c #523B6B",
"@#	c #513C6A",
"##	c #34314B",
"$#	c #1E2134",
"%#	c #885C7F",
"&#	c #A67098",
"*#	c #926287",
"=#	c #573D57",
"-#	c #2D4E4D",
";#	c #355B57",
">#	c #325653",
",#	c #182131",
"'#	c #2A4748",
")#	c #233A3F",
"!#	c #3A283B",
"~#	c #A55974",
"{#	c #C46076",
"]#	c #543D6E",
"^#	c #62467D",
"/#	c #5D4778",
"(#	c #4E3D66",
"_#	c #6C4D89",
":#	c #694D86",
"<#	c #463E5E",
"[#	c #3F3956",
"}#	c #2B2A41",
"|#	c #1B4233",
"1#	c #1B4032",
"2#	c #593E58",
"3#	c #694865",
"4#	c #1C2B36",
"5#	c #3A655E",
"6#	c #407067",
"7#	c #406F66",
"8#	c #274245",
"9#	c #1A2533",
"0#	c #83597B",
"a#	c #1C2A35",
"b#	c #38625C",
"c#	c #265740",
"d#	c #64A04D",
"e#	c #4F723F",
"f#	c #212F30",
"g#	c #191D31",
"h#	c #4D3865",
"i#	c #63477F",
"j#	c #765295",
"k#	c #5B4676",
"l#	c #745192",
"m#	c #6B4D88",
"n#	c #6A4D87",
"o#	c #4B4064",
"p#	c #27283E",
"q#	c #25623D",
"r#	c #38B050",
"s#	c #2D8B44",
"t#	c #1A3931",
"u#	c #297D40",
"v#	c #226239",
"w#	c #284345",
"x#	c #253E41",
"y#	c #294647",
"z#	c #A46F99",
"A#	c #654665",
"B#	c #182231",
"C#	c #254041",
"D#	c #309648",
"E#	c #65BF57",
"F#	c #8DD160",
"G#	c #519449",
"H#	c #664663",
"I#	c #614467",
"J#	c #26233C",
"K#	c #6E4E8B",
"L#	c #51416B",
"M#	c #745293",
"N#	c #755293",
"O#	c #4A4063",
"P#	c #1C2033",
"Q#	c #2B8342",
"R#	c #21353C",
"S#	c #365D59",
"T#	c #406F67",
"U#	c #704E80",
"V#	c #7F5894",
"W#	c #336554",
"X#	c #39AF53",
"Y#	c #5B3F5C",
"Z#	c #735091",
"`#	c #845A88",
" $	c #593F6C",
".$	c #4F3A68",
"+$	c #3B2E52",
"@$	c #52416B",
"#$	c #51426B",
"$$	c #413B58",
"%$	c #1B1F32",
"&$	c #3D6A63",
"*$	c #3C9A5C",
"=$	c #296C40",
"-$	c #373D4D",
";$	c #226339",
">$	c #573F71",
",$	c #704E8D",
"'$	c #315452",
")$	c #3F8762",
"!$	c #287441",
"~$	c #413051",
"{$	c #97668D",
"]$	c #865C95",
"^$	c #835984",
"/$	c #604366",
"($	c #503955",
"_$	c #4F3955",
":$	c #403257",
"<$	c #2F2B45",
"[$	c #322B48",
"}$	c #302846",
"|$	c #20333A",
"1$	c #3A665F",
"2$	c #388058",
"3$	c #2D6F48",
"4$	c #3F3056",
"5$	c #1A2532",
"6$	c #4E3967",
"7$	c #192331",
"8$	c #2B4A4A",
"9$	c #3A655F",
"0$	c #375F5A",
"a$	c #1C2B35",
"b$	c #1E1F34",
"c$	c #503A62",
"d$	c #906188",
"e$	c #7B548A",
"f$	c #9D6A99",
"g$	c #966698",
"h$	c #61457D",
"i$	c #212037",
"j$	c #46345E",
"k$	c #413158",
"l$	c #45335D",
"m$	c #684985",
"n$	c #4F3967",
"o$	c #21353B",
"p$	c #3F6E65",
"q$	c #21363D",
"r$	c #1D1E30",
"s$	c #834B64",
"t$	c #A95469",
"u$	c #24223A",
"v$	c #523A57",
"w$	c #463356",
"x$	c #2B2541",
"y$	c #22373D",
"z$	c #1F323A",
"A$	c #4F3146",
"B$	c #D16477",
"C$	c #E7656E",
"D$	c #6D4059",
"E$	c #B6627F",
"F$	c #AC5E7B",
"G$	c #38273A",
"H$	c #1B1D2F",
"I$	c #4B2F44",
"                            . +                                                 ",
"                    @         # $                                               ",
"          %         & * .   = - ; > .                                           ",
"            , .   ' ) ! ~ { ] ^ / ( .                                     _     ",
"  :         . . . < [ } | 1 2 3 4 5 5 6 7                               8 9 0   ",
"    a   . b c d e f g h i j k l m n n o p 7                           q r s t u ",
"    v w = x y z A B C D E F n G H I I J K L M .   . .                 N O P     ",
"  Q R S T U V W X Y Z `  ...+.@.#.$.%.&.*.=.=.-.;.>.,.'..             . ).!.    ",
". ~.| | } {.].^./.(._.:.<.[.}.|.1.2.3.4.5.6.. 7.8.9.0.a.'..           b.        ",
"  c.d.e.f.g.h.i.j.k.l.m.n. .o.p.q.r.s.t.u.v.w.x.y.z.A.B.C..           D.E.      ",
"  . F.G.H.I.. J.K.L.M.N.O.P.Q.R.S.T.A.A.U.V.W.X.Y.Z.A.`.C..              +.+    ",
"    ++@+H.D #+$+%+H.&+*+=+-+;+>+,+'+A.A.)+!+~+{+]+^+/+(+_+          :+& . .     ",
"    . <+H.H.[+. }+|+1+2+3+4+5+6+7+8+9+0+a+b+c+d+e+f+g+h+i+j+      k+l+m+n+o+    ",
"  p+q+r+s+t+u+. v+1+w+n x+y+z+A+B+C+D+E+F+G+H+I+J+C+K+L+M+<..     N+O+P+Q+R+    ",
"  S+T+U+V+W+. . X+w+n n Y+Z+`+ @.@+@+@@@#@[.$@%@&@*@=@. Z+-@.   . ;@>@,@'@)@    ",
"  . !@~@{@]@^@/@(@n _@:@<@[@}@|@1@2@3@3@4@5@6@7@8@9@.           0@a@b@c@.       ",
"d@e@f@g@h@i@j@k@l@m@<@. . n@o@p@n q@r@s@t@ .u@v@w@x@y@z@      . A@B@C@E .       ",
"D@e@e@E@F@G@o.. H@I@J@K@L@L@M@N@O@P@$@Q@Q@R@S@<@T@U@U@.     . V@W@X@Y@.         ",
"Z@e@`@ #e@e@.#+#@###$#%#C+C+C+&#*#=#-#Q@Q@Q@Q@;#>#,#.     '#)#!#~#{#s+.         ",
"]#e@^#/#e@e@(#_#:#<#[#}#. |#1#2#q+3#4#5#6#Q@Q@7#8#9#0#. a#b#c#d#e#f#.           ",
"g#f@h#i#e@j#k#l#m#n#o#p#q#n r#s#t#u#v#. w#i+i+x#y#4@z#A#B#C#D#E#F#G#.           ",
"H#I#J#=+e@K#L#e@M#N#O#P#y+n n n Q#m (@R#S#S#S#S#T#>#U#V#. W#X#n n H .           ",
"Y#Z#`# $O..$+$O.@$#$$$%$&$*$n G =$-$;$'#Q@Q@Q@Q@Q@>#>$,$. '$)$6@6@!$.           ",
"  ~${$]$^$/$($_$:$<$[$}$|$1$2$3$4$F@5$y+Q@Q@Q@Q@Q@>#6$o.. 7$8$9$0$a$            ",
"  . b$c$d$e$f$g$h$i$j$Q.Z@k$k$l$m$n$o$p$Q@Q@Q@Q@5@q$. r$s$t$#+. . .             ",
"      . . u$v$w$D@. . c+4$4$4$4$x$. . y$x#x#x#x#z$. . A$B$C$D$.                 ",
"                          . . . .         . . . .   . ` E$F$G$                  ",
"                        . . .             . . .     . H$A$I$.                   ",
"                      . . .             . . .           .                       ",
"                      . . .             . . . .                                 ",
"                                                                                ",
"                                                                                ",
"                                                                                "};
