/* XPM */
static char * enemy_idle_right01_xpm[] = {
"40 33 519 2",
"  	c None",
". 	c #D0A994",
"+ 	c #FCCCB2",
"@ 	c #886F65",
"# 	c #675451",
"$ 	c #161C2E",
"% 	c #C38862",
"& 	c #A97A65",
"* 	c #E4B9A1",
"= 	c #735E58",
"- 	c #2A2733",
"; 	c #3E2332",
"> 	c #A9474C",
", 	c #D9945F",
"' 	c #D08F60",
") 	c #806960",
"! 	c #582A37",
"~ 	c #B14A4E",
"{ 	c #9C4248",
"] 	c #B24A4F",
"^ 	c #1D4B34",
"/ 	c #215F39",
"( 	c #2C8944",
"_ 	c #319A49",
": 	c #51A34D",
"< 	c #527640",
"[ 	c #EACA4E",
"} 	c #E8C251",
"| 	c #DEA55B",
"1 	c #FFCFB4",
"2 	c #E1B69F",
"3 	c #913E44",
"4 	c #F56565",
"5 	c #EA6161",
"6 	c #B54B4F",
"7 	c #213E3B",
"8 	c #35A94E",
"9 	c #38B251",
"0 	c #37AF50",
"a 	c #319C4A",
"b 	c #55B553",
"c 	c #8CCC5E",
"d 	c #517440",
"e 	c #EDD24A",
"f 	c #FBF6D8",
"g 	c #F2DD5C",
"h 	c #90766A",
"i 	c #9A4147",
"j 	c #BF4F53",
"k 	c #A5454A",
"l 	c #A15D5A",
"m 	c #3A333A",
"n 	c #88404D",
"o 	c #B9525B",
"p 	c #181F2F",
"q 	c #3E7163",
"r 	c #329E4A",
"s 	c #1F5536",
"t 	c #7E7F82",
"u 	c #848588",
"v 	c #1E5236",
"w 	c #4C984A",
"x 	c #4CAE50",
"y 	c #2D8D45",
"z 	c #182B2F",
"A 	c #949597",
"B 	c #959698",
"C 	c #6E6F73",
"D 	c #6F4D3D",
"E 	c #C28C53",
"F 	c #FCF8F4",
"G 	c #D0CCB5",
"H 	c #442533",
"I 	c #622D39",
"J 	c #7D373F",
"K 	c #592A37",
"L 	c #D8595B",
"M 	c #F16464",
"N 	c #F36465",
"O 	c #D98177",
"P 	c #B79483",
"Q 	c #39283B",
"R 	c #693E56",
"S 	c #335955",
"T 	c #407167",
"U 	c #31834D",
"V 	c #40524C",
"W 	c #ACACAE",
"X 	c #F8F8F8",
"Y 	c #F9F8F1",
"Z 	c #D6D4CD",
"` 	c #4D4E55",
" .	c #1E5035",
"..	c #1F5637",
"+.	c #17262F",
"@.	c #BAB0AC",
"#.	c #F9F1ED",
"$.	c #FBF5D0",
"%.	c #EEEEEF",
"&.	c #696A6F",
"*.	c #9C7F72",
"=.	c #A68474",
"-.	c #D3D1D0",
";.	c #717276",
">.	c #B74C50",
",.	c #E45E5F",
"'.	c #DE5C5D",
").	c #D4585A",
"!.	c #9C4B5B",
"~.	c #D1585E",
"{.	c #9F4349",
"].	c #863A42",
"^.	c #A95957",
"/.	c #833941",
"(.	c #365D58",
"_.	c #2C4A4A",
":.	c #969799",
"<.	c #F4E5DD",
"[.	c #E6BD9D",
"}.	c #F7EB94",
"|.	c #FCF9E4",
"1.	c #F0F0F1",
"2.	c #98999B",
"3.	c #C1C2C3",
"4.	c #DDA681",
"5.	c #EDD06B",
"6.	c #F5E565",
"7.	c #F9F0B9",
"8.	c #E8E8E9",
"9.	c #E9BDA5",
"0.	c #B79584",
"a.	c #F76666",
"b.	c #834C67",
"c.	c #8D516D",
"d.	c #D95A5C",
"e.	c #DD5B5D",
"f.	c #E86061",
"g.	c #BF5053",
"h.	c #392C4F",
"i.	c #4E3967",
"j.	c #3B2D51",
"k.	c #5E4379",
"l.	c #CDCECE",
"m.	c #E7C3AF",
"n.	c #E4B855",
"o.	c #F4E341",
"p.	c #F5E66A",
"q.	c #FBF5D4",
"r.	c #FAFAFA",
"s.	c #616267",
"t.	c #F5F5F5",
"u.	c #DB9C70",
"v.	c #F4E242",
"w.	c #F5E564",
"x.	c #F2F2F2",
"y.	c #4B3F42",
"z.	c #472533",
"A.	c #C35154",
"B.	c #C85A66",
"C.	c #884960",
"D.	c #5E384F",
"E.	c #74445D",
"F.	c #B24A4E",
"G.	c #F06364",
"H.	c #974046",
"I.	c #44335B",
"J.	c #775396",
"K.	c #593F73",
"L.	c #7E5791",
"M.	c #ACADAE",
"N.	c #FAF3F0",
"O.	c #F3E2A5",
"P.	c #F8ECA0",
"Q.	c #EEEEEE",
"R.	c #515359",
"S.	c #969699",
"T.	c #E1DCDA",
"U.	c #FBF6D7",
"V.	c #F9EFB2",
"W.	c #FCF7DB",
"X.	c #D8D8D9",
"Y.	c #A08275",
"Z.	c #BB9886",
"`.	c #6D4058",
" +	c #A96181",
".+	c #AB6282",
"++	c #7C4862",
"@+	c #653C53",
"#+	c #B06280",
"$+	c #9F5975",
"%+	c #2A2234",
"&+	c #287B40",
"*+	c #30404B",
"=+	c #2B253C",
"-+	c #97668C",
";+	c #865D7E",
">+	c #D1CFC3",
",+	c #F9F0B7",
"'+	c #D0CEBE",
")+	c #65676B",
"!+	c #4C3764",
"~+	c #674983",
"{+	c #3B3C48",
"]+	c #C5C5C6",
"^+	c #BFBFC0",
"/+	c #353742",
"(+	c #9B7E71",
"_+	c #FECEB3",
":+	c #C5A08D",
"<+	c #D3AB96",
"[+	c #4A3F41",
"}+	c #36263A",
"|+	c #9E5B79",
"1+	c #A15C7B",
"2+	c #402A3E",
"3+	c #1E1E30",
"4+	c #90536F",
"5+	c #38273A",
"6+	c #2F9447",
"7+	c #3E8462",
"8+	c #3E6D64",
"9+	c #33283D",
"0+	c #99678D",
"a+	c #A56F98",
"b+	c #8B6081",
"c+	c #83627D",
"d+	c #826287",
"e+	c #775595",
"f+	c #352A4C",
"g+	c #1A1E32",
"h+	c #644780",
"i+	c #A36E97",
"j+	c #916286",
"k+	c #775170",
"l+	c #1C2A35",
"m+	c #406F66",
"n+	c #345A56",
"o+	c #262532",
"p+	c #EBBFA6",
"q+	c #E8BCA4",
"r+	c #503247",
"s+	c #935471",
"t+	c #191E2F",
"u+	c #2F9347",
"v+	c #348D51",
"w+	c #253E41",
"x+	c #263F42",
"y+	c #1A1E30",
"z+	c #3A2C42",
"A+	c #7B5474",
"B+	c #734F73",
"C+	c #4A3763",
"D+	c #3B6760",
"E+	c #2D8044",
"F+	c #1E2D32",
"G+	c #7B5373",
"H+	c #5A3E59",
"I+	c #284446",
"J+	c #2E4E4D",
"K+	c #643C53",
"L+	c #AC6382",
"M+	c #9D5B78",
"N+	c #332738",
"O+	c #34293D",
"P+	c #7E5576",
"Q+	c #4F3853",
"R+	c #6A3F57",
"S+	c #7B4861",
"T+	c #6A3F56",
"U+	c #2E9046",
"V+	c #2B8342",
"W+	c #161D2E",
"X+	c #284345",
"Y+	c #417168",
"Z+	c #3C895E",
"`+	c #2C7F46",
" @	c #315552",
".@	c #305350",
"+@	c #3D6A63",
"@@	c #3B9F5A",
"#@	c #6CC259",
"$@	c #85BF5A",
"%@	c #222F30",
"&@	c #984D62",
"*@	c #D76474",
"=@	c #A35A75",
"-@	c #2E2336",
";@	c #2C2539",
">@	c #815888",
",@	c #7D5796",
"'@	c #815883",
")@	c #523B6B",
"!@	c #2A2439",
"~@	c #27743E",
"{@	c #297D40",
"]@	c #182D30",
"^@	c #1A2633",
"/@	c #3F7564",
"(@	c #38B152",
"_@	c #39AE53",
":@	c #3A905A",
"<@	c #335A54",
"[@	c #2D4E4D",
"}@	c #1B2934",
"|@	c #2C4B4B",
"1@	c #389755",
"2@	c #54B954",
"3@	c #80CA5D",
"4@	c #83BD59",
"5@	c #547D42",
"6@	c #193531",
"7@	c #221F32",
"8@	c #B95A6E",
"9@	c #EB656C",
"0@	c #8F4F68",
"a@	c #1A1D31",
"b@	c #2C2642",
"c@	c #2C2542",
"d@	c #654673",
"e@	c #986793",
"f@	c #7F5795",
"g@	c #936391",
"h@	c #805678",
"i@	c #845A7C",
"j@	c #664662",
"k@	c #3B3144",
"l@	c #2A6B45",
"m@	c #319B49",
"n@	c #36AB4F",
"o@	c #3F8563",
"p@	c #1B2834",
"q@	c #35A84E",
"r@	c #55B352",
"s@	c #54B152",
"t@	c #5F3950",
"u@	c #C4637B",
"v@	c #DC6472",
"w@	c #482E42",
"x@	c #29243F",
"y@	c #654781",
"z@	c #222138",
"A@	c #2B2541",
"B@	c #523B60",
"C@	c #6F4C75",
"D@	c #594073",
"E@	c #322848",
"F@	c #83597A",
"G@	c #9E6A91",
"H@	c #6E4B69",
"I@	c #895C7F",
"J@	c #82587A",
"K@	c #553C55",
"L@	c #1C2B35",
"M@	c #3A655E",
"N@	c #3D6962",
"O@	c #22373D",
"P@	c #1F323A",
"Q@	c #1D2E37",
"R@	c #192432",
"S@	c #3F2A3E",
"T@	c #985775",
"U@	c #302437",
"V@	c #332949",
"W@	c #765395",
"X@	c #523D6C",
"Y@	c #714F8F",
"Z@	c #684984",
"`@	c #34294A",
" #	c #563E6F",
".#	c #202037",
"+#	c #1B3F32",
"@#	c #2E8E45",
"##	c #575B59",
"$#	c #433148",
"%#	c #1C4533",
"&#	c #254641",
"*#	c #355C58",
"=#	c #1C2C36",
"-#	c #282E3B",
";#	c #8A5D81",
">#	c #5E415C",
",#	c #182231",
"'#	c #38605B",
")#	c #274843",
"!#	c #659B4C",
"~#	c #6D9D4D",
"{#	c #223130",
"]#	c #5B4175",
"^#	c #715090",
"/#	c #4F4269",
"(#	c #3E2F55",
"_#	c #574171",
":#	c #393550",
"<#	c #181D30",
"[#	c #326C52",
"}#	c #26703D",
"|#	c #36AA4E",
"1#	c #2E8F46",
"2#	c #38625C",
"3#	c #355B57",
"4#	c #1E2E38",
"5#	c #3C6861",
"6#	c #3B5556",
"7#	c #A56F9A",
"8#	c #936389",
"9#	c #292B41",
"0#	c #274143",
"a#	c #47B553",
"b#	c #82CC5D",
"c#	c #479248",
"d#	c #182A2F",
"e#	c #533C6C",
"f#	c #5C4376",
"g#	c #62497E",
"h#	c #4D3E66",
"i#	c #6E4E8C",
"j#	c #684C84",
"k#	c #493F62",
"l#	c #443D5C",
"m#	c #191E31",
"n#	c #417268",
"o#	c #39AD54",
"p#	c #27773F",
"q#	c #27763F",
"r#	c #2D8E45",
"s#	c #243C40",
"t#	c #3C6760",
"u#	c #325352",
"v#	c #714E82",
"w#	c #865C97",
"x#	c #4C3865",
"y#	c #38A054",
"z#	c #36AC4F",
"A#	c #1B1E32",
"B#	c #5B4176",
"C#	c #45345D",
"D#	c #644880",
"E#	c #755293",
"F#	c #5B4676",
"G#	c #755294",
"H#	c #664A82",
"I#	c #5E4579",
"J#	c #403958",
"K#	c #191E30",
"L#	c #407F65",
"M#	c #3AA557",
"N#	c #349A4E",
"O#	c #324649",
"P#	c #274244",
"Q#	c #305250",
"R#	c #5C4176",
"S#	c #6F4E8C",
"T#	c #43325B",
"U#	c #20333B",
"V#	c #3D7D61",
"W#	c #3C9E5A",
"X#	c #3C9C5B",
"Y#	c #306A4F",
"Z#	c #714D6C",
"`#	c #674771",
" $	c #2D2643",
".$	c #63467E",
"+$	c #6C4D89",
"@$	c #52406B",
"#$	c #5A4275",
"$$	c #47345E",
"%$	c #6A4A86",
"&$	c #5A4074",
"*$	c #332A49",
"=$	c #252F3E",
"-$	c #61457C",
";$	c #63467F",
">$	c #2A4848",
",$	c #312847",
"'$	c #2C2541",
")$	c #21363C",
"!$	c #503956",
"~$	c #72508E",
"{$	c #8C5F8C",
"]$	c #5F4370",
"^$	c #3E3555",
"/$	c #2B2641",
"($	c #62467E",
"_$	c #563E70",
":$	c #583F72",
"<$	c #4D3866",
"[$	c #26233C",
"}$	c #2A4748",
"|$	c #2F504E",
"1$	c #7C4359",
"2$	c #7E4256",
"3$	c #3E2F4B",
"4$	c #8E6085",
"5$	c #835A95",
"6$	c #8F618D",
"7$	c #674870",
"8$	c #624464",
"9$	c #5F4264",
"0$	c #4B3864",
"a$	c #673D54",
"b$	c #DC6473",
"c$	c #D56272",
"d$	c #55344A",
"e$	c #1C1E33",
"f$	c #493556",
"g$	c #865B7F",
"h$	c #734F84",
"i$	c #9F6B99",
"j$	c #926398",
"k$	c #794660",
"l$	c #B46280",
"m$	c #A05976",
"n$	c #2B2235",
"o$	c #1F1F36",
"p$	c #3D2E46",
"q$	c #332945",
"r$	c #211F31",
"s$	c #412B3F",
"t$	c #3B283C",
"                                                                                ",
"                                                                                ",
"                                                                                ",
"                                                                                ",
"                                .                                               ",
"                      +         @ # $                                 % &       ",
"            *         = - $   ; > $ $ $ $ $                           , '       ",
"              ) $   ! ~ { ] $ ^ / ( _ _ : < $                         , [ } |   ",
"    1 2     $ $ $ $ 3 4 5 6 7 8 9 0 a a b c d $                       , e f g   ",
"      h   $ i j k l m n o p q 9 r s t u v w x y z $ A B C             D E F G   ",
"    H I J K L M N O P Q R S T U V W X Y Z `  ...+.@.#.$.%.&.          *.=.-.;.  ",
"    >.,.'.).!.~.{.].^./.$ (._.$ :.<.[.}.|.1.2.$ 3.4.5.6.7.8.$           9.0.    ",
"  $ k a.a.'.b.c.d.e.f.g.h.i.j.k.l.m.n.o.p.q.r.s.t.u.v.o.w.x.$           $ y.$   ",
"    z.A.B.C.D.E.F.G.,.H.I.J.K.L.M.N.O.o.o.P.Q.R.S.T.U.V.W.X.$         Y.Z.$ $   ",
"    $ `. +.+++$ @+#+$+%+&+*+=+-+;+C >+,+,+'+)+!+~+{+2.]+^+/+$       (+_+:+<+[+  ",
"      }+|+.+1+2+3+4+5+6+9 7+8+9+0+a+b+c+d+e+f+g+h+i+j+k+l+m+n+      o+p+1 q+m   ",
"      $ r+.+.+s+$ t+u+9 9 v+w+x+y+z+A+A+B+C+n+D+E+F+G+H+$ I+J+$   $ K+L+M+N+$   ",
"    O+P+Q+R+S+T+$ U+9 0 V+W+X+Y+Z+`+ @.@.@+@Y+@@#@$@%@$           $ &@*@=@-@    ",
"    ;@>@,@'@)@!@$ ~@{@]@$ $ ^@/@(@_@:@<@[@}@|@1@2@3@4@5@6@        7@8@9@0@$     ",
"  a@b@c@d@e@f@g@i.$ $ h@i@i@j@k@l@m@n@o@Y+Y+.@p@~@q@r@s@s       $ t@u@v@w@$     ",
"  x@J.y@z@A@B@C@k.D@E@F@G@H@H@I@J@K@L@M@Y+Y+Y+N@O@P@$ $ $     Q@R@S@T@s+U@      ",
"  V@J.W@X@Y@Z@`@$  #y@.#$ +#u+@###$#%#&#m+Y+Y+Y+Y+*#=#-#;#>#,#'#)#!#~#{#$       ",
"  ]#J.^#/#J.J.(#]#_#:#:#<#[#9 9 0 }#|#1#x+2#D+D+3#4#5#6#7#8#9#0#( a#b#c#d#      ",
"  e#J.f#g#J.J.h#i#j#k#l#m#n#o#9 9 p#q#r#p@s#s#s#s#t#Y+u#v#w#x#P@y#9 9 z#%#      ",
"  A#B#C#D#J.E#F#G#H#I#J#K# @L#M#N#O#k.$ P#Y+Y+Y+Y+Y+Y+Q#R#S#T#U#V#W#X#Y#$       ",
"  Z#`# $.$J.+$@$J.#$$$%$&$*$w+w+=$-$;$}@2#Y+Y+Y+Y+Y+Y+>$,$'$$ $ )$n+S R@        ",
"  !$~${$]$y@I.j.y@^$/$($y@k._$_$:$<$[$^@}$'#'#'#'#'#|$$     -@1$2$$ $ $         ",
"    3$4$5$6$7$8$9$0$z@$ $ $ $ $ $ $ $ $ $ $ $ $ $ $ $     $ a$b$c$d$$           ",
"      e$f$g$h$i$j$:$A#$ $ $ $ $ $ $ $ $ $ $ $ $ $ $       $ k$l$m$n$            ",
"          $ o$p$q$A#$ $ $ $ $ $ $ $ $ $ $     $ $         $ r$s$t$$             ",
"                                  $ $ $                     $ $                 ",
"                                                                                ",
"                                                                                "};
