/* XPM */
static char * enemy_move_left01_xpm[] = {
"80 80 15 1",
" 	c None",
".	c #FFCFB4",
"+	c #161C2E",
"@	c #F76666",
"#	c #95D562",
"$	c #38B251",
"%	c #417168",
"&	c #FFFFFF",
"*	c #F4E341",
"=	c #D9945F",
"-	c #9E7466",
";	c #AB6282",
">	c #775396",
",	c #A8719A",
"'	c #433D5B",
"                                                                                ",
"                                                                                ",
"                                                                                ",
"                                                                                ",
"                                                                                ",
"                                                                                ",
"                                                                                ",
"                                                                                ",
"                                                                                ",
"                                                                                ",
"                                                                                ",
"                                                                                ",
"                                                                                ",
"                                                                                ",
"                                                                                ",
"                                                                                ",
"                                                                                ",
"                                                                                ",
"                                                                                ",
"                                                                                ",
"                                                                                ",
"                                                                                ",
"                                                                                ",
"                                                .++                             ",
"                                               +.       .++                     ",
"                                             +++++     +.                       ",
"                                             ++++++    +.       +               ",
"                                          ++++++++@++++++++   +..               ",
"                                          ++++++++++++@+++++ +++     +          ",
"                                         ++#$$$$$+++++@+@@++ ++      ..         ",
"                                       +++##$$$$$$$$$++@@+++++++++   ..         ",
"                                ++++  +++##$$+++$$$$$%++++++@++@++  +.          ",
"                              +++++++++$$$$+++++++$$$%+++++.@@+@@+++++          ",
"                             ++&&*&&++++++++&&&&+++$%%%+++.+@@@@@+@@+@++        ",
"                             +&&&*&=&++++++&&&&&&&+++%%%+@++++@@++@@+@@+        ",
"                --          ++&&***==&++++&&&*&=&&++++%%+@++@++;;+@@@@@+        ",
"               =-           ++&*****=&&+&&&****==&&>++++++@@@@+;++@@@@++        ",
"               =            ++&*****=&&+&&******=&&>>+>>>+@@@@+;+++@@@++        ",
"              ==            ++&&***&&&++&&******&&&>>+>>>+@@+++++;;;++++        ",
"              =*=            ++&&&&+++>+++&****&+++,,++++++;;+++;;;;;++         ",
"              =*=           +++++++++>>++++&&&&+++,,+++%$+++++++;;;;;+          ",
"             ==*==         ++%%++++,,>>+++>>++++,,,++%%%$$+++++;;;;;++          ",
"             =***=         +%%+++,,,+++%%+>>,,,,++++++%$$$$$+++;;;;+++          ",
"             =*&&=         ++++++++++$$%%%+++++++++%+++$$$$$+++;;;+++++         ",
"             +*&&*         ++++ ++++##$%%%%+++++++%%%+++$$$$$+++++++,,++        ",
"              +&&+               ++###$$%%+++++%$$$%%++++++$$$++>>,>>+++        ",
"              ++++            +++###$$$%++++%%%$$$$%%++++++++++>>>,>>+++        ",
"                ++  ++        ++$##$$$$+++%%%%$$$$$++++++++++++,>>,+++++        ",
"                +.+++..++     +++++++++%%%%%%%%++++,,,,,,++>+>>++++++>>>+       ",
"                ++++....++     ++++++++%%%%%%%+++,,,,,,,,++>+++++>++>>>>+       ",
"                 ++++...+++     ++++%%%%%%%%%+++,,,+++++++>>+++>>>>+>>>>+       ",
"                  +....;;;;++++++,+++%%%%%%%%++++++$$$++''''>>+>>>>''>>>+       ",
"                  ++..+;;@@;++++,,+%++%%%%%++$$++$$$$$+++'''>>+>>>>''>>>+       ",
"                  +++++;@@@;;;++,>+%+++++++++$$$$$$$$$+++'''>>'>>>>>'>>>+       ",
"                     ++++;;@@;+>>++%%%%%%%%++$++$$$$$$%++>>'>>>>>>>>+>>++       ",
"                      ++++;;;;+>>++%%%%%%%%+++++$$$$$%%++>>>>>>'>>>>+++++       ",
"                        +++;;+++>++%%%%%%%%%++>>+$$$%%+++>>>>>>'>>>>+++,+       ",
"                          ++++#++++%%%%%%%%%%++>++++++++>>++>>>++>>++>>>        ",
"                            ++$$$+++%%%%%%%%%+++>+++++>>>>+++++++++>,,>+        ",
"                             +++++++%%%%%%%%%++++>>>>>>>>++++++++,>>,,++        ",
"                                 +++++++++++++++++++++++++++>,,>>,,++++         ",
"                                 +++++++++++++++++++++++++++>>,>++++++          ",
"                              +  +++++++     +++++++++++++++++++++++            ",
"                              +++++          +++++++++                          ",
"                               +++            ++++++++                          ",
"                                 +                  ++                          ",
"                                                                                ",
"                                                                                ",
"                                                                                ",
"                                                                                ",
"                                                                                ",
"                                                                                ",
"                                                                                ",
"                                                                                ",
"                                                                                ",
"                                                                                ",
"                                                                                ",
"                                                                                ",
"                                                                                ",
"                                                                                "};
