/* XPM */
static char * enemy_move_left01_xpm[] = {
"40 33 464 2",
"  	c None",
". 	c #FDCDB2",
"+ 	c #76605A",
"@ 	c #161C2E",
"# 	c #9E8073",
"$ 	c #D2AB96",
"% 	c #D1AA95",
"& 	c #823840",
"* 	c #71323C",
"= 	c #9C4248",
"- 	c #291F2F",
"; 	c #78625B",
"> 	c #EEC1A8",
", 	c #345237",
"' 	c #1F5336",
") 	c #66363A",
"! 	c #362131",
"~ 	c #CC5557",
"{ 	c #5D2C38",
"] 	c #A04449",
"^ 	c #504345",
"/ 	c #B39181",
"( 	c #4F723F",
"_ 	c #7FC55B",
": 	c #38B251",
"< 	c #319B49",
"[ 	c #309748",
"} 	c #1D4B34",
"| 	c #BE4F52",
"1 	c #E65F60",
"2 	c #E35E5F",
"3 	c #FBCCB2",
"4 	c #182D30",
"5 	c #38713E",
"6 	c #63B353",
"7 	c #27773F",
"8 	c #23663A",
"9 	c #297E41",
"0 	c #35A64D",
"a 	c #389456",
"b 	c #203139",
"c 	c #8D3C43",
"d 	c #622D39",
"e 	c #6A524F",
"f 	c #B14A4E",
"g 	c #7D373F",
"h 	c #C75355",
"i 	c #492634",
"j 	c #D3AC96",
"k 	c #64656A",
"l 	c #DEDEDF",
"m 	c #DFDDD0",
"n 	c #B8B9BA",
"o 	c #256D3C",
"p 	c #319C4A",
"q 	c #27783F",
"r 	c #4D5B56",
"s 	c #ABABAD",
"t 	c #E1E1E2",
"u 	c #8B8C8E",
"v 	c #1B4233",
"w 	c #33A24C",
"x 	c #3E905F",
"y 	c #365D58",
"z 	c #493E41",
"A 	c #DFAE99",
"B 	c #EC6262",
"C 	c #EA6161",
"D 	c #F76666",
"E 	c #873A42",
"F 	c #7B363F",
"G 	c #402432",
"H 	c #682F3A",
"I 	c #67686D",
"J 	c #ECECED",
"K 	c #FCF7DE",
"L 	c #F8ECA6",
"M 	c #E2B499",
"N 	c #B1A8A5",
"O 	c #7E7F82",
"P 	c #DADADB",
"Q 	c #FAF3C6",
"R 	c #FBF6EF",
"S 	c #EFE6E1",
"T 	c #B8B8BA",
"U 	c #1B4132",
"V 	c #2E514E",
"W 	c #417168",
"X 	c #2C4A4A",
"Y 	c #A44A4D",
"Z 	c #644B4A",
"` 	c #A3454A",
" .	c #BD4F52",
"..	c #D15C65",
"+.	c #90404B",
"@.	c #F26464",
"#.	c #C35154",
"$.	c #EA6162",
"%.	c #542936",
"&.	c #D49160",
"*.	c #9E7466",
"=.	c #ABACAD",
"-.	c #FBF5D4",
";.	c #F4E345",
">.	c #F4E341",
",.	c #E4B755",
"'.	c #EED7CC",
").	c #9A9A9D",
"!.	c #949597",
"~.	c #F8F8F8",
"{.	c #FCF9E4",
"].	c #F6E87D",
"^.	c #EDD16F",
"/.	c #DC9E74",
"(.	c #F3EEEC",
"_.	c #5B5768",
":.	c #1B1E32",
"<.	c #22393E",
"[.	c #1D2C36",
"}.	c #6C313B",
"|.	c #C55255",
"1.	c #F46565",
"2.	c #984653",
"3.	c #A15C7B",
"4.	c #9A4754",
"5.	c #E96061",
"6.	c #4C2734",
"7.	c #D8945F",
"8.	c #F4E349",
"9.	c #F4E344",
"0.	c #EFD8AC",
"a.	c #F1E4DD",
"b.	c #D3D3D4",
"c.	c #FDFBEC",
"d.	c #F5E457",
"e.	c #F3E043",
"f.	c #E2B380",
"g.	c #FCF8F7",
"h.	c #746685",
"i.	c #543C6E",
"j.	c #6D4D8B",
"k.	c #6C4C89",
"l.	c #502835",
"m.	c #DD5B5D",
"n.	c #89404D",
"o.	c #7D4963",
"p.	c #6D3D52",
"q.	c #B05465",
"r.	c #CF585C",
"s.	c #A5454B",
"t.	c #D9945F",
"u.	c #DEA75A",
"v.	c #484A52",
"w.	c #E0E0E1",
"x.	c #FEFCF1",
"y.	c #FDFBF0",
"z.	c #CACACB",
"A.	c #65656C",
"B.	c #493662",
"C.	c #737478",
"D.	c #EFEDE2",
"E.	c #F5E66E",
"F.	c #F7EB98",
"G.	c #EDE9E6",
"H.	c #AFAFB1",
"I.	c #875E81",
"J.	c #6C4B76",
"K.	c #5F437A",
"L.	c #4B3763",
"M.	c #241E2F",
"N.	c #9C526A",
"O.	c #9F5975",
"P.	c #3B283C",
"Q.	c #9F5B79",
"R.	c #AB6282",
"S.	c #985775",
"T.	c #352639",
"U.	c #DA985E",
"V.	c #F1DC45",
"W.	c #465557",
"X.	c #5B5D62",
"Y.	c #5C5D63",
"Z.	c #724E6C",
"`.	c #724F83",
" +	c #64467F",
".+	c #635973",
"++	c #BCB5B9",
"@+	c #C8C6BC",
"#+	c #AFAEA6",
"$+	c #7D6479",
"%+	c #875B7D",
"&+	c #99678D",
"*+	c #3D414C",
"=+	c #2D4E4D",
"-+	c #3A915A",
";+	c #2E8E45",
">+	c #422B3F",
",+	c #5E394F",
"'+	c #75455E",
")+	c #794760",
"!+	c #E7BF58",
"~+	c #F6E988",
"{+	c #E4B855",
"]+	c #2A4848",
"^+	c #583D57",
"/+	c #A36E96",
"(+	c #95648A",
"_+	c #6B4A73",
":+	c #212939",
"<+	c #553D6F",
"[+	c #835A96",
"}+	c #9B688F",
"|+	c #815879",
"1+	c #382B40",
"2+	c #264043",
"3+	c #38B052",
"4+	c #2D8D45",
"5+	c #4F3146",
"6+	c #A96181",
"7+	c #945572",
"8+	c #1E1E30",
"9+	c #D2B854",
"0+	c #FFFEFD",
"a+	c #E7D5B2",
"b+	c #171F2F",
"c+	c #192432",
"d+	c #161D2E",
"e+	c #292437",
"f+	c #293134",
"g+	c #6AB053",
"h+	c #3B9B59",
"i+	c #375D59",
"j+	c #293541",
"k+	c #242134",
"l+	c #37605A",
"m+	c #274244",
"n+	c #329F4B",
"o+	c #2D8C45",
"p+	c #3E293D",
"q+	c #804A65",
"r+	c #452D41",
"s+	c #6F4C6A",
"t+	c #634460",
"u+	c #31333C",
"v+	c #E3E3E4",
"w+	c #AEAEAF",
"x+	c #1D282F",
"y+	c #84BD59",
"z+	c #8FD261",
"A+	c #3E8C61",
"B+	c #365E59",
"C+	c #315451",
"D+	c #3E8C60",
"E+	c #38B151",
"F+	c #3E8B61",
"G+	c #3A655E",
"H+	c #171E2F",
"I+	c #161E2E",
"J+	c #23673A",
"K+	c #33A14B",
"L+	c #2F2745",
"M+	c #634572",
"N+	c #865B90",
"O+	c #815996",
"P+	c #684868",
"Q+	c #4F4244",
"R+	c #2A8142",
"S+	c #92D361",
"T+	c #6FC359",
"U+	c #37B050",
"V+	c #309149",
"W+	c #22373D",
"X+	c #2B4A4A",
"Y+	c #3C9A5C",
"Z+	c #37AF50",
"`+	c #378056",
" @	c #202032",
".@	c #181D2F",
"+@	c #222137",
"@@	c #795384",
"#@	c #845B95",
"$@	c #93638D",
"%@	c #47355F",
"&@	c #1F1F36",
"*@	c #1C1E33",
"=@	c #B79584",
"-@	c #685652",
";@	c #C5A08D",
">@	c #205B38",
",@	c #297D40",
"'@	c #1F5737",
")@	c #1E2E37",
"!@	c #355C58",
"~@	c #378557",
"{@	c #333C3E",
"]@	c #5F425D",
"^@	c #A7719A",
"/@	c #A8719A",
"(@	c #714D6C",
"_@	c #493661",
":@	c #4A3662",
"<@	c #74508C",
"[@	c #6F4C6F",
"}@	c #362B4C",
"|@	c #1A1E32",
"1@	c #3D2F54",
"2@	c #745192",
"3@	c #5E4379",
"4@	c #A68779",
"5@	c #FFCFB4",
"6@	c #E2B7A0",
"7@	c #2D2639",
"8@	c #274143",
"9@	c #345A56",
"0@	c #3C6961",
"a@	c #1C2B36",
"b@	c #754F6E",
"c@	c #9D6A91",
"d@	c #775171",
"e@	c #704C6A",
"f@	c #202037",
"g@	c #644780",
"h@	c #342A4B",
"i@	c #503A69",
"j@	c #714F8F",
"k@	c #583F72",
"l@	c #6B4C88",
"m@	c #775396",
"n@	c #61447C",
"o@	c #1A1D31",
"p@	c #4E4143",
"q@	c #D2AA95",
"r@	c #FCCCB2",
"s@	c #D19B98",
"t@	c #A65D7B",
"u@	c #85475D",
"v@	c #39273B",
"w@	c #805778",
"x@	c #644561",
"y@	c #375F5A",
"z@	c #3E6C64",
"A@	c #2E544D",
"B@	c #1B3F32",
"C@	c #45334A",
"D@	c #314A3E",
"E@	c #2D8B44",
"F@	c #2E9046",
"G@	c #1A3A31",
"H@	c #27273D",
"I@	c #36334D",
"J@	c #3D3554",
"K@	c #60447B",
"L@	c #3B2D51",
"M@	c #664882",
"N@	c #6A4D88",
"O@	c #594573",
"P@	c #302746",
"Q@	c #876E64",
"R@	c #91766B",
"S@	c #955673",
"T@	c #D76474",
"U@	c #F0666A",
"V@	c #B25D76",
"W@	c #70425A",
"X@	c #9F6B97",
"Y@	c #61456C",
"Z@	c #3B665F",
"`@	c #1D2E37",
" #	c #2B4949",
".#	c #35A94E",
"+#	c #256E3C",
"@#	c #37AE50",
"##	c #326D50",
"$#	c #191E31",
"%#	c #493F61",
"&#	c #4B4064",
"*#	c #53406D",
"=#	c #694B86",
"-#	c #735191",
";#	c #4E3E67",
">#	c #725090",
",#	c #735192",
"'#	c #2D2643",
")#	c #5B374D",
"!#	c #87485D",
"~#	c #D26273",
"{#	c #E36570",
"]#	c #8F4F68",
"^#	c #46345D",
"/#	c #765395",
"(#	c #182030",
"_#	c #3C6760",
":#	c #23393E",
"<#	c #287A40",
"[#	c #28783F",
"}#	c #39AD53",
"|#	c #417268",
"1#	c #634A7F",
"2#	c #60497C",
"3#	c #694C85",
"4#	c #674B83",
"5#	c #3D3154",
"6#	c #654781",
"7#	c #3F3056",
"8#	c #935471",
"9#	c #645751",
"0#	c #353348",
"a#	c #704E8D",
"b#	c #1A2633",
"c#	c #543C6D",
"d#	c #324848",
"e#	c #349D4E",
"f#	c #3AA657",
"g#	c #3F8064",
"h#	c #325753",
"i#	c #191E30",
"j#	c #5A4374",
"k#	c #6B4B88",
"l#	c #6F4F8C",
"m#	c #4F3F68",
"n#	c #382C4E",
"o#	c #392D50",
"p#	c #845A81",
"q#	c #392B41",
"r#	c #587E43",
"s#	c #59954A",
"t#	c #344F4B",
"u#	c #3E6B63",
"v#	c #5C4277",
"w#	c #25303E",
"x#	c #312847",
"y#	c #1D2034",
"z#	c #5B4376",
"A#	c #5F447A",
"B#	c #25223B",
"C#	c #714E70",
"D#	c #825A95",
"E#	c #664778",
"F#	c #215C38",
"G#	c #1C4834",
"H#	c #20343B",
"I#	c #39625C",
"J#	c #284345",
"K#	c #3A2D51",
"L#	c #563E70",
"M#	c #674883",
"N#	c #523B6B",
"O#	c #372B4D",
"P#	c #49355C",
"Q#	c #4D385C",
"R#	c #865B80",
"S#	c #79538C",
"T#	c #936392",
"U#	c #7A5377",
"V#	c #1E1F34",
"W#	c #78538F",
"X#	c #A46E9A",
"Y#	c #845B93",
"Z#	c #855B83",
"`#	c #775177",
" $	c #322948",
".$	c #2E2744",
"+$	c #47344F",
"@$	c #3A2C48",
"                                                                                ",
"                                                                                ",
"                                            . +                                 ",
"                                          @ #         $ %                       ",
"                                        @ & * = -   @ ; @       >               ",
"                                    @ , ' ' ' ) ! @ ~ { ] @   ^ /               ",
"                                  @ ( _ : : : < [ } | 1 2 @ @ @ @       3       ",
"                        @ @ @   4 5 _ 6 7 8 9 0 : a b c d e f g h i   @ j       ",
"                      k l m n @ o p q r s t u v w x y @ z A B C D E F G H       ",
"                    I J K L M N @ @ O P Q R S T U V W X Y Z `  ...+.@.#.$.%.    ",
"  &.*.              =.-.;.>.,.'.).!.~.{.].^./.(._.:.<.[.}.|.1.2.3.4.D D 5.6.    ",
"  7.                =.K 8.9.0.a.u b.c.d.>.e.f.g.h.i.j.k.l.D m.n.o.p.q.r.s.@     ",
"t.u.                v.w.x.y.z.A.B.C.D.E.>.F.G.H.I.J.K.L.M.N.O.@ P.Q.R.S.T.      ",
"U.V.t.            @ X W.X.Y.Z.`. +@ .+++@+#+$+%+&+*+=+-+;+>+,+@ '+R.R.)+@       ",
"!+~+{+            X W ]+^+/+(+_+:+X <+[+/+/+}+|+1+2+W 3+: 4+@ 5+6+R.7+8+@       ",
"9+0+a+            b+c+d+@ e+f+g+h+W i+j+e+e+k+<.l+m+c+n+: : o+p+q+q+r+s+t+      ",
"u+v+w+                    x+y+z+: A+B+C+C+B+D+E+F+G+H+I+J+K+E+o L+M+N+O+P+@     ",
"  @ Q+                @ R+S+T+U+V+W+X+y W Y+: Z+`+2+e+e+ @@ .@+@@@#@$@%@&@*@    ",
"    =@@ -@;@; @       @ >@,@,@'@)@!@W W W ~@,@{@]@|+^@/@(@_@:@<@[@}@|@1@2@3@    ",
"    @ @ 4@5@6@T.@       7@@ 8@9@0@W W W 0@a@b@c@d@Z.Z.e@f@g@h@@ i@j@k@l@m@n@o@  ",
"      p@q@r@s@t@u@v@@ @ w@x@a@y@W W W z@A@B@C@D@E@F@G@H@I@J@K@L@M@m@N@O@m@m@P@  ",
"      @ Q@R@S@T@U@V@W@@ X@Y@Z@`@ # # #`@4+.#+#@#: : ##$#%#&#m@*#=#m@-#;#>#,#'#  ",
"          @ )#!#~#{#]#^#/#(#W _#y@y@y@:#F@<#[#: : }#|#$#1#2#m@3#4#m@m@5#6#7#@   ",
"              @ )#8#9#0#a#(#W W W W W y@b#c#d#e#f#g#h#i#j#k#2@l#m#m@m@n#o#p#q#  ",
"                @ @ r#s#t#b+u#W W W W W 9@7#v#w#8@8@x#k@g@y#z#A#B#n@g@C#D#E#    ",
"                    @ F#G#@ H#I#I#I#I#I#J#@ K#c#L#L#K.M#N#O#P#]@Q#R#S#T#U#V#    ",
"                          @ @ @ @ @ @ @ @ @ @ @ @ @ @ @ @ n#W#X#Y#Z#`# $@       ",
"                      @ @ @ @ @ @ @     @ @ @ @ @ @ @ @ @ @ .$+$@$@ @           ",
"                      @ @ @               @ @ @ @ @                             ",
"                        @ @                       @                             ",
"                                                                                ",
"                                                                                ",
"                                                                                "};
