/* XPM */
static char * enemy_move_left00_xpm[] = {
"80 80 15 1",
" 	c None",
".	c #161C2E",
"+	c #FFCFB4",
"@	c #F76666",
"#	c #F4E341",
"$	c #95D562",
"%	c #38B251",
"&	c #FFFFFF",
"*	c #D9945F",
"=	c #417168",
"-	c #AB6282",
";	c #775396",
">	c #A8719A",
",	c #9E7466",
"'	c #433D5B",
"                                                                                ",
"                                                                                ",
"                                                                                ",
"                                                                                ",
"                                                                                ",
"                                                                                ",
"                                                                                ",
"                                                                                ",
"                                                                                ",
"                                                                                ",
"                                                                                ",
"                                                                                ",
"                                                                                ",
"                                                                                ",
"                                                                                ",
"                                                                                ",
"                                                                                ",
"                                                                                ",
"                                                                                ",
"                                                                                ",
"                                                                                ",
"                                                                                ",
"                                                                                ",
"                                                                                ",
"                                                                                ",
"                                                 ...                            ",
"                                               .+       +..                     ",
"                                              ....     .+                       ",
"                                             .......   .                        ",
"                                          .......@@........  .++                ",
"                                         .............@.@..  ...    .           ",
"                ..###                   ..$%%%%%%%%..@@@@@......    ++          ",
"                ###&&&                ...$$%%%%%%%%%..@@@........   ++          ",
"                ####&*.       .........%%%.......%%%=..-...@@.@@.....           ",
"                *##**..       ..&&&...%%%...&&&..%%%=..-..+@@@@@......          ",
"                ****...      ..&&#&&.......&&&&...%===.-..+.@@@@..@.@..         ",
"                **..+       ..&&###**....&&&#&*&&...==..@@.@@..-.@@@@@.         ",
"                **++        ..&####**&..&&&&##**&.......@@@@@.--.@@@@@.         ",
"                 .....      ..&####**&..&&#####*&.;;;;;.@@@@@.--..@@@..         ",
"                 ......     ..&&###&&...&&#####&&.;;;;;...@@....---....         ",
"             ***....+++      ..&&&&..;;..&####&..>>>.....----...----..          ",
"             ***..+++++.    .........;;...&&&&...>>...%%..--....----.           ",
"             ** ..+++++.    .==....>>;...;;....>>>..==%%...-...----..           ",
"                 ...---.   .==...>>....=..;>>>>.....==%%%%....----...           ",
"                  ..---..  ..........%===.........=...%%%%%...----....          ",
"            ,     .-@@@..       ...$$%%%=======%%===....%%%%......;;>..         ",
"            ,     .-@@@..       ...$$%%%=.....=%%%==.....%%%....;>;;...         ",
"            ,     ..-@@-.     ..%$$%%%...====%%%%=...........;>>;>.....         ",
"                  ..-@@-..    ..%%%%%...=====%%%....>>>>.....;>>....;;;         ",
"                  ..-@@-....  .........=======....>>>>>>..;;.;......;;;.        ",
"                   .......=.    ...=========...>>........;;....;;;.;;;;.        ",
"                   ....$%.==.  .>...========...>...............;;;'';;;.        ",
"                  ..%$$%%..=....>>...=====..%%..%%%%%..'''';;..;;;'';;;.        ",
"                  ..%%%%%%.....;>;.=........%%%%%%%%=..'''';;'';;;;';;;.        ",
"                  ..%%%%%%=....;;..==.......%%%%%%%%==.'';';;'';;;;';;;.        ",
"                   ..%%%%=..  .;;..=======.....%%%%%==.'';;;;;'';;;.....        ",
"                   ..=====..  ..;..========..;;.%%%==...';;;;;'';;;...>.        ",
"                    .........  ....=========..;.......;;..'';;..;;..;;;         ",
"                    .........   ...=========...;.....;;;..'.......;>>;.         ",
"                     ...-@--..    .........................;;>>;>>;;...         ",
"                       .-@@-..     ........................;;>>;>>....          ",
"                       .-@@-..      ........................;>>;.....           ",
"                       ..---..           ...   ...  ............                ",
"                       .......        .. ...    ..                              ",
"                         ...          ....                                      ",
"                                       ...                                      ",
"                                                                                ",
"                                                                                ",
"                                                                                ",
"                                                                                ",
"                                                                                ",
"                                                                                ",
"                                                                                ",
"                                                                                ",
"                                                                                ",
"                                                                                ",
"                                                                                ",
"                                                                                ",
"                                                                                ",
"                                                                                "};
