/* XPM */
static char * enemy_move_left00_xpm[] = {
"40 33 517 2",
"  	c None",
". 	c #C29E8B",
"+ 	c #DCB29C",
"@ 	c #F7C8AE",
"# 	c #342131",
"$ 	c #271E2F",
"% 	c #4D2735",
"& 	c #261E2F",
"* 	c #4D4143",
"= 	c #F1C4AB",
"- 	c #5F5931",
"; 	c #161C2E",
"> 	c #B84D51",
", 	c #A9474C",
"' 	c #EA6162",
") 	c #A14449",
"! 	c #462533",
"~ 	c #442533",
"{ 	c #D0A994",
"] 	c #FACBB1",
"^ 	c #987146",
"/ 	c #E5D766",
"( 	c #F6E778",
"_ 	c #F6E87C",
": 	c #304B35",
"< 	c #1D4D35",
"[ 	c #65373A",
"} 	c #A04349",
"| 	c #7D363F",
"1 	c #E15D5E",
"2 	c #C15054",
"3 	c #873A42",
"4 	c #E5BB54",
"5 	c #F6E98A",
"6 	c #FBF6D7",
"7 	c #FAF9F5",
"8 	c #48683C",
"9 	c #80C45B",
"0 	c #38B251",
"a 	c #319A49",
"b 	c #2F9447",
"c 	c #EC6162",
"d 	c #F66666",
"e 	c #DF5C5D",
"f 	c #672F3A",
"g 	c #332131",
"h 	c #622D39",
"i 	c #412432",
"j 	c #C09C8A",
"k 	c #FFCFB4",
"l 	c #D9945F",
"m 	c #E6BE53",
"n 	c #EDD14B",
"o 	c #DFB056",
"p 	c #BC9D7E",
"q 	c #17282F",
"r 	c #33693B",
"s 	c #80C35B",
"t 	c #68B755",
"u 	c #297D40",
"v 	c #246B3B",
"w 	c #297F41",
"x 	c #35A74D",
"y 	c #389655",
"z 	c #20323A",
"A 	c #894455",
"B 	c #C46279",
"C 	c #56354A",
"D 	c #77615B",
"E 	c #DB8278",
"F 	c #D3575A",
"G 	c #DC5B5D",
"H 	c #C35154",
"I 	c #63524F",
"J 	c #D8935E",
"K 	c #B78564",
"L 	c #DDAC8F",
"M 	c #EDB99A",
"N 	c #5B5D62",
"O 	c #D8D8D9",
"P 	c #DBD9CE",
"Q 	c #B8B8B9",
"R 	c #246A3B",
"S 	c #329E4A",
"T 	c #297E41",
"U 	c #44584F",
"V 	c #A1A2A4",
"W 	c #DDDDDE",
"X 	c #8D8D90",
"Y 	c #1B4233",
"Z 	c #33A14B",
"` 	c #3D935E",
" .	c #365D59",
"..	c #191D2F",
"+.	c #A86080",
"@.	c #2C1F30",
"#.	c #BA8E7E",
"$.	c #9E5B58",
"%.	c #F76666",
"&.	c #C95356",
"*.	c #984047",
"=.	c #B24A4F",
"-.	c #A2444A",
";.	c #6D5A55",
">.	c #886F65",
",.	c #606166",
"'.	c #E7E7E7",
").	c #FCF9E3",
"!.	c #F8EEAC",
"~.	c #E3B79E",
"{.	c #B2A9A6",
"].	c #75767A",
"^.	c #D3D3D4",
"/.	c #FAF4CB",
"(.	c #FCF7F0",
"_.	c #EFE6E2",
":.	c #BABABB",
"<.	c #2F544E",
"[.	c #417067",
"}.	c #2C4B4B",
"|.	c #5F384E",
"1.	c #BF4F53",
"2.	c #BB4E52",
"3.	c #A14D5E",
"4.	c #925069",
"5.	c #DE5C5D",
"6.	c #EE6263",
"7.	c #F36465",
"8.	c #9C7365",
"9.	c #79635C",
"0.	c #5E4E4C",
"a.	c #A4A4A6",
"b.	c #FCF7DA",
"c.	c #F4E44A",
"d.	c #F4E341",
"e.	c #E4B855",
"f.	c #EDD4C8",
"g.	c #9D9EA0",
"h.	c #89898C",
"i.	c #F6F6F6",
"j.	c #FDFAE8",
"k.	c #F6E986",
"l.	c #EED473",
"m.	c #DC9F74",
"n.	c #F1EBE8",
"o.	c #64616E",
"p.	c #1E1F34",
"q.	c #243B3F",
"r.	c #1E2F38",
"s.	c #E86061",
"t.	c #F46565",
"u.	c #935571",
"v.	c #6C4058",
"w.	c #BE4F53",
"x.	c #F16464",
"y.	c #7C363F",
"z.	c #4A393D",
"A.	c #806960",
"B.	c #C19C8A",
"C.	c #BE9A88",
"D.	c #DEB49E",
"E.	c #FCF8E0",
"F.	c #F4E44E",
"G.	c #EFD8A6",
"H.	c #F2E2DB",
"I.	c #949497",
"J.	c #CDCECE",
"K.	c #FEFBF0",
"L.	c #F5E55D",
"M.	c #F3E043",
"N.	c #E2B27A",
"O.	c #FBF6F4",
"P.	c #7D728C",
"Q.	c #563E70",
"R.	c #6A4A87",
"S.	c #6C4C89",
"T.	c #1E1E30",
"U.	c #85465A",
"V.	c #C85B69",
"W.	c #D9616E",
"X.	c #793A48",
"Y.	c #462D41",
"Z.	c #5E394F",
"`.	c #9C5A77",
" +	c #AB5A73",
".+	c #8C4453",
"++	c #2F2030",
"@+	c #A68778",
"#+	c #EABEA6",
"$+	c #4D4F56",
"%+	c #DEDFDF",
"&+	c #FDFBEF",
"*+	c #FDFBED",
"=+	c #D1D2D2",
"-+	c #707075",
";+	c #483560",
">+	c #717276",
",+	c #EFEEE4",
"'+	c #F5E66F",
")+	c #F7EA8F",
"!+	c #EFEBE6",
"~+	c #845E7F",
"{+	c #6F4D79",
"]+	c #5F447B",
"^+	c #4F3A68",
"/+	c #1A1D2F",
"(+	c #8B506C",
"_+	c #AB6282",
":+	c #A7607F",
"<+	c #56344A",
"[+	c #8F536F",
"}+	c #57354B",
"|+	c #232331",
"1+	c #8F6B6B",
"2+	c #DEA9A0",
"3+	c #966572",
"4+	c #2A4748",
"5+	c #4B585B",
"6+	c #67686D",
"7+	c #6E4B69",
"8+	c #6F4D7F",
"9+	c #674983",
"0+	c #675E75",
"a+	c #BDB6B8",
"b+	c #CCCABC",
"c+	c #B7B5AB",
"d+	c #7F6B7D",
"e+	c #825879",
"f+	c #9B688F",
"g+	c #464250",
"h+	c #398D59",
"i+	c #2E8F46",
"j+	c #402B3E",
"k+	c #9F5B79",
"l+	c #8E526E",
"m+	c #70425A",
"n+	c #A96180",
"o+	c #804A64",
"p+	c #211F31",
"q+	c #8C4E68",
"r+	c #CB6379",
"s+	c #9D5A78",
"t+	c #2D4C4C",
"u+	c #553B55",
"v+	c #9F6B92",
"w+	c #97668C",
"x+	c #704D78",
"y+	c #23273B",
"z+	c #2B494A",
"A+	c #533C6C",
"B+	c #815995",
"C+	c #A06C94",
"D+	c #9C6990",
"E+	c #845A7C",
"F+	c #423147",
"G+	c #263F42",
"H+	c #407067",
"I+	c #39AF53",
"J+	c #2E8E45",
"K+	c #422B3F",
"L+	c #A15C7B",
"M+	c #3F2A3E",
"N+	c #944F66",
"O+	c #BC5C6F",
"P+	c #182130",
"Q+	c #1B2934",
"R+	c #171E2F",
"S+	c #33283D",
"T+	c #2A2837",
"U+	c #69AC51",
"V+	c #3A9B58",
"W+	c #417168",
"X+	c #375C59",
"Y+	c #303847",
"Z+	c #34293E",
"`+	c #2D2539",
" @	c #21353C",
".@	c #365D58",
"+@	c #284446",
"@@	c #1B2834",
"#@	c #329F4B",
"$@	c #2D8D45",
"%@	c #2E2336",
"&@	c #352639",
"*@	c #402E4D",
"=@	c #6C4B7C",
"-@	c #A06C95",
";@	c #3D2E43",
">@	c #874E69",
",@	c #DF6571",
"'@	c #C35F74",
")@	c #513247",
"!@	c #81B857",
"~@	c #92D361",
"{@	c #3E8E60",
"]@	c #38605B",
"^@	c #315451",
"/@	c #305350",
"(@	c #355C57",
"_@	c #3D8860",
":@	c #38AF51",
"<@	c #3E8C61",
"[@	c #3A655F",
"}@	c #182131",
"|@	c #17262F",
"1@	c #23683B",
"2@	c #26713D",
"3@	c #5F4263",
"4@	c #6E4D8C",
"5@	c #9D6A97",
"6@	c #815997",
"7@	c #533C69",
"8@	c #6A3F57",
"9@	c #C7637A",
"0@	c #BB637E",
"a@	c #643C53",
"b@	c #91D261",
"c@	c #72C45A",
"d@	c #39B251",
"e@	c #31974A",
"f@	c #233B3F",
"g@	c #2A4647",
"h@	c #345B56",
"i@	c #3C975D",
"j@	c #388657",
"k@	c #284345",
"l@	c #161F2E",
"m@	c #181E30",
"n@	c #63467F",
"o@	c #9B6998",
"p@	c #7F578E",
"q@	c #755074",
"r@	c #3B2D43",
"s@	c #3A2D50",
"t@	c #573F71",
"u@	c #25223B",
"v@	c #664554",
"w@	c #744E5C",
"x@	c #172030",
"y@	c #205A38",
"z@	c #2A8141",
"A@	c #215C38",
"B@	c #345A56",
"C@	c #398759",
"D@	c #294039",
"E@	c #573D57",
"F@	c #7E5576",
"G@	c #5B3F5A",
"H@	c #212037",
"I@	c #6D4D8B",
"J@	c #34294A",
"K@	c #362B4D",
"L@	c #4D3866",
"M@	c #392C4F",
"N@	c #735192",
"O@	c #775396",
"P@	c #26233C",
"Q@	c #32743E",
"R@	c #88C45B",
"S@	c #87C95D",
"T@	c #205837",
"U@	c #335854",
"V@	c #3B6760",
"W@	c #3D6A63",
"X@	c #714D6B",
"Y@	c #936388",
"Z@	c #75506F",
"`@	c #A26D95",
" #	c #553C55",
".#	c #24233A",
"+#	c #553E6E",
"@#	c #3C2F53",
"##	c #24223A",
"$#	c #3E2F55",
"%#	c #54416D",
"&#	c #745292",
"*#	c #493661",
"=#	c #1A3831",
"-#	c #5CBC56",
";#	c #4EB854",
">#	c #33A04B",
",#	c #375F59",
"'#	c #274244",
")#	c #5D415C",
"!#	c #634460",
"~#	c #1A2733",
"{#	c #37605A",
"]#	c #3F6E65",
"^#	c #30554F",
"/#	c #1A3A31",
"(#	c #443249",
"_#	c #5F545E",
":#	c #2B8643",
"<#	c #1A3C32",
"[#	c #2A2A41",
"}#	c #433D5B",
"|#	c #684C84",
"1#	c #6D4C8A",
"2#	c #403258",
"3#	c #52436C",
"4#	c #6F4F8C",
"5#	c #5B4175",
"6#	c #1A3732",
"7#	c #39AC54",
"8#	c #38A154",
"9#	c #21363C",
"0#	c #7A5376",
"a#	c #3B6660",
"b#	c #1C2B36",
"c#	c #1F3139",
"d#	c #2C8743",
"e#	c #35A94E",
"f#	c #246C3C",
"g#	c #36AD4F",
"h#	c #327250",
"i#	c #33304A",
"j#	c #473E5F",
"k#	c #574571",
"l#	c #70508E",
"m#	c #55446F",
"n#	c #684C85",
"o#	c #503B69",
"p#	c #745193",
"q#	c #403057",
"r#	c #366258",
"s#	c #3E8D61",
"t#	c #3A705D",
"u#	c #1D2D37",
"v#	c #8A5E97",
"w#	c #3E2F53",
"x#	c #233A3F",
"y#	c #2A8041",
"z#	c #27763E",
"A#	c #417567",
"B#	c #171F30",
"C#	c #302E46",
"D#	c #493F61",
"E#	c #755294",
"F#	c #725190",
"G#	c #5B4675",
"H#	c #63467E",
"I#	c #322948",
"J#	c #4B365B",
"K#	c #392C41",
"L#	c #192331",
"M#	c #294647",
"N#	c #765295",
"O#	c #1A2633",
"P#	c #583F72",
"Q#	c #35494B",
"R#	c #349D4D",
"S#	c #3AA856",
"T#	c #3F8463",
"U#	c #161D2F",
"V#	c #191E31",
"W#	c #453E5D",
"X#	c #674B83",
"Y#	c #664B83",
"Z#	c #4B3963",
"`#	c #644780",
" $	c #5D4277",
".$	c #543C63",
"+$	c #75518A",
"@$	c #785274",
"#$	c #272133",
"$$	c #874C65",
"%$	c #733E52",
"&$	c #1F1F35",
"*$	c #513B6A",
"=$	c #60447B",
"-$	c #26313F",
";$	c #284445",
">$	c #2E2744",
",$	c #3C2E53",
"'$	c #2B2A41",
")$	c #3C3854",
"!$	c #36304C",
"~$	c #45345D",
"{$	c #2A2440",
"]$	c #3B2D49",
"^$	c #654774",
"/$	c #745081",
"($	c #A06C97",
"_$	c #65477A",
":$	c #202036",
"<$	c #482E42",
"[$	c #CF6477",
"}$	c #DE626D",
"|$	c #533348",
"1$	c #315552",
"2$	c #28233E",
"3$	c #62467E",
"4$	c #684984",
"5$	c #704E8D",
"6$	c #62457D",
"7$	c #865B86",
"8$	c #8A5E87",
"9$	c #7D568A",
"0$	c #9F6B99",
"a$	c #745189",
"b$	c #624463",
"c$	c #262236",
"d$	c #AF6281",
"e$	c #BC637D",
"f$	c #5F3950",
"g$	c #161D2E",
"h$	c #253E41",
"i$	c #3A2D51",
"j$	c #3F3056",
"k$	c #3D2F54",
"l$	c #785284",
"m$	c #895D86",
"n$	c #523B64",
"o$	c #583E58",
"p$	c #282133",
"q$	c #804B65",
"r$	c #302437",
"                                                                                ",
"                                            . +         @                       ",
"                                          # $ % &     * =                       ",
"      -                                 ; > , ' ) ; ! ~ ~ ;     { ]             ",
"    ^ / ( _                       ; : < < < [ } | ; 1 2 1 3   ; ;               ",
"    4 5 6 7                     ; 8 9 0 0 0 a b < ; c d e f g ! h i     j k     ",
"  l m n o p ;         ; ; ;   q r s t u v w x 0 y z A B C D E F G H ; ; I       ",
"  J K L M           N O P Q ; R S T U V W X Y Z `  ...+.@.#.$.1 %.&.*.=.-.|     ",
"    ;.>.          ,.'.).!.~.{.; ; ].^./.(._.:.Y <.[.}.|.1.2.=., 3.4.5.6.7.H ;   ",
"8.; ; 9.0.        a.b.c.d.e.f.g.h.i.j.k.l.m.n.o.p.q.r.# s.t.6.1 u.v.w.x.%.y.    ",
"z.A.B.C.D.;       a.E.F.d.G.H.I.J.K.L.d.M.N.O.P.Q.R.S.T.U.V.W.X.Y.Z.`. +.+++    ",
"; @+k k #+;       $+%+&+*+=+-+;+>+,+'+d.)+!+Q ~+{+]+^+/+(+_+:+<+; [+_+_+}+      ",
"; |+1+2+3+;       4+5+6+6+7+8+9+; 0+a+b+c+d+e+f+g+}.h+i+j+k+l+; m+n+_+o+p+      ",
"  ; q+r+s+;     4+[.t+u+v+w+x+y+z+A+B+C+C+D+E+F+G+H+I+0 J+K+C ; u._+L+M+;       ",
"  ; N+d O+;     P+Q+R+; S+T+U+V+W+X+Y+Z+Z+`+ @.@+@@@#@0 0 $@; ; %@&@*@=@-@;@    ",
"  ; >@,@'@)@            ; !@~@0 {@]@^@/@(@_@:@<@[@}@|@1@Z 0 2@; 3@4@5@6@7@..    ",
"  ; 8@9@0@a@        ; w b@c@d@e@f@g@h@W+i@0 0 j@k@; ; ; l@P+m@n@o@p@q@r@s@t@u@  ",
"  ; ; v@w@; x@      ; y@z@z@A@@@B@W+W+W+C@z@D@E@F@F@F@G@H@S.I@;+J@K@L@M@N@O@P@  ",
"  l@Q@R@S@T@^@P+      ; ; G+U@V@W+W+W+W@r.X@C+Y@Z@Z@`@ #.#+#@###$#O@O@%#&#O@*#  ",
"  =#0 -#;#>#,#'#      )#!#~#{#W+W+W+]#^#/#(#_#:#$@<#; [#}#}#|#1#2#O@O@3#4#O@5#  ",
"  6#7#0 0 8#9#; ;   u@Y@0#a#b#}.}.}.c#d#e#f#g#0 0 h#; i#j#k#|#l#m#O@O@n#o#p#q#  ",
"  P+r#s#s#t#u#; ; ; ^+v#w#W+V@ . . .x#i+y#z#0 0 I+A#B#C#D#E#F#O@G#l#O@H#I#J#K#  ",
"  ; L#M#M#u#;     ; *#N#H@W+W+W+W+W+{#O#P#Q#R#S#T#B@U#V#W#X#Y#O@Z#`#O@ $.$+$@$  ",
"    ; #$$$%$;       ; Q.&$W+W+W+W+W+W+}.*$=$-$;$;$B#>$,$'$)$!$~${$]$^$/$($_$:$  ",
"      <$[$}$|$        ; ; 1$W+W+W+W+W+.@2$3$4$4$4$4$5$4@; ##6$7$8$9$0$a$b$c$    ",
"      <$d$e$f$            g$h$h$h$h$h$@@; ; i$j$j$j$j$>$; ; k$l$m$n$o$`+;       ",
"      p$q$>@r$              ; ; ; ; ; ;     ; ;   ; ; ; ; ; ; ; ; ;             ",
"        ; ; ;                 ; ; ; ;       ; ;                                 ",
"                            ; ; ; ;                                             ",
"                              ; ;                                               ",
"                                                                                ",
"                                                                                ",
"                                                                                "};
