/* XPM */
static char * frame_06_delay_0_1s_1_xpm[] = {
"30 30 10 1",
" 	c None",
".	c #000000",
"+	c #923710",
"@	c #FFFBC8",
"#	c #FEE761",
"$	c #F77622",
"%	c #181425",
"&	c #FEAE34",
"*	c #3A4466",
"=	c #FFFFFF",
"                              ",
"                              ",
"           ++++++++           ",
"           &##&&&&$           ",
"         +$#@@@###&++         ",
"         $&@@@@####&$         ",
"        +&#@@@@#####&+        ",
"       ++&##########&++       ",
"       ++&#&$$&#####&++       ",
"       %+$&$$$$&&###&+%       ",
"       %+$$$+$$$&###&+%       ",
"       %++$++$$$&&&&&+%       ",
"       %+$$++$$$$&&&$+%       ",
"       %+$$+++$$$&&&$+%       ",
"       %+$$$++$$&&&&$+%       ",
"       %+$&$$$$&&&&&$+%       ",
"        +$$$$$&&&&&&$+        ",
"         ++$&&&&&&$++         ",
"          +$$$$$$$$+          ",
"           ++++++++           ",
"            ......            ",
"                              ",
"                              ",
"         ************         ",
"        **************        ",
"        **************        ",
"         ************         ",
"          **********          ",
"                              ",
"                              "};
