/* XPM */
static char * collect01_xpm[] = {
"80 80 8 1",
" 	c None",
".	c #923710",
"+	c #FEE761",
"@	c #FFFBC8",
"#	c #F77622",
"$	c #181425",
"%	c #FEAE34",
"&	c #3A4466",
"                                                                                ",
"                                                                                ",
"                                                                                ",
"                                                                                ",
"                                                                                ",
"                                                                                ",
"                                                                                ",
"                                                                                ",
"                                                                                ",
"                                                                                ",
"                                                                                ",
"                                                                                ",
"                                                                                ",
"                                                                                ",
"                                                                                ",
"                                                                                ",
"                                                                                ",
"                                                                                ",
"                                                                                ",
"                                                                                ",
"                                                                                ",
"                                                                                ",
"                                                                                ",
"                                                                                ",
"                                                                                ",
"                                                                                ",
"                                                                                ",
"                                                                                ",
"                                   ............                                 ",
"                                   ............                                 ",
"                                   ............                                 ",
"                                ...++++++@@@@@@...                              ",
"                                ...++++++@@@@@@...                              ",
"                                ...++++++@@@@@@...                              ",
"                             ...+++++++++@@@@@@+++...                           ",
"                             ...+++++++++@@@@@@+++...                           ",
"                             ...+++++++++@@@@@@+++...                           ",
"                             ...+++++++++######+++...                           ",
"                             ...+++++++++######+++...                           ",
"                             ...+++++++++######+++...                           ",
"                             $$$++++++######...###$$$                           ",
"                             $$$++++++######...###$$$                           ",
"                             $$$++++++######...###$$$                           ",
"                             $$$%%%%%%######...###$$$                           ",
"                             $$$%%%%%%######...###$$$                           ",
"                             $$$%%%%%%######...###$$$                           ",
"                             $$$%%%%%%###......###$$$                           ",
"                             $$$%%%%%%###......###$$$                           ",
"                             $$$%%%%%%###......###$$$                           ",
"                             $$$%%%%%%%%%######%%%$$$                           ",
"                             $$$%%%%%%%%%######%%%$$$                           ",
"                             $$$%%%%%%%%%######%%%$$$                           ",
"                                $$$%%%%%%%%%%%%$$$                              ",
"                                $$$%%%%%%%%%%%%$$$                              ",
"                                $$$%%%%%%%%%%%%$$$                              ",
"                                   $$$$$$$$$$$$                                 ",
"                                   $$$$$$$$$$$$                                 ",
"                                   $$$$$$$$$$$$                                 ",
"                                                                                ",
"                                                                                ",
"                                                                                ",
"                                &&&&&&&&&&&&&&&&&&                              ",
"                                &&&&&&&&&&&&&&&&&&                              ",
"                                &&&&&&&&&&&&&&&&&&                              ",
"                             &&&&&&&&&&&&&&&&&&&&&&&&                           ",
"                             &&&&&&&&&&&&&&&&&&&&&&&&                           ",
"                             &&&&&&&&&&&&&&&&&&&&&&&&                           ",
"                                &&&&&&&&&&&&&&&&&&                              ",
"                                &&&&&&&&&&&&&&&&&&                              ",
"                                &&&&&&&&&&&&&&&&&&                              ",
"                                                                                ",
"                                                                                ",
"                                                                                ",
"                                                                                ",
"                                                                                ",
"                                                                                ",
"                                                                                ",
"                                                                                ",
"                                                                                ",
"                                                                                "};
