/* XPM */
static char * frame_00_delay_0_1s_1_xpm[] = {
"30 30 10 1",
" 	c None",
".	c #000000",
"+	c #923710",
"@	c #FEE761",
"#	c #FFFBC8",
"$	c #F77622",
"%	c #FEAE34",
"&	c #181425",
"*	c #3A4466",
"=	c #FFFFFF",
"                              ",
"                              ",
"            $%%%%$            ",
"           %%####%%           ",
"          %@@####@@@          ",
"         %@@@####@@@@         ",
"        %%@@@####@@##@        ",
"       $%@@@@@@@@@@##@$       ",
"      +%%@@@%%$$%%@##@%+      ",
"      +%%@@%%$$$$%%@@%%+      ",
"      +$%@%$$$$$$$$%@%$+      ",
"      +$%%$++$%$$++$%%$+      ",
"      +$$$$++$%$$++$$$$+      ",
"      +$$$$$$$$$$$$$$$$+      ",
"      +$$$$$$$$$$$$$$$$+      ",
"       +$$$$$$$$$$$$$$+       ",
"        +$$$%%%%%%$$$+        ",
"         +$$%%%%%%$$+         ",
"          +$$$$$$$$+          ",
"           +$$$$$$+           ",
"            &&&&&&            ",
"                              ",
"         ************         ",
"       ****************       ",
"       ****************       ",
"      ******************      ",
"       ****************       ",
"        **************        ",
"                              ",
"                              "};
