/* XPM */
static char * player_move_right01_xpm[] = {
"38 40 440 2",
"  	c None",
". 	c #1A1D2E",
"+ 	c #854044",
"@ 	c #6A353D",
"# 	c #161C2E",
"$ 	c #69343C",
"% 	c #B16059",
"& 	c #B07363",
"* 	c #AA7161",
"= 	c #8D5E53",
"- 	c #644442",
"; 	c #3C283F",
"> 	c #9C4A50",
", 	c #B9625C",
"' 	c #BE7164",
") 	c #C47F6C",
"! 	c #BB685E",
"~ 	c #BD6E62",
"{ 	c #C2816C",
"] 	c #B46C60",
"^ 	c #96474A",
"/ 	c #B65555",
"( 	c #B65655",
"_ 	c #C5836E",
": 	c #C17868",
"< 	c #C27C6A",
"[ 	c #B97263",
"} 	c #72383F",
"| 	c #50314A",
"1 	c #A14E57",
"2 	c #A84F50",
"3 	c #A2665A",
"4 	c #A56E5F",
"5 	c #C3826D",
"6 	c #C4816D",
"7 	c #BE7063",
"8 	c #B77967",
"9 	c #925F55",
"0 	c #7D4155",
"a 	c #AC5156",
"b 	c #843F44",
"c 	c #2E2131",
"d 	c #181C2E",
"e 	c #423037",
"f 	c #B37765",
"g 	c #905750",
"h 	c #B17162",
"i 	c #C07B69",
"j 	c #62333B",
"k 	c #773F54",
"l 	c #AD5256",
"m 	c #9A4B58",
"n 	c #6B3D5B",
"o 	c #693D5B",
"p 	c #191D2F",
"q 	c #402F36",
"r 	c #AE6C5F",
"s 	c #C3816D",
"t 	c #6F3E41",
"u 	c #B97967",
"v 	c #874246",
"w 	c #402A40",
"x 	c #844559",
"y 	c #964A58",
"z 	c #6B3E5B",
"A 	c #633A57",
"B 	c #1F1E31",
"C 	c #663441",
"D 	c #B26861",
"E 	c #844A49",
"F 	c #A65D5A",
"G 	c #68394E",
"H 	c #2C2236",
"I 	c #4D3049",
"J 	c #482D45",
"K 	c #1E1E31",
"L 	c #1B1D2F",
"M 	c #AE5253",
"N 	c #523148",
"O 	c #8F4755",
"P 	c #3E293F",
"Q 	c #9A4A51",
"R 	c #6B3849",
"S 	c #8A4246",
"T 	c #42393C",
"U 	c #63524D",
"V 	c #5A4B48",
"W 	c #4A2E46",
"X 	c #502E40",
"Y 	c #382436",
"Z 	c #665148",
"` 	c #887459",
" .	c #D5B583",
"..	c #AA9B8A",
"+.	c #E5D7C5",
"@.	c #C9C2C1",
"#.	c #C5BFC3",
"$.	c #BDBDBE",
"%.	c #BCBCBE",
"&.	c #D7D6D6",
"*.	c #FBF8F5",
"=.	c #B8B2AC",
"-.	c #DDC4A0",
";.	c #D7CEC3",
">.	c #63514C",
",.	c #67574C",
"'.	c #9B8D6D",
").	c #EFE3BD",
"!.	c #F5ECCE",
"~.	c #F0E5C9",
"{.	c #EBDDC3",
"].	c #E9D9B6",
"^.	c #E5D29D",
"/.	c #C1B288",
"(.	c #9A8463",
"_.	c #1D202F",
":.	c #BFBCAC",
"<.	c #181D2E",
"[.	c #866D61",
"}.	c #B09374",
"|.	c #DFC794",
"1.	c #EFE1AB",
"2.	c #F1E6BB",
"3.	c #F6EED3",
"4.	c #FAF5E7",
"5.	c #FCFAF3",
"6.	c #FCF9F1",
"7.	c #EDE0C2",
"8.	c #DCC18E",
"9.	c #6E5E4C",
"0.	c #887F62",
"a.	c #FCFAF7",
"b.	c #FBFAF0",
"c.	c #B8B38B",
"d.	c #524544",
"e.	c #977B6B",
"f.	c #C9AA7E",
"g.	c #D6B684",
"h.	c #EFE1AC",
"i.	c #F6EED4",
"j.	c #DDDAD0",
"k.	c #DCD3C0",
"l.	c #EFE0AA",
"m.	c #C1AC81",
"n.	c #CDAE7E",
"o.	c #E9DCB6",
"p.	c #FDFCFB",
"q.	c #E2D0A9",
"r.	c #B7B186",
"s.	c #62514C",
"t.	c #9B7E6C",
"u.	c #CCAD7F",
"v.	c #EDDDA8",
"w.	c #F4EBCC",
"x.	c #B7B4A8",
"y.	c #877358",
"z.	c #E5D1A6",
"A.	c #E7D9B0",
"B.	c #86827F",
"C.	c #F5F1DB",
"D.	c #EBDECD",
"E.	c #DCC490",
"F.	c #A29874",
"G.	c #876E62",
"H.	c #A58870",
"I.	c #D6B784",
"J.	c #DDC491",
"K.	c #E5D09C",
"L.	c #F2E7BD",
"M.	c #FFFEFD",
"N.	c #312E34",
"O.	c #C8AE87",
"P.	c #EBDEB0",
"Q.	c #837056",
"R.	c #C2BE9F",
"S.	c #ECE2B6",
"T.	c #C5B082",
"U.	c #2D2B33",
"V.	c #A28A67",
"W.	c #5A4E43",
"X.	c #927768",
"Y.	c #B39575",
"Z.	c #E2CD99",
"`.	c #F5EDCF",
" +	c #B7B2A4",
".+	c #A9906A",
"++	c #E7D5B5",
"@+	c #9C988C",
"#+	c #615F4F",
"$+	c #ECE5AB",
"%+	c #DDC793",
"&+	c #D4B482",
"*+	c #796851",
"=+	c #4D433D",
"-+	c #C3A679",
";+	c #8F7A5D",
">+	c #7E675C",
",+	c #A3886D",
"'+	c #C6A77D",
")+	c #D3B482",
"!+	c #B89D73",
"~+	c #C4B185",
"{+	c #CFC395",
"]+	c #D8D3C6",
"^+	c #747579",
"/+	c #534840",
"(+	c #867A60",
"_+	c #59554A",
":+	c #C3BE8F",
"<+	c #DACE99",
"[+	c #BFA277",
"}+	c #4B2935",
"|+	c #8D4347",
"1+	c #4B3B3A",
"2+	c #C0A377",
"3+	c #8F7A5C",
"4+	c #766157",
"5+	c #C3A57C",
"6+	c #D4B483",
"7+	c #C9B285",
"8+	c #8A8368",
"9+	c #323337",
"0+	c #968E6F",
"a+	c #73705A",
"b+	c #E5DEA6",
"c+	c #807057",
"d+	c #766550",
"e+	c #4F2B36",
"f+	c #8F534D",
"g+	c #A88D6C",
"h+	c #9F856A",
"i+	c #6A5A4D",
"j+	c #665848",
"k+	c #B2976F",
"l+	c #D3B585",
"m+	c #E5D19D",
"n+	c #ECDDA8",
"o+	c #B7AC85",
"p+	c #B9B194",
"q+	c #9C9D9E",
"r+	c #3A3437",
"s+	c #D7BB8C",
"t+	c #E6DCB5",
"u+	c #565248",
"v+	c #BBAF88",
"w+	c #B39870",
"x+	c #BDA176",
"y+	c #B55756",
"z+	c #BB8B6E",
"A+	c #AF946F",
"B+	c #B59A71",
"C+	c #BFAC7F",
"D+	c #A08967",
"E+	c #A59B75",
"F+	c #89795D",
"G+	c #CFB98B",
"H+	c #F5EDD0",
"I+	c #F7F5EF",
"J+	c #9F8865",
"K+	c #EFE3D0",
"L+	c #F1E6BA",
"M+	c #706B57",
"N+	c #635547",
"O+	c #D7CE9A",
"P+	c #7B6659",
"Q+	c #CCAE7E",
"R+	c #786651",
"S+	c #BA625C",
"T+	c #BC6A60",
"U+	c #CEA47A",
"V+	c #CBAD7D",
"W+	c #9A8362",
"X+	c #6C6350",
"Y+	c #8A8265",
"Z+	c #D1C392",
"`+	c #746C56",
" @	c #9E8765",
".@	c #EBDAA5",
"+@	c #F5F1E6",
"@@	c #C8AF82",
"#@	c #F0E4B5",
"$@	c #DCCA99",
"%@	c #4D453F",
"&@	c #AC936C",
"*@	c #8D7B5E",
"=@	c #9B8363",
"-@	c #BEA176",
";@	c #282832",
">@	c #BD6C61",
",@	c #DBC191",
"'@	c #E1CF99",
")@	c #7F6D54",
"!@	c #B3A279",
"~@	c #6D5E4C",
"{@	c #9D8664",
"]@	c #E6D29D",
"^@	c #EEE2B4",
"/@	c #D1CECB",
"(@	c #EADAAE",
"_@	c #B3A881",
":@	c #71373F",
"<@	c #5B4E43",
"[@	c #C7A97B",
"}@	c #4E433F",
"|@	c #B49775",
"1@	c #786751",
"2@	c #BB675E",
"3@	c #D8B88E",
"4@	c #E3D39C",
"5@	c #D9BE8B",
"6@	c #AF9972",
"7@	c #857258",
"8@	c #F4EAC9",
"9@	c #F7F1DC",
"0@	c #ECDCAB",
"a@	c #CAB285",
"b@	c #49413C",
"c@	c #745F56",
"d@	c #876E61",
"e@	c #5C4E43",
"f@	c #CA9974",
"g@	c #B85D58",
"h@	c #B75A57",
"i@	c #CB9B7A",
"j@	c #E1CE98",
"k@	c #E7DBA3",
"l@	c #B69976",
"m@	c #AB926C",
"n@	c #191E2F",
"o@	c #6B6453",
"p@	c #C5B68A",
"q@	c #E9D8A7",
"r@	c #F0E3B2",
"s@	c #D9CC9C",
"t@	c #503D46",
"u@	c #4F304A",
"v@	c #803E43",
"w@	c #171C2E",
"x@	c #66544E",
"y@	c #544546",
"z@	c #312438",
"A@	c #5D5144",
"B@	c #D6B68C",
"C@	c #C99474",
"D@	c #B99B77",
"E@	c #B89B75",
"F@	c #272034",
"G@	c #2E2337",
"H@	c #2C2D34",
"I@	c #90886B",
"J@	c #242033",
"K@	c #693B53",
"L@	c #643952",
"M@	c #292135",
"N@	c #984951",
"O@	c #743F57",
"P@	c #66394F",
"Q@	c #7C3C44",
"R@	c #CCAD7E",
"S@	c #DAC08D",
"T@	c #E6D9A1",
"U@	c #DBC093",
"V@	c #C48A6C",
"W@	c #D1AB7E",
"X@	c #B09571",
"Y@	c #C0A17A",
"Z@	c #643647",
"`@	c #673C59",
" #	c #54334D",
".#	c #322439",
"+#	c #252033",
"@#	c #5E3853",
"##	c #AB5156",
"$#	c #6A3B54",
"%#	c #5D4F45",
"&#	c #645648",
"*#	c #412A41",
"=#	c #5F3854",
"-#	c #4B2F47",
";#	c #3B283E",
">#	c #B99D73",
",#	c #E2D19B",
"'#	c #E0CA99",
")#	c #BB695F",
"!#	c #C58A6D",
"~#	c #9C8262",
"{#	c #B59973",
"]#	c #864045",
"^#	c #884659",
"/#	c #683C5A",
"(#	c #9C4C58",
"_#	c #854458",
":#	c #34253A",
"<#	c #AC926C",
"[#	c #CFB080",
"}#	c #786553",
"|#	c #1B1D30",
"1#	c #3C283E",
"2#	c #33253A",
"3#	c #75644F",
"4#	c #CDA279",
"5#	c #BF7365",
"6#	c #B75A58",
"7#	c #88715E",
"8#	c #67594A",
"9#	c #9F4D57",
"0#	c #A44F57",
"a#	c #9A4B55",
"b#	c #582E38",
"c#	c #40373C",
"d#	c #BFA179",
"e#	c #B29870",
"f#	c #8D785B",
"g#	c #B9615A",
"h#	c #874145",
"i#	c #80685D",
"j#	c #3F363B",
"k#	c #7B3E4D",
"l#	c #9E4D57",
"m#	c #91464F",
"n#	c #4E2B39",
"o#	c #292733",
"p#	c #4B3F40",
"q#	c #6A5B4A",
"r#	c #423B39",
"s#	c #8B765A",
"t#	c #C68E6E",
"u#	c #A54D4F",
"v#	c #735A53",
"w#	c #4B4041",
"x#	c #1D1E30",
"y#	c #442C43",
"z#	c #C48E6E",
"A#	c #A44D4F",
"B#	c #4D353B",
"C#	c #42393D",
"D#	c #7A4B46",
"E#	c #533C3F",
"F#	c #695650",
"G#	c #171D2E",
"                      . + @ #                                               ",
"                  # # $ % & * = - #                                         ",
"                # ; > , ' ) ! ~ { ] -                                       ",
"                # ^ / ( _ _ _ : < _ [ }                                     ",
"              # | 1 / 2 3 4 5 6 7 8 6 9 #                                   ",
"              # 0 a b c d # e f _ g h i j                                   ",
"              # k l m n o | p q r s t u v                                   ",
"                w x y z o A B # C D E F G                                   ",
"                # H I I J K     L M N O P                                   ",
"                    # # #     # # Q R S #                                   ",
"                          T U V W X Y Z ` #                          .      ",
"                        # ..+.@.#.$.%.&.*.=.#                     -.;.      ",
"                      # >.,.'.).!.~.{.].^./.(._.                -.*.:.      ",
"                      <.[.}.|.1.2.3.4.5.6.7.8.9.              0.a.b.c.      ",
"                    # d.e.f.g.1.1.h.h.i.j.k.l.m.#           n.o.p.q.r.      ",
"                    # s.t.u. .|.v.1.1.w.x.y.z.A.#           B.C.D.E.F.      ",
"            # #     # G.H. . .I.J.K.L.M.%.N.O.P.Q.        # R.S. .T.U.      ",
"            # V.W.# # X.Y. . . . .Z.1.`. +# .+++@+        #+$+%+&+*+        ",
"            # =+-+;+# >+,+'+)+!+!+~+{+]+^+# /+(+_+#     # :+<+ .[+#         ",
"            }+|+1+2+3+<.4+5+6+7+8+# # # # # # 9+0+#     a+b+c+ .d+          ",
"            e+/ / f+g+h+i+j+k+l+m+n+o+p+q+# r+s+t+u+  # :+v+w+x+#           ",
"            e+/ / y+z+A+B+C+D+E+F+G+1.H+I+# J+K+L+M+  N+O+P+Q+R+            ",
"            e+/ S+T+U+V+W+X+Y+Z+`+ @.@1.+@# @@#@$@%@# &@*@=@-@;@            ",
"            e+/ / >@,@'@ . .)@!@~@{@]@1.^@/@(@1._@:@<@[@}@|@1@              ",
"            e+/ / 2@3@4@5@ .{@6@~@7@]@1.8@9@0@a@b@# Q.Q.c@d@#               ",
"            e@f@g@h@i@j@k@ .l@m@~@n@o@p@q@r@s@t@u@# v@w@x@y@z@.             ",
"            A@ . .B@C@ . . .D@E@~@F@G@# H@I@J@K@L@M@N@O@J H P@Q@            ",
"            =+R@S@T@U@V@W@ .X@Y@~@Z@`@ #.#+#@###$#%#&#*#=#-#;##             ",
"            # ># .,#'#6 )#!#~#{#~@]#l ^#/#/#(#_#:#<#[#}#|#1#2#              ",
"              3#)+ .4#5#S+6#]#7#8#]#/ / 9#0#a#b#c#d# .e##                   ",
"              # f# . .g#/ / h#i#j#k#l#l#l#m#n## o#p#q#r#                    ",
"                # s#&+t#/ u#v#w## x#x#x#x#p # # y## #                       ",
"                  # ;+z#A#B#C## # #         # # #                           ",
"                    # D#E#F## # # #           # #                           ",
"                      # w@G## # # #             #                           ",
"                        #                       # #                         ",
"                                                                            ",
"                                                                            ",
"                                                                            ",
"                                                                            "};
