/* XPM */
static char * player_move_right00_xpm[] = {
"80 80 10 1",
" 	c None",
".	c #161C2E",
"+	c #B65555",
"@	c #C5836E",
"#	c #693D5B",
"$	c #D5B583",
"%	c #FFFFFF",
"&	c #EDE6AC",
"*	c #977B6B",
"=	c #EFE1AB",
"                                                                                ",
"                                                                                ",
"                                                                                ",
"                                                                                ",
"                                                                                ",
"                                                                                ",
"                                                                                ",
"                                                                                ",
"                       .....                                                    ",
"                    .....+.....                                                 ",
"                    ....+@@@@....                                               ",
"                  ...+++++@@++@@+..                                             ",
"                  ..#++@@@@++@@@@@.                                             ",
"                 ..+++++@@@@@++@@@++.                                           ",
"                ...+++++@@@@@@+@@@@..                                           ",
"                ..#++++....@@@@@.@@@..                                          ",
"                ..##++.......@@@++@@+.                                          ",
"                ..++++####....@@@..@@..                                         ",
"                ..#++######....@@+.@@..                                         ",
"                 .##++#####....++@.@#..                                         ",
"                 ..########....##+.++#.                                         ",
"                  .........   ..+..+#.                           $$             ",
"                   ........   ..+..+..                          $$$             ",
"                           .....+......                        $$%.             ",
"                         ......##.......                      $$%%.             ",
"                        ..$$$#.#....%%%..                    .$%%&.             ",
"                       ....%%%%%%%%%%%$...                  ..%%%&.             ",
"                       ..*...====$$$===$$..                 .&%%&&.             ",
"                      ...**============$$..                $$&%%&&.             ",
"                      ..***$$==%%%%%%%%==$.               ..%&%$$&.             ",
"                     ...**$$$======%%%%==$.               ..%&$$$&.             ",
"                     ..***$$$=======%..$==$.              .&&&$$..              ",
"                     ..***$$$$$======..$$==..            ..&&$$$..              ",
"       ....         ...**$$$$$$====%%...$==..           ..&&$$$$.               ",
"       ..$..        ...**$$$$$$$$==%%...$==$.           ..&&$$$..               ",
"       ...$$..      ...**$$$$$$$$==%%....$=..           .&&.$$..                ",
"       ...$$..      ...**$$$$$$$$===%....$=..          ..&..$$..                ",
"       .+...$$..    .....**$$................         ..&&.$$$.                 ",
"       .++..$$....  ....**$$$$................        ..&&.$$..                 ",
"       .+++++.***......***$$$$===........$$=..   ..   .$&*$$..                  ",
"       .+++++***$$......*$$$$$$======....$$==.   .... .$.*$$..                  ",
"       .++++++$$$$$$.....****$$$$==%%%...$===.  .@@...$$..$$..                  ",
"       .++++++$$....&&&..***$$$$$====%..$%%==. ...++..$$.*$..                   ",
"       .+++@@+$$$$....$..***$$$$$====%..$==$$. .@..+..$..*$.                    ",
"       .++++@@&&$$$$..&....*$$$$$$====.$$===.  .@@+..$..**..                    ",
"       .+++++@&&$$$$..&......$$$$$====%%===..  .+@+.....**..                    ",
"       .+++++@&$$$$$..$..#......$$=======$$...  .+++++....#...                  ",
"       .$++++@$$&&$$*.$..##......$===%%==$....  ...++##...##+.                  ",
"       .$$$$++$$$$$$*.$...###.......$====.##.. ..**...####....                  ",
"       .$$$$&@$$$$$$**$..######.......=...#... ..***...##.....                  ",
"       .$$$&&&++$$$$**$..##++++####......#+##. ..*$$$$....#..                   ",
"       ..$$$$&+++$$$.*$..##++#++####....#++#.. ..*$$$$*.....                    ",
"        .$$$$&@@@+++..$..###+#+++++######+#..  ..**$$$$..                       ",
"        ..$$$$+@++++..*...#####+++++####+##..  ...**$$..                        ",
"        ..$$$$$+++++..*....###++++++++++#...   .#.......                        ",
"         ..$$$$+++++..*....####++++++++++...   .##....                          ",
"          ..$$$$++++**.......##########....    ....                             ",
"           ..$$$+++.*..  .................     ....                             ",
"            ..$$++....    .................                                     ",
"             ..$+.*..      ....       .....                                     ",
"              ......        ...     .......                                     ",
"               ....         ...     ......                                      ",
"                ..           ...                                                ",
"                              ...                                               ",
"                                                                                ",
"                                                                                ",
"                                                                                ",
"                                                                                ",
"                                                                                ",
"                                                                                ",
"                                                                                ",
"                                                                                ",
"                                                                                ",
"                                                                                ",
"                                                                                ",
"                                                                                ",
"                                                                                ",
"                                                                                ",
"                                                                                ",
"                                                                                "};
