/* XPM */
static char * player_move_right00_xpm[] = {
"38 40 483 2",
"  	c None",
". 	c #502B36",
"+ 	c #8A4246",
"@ 	c #522C37",
"# 	c #161C2E",
"$ 	c #322231",
"% 	c #7F3D43",
"& 	c #BC6E62",
"* 	c #AA7161",
"= 	c #79514B",
"- 	c #543A3C",
"; 	c #492E46",
"> 	c #AF5252",
", 	c #BC695F",
"' 	c #BF7365",
") 	c #C4806C",
"! 	c #B9615B",
"~ 	c #C27A69",
"{ 	c #BE7C69",
"] 	c #A8675C",
"^ 	c #2E2632",
"/ 	c #562D38",
"( 	c #A34D4E",
"_ 	c #B65555",
": 	c #BB675E",
"< 	c #C5836E",
"[ 	c #BE7164",
"} 	c #C4816D",
"| 	c #A96058",
"1 	c #61313A",
"2 	c #231F32",
"3 	c #723D51",
"4 	c #AA5156",
"5 	c #A25150",
"6 	c #A46C5E",
"7 	c #AB7262",
"8 	c #C37E6B",
"9 	c #B96D61",
"0 	c #BF7F6B",
"a 	c #C27E6B",
"b 	c #704C47",
"c 	c #2E2337",
"d 	c #8D4758",
"e 	c #B45455",
"f 	c #64323B",
"g 	c #251F30",
"h 	c #171C2E",
"i 	c #222030",
"j 	c #664643",
"k 	c #C2816D",
"l 	c #C27F6C",
"m 	c #804A48",
"n 	c #C2816C",
"o 	c #B36F61",
"p 	c #4C2A36",
"q 	c #2C2236",
"r 	c #904857",
"s 	c #B15356",
"t 	c #884659",
"u 	c #693D5B",
"v 	c #3F2A40",
"w 	c #634342",
"x 	c #BB7565",
"y 	c #B47162",
"z 	c #6A4744",
"A 	c #C17868",
"B 	c #5A2F39",
"C 	c #53324C",
"D 	c #954A58",
"E 	c #8C4759",
"F 	c #583550",
"G 	c #81434C",
"H 	c #B96C62",
"I 	c #64363D",
"J 	c #A65D5E",
"K 	c #4B2D42",
"L 	c #1B1D2F",
"M 	c #3C283E",
"N 	c #4D3049",
"O 	c #1C1D30",
"P 	c #582E39",
"Q 	c #9B4A51",
"R 	c #5A3348",
"S 	c #8B4555",
"T 	c #2F2338",
"U 	c #D5B583",
"V 	c #582E38",
"W 	c #82414E",
"X 	c #8C444D",
"Y 	c #6B353D",
"Z 	c #D8BB90",
"` 	c #CDB083",
" .	c #514444",
"..	c #725D55",
"+.	c #2B2834",
"@.	c #59344C",
"#.	c #392536",
"$.	c #4F2D3E",
"%.	c #71614D",
"&.	c #D7BA8D",
"*.	c #F5EEE6",
"=.	c #797572",
"-.	c #1B1F2F",
";.	c #C9B9A6",
">.	c #DFD2C4",
",.	c #C2BEC1",
"'.	c #C5BFC3",
").	c #BCBCBE",
"!.	c #E6E5E4",
"~.	c #F3EDE7",
"{.	c #89898B",
"].	c #9D886A",
"^.	c #F5EFE8",
"/.	c #FAF8EA",
"(.	c #605E4F",
"_.	c #786258",
":.	c #675A4D",
"<.	c #BDAC82",
"[.	c #F4EBCC",
"}.	c #F5ECCE",
"|.	c #EDE0C5",
"1.	c #EBDDC3",
"2.	c #E8D7AD",
"3.	c #DACA98",
"4.	c #BBA97F",
"5.	c #837056",
"6.	c #B99D73",
"7.	c #D9D6C7",
"8.	c #FEFDFD",
"9.	c #F0E9C1",
"0.	c #5F5E4E",
"a.	c #3F363B",
"b.	c #947969",
"c.	c #C0A37C",
"d.	c #E6D39E",
"e.	c #EFE1AB",
"f.	c #F3E9C4",
"g.	c #F6EED3",
"h.	c #FCF9F1",
"i.	c #FCFAF3",
"j.	c #FAF5E7",
"k.	c #E6D4B1",
"l.	c #CDB283",
"m.	c #4E443E",
"n.	c #D4C0A5",
"o.	c #F7F3DF",
"p.	c #EDE1D3",
"q.	c #E2D19B",
"r.	c #735F56",
"s.	c #987C6B",
"t.	c #DFC693",
"u.	c #EFE1AC",
"v.	c #EFE2AE",
"w.	c #F8F2DE",
"x.	c #CBC9C6",
"y.	c #EBDDBC",
"z.	c #ECDDA7",
"A.	c #938163",
"B.	c #232732",
"C.	c #DBDBD9",
"D.	c #EFE6C8",
"E.	c #D8BC89",
"F.	c #D0C08F",
"G.	c #4F4E45",
"H.	c #7C665B",
"I.	c #A1856F",
"J.	c #D8BB88",
"K.	c #E2CB97",
"L.	c #F7EFD7",
"M.	c #7C7A75",
"N.	c #B19770",
"O.	c #ECDDB5",
"P.	c #BDB08C",
"Q.	c #76745C",
"R.	c #F0EABA",
"S.	c #DCC490",
"T.	c #D3B583",
"U.	c #736A55",
"V.	c #635647",
"W.	c #40373B",
"X.	c #907567",
"Y.	c #B99B78",
"Z.	c #D7B987",
"`.	c #E0C895",
" +	c #E8D6A1",
".+	c #F6EED4",
"++	c #FFFFFF",
"@+	c #7F8084",
"#+	c #534840",
"$+	c #DFC79D",
"%+	c #D2C397",
"&+	c #6F5F4D",
"*+	c #CEC896",
"=+	c #E4D49D",
"-+	c #D6B684",
";+	c #B79B72",
">+	c #988261",
",+	c #A58D68",
"'+	c #3F3938",
")+	c #443A3D",
"!+	c #977B6B",
"~+	c #C6A77D",
"{+	c #EAD8A3",
"]+	c #EFE1AD",
"^+	c #F7F0D9",
"/+	c #7C7972",
"(+	c #2A2932",
"_+	c #C2A578",
":+	c #F1E6CC",
"<+	c #30323B",
"[+	c #7A775F",
"}+	c #E3DCA5",
"|+	c #C9B182",
"1+	c #6F5F4C",
"2+	c #2B2030",
"3+	c #3C2432",
"4+	c #988161",
"5+	c #BEA276",
"6+	c #473F3B",
"7+	c #3B343A",
"8+	c #826B5F",
"9+	c #B89A77",
"0+	c #C9AA7E",
"a+	c #CBAD7E",
"b+	c #B89D73",
"c+	c #CABB8E",
"d+	c #CFC397",
"e+	c #CECDC8",
"f+	c #4B4D54",
"g+	c #675949",
"h+	c #8B8166",
"i+	c #1F2330",
"j+	c #CDC796",
"k+	c #A29A77",
"l+	c #B59A71",
"m+	c #492935",
"n+	c #AE5252",
"o+	c #864045",
"p+	c #927C5E",
"q+	c #70604D",
"r+	c #6D5A52",
"s+	c #CFB081",
"t+	c #D1B181",
"u+	c #C0B086",
"v+	c #706A57",
"w+	c #7C765F",
"x+	c #7B785F",
"y+	c #DDD4A0",
"z+	c #6D5C4F",
"A+	c #AF5655",
"B+	c #87695C",
"C+	c #AF9274",
"D+	c #AE936F",
"E+	c #403939",
"F+	c #A68970",
"G+	c #CEAF80",
"H+	c #DBC08D",
"I+	c #E8D5A1",
"J+	c #DCCF9D",
"K+	c #B7AD86",
"L+	c #BCB6A2",
"M+	c #747579",
"N+	c #786751",
"O+	c #E4D1AC",
"P+	c #D1C598",
"Q+	c #50383B",
"R+	c #282832",
"S+	c #BFAB7F",
"T+	c #AB9E7C",
"U+	c #A88F6A",
"V+	c #B39870",
"W+	c #CA9974",
"X+	c #AE946D",
"Y+	c #7A6852",
"Z+	c #B3A57C",
"`+	c #BDA87D",
" @	c #6E6C57",
".@	c #7A645A",
"+@	c #C2A47B",
"@@	c #E6D39F",
"#@	c #F8F2DD",
"$@	c #CECDCB",
"%@	c #242531",
"&@	c #BFA783",
"*@	c #F4ECD9",
"=@	c #E9DBA8",
"-@	c #58333A",
";@	c #BA7867",
">@	c #864C4A",
",@	c #6C5D4B",
"'@	c #C3A579",
")@	c #4E4340",
"!@	c #D2B381",
"~@	c #B9605B",
"{@	c #BB685F",
"]@	c #CDA279",
"^@	c #CBAC7D",
"/@	c #A98F6A",
"(@	c #504C43",
"_@	c #B19B73",
":@	c #746551",
"<@	c #6F5B53",
"[@	c #DABE8C",
"}@	c #EEE0AA",
"|@	c #F1E4B6",
"1@	c #CDCBC7",
"2@	c #393436",
"3@	c #E1CA99",
"4@	c #F0E3B2",
"5@	c #C4B185",
"6@	c #B87364",
"7@	c #60333B",
"8@	c #60323B",
"9@	c #BB9F74",
"0@	c #89755A",
"a@	c #7B655A",
"b@	c #A78D6B",
"c@	c #BF7264",
"d@	c #E1CC9B",
"e@	c #E8DDA5",
"f@	c #D7B986",
"g@	c #9D8664",
"h@	c #B4A87E",
"i@	c #73624E",
"j@	c #524544",
"k@	c #A08867",
"l@	c #CEAF7F",
"m@	c #EEDFA9",
"n@	c #E2DABD",
"o@	c #DBD5CC",
"p@	c #EBDBA6",
"q@	c #B97364",
"r@	c #B2625A",
"s@	c #512B36",
"t@	c #8D785B",
"u@	c #41383C",
"v@	c #927768",
"w@	c #4B4041",
"x@	c #4E3739",
"y@	c #B9635B",
"z@	c #BA635C",
"A@	c #D0A480",
"B@	c #E0CD98",
"C@	c #DFCA95",
"D@	c #A78E6B",
"E@	c #442B43",
"F@	c #3B283E",
"G@	c #564A41",
"H@	c #847057",
"I@	c #C0A377",
"J@	c #F7F0D8",
"K@	c #E7D49F",
"L@	c #AC9872",
"M@	c #1C202F",
"N@	c #A04B4D",
"O@	c #AD5152",
"P@	c #6B3849",
"Q@	c #3A2E3B",
"R@	c #412A42",
"S@	c #64333F",
"T@	c #3B2432",
"U@	c #D3B181",
"V@	c #C89471",
"W@	c #B75756",
"X@	c #C58B70",
"Y@	c #DBC38F",
"Z@	c #E0CC96",
"`@	c #BA9C78",
" #	c #201E31",
".#	c #603855",
"+#	c #54334D",
"@#	c #1E1E31",
"##	c #2E2C33",
"$#	c #8A8367",
"%#	c #D1BF90",
"&#	c #EDDFAE",
"*#	c #EFE2AF",
"=#	c #BDB188",
"-#	c #56374D",
";#	c #3A273D",
">#	c #272632",
",#	c #65524D",
"'#	c #64333B",
")#	c #844250",
"!#	c #663C59",
"~#	c #51324B",
"{#	c #262034",
"]#	c #653647",
"^#	c #392432",
"/#	c #D7BA87",
"(#	c #EBE2A9",
"_#	c #D3AC84",
":#	c #D2AF80",
"<#	c #BEA07A",
"[#	c #75405A",
"}#	c #76405A",
"|#	c #7A415A",
"1#	c #272034",
"2#	c #686353",
"3#	c #76705B",
"4#	c #35253B",
"5#	c #753F58",
"6#	c #52324B",
"7#	c #A78B71",
"8#	c #B69A74",
"9#	c #49413C",
"0#	c #52324C",
"a#	c #BFA277",
"b#	c #E5D69F",
"c#	c #DFCA99",
"d#	c #BF7665",
"e#	c #C58C6D",
"f#	c #A48B69",
"g#	c #7F435A",
"h#	c #904859",
"i#	c #9D4C57",
"j#	c #A34E57",
"k#	c #80435A",
"l#	c #633A57",
"m#	c #4E3049",
"n#	c #242033",
"o#	c #34253A",
"p#	c #774057",
"q#	c #A14E57",
"r#	c #55334D",
"s#	c #C3A47C",
"t#	c #C8AA7C",
"u#	c #635449",
"v#	c #9E8664",
"w#	c #D7B88B",
"x#	c #BB685E",
"y#	c #916554",
"z#	c #9A8265",
"A#	c #8A4659",
"B#	c #B55555",
"C#	c #A54F57",
"D#	c #7E435A",
"E#	c #673C5A",
"F#	c #6C3D5A",
"G#	c #A34F57",
"H#	c #6E3C53",
"I#	c #2D2A34",
"J#	c #967C67",
"K#	c #C3A57B",
"L#	c #5F5245",
"M#	c #544940",
"N#	c #C6A87A",
"O#	c #D2AD7F",
"P#	c #B95F5A",
"Q#	c #7D685A",
"R#	c #605148",
"S#	c #9A4C58",
"T#	c #B15355",
"U#	c #9E4D57",
"V#	c #A95156",
"W#	c #8C4550",
"X#	c #3A2432",
"Y#	c #241F33",
"Z#	c #4D443E",
"`#	c #C4A77A",
" $	c #BF7864",
".$	c #824D4C",
"+$	c #2A2833",
"@$	c #5D3753",
"#$	c #76415A",
"$$	c #984B58",
"%$	c #82404A",
"&$	c #472D45",
"*$	c #35263B",
"=$	c #483F3B",
"-$	c #C5A87A",
";$	c #C79170",
">$	c #813E43",
",$	c #685650",
"'$	c #1D2030",
")$	c #191D2F",
"!$	c #1D1E30",
"~$	c #B57E65",
"{$	c #864346",
"]$	c #5C4C49",
"^$	c #3F2533",
"/$	c #352F37",
"($	c #544645",
"                    . + @ #                                                 ",
"                # $ % & * * = -                                             ",
"              # ; > , ' ) ! ~ { ] ^                                         ",
"            # / ( _ : < < < [ } < | 1                                       ",
"            2 3 4 _ 5 6 7 < 8 9 0 a b                                       ",
"            c d e f g h i j k l m n o p                                     ",
"            q r s t u u v # w x y z A B                                     ",
"            # C D E u u F # # G H I J K                                     ",
"              L M N N M O   # P Q R S T                                   U ",
"                  # # #     # V W X Y #                                 Z ` ",
"                      #  ...+.@.#.$.%.%.#                             &.*.=.",
"                    # -.;.>.,.'.).).!.~.{.#                         ].^./.(.",
"                    # _.:.<.[.}.|.1.2.3.4.5.                      6.7.8.9.0.",
"                  # a.b.c.d.e.f.g.h.i.j.k.l.m.                    n.o.p.q.0.",
"                  # r.s.U t.e.e.u.v.w.x.y.z.A.                  B.C.D.E.F.G.",
"                  # H.I.U J.K.e.e.u.L.M.N.O.P.#                 Q.R.S.T.U.  ",
"# V.#           # W.X.Y.U U Z.`. +.+++@+#+$+%+&+              # *+=+-+;+#   ",
"# >+,+'+        # )+!+~+U U U U {+]+^+/+(+_+:+<+              [+}+|+U 1+    ",
"2+3+4+5+6+      # 7+8+9+0+a+b+b+c+d+e+f+# g+h+i+            # j+k+5+l+#     ",
"m+n+o+p+5+q+#   # # r+!+s+t+u+v+# # # # # # v+w+#           x+y+z+U g+      ",
"m+_ _ A+B+C+D+%.E+# r+F+G+t+H+I+J+K+L+M+# N+O+P+#     Q+^ R+S+T+U+V+#       ",
"m+_ _ _ W+X+Y+Z+`+j+ @.@!++@U U @@u.#@$@%@&@*@=@#   -@;@>@,@'@)@!@,@        ",
"m+_ ~@{@]@U ^@/@(@_@:@<@!+0+U U [@}@|@1@2@3@4@5@# # 6@7@8@9@0@a@b@#         ",
"m+_ _ c@d@e@f@U g@h@i@# j@k@l@U U m@e.n@o@p@m@w+  # q@r@s@t@u@v@w@#         ",
"x@y@_ z@A@B@C@U D@U+i@E@F@# G@H@I@m@e.J@g.K@L@M@#   s@N@O@P@Q@j@R@S@T@      ",
"G@U@V@W@X@Y@Z@U `@U+i@ #.#+#@## ##$#%#&#*#=#-#;##   >#,#'#)#!#~#{#]#^#      ",
"G@U /#(#_#:#U U `@<#i@N [#}#|#C F@1## 2#3#4#5#6## # <@7#8#9#M 0#0#q         ",
"##a#J.b#c#d#e#:#f#<#i@N g#h#i#j#k#l#m#n#o#p#q#r## # <@s#U t#u## 4##         ",
"# v#U E.w#} {@x#y#z#i@;#u A#t _ B#C#D#E#F#G#H#@#  # I#J#K#l@L#              ",
"  M#N#U O#x#P#_ o+Q#R#h 0#u S#s _ _ T#U#V#W#X##   # C Y## # #               ",
"    Z#`#U  $_ _ .$.@+$# o#@$u #$$$U#U#U#%$X##     # &$*$                    ",
"      =$-$;$B#>$,$'$  # # )$!$!$!$!$!$!$# #         #                       ",
"        #+~${$]$#       # # #         # # # #                               ",
"          ^$/$($          # #       # # # #                                 ",
"            #               # #         #                                   ",
"                            # # #                                           ",
"                                                                            ",
"                                                                            ",
"                                                                            ",
"                                                                            "};
