/* XPM */
static char * collectible_xpm[] = {
"40 40 12 1",
" 	c None",
".	c #000000",
"+	c #272700",
"@	c #C1C100",
"#	c #F2F200",
"$	c #CCCC00",
"%	c #2B2B00",
"&	c #FFFF00",
"*	c #414100",
"=	c #E0E000",
"-	c #EEEE00",
";	c #3D3D00",
"                                        ",
"                                        ",
"                                        ",
"                                        ",
"                                        ",
"                                        ",
"                                        ",
"                                        ",
"                                        ",
"                                        ",
"                ........                ",
"                ........                ",
"             ..............             ",
"            ................            ",
"            ................            ",
"            ....++@##$%%....            ",
"          .....+&&&&&&&&*.....          ",
"          .....+&&&&&&&&*.....          ",
"          .....@&&&&&&&&=.....          ",
"          .....-&&&&&&&&&.....          ",
"          .....-&&&&&&&&&.....          ",
"          .....@&&&&&&&&=.....          ",
"          .....+&&&&&&&&*.....          ",
"          .....+&&&&&&&&*.....          ",
"            ....;;=&&=**....            ",
"            ................            ",
"            ................            ",
"             ..............             ",
"                ........                ",
"                ........                ",
"                                        ",
"                                        ",
"                                        ",
"                                        ",
"                                        ",
"                                        ",
"                                        ",
"                                        ",
"                                        ",
"                                        "};
