/* XPM */
static char * enemy_xpm[] = {
"40 40 11 1",
" 	c None",
".	c #000000",
"+	c #000072",
"@	c #0000F2",
"#	c #0000FE",
"$	c #0000F6",
"%	c #000078",
"&	c #0000FF",
"*	c #000095",
"=	c #0000FC",
"-	c #00008F",
"                                        ",
"                                        ",
"                                        ",
"                                        ",
"                                        ",
"                                        ",
"                                        ",
"                                        ",
"                                        ",
"                                        ",
"                ........                ",
"                ........                ",
"             ..............             ",
"            ................            ",
"            ................            ",
"            ....++@##$%%....            ",
"          .....+&&&&&&&&*.....          ",
"          .....+&&&&&&&&*.....          ",
"          .....@&&&&&&&&=.....          ",
"          .....#&&&&&&&&&.....          ",
"          .....#&&&&&&&&&.....          ",
"          .....@&&&&&&&&=.....          ",
"          .....+&&&&&&&&*.....          ",
"          .....+&&&&&&&&*.....          ",
"            ....--=&&=**....            ",
"            ................            ",
"            ................            ",
"             ..............             ",
"                ........                ",
"                ........                ",
"                                        ",
"                                        ",
"                                        ",
"                                        ",
"                                        ",
"                                        ",
"                                        ",
"                                        ",
"                                        ",
"                                        "};
