/* XPM */
static char * pley_xpm[] = {
"40 40 3 1",
" 	c None",
".	c #000000",
"+	c #FF0000",
"                                        ",
"                                        ",
"                                        ",
"                                        ",
"                                        ",
"     ..............................     ",
"     ..............................     ",
"     ..............................     ",
"     ..............................     ",
"     ..............................     ",
"     .....++++++++++++++++++++.....     ",
"     .....++++++++++++++++++++.....     ",
"     .....++++++++++++++++++++.....     ",
"     .....++++++++++++++++++++.....     ",
"     .....++++++++++++++++++++.....     ",
"     .....++++++++++++++++++++.....     ",
"     .....++++++++++++++++++++.....     ",
"     .....++++++++++++++++++++.....     ",
"     .....++++++++++++++++++++.....     ",
"     .....++++++++++++++++++++.....     ",
"     .....++++++++++++++++++++.....     ",
"     .....++++++++++++++++++++.....     ",
"     .....++++++++++++++++++++.....     ",
"     .....++++++++++++++++++++.....     ",
"     .....++++++++++++++++++++.....     ",
"     .....++++++++++++++++++++.....     ",
"     .....++++++++++++++++++++.....     ",
"     .....++++++++++++++++++++.....     ",
"     .....++++++++++++++++++++.....     ",
"     .....++++++++++++++++++++.....     ",
"     ..............................     ",
"     ..............................     ",
"     ..............................     ",
"     ..............................     ",
"     ..............................     ",
"                                        ",
"                                        ",
"                                        ",
"                                        ",
"                                        "};
