/* XPM */
static char * red_xpm[] = {
"40 40 11 1",
" 	c None",
".	c #000000",
"+	c #590D0D",
"@	c #BF1B1B",
"#	c #C91D1D",
"$	c #C11C1C",
"%	c #5F0D0D",
"&	c #751111",
"*	c #C61D1D",
"=	c #C81D1D",
"-	c #701010",
"                                        ",
"                                        ",
"                                        ",
"                                        ",
"                                        ",
"                                        ",
"                                        ",
"                                        ",
"                                        ",
"                                        ",
"                ........                ",
"                ........                ",
"             ..............             ",
"            ................            ",
"            ................            ",
"            ....++@##$%%....            ",
"          .....+########&.....          ",
"          .....+########&.....          ",
"          .....@########*.....          ",
"          .....=#########.....          ",
"          .....=#########.....          ",
"          .....@########*.....          ",
"          .....+########&.....          ",
"          .....+########&.....          ",
"            ....--*##*&&....            ",
"            ................            ",
"            ................            ",
"             ..............             ",
"                ........                ",
"                ........                ",
"                                        ",
"                                        ",
"                                        ",
"                                        ",
"                                        ",
"                                        ",
"                                        ",
"                                        ",
"                                        ",
"                                        "};
