/* XPM */
static char * floor2_xpm[] = {
"40 40 430 2",
"  	c #8CC3C4",
". 	c #82B9BA",
"+ 	c #72A8A9",
"@ 	c #89BFC0",
"# 	c #7EB5B5",
"$ 	c #8AC1C2",
"% 	c #89C0C1",
"& 	c #73A9A9",
"* 	c #84BABB",
"= 	c #85BBBC",
"- 	c #74AAAB",
"; 	c #7BB2B2",
"> 	c #87BEBF",
", 	c #6BA2A2",
"' 	c #88BFC0",
") 	c #80B7B7",
"! 	c #92C5C3",
"~ 	c #9CC9C1",
"{ 	c #98C7C2",
"] 	c #7DB4B4",
"^ 	c #71A8A8",
"/ 	c #8CC2C2",
"( 	c #9CC8C1",
"_ 	c #85BCBD",
": 	c #7BB1B2",
"< 	c #83BABA",
"[ 	c #81B7B8",
"} 	c #74ABAB",
"| 	c #6EA4A5",
"1 	c #77AEAE",
"2 	c #7FB5B6",
"3 	c #70A09D",
"4 	c #A9BFA4",
"5 	c #BBD2B5",
"6 	c #9DC9C0",
"7 	c #80B6B7",
"8 	c #7CB2B3",
"9 	c #6AA1A1",
"0 	c #80B7B8",
"a 	c #8BC2C3",
"b 	c #77ADAE",
"c 	c #6BA1A0",
"d 	c #9EBCA7",
"e 	c #BBD0B2",
"f 	c #A8CDBE",
"g 	c #8BC3C4",
"h 	c #70A6A6",
"i 	c #60908F",
"j 	c #6FA5A5",
"k 	c #6DA4A4",
"l 	c #81B8B9",
"m 	c #669C9C",
"n 	c #537170",
"o 	c #5F8C8C",
"p 	c #639696",
"q 	c #6BA0A0",
"r 	c #72A6A7",
"s 	c #628F8F",
"t 	c #6EA5A5",
"u 	c #90C4C2",
"v 	c #90C4C3",
"w 	c #7FB6B6",
"x 	c #83B9BA",
"y 	c #6CA0A0",
"z 	c #5A8281",
"A 	c #659A9A",
"B 	c #679E9E",
"C 	c #689D9D",
"D 	c #72A6A6",
"E 	c #689A9A",
"F 	c #72A9A9",
"G 	c #84BBBB",
"H 	c #88BEBF",
"I 	c #6A9D9D",
"J 	c #6B9494",
"K 	c #82B5B6",
"L 	c #78AAAA",
"M 	c #73A0A1",
"N 	c #719F9F",
"O 	c #5C8786",
"P 	c #639292",
"Q 	c #70A7A7",
"R 	c #9FC3B4",
"S 	c #ADCFBE",
"T 	c #8EC3C2",
"U 	c #84BBBC",
"V 	c #608F8F",
"W 	c #5D8282",
"X 	c #75A5A5",
"Y 	c #729D9E",
"Z 	c #709E9F",
"` 	c #618C8C",
" .	c #649494",
"..	c #71A7A8",
"+.	c #94C6C3",
"@.	c #AFD0BD",
"#.	c #7EB4B5",
"$.	c #7AB1B1",
"%.	c #8EC4C4",
"&.	c #B0D0BD",
"*.	c #91C5C3",
"=.	c #7AB0B1",
"-.	c #82B7B8",
";.	c #8DC3C4",
">.	c #93C5C3",
",.	c #95C6C3",
"'.	c #A9CDBF",
").	c #BDD6BA",
"!.	c #CEDDB5",
"~.	c #A7C9B9",
"{.	c #A7CDBF",
"].	c #A1CAC0",
"^.	c #CFDEB5",
"/.	c #B7D1B7",
"(.	c #86BDBE",
"_.	c #96BBAE",
":.	c #A8C3AA",
"<.	c #AFCCB6",
"[.	c #ADCBB7",
"}.	c #A2C5B5",
"|.	c #89B6AF",
"1.	c #8BC1C2",
"2.	c #92BBB1",
"3.	c #A8C2AA",
"4.	c #AECAB3",
"5.	c #B0CCB6",
"6.	c #A6C8B8",
"7.	c #95BBAE",
"8.	c #73AAAA",
"9.	c #76ACAD",
"0.	c #76ADAD",
"a.	c #689C9C",
"b.	c #567979",
"c.	c #598181",
"d.	c #6CA3A3",
"e.	c #8CC2C3",
"f.	c #6CA1A1",
"g.	c #577D7C",
"h.	c #649898",
"i.	c #70A6A7",
"j.	c #78AFAF",
"k.	c #81B7B7",
"l.	c #C5D9B8",
"m.	c #B7D3BC",
"n.	c #A6CCBF",
"o.	c #8FC4C3",
"p.	c #79B0B0",
"q.	c #689F9F",
"r.	c #77ADAD",
"s.	c #9CC7BE",
"t.	c #C9DBB7",
"u.	c #BBD5BB",
"v.	c #96C6C2",
"w.	c #82B9B9",
"x.	c #669D9D",
"y.	c #81B8B8",
"z.	c #86B6B1",
"A.	c #BED5B7",
"B.	c #80B3B1",
"C.	c #B0CDB8",
"D.	c #CEDDB6",
"E.	c #7CB3B3",
"F.	c #89C0C0",
"G.	c #74A8A6",
"H.	c #B0CCB5",
"I.	c #C0D6B9",
"J.	c #B9D4BB",
"K.	c #9AC6BD",
"L.	c #79AFB0",
"M.	c #A1C3B2",
"N.	c #C1D7B9",
"O.	c #BAD4BB",
"P.	c #A8CCBE",
"Q.	c #6FA6A6",
"R.	c #7DB3B4",
"S.	c #6CA2A2",
"T.	c #B4D2BC",
"U.	c #5F8E8D",
"V.	c #6BA1A2",
"W.	c #8BC2C2",
"X.	c #69A0A0",
"Y.	c #7EB5B6",
"Z.	c #80B1AE",
"`.	c #5F8D8D",
" +	c #649797",
".+	c #73A7A8",
"++	c #618D8D",
"@+	c #71A6A6",
"#+	c #7EB4B4",
"$+	c #9AC8C2",
"%+	c #B1D1BD",
"&+	c #A4C8B9",
"*+	c #608B8B",
"=+	c #597C7B",
"-+	c #7DB2B3",
";+	c #618989",
">+	c #6AA0A0",
",+	c #BED3B3",
"'+	c #679897",
")+	c #547271",
"!+	c #74A7A7",
"~+	c #78ADAD",
"{+	c #587A7A",
"]+	c #83B6B7",
"^+	c #A3CBC0",
"/+	c #AED0BE",
"(+	c #B4CFB7",
"_+	c #6EA2A1",
":+	c #587D7C",
"<+	c #7FB4B5",
"[+	c #86BCBD",
"}+	c #5F8787",
"|+	c #5B8181",
"1+	c #9BC8C1",
"2+	c #B8D3BA",
"3+	c #7DACA6",
"4+	c #5A8383",
"5+	c #78AEAF",
"6+	c #689696",
"7+	c #9DC9C1",
"8+	c #A1C4B4",
"9+	c #609090",
"0+	c #8ABFBF",
"a+	c #7DAFB0",
"b+	c #5D8989",
"c+	c #BED4B6",
"d+	c #5C8483",
"e+	c #7EB2B3",
"f+	c #699F9F",
"g+	c #85BCBC",
"h+	c #6DA3A4",
"i+	c #A9C9B7",
"j+	c #C8DAB8",
"k+	c #98C2BA",
"l+	c #77A29F",
"m+	c #9BC5BC",
"n+	c #C2D8B9",
"o+	c #BCD5BA",
"p+	c #99C7C2",
"q+	c #7BABAC",
"r+	c #689898",
"s+	c #99C1B5",
"t+	c #C6D9B8",
"u+	c #B9D1B7",
"v+	c #88ADA5",
"w+	c #7CADAD",
"x+	c #B8D4BC",
"y+	c #AECFBE",
"z+	c #99C8C2",
"A+	c #75ABAB",
"B+	c #6CA3A4",
"C+	c #76ADAE",
"D+	c #649292",
"E+	c #5E8D8C",
"F+	c #A2CBC0",
"G+	c #6B9B9B",
"H+	c #6B9E9E",
"I+	c #7AA9AA",
"J+	c #8BBDBB",
"K+	c #71A7A7",
"L+	c #6DA3A3",
"M+	c #75ABAC",
"N+	c #7DB4B5",
"O+	c #72A8A8",
"P+	c #82B8B9",
"Q+	c #83BABB",
"R+	c #6FA5A6",
"S+	c #83B0AA",
"T+	c #BDD1B1",
"U+	c #C6D9B7",
"V+	c #75A9A8",
"W+	c #B2CAAE",
"X+	c #CADAB6",
"Y+	c #689E9F",
"Z+	c #629595",
"`+	c #6FA1A2",
" @	c #76ACAC",
".@	c #629594",
"+@	c #679999",
"@@	c #6FA2A2",
"#@	c #72A5A5",
"$@	c #7CB0B1",
"%@	c #7CB2B2",
"&@	c #73A3A3",
"*@	c #659999",
"=@	c #659B9B",
"-@	c #5E8383",
";@	c #6E9C9D",
">@	c #6FA3A3",
",@	c #6C9C9C",
"'@	c #669292",
")@	c #5A8181",
"!@	c #8AC1C1",
"~@	c #597B7B",
"{@	c #6D9999",
"]@	c #85B9B9",
"^@	c #6E9C9C",
"/@	c #648A89",
"(@	c #587E7D",
"_@	c #5D8988",
":@	c #9EC9C1",
"<@	c #86BDBD",
"[@	c #87BDBE",
"}@	c #78AEAE",
"|@	c #C3D8B8",
"1@	c #A7CCBE",
"2@	c #95C6C2",
"3@	c #B5D2BC",
"4@	c #D0DEB5",
"5@	c #B7D2BA",
"6@	c #8BC2C4",
"7@	c #9EC4B7",
"8@	c #B4CDB2",
"9@	c #C3D8B9",
"0@	c #C1D6B6",
"a@	c #A2C5B6",
"b@	c #7AAEAD",
"c@	c #94C1BB",
"d@	c #B3CCB3",
"e@	c #B8D2B9",
"f@	c #ADCAB4",
"g@	c #7DAFAB",
"h@	c #ABCEBE",
"i@	c #7BB2B3",
"j@	c #679E9F",
"k@	c #679B9B",
"l@	c #618F8F",
"m@	c #5D8686",
"n@	c #608D8C",
"o@	c #649999",
"p@	c #88B4AD",
"q@	c #BED5B8",
"r@	c #7EB0B1",
"s@	c #74A4A5",
"t@	c #A8CDBF",
"u@	c #A5CCBF",
"v@	c #97C7C2",
"w@	c #81B5B5",
"x@	c #74A5A5",
"y@	c #6DA2A2",
"z@	c #99C7C1",
"A@	c #96C7C2",
"B@	c #5A8483",
"C@	c #699A9A",
"D@	c #94BDB4",
"E@	c #B3D1BD",
"F@	c #A0CAC0",
"G@	c #77A8A8",
"H@	c #6F9F9F",
"I@	c #80AAA4",
"J@	c #BCD5B9",
"K@	c #B3D1BC",
"L@	c #94C6C2",
"M@	c #77ABAA",
"N@	c #B8D1B7",
"O@	c #CBDCB6",
"P@	c #73A9AA",
"Q@	c #AACEBF",
"R@	c #679494",
"S@	c #6C9494",
"T@	c #709999",
"U@	c #6E9E9E",
"V@	c #7FB2B0",
"W@	c #669A9A",
"X@	c #73A7A7",
"Y@	c #7DB3B3",
"Z@	c #6C9A9A",
"`@	c #88BFC1",
" #	c #A2CABE",
".#	c #B9D0B2",
"+#	c #52706F",
"@#	c #71A2A3",
"##	c #709E9E",
"$#	c #75ACAC",
"%#	c #91C1BC",
"&#	c #C4D8B6",
"*#	c #6D9F9D",
"=#	c #516B6B",
"-#	c #699999",
";#	c #8DC2C2",
">#	c #BAD2B6",
",#	c #7AA9A3",
"'#	c #79ADAD",
")#	c #577A7A",
"!#	c #76A5A6",
"~#	c #BCD4B9",
"{#	c #8EB4A8",
"]#	c #5C8686",
"^#	c #6D9C9D",
"/#	c #79ADAE",
"(#	c #659595",
"_#	c #6A9494",
":#	c #C2D7B8",
"<#	c #9DBEAC",
"[#	c #74A4A4",
"}#	c #6C9C9D",
"|#	c #AFC9B0",
"1#	c #6B9898",
"2#	c #638988",
"3#	c #5D8483",
"4#	c #7CB1B2",
"5#	c #A8CCBC",
"6#	c #8BB5AD",
"7#	c #72A7A7",
"8#	c #9BC6BD",
"9#	c #D1DEB5",
"0#	c #C8DBB7",
"a#	c #A0C2B3",
"b#	c #9FCAC1",
"c#	c #86BBBC",
"d#	c #6DA2A3",
"e#	c #75A7A4",
"f#	c #80B1AD",
"g#	c #659090",
"h#	c #5C8888",
"i#	c #6EA2A0",
"j#	c #6E9C9A",
"k#	c #597F7F",
"l#	c #98C2B8",
"m#	c #AACEBE",
"n#	c #A5CCC0",
"o#	c #88BFBF",
"p#	c #8ABEBE",
"q#	c #74AAAA",
"r#	c #C0D7B9",
"s#	c #8BB3A9",
"t#	c #7FB6B7",
"u#	c #B3D2BC",
"v#	c #B6D3BC",
"w#	c #A8C6B2",
"        . + @       # $                       % & *       = -                 ; ",
"      > , '         ) = ! ~ {               ' & )         ] ^ / ~ (           _ ",
"' : < [ } | 1 2     = ^ 3 4 5 6       $ 7 8 < 8 9 0 a     > b c d e f g     $ h ",
"i j $   _ k l *         m n o p q & r s t u v a , w x a       y z A B C & D s , ",
"E F G   @ a           H I J K L M N O P Q R S T $           U V W M X Y Z `  ...",
"a               +.@.H #.a           $.x               %.&.*.=.-.%         l l   ",
"        ;.>.,.'.).!.~.              a %       %.>.>.{.].^./.a             a $   ",
"  % (._ _.:.<.[.}.|.1               $ a 1.(.(.2.3.4.5.6.7.8.a             a %   ",
"} 9.(.0.F , a.b.c.d.e.              (.Q 1 l 8 F , f.b.g.h.> ;.            a i.j.",
"t a       a a @ k.1 @.l.m.n.o.      p.q.'       a   1.[ r.s.t.u.{.v.      w.x.y.",
"_                 @ z.A.t.( g     # , w.a               a B.C.D.n.      x i.E.% ",
"%       0           F.G.H.I.J.K.L.^ q.=       [ e.        a & M.N.O.P.2 Q...R.  ",
"%   a #.S.) a     %.T.f.U.m V.9 8.W.[ *   a U X.Y.'       T.Z.`. +9 9 t >   '   ",
"2 .+++@+8 j #+$+$+%+&+*+=+-+    '     _ - ;+>+2 + } { $+n.,+'+)+!+e.  >       U ",
"] ~+{+]+    ;.^+/+(+_+:+<+          [+R.$.}+|+@     1+/+2+3+4+!+          $ : 5+",
"x.(.6+q 7     7+'.T.8+9+0+;.        E.x.0.a+b+8 a   v.'.N.c+d+e+          < f+d.",
"g+$ Q.h+, 8.i+j+j+k+l+x.m+n+o+@.p+;.> U a   q+r+| s+t+j+u+v+)+w+x+%+y+z+;.% U (.",
"        a A+B+C+C+D+E+Q 8 F+7+N.T.n.;.          ] q.C+C+G+b+H+I+J+{ { { ;.      ",
"          : $.    $ k H                         * K+    a 0.2                   ",
"        ' L+(.      M+N+                      a O+2       # -                   ",
"      (.} _         # '                     a R.#.        U P+                  ",
"a * * Q+R+1 0 [+    #., S+T+U+7+        ' 2 U Q ^ 0 (.    * t V+W+X+'.        a ",
"I X.%   (.Y+j.E.      ' B Z+f.^ b ] R.`+q.P+a a X. @: a       Q..@+@@@#@$@%@&@*@",
"`.Q [+  (.H           0 =@-@;@>@,@'@)@4+, [   !@G             O+~@{@]@^@/@(@_@x.",
"> $ a           ;.:@  k w <@        [@= $ $             :@$ }@t 7         % w.$ ",
"          g   1+|@^.1@%                         g g 2@3@4@5@6@                  ",
"      a 7@8@O.9@0@a@b@                        c@d@e@n+7+f@g@$             U h@%.",
"#.i@[ j j@j@k@d+l@q.%               > j.# #.M+q.j@Y+m@n@o@.               l p@q@",
"5+< a       <@r@s@0.t@%+u@v@;.      2 q.y.%       ' w@x@y@z@u.h@A@v       % B@C@",
"p.$               U D@E@).F@%.    $ t # a               @ z.N.D.t@!       G@H@(.",
"        _         a U I@J@J.K@L@_ Q.q.%       [+          @ M@N@O@J.1+> P@B .   ",
"(.    = i.@     [ %@Q@R@S@T@U@t F $ j.b H   % | 0 a   (.# n.V@W@X@& O+k (.) =.  ",
"w.Y@Z@^ F B #.  `@ #.#V +#@#[+[+0 a   [@N+##y@$#X.-   l %#&#*#=#-#[+(.7 $   $ * ",
". K+)@r@  $ ;#@.J.>#,#(@'#a         F.U M+)#!#  $ $ n.J.~#{#]#^#a         a Q+/#",
"q.' (#_#>     v v.:#<#b+_           P+x.j.[#}#G     %.2@O.|#]#E.          [+X.t ",
"0   1#2#3#4#5#O@4@|@6#x.a           l ; 0 7#h.x.0.8#t+9#0#a#B x S b#( g   [+; 2 ",
"        c#d#e#f#f#g#h#B 1 $               $ % % A+i#f#f#j#k#m K+l#h@m#n#%.      ",
"          # 1 a a = 9 o#                      %.p#k   a H K+w                   ",
"        a d.*       q#7                     v@r#s#:       ] 0.                  ",
"      a =.t#        ) _                 u#J.v#w#}@a       (.w                   "};
