/* XPM */
static char * floor00_xpm[] = {
"40 40 468 2",
"  	c #1D161A",
". 	c #251D21",
"+ 	c #292125",
"@ 	c #282024",
"# 	c #211A1D",
"$ 	c #1D171B",
"% 	c #1D181C",
"& 	c #1F191D",
"* 	c #271F23",
"= 	c #21191D",
"- 	c #231C1F",
"; 	c #1C161A",
"> 	c #1E181D",
", 	c #251E22",
"' 	c #1C1418",
") 	c #221A1E",
"! 	c #222424",
"~ 	c #2E3336",
"{ 	c #383C41",
"] 	c #35383D",
"^ 	c #252125",
"/ 	c #21181D",
"( 	c #221B1E",
"_ 	c #2C2D31",
": 	c #231C20",
"< 	c #1D1418",
"[ 	c #252529",
"} 	c #373B40",
"| 	c #2A272B",
"1 	c #22191D",
"2 	c #231B1F",
"3 	c #20181C",
"4 	c #211A1E",
"5 	c #21181C",
"6 	c #1E1D1F",
"7 	c #1F1D1F",
"8 	c #242325",
"9 	c #28282C",
"0 	c #28272B",
"a 	c #29312F",
"b 	c #3B4447",
"c 	c #4A5157",
"d 	c #454D52",
"e 	c #2E3034",
"f 	c #27262A",
"g 	c #222024",
"h 	c #1F1B1F",
"i 	c #383E42",
"j 	c #1E1B1D",
"k 	c #1E181C",
"l 	c #252327",
"m 	c #34383C",
"n 	c #495056",
"o 	c #211D21",
"p 	c #211D20",
"q 	c #28272C",
"r 	c #28252A",
"s 	c #35383C",
"t 	c #272F2D",
"u 	c #262F2D",
"v 	c #373E40",
"w 	c #43494E",
"x 	c #42494E",
"y 	c #41494D",
"z 	c #333B3B",
"A 	c #3C4548",
"B 	c #4B5359",
"C 	c #495157",
"D 	c #444A50",
"E 	c #33363A",
"F 	c #2B2C30",
"G 	c #262A2A",
"H 	c #251E21",
"I 	c #201B1F",
"J 	c #3A3E43",
"K 	c #43494F",
"L 	c #454C51",
"M 	c #4A5258",
"N 	c #454D51",
"O 	c #33353A",
"P 	c #41484D",
"Q 	c #211B1F",
"R 	c #292226",
"S 	c #3C4044",
"T 	c #2A2E2E",
"U 	c #2A3330",
"V 	c #364040",
"W 	c #40494C",
"X 	c #3F484B",
"Y 	c #2E3637",
"Z 	c #333B3C",
"` 	c #313538",
" .	c #2A2C2F",
"..	c #3F474A",
"+.	c #2A302E",
"@.	c #272124",
"#.	c #373E41",
"$.	c #464F53",
"%.	c #444C50",
"&.	c #303537",
"*.	c #3F484A",
"=.	c #40474B",
"-.	c #373A3F",
";.	c #201A1E",
">.	c #292225",
",.	c #3A4043",
"'.	c #292326",
").	c #2A3733",
"!.	c #2C3734",
"~.	c #2B3433",
"{.	c #222324",
"].	c #252929",
"^.	c #2C3633",
"/.	c #252828",
"(.	c #212324",
"_.	c #2B3633",
":.	c #262D2C",
"<.	c #3B4446",
"[.	c #475055",
"}.	c #474F55",
"|.	c #464E53",
"1.	c #353E40",
"2.	c #222626",
"3.	c #212223",
"4.	c #2C2E2E",
"5.	c #272125",
"6.	c #261F23",
"7.	c #2A2F2E",
"8.	c #474F54",
"9.	c #2A3532",
"0.	c #293531",
"a.	c #293330",
"b.	c #282929",
"c.	c #201B1E",
"d.	c #221E21",
"e.	c #292C2B",
"f.	c #293431",
"g.	c #212222",
"h.	c #1E1D1E",
"i.	c #2C3333",
"j.	c #354040",
"k.	c #353F40",
"l.	c #343E3F",
"m.	c #282D2D",
"n.	c #1D1A1C",
"o.	c #201C1E",
"p.	c #29332F",
"q.	c #292325",
"r.	c #20191D",
"s.	c #262325",
"t.	c #2F3536",
"u.	c #282A2A",
"v.	c #292D2C",
"w.	c #252022",
"x.	c #1E171B",
"y.	c #292528",
"z.	c #2A2E2D",
"A.	c #292527",
"B.	c #231A1F",
"C.	c #252D2B",
"D.	c #2A3633",
"E.	c #231D21",
"F.	c #1B1418",
"G.	c #292E2D",
"H.	c #282D2C",
"I.	c #201E20",
"J.	c #1E161B",
"K.	c #241C21",
"L.	c #2A2C2C",
"M.	c #271E22",
"N.	c #242022",
"O.	c #1D181B",
"P.	c #252525",
"Q.	c #242B29",
"R.	c #242A29",
"S.	c #1F181C",
"T.	c #251F22",
"U.	c #282125",
"V.	c #262124",
"W.	c #201F21",
"X.	c #27302E",
"Y.	c #282B2B",
"Z.	c #231E21",
"`.	c #211D1F",
" +	c #221D20",
".+	c #282124",
"++	c #221A1F",
"@+	c #272F2E",
"#+	c #1D151A",
"$+	c #1D1A1D",
"%+	c #20181D",
"&+	c #221B1F",
"*+	c #292024",
"=+	c #241D21",
"-+	c #212323",
";+	c #211E21",
">+	c #241C20",
",+	c #232827",
"'+	c #232525",
")+	c #242828",
"!+	c #29322F",
"~+	c #252124",
"{+	c #1E171C",
"]+	c #242324",
"^+	c #212423",
"/+	c #212424",
"(+	c #261E22",
"_+	c #272024",
":+	c #1F181D",
"<+	c #252A29",
"[+	c #252A2A",
"}+	c #212524",
"|+	c #27312E",
"1+	c #212122",
"2+	c #292427",
"3+	c #2A322F",
"4+	c #29312E",
"5+	c #292728",
"6+	c #231B20",
"7+	c #1C1519",
"8+	c #261F22",
"9+	c #292B2A",
"0+	c #282325",
"a+	c #221C20",
"b+	c #29292A",
"c+	c #2A3331",
"d+	c #272627",
"e+	c #2A2A2B",
"f+	c #2A2A2A",
"g+	c #241D20",
"h+	c #1A1216",
"i+	c #1D1519",
"j+	c #2A2125",
"k+	c #1E151A",
"l+	c #252224",
"m+	c #1E161A",
"n+	c #272527",
"o+	c #282829",
"p+	c #2C2E32",
"q+	c #2E3135",
"r+	c #2A2A2E",
"s+	c #241B1F",
"t+	c #2A282C",
"u+	c #2E3035",
"v+	c #282428",
"w+	c #2F3135",
"x+	c #2C2B2F",
"y+	c #1E191C",
"z+	c #201C1F",
"A+	c #1D171A",
"B+	c #252428",
"C+	c #474E54",
"D+	c #3D4348",
"E+	c #232024",
"F+	c #1E191D",
"G+	c #211C1F",
"H+	c #464D53",
"I+	c #303337",
"J+	c #211B1E",
"K+	c #2A252A",
"L+	c #404449",
"M+	c #3E4349",
"N+	c #242125",
"O+	c #252B2A",
"P+	c #32373A",
"Q+	c #3C4147",
"R+	c #3C4146",
"S+	c #4B545A",
"T+	c #474E53",
"U+	c #3C4247",
"V+	c #3B4045",
"W+	c #29292D",
"X+	c #1F171B",
"Y+	c #232022",
"Z+	c #4C545A",
"`+	c #444C51",
" @	c #34373C",
".@	c #1F1C1F",
"+@	c #363B3F",
"@@	c #444B51",
"#@	c #1D1D1D",
"$@	c #292E2E",
"%@	c #3D4146",
"&@	c #484F55",
"*@	c #3D4247",
"=@	c #2A312F",
"-@	c #293331",
";@	c #384244",
">@	c #444D51",
",@	c #384043",
"'@	c #252A28",
")@	c #252528",
"!@	c #40484C",
"~@	c #495156",
"{@	c #292729",
"]@	c #2E3837",
"^@	c #3B4145",
"/@	c #212022",
"(@	c #3D4649",
"_@	c #485055",
":@	c #1F1F20",
"<@	c #2E3535",
"[@	c #2E3836",
"}@	c #313B3A",
"|@	c #2D3132",
"1@	c #252023",
"2@	c #201E21",
"3@	c #2F3837",
"4@	c #434C50",
"5@	c #4A5257",
"6@	c #343D3E",
"7@	c #22191E",
"8@	c #292829",
"9@	c #2A3533",
"0@	c #2F3A39",
"a@	c #313B3B",
"b@	c #2B3333",
"c@	c #1F1E20",
"d@	c #28322F",
"e@	c #2E3937",
"f@	c #3A4344",
"g@	c #262C2C",
"h@	c #201A1D",
"i@	c #2A282A",
"j@	c #29302E",
"k@	c #282E2C",
"l@	c #394244",
"m@	c #1D1B1D",
"n@	c #2A292A",
"o@	c #2A3431",
"p@	c #1F1E1F",
"q@	c #333D3D",
"r@	c #3B4547",
"s@	c #212725",
"t@	c #292A2A",
"u@	c #262C2B",
"v@	c #292F2E",
"w@	c #1E1C1E",
"x@	c #1F1D1E",
"y@	c #282F2D",
"z@	c #262023",
"A@	c #272C2B",
"B@	c #252123",
"C@	c #272325",
"D@	c #1E1C1D",
"E@	c #272526",
"F@	c #2A312E",
"G@	c #1F1F21",
"H@	c #231D20",
"I@	c #232625",
"J@	c #232727",
"K@	c #242A28",
"L@	c #232224",
"M@	c #2A2D2D",
"N@	c #2A2D2C",
"O@	c #262527",
"P@	c #212625",
"Q@	c #232726",
"R@	c #272E2D",
"S@	c #201D1F",
"T@	c #272B2A",
"U@	c #262E2D",
"V@	c #1F2021",
"W@	c #211C1E",
"X@	c #292628",
"Y@	c #1A1317",
"Z@	c #1A1217",
"`@	c #28292A",
" #	c #272929",
".#	c #231A1E",
"+#	c #222023",
"@#	c #262529",
"##	c #262428",
"$#	c #262125",
"%#	c #272225",
"&#	c #262528",
"*#	c #242928",
"=#	c #363C3F",
"-#	c #262327",
";#	c #2B2B2F",
">#	c #40464B",
",#	c #2D2D31",
"'#	c #212525",
")#	c #34373B",
"!#	c #33373B",
"~#	c #2D3635",
"{#	c #373C40",
"]#	c #29292E",
"^#	c #242226",
"/#	c #2E2F33",
"(#	c #33363B",
"_#	c #2E2F34",
":#	c #313236",
"<#	c #333C3C",
"[#	c #3A4345",
"}#	c #485056",
"|#	c #2D2E33",
"1#	c #282E2D",
"2#	c #211C20",
"3#	c #3F4448",
"4#	c #374142",
"5#	c #374041",
"6#	c #292E2F",
"7#	c #2D3334",
"8#	c #374143",
"9#	c #2B3032",
"0#	c #26282A",
"a#	c #313739",
"b#	c #434B4F",
"c#	c #3E484A",
"d#	c #2B2F31",
"e#	c #373D40",
"f#	c #303034",
"g#	c #33393B",
"h#	c #424B4F",
"i#	c #222625",
"j#	c #363E40",
"k#	c #424A4E",
"l#	c #40494D",
"m#	c #303838",
"n#	c #1F2121",
"o#	c #1D161B",
"p#	c #373F40",
"q#	c #414A4E",
"r#	c #282527",
"s#	c #202122",
"t#	c #2E3737",
"u#	c #2E3736",
"v#	c #2E3735",
"w#	c #232526",
"x#	c #2B2E2E",
"y#	c #292426",
"z#	c #222726",
"A#	c #222021",
"B#	c #292929",
"C#	c #222122",
"D#	c #1D191D",
"E#	c #252C2A",
"F#	c #252727",
"G#	c #28312E",
"H#	c #211F21",
"I#	c #242827",
"J#	c #1F1B1D",
"K#	c #232626",
"L#	c #242B2A",
"M#	c #282526",
"N#	c #252526",
"O#	c #283330",
"P#	c #242727",
"Q#	c #232123",
"R#	c #1A1418",
"S#	c #1F1A1E",
"T#	c #1E1A1D",
"U#	c #262225",
"V#	c #221D21",
"W#	c #231E22",
"X#	c #282426",
"Y#	c #211F23",
"Z#	c #373B3F",
"`#	c #3A3F44",
" $	c #221F23",
".$	c #2F3035",
"+$	c #3A3F43",
"@$	c #393D42",
"#$	c #2B2A2E",
"$$	c #272226",
"%$	c #26252A",
"&$	c #2F3236",
"  . + + + @ # $ % & * + + + * & %   = @ + + - ; % > , + + + + + + .     . + , > ",
"' = ) = = # ! ~ { ] ^ / ( ) ^ ] { _   - : ) < [ } } | 1 2 = = = = 3   4 ) 5 | } ",
"6 7 8 9 0 9 a b c d e f g h e d c i j k $ l f m n n ] o p 0 9 q 9 l k * r f s n ",
"t u v w x y z A B C D x E F w C B b G H I J K L M M N O F P x x K J Q R S w L M ",
"T U V W W X Y Z X X W W `  ...X X V +.@.I #.$.B B M %.&. .*.W W =.-.;.>.,.$.B B ",
"'.+.).!.!.~.{.].^.!.!.^./.(._.!.!.).+.@.& :.<.[.}.|.1.2.3.~.!.^.4.5.k 6.7.<.[.8.",
"+ +.9.0.a.b.c.d.e.f.f.e.d.g.a.f.f.9.+.@.k h.i.j.k.l.m.n.o.b.p.e.q..   r.s.t.j.k.",
". u.7.T v.w.x.2 y.z.z.A.B.7 C.f.D.U u.E.  F.{.G.G.H.I.J.K.>.L.y.M.N.3.O.4 P.Q.R.",
"S.T.U.U.V.S.  : U.>.>.+ :   W.X.a.Y.T.k   % Z.U.U.5.`. +* @ U..+++3.@+7 #+$+6 6 ",
". ) / / %+#+&+: : *++ + : S.=+3.-+;+) >+% ,+'+/ / = )+'+= = = =   3.!+~+{+-+C.C.",
"+ ]+^+(./+(.5.2 r.+ + (+= = _+) / = >+* :+<+[+-+-+}+|+[+S.  r.1+-+R.U 2+/ '+3+9.",
"U.H.!+!+!+4+5+6+= @ @ 4 7+r._+@ @ @ @ 8+k T.9+!+!+!+U 9+>+x.T.H.!+a.3+0+%+a+b+c+",
"Q d+e+f+f+f+2+* g+4 3 ' h+i+&+@ j+j+* = ' k+l+f+f+f+f+l+m+' %+n+e+f+o+ +< < Z.b+",
"7+2 . . . . . . &+I p+q+q+r+$ s+. , &+h p+q+t+. . . . t+u+u+e v+. . . 4 r+w+x+. ",
"O.y+z+o o o o z+A+B+x C+C+D+E+o & x.  [ x C+} I k F+G+} |.H+N I+k O.J+K+L+}.M+N+",
"O+R.P+Q+R+R+Q+P+^+f C+S+B T+U+V+W+X+Y+i.}.Z+`+ @.@<++@@@B B M P e #@$@%@&@Z+C+*@",
"=@-@;@>@>@>@>@,@'@)@!@~@M M C `+p+/ {@]@y >@>@^@/@c+(@_@M M M |.m :@<@y >@>@>@>@",
"y.+.[@}@}@}@}@|@1@2@3@4@5@C 8.6@'+7@8@9@0@}@a@b@c@d@e@*.C C ~@f@g@h@i@3@}@}@}@}@",
"+ b+j@f.f.f.k@A.. % 2.1.A A l@g@m@2 n@o@f.f.0.C.p@d@0.q@r@b <.0@s@%++ t@!+0.0.0.",
"6..+f+3+3+=@{@@ . S.% u@c+c+v@w@' 4 n+3+9.9.a.R.x@y@o@D.D.D.D.D.<+4 (+z@A@|+X.X.",
"%+(+'.A.A.A.>.K.4 . k B@A.A.C@k 7+   +8@U 9.O+D@k E@F@9.o@o@o@9.Y.=+:+:+7 G@G@G@",
"&+2 2 B.B.B.: :+r.@ >+B.B.B.H@I@h.S.&+E.J@K@L@/   &+o+M@N@N@N@N@O@= % P@,+Q@Q@,+",
".+d.7 7 7 7 %   &++ .+d.7 7 1+R@1+&+, :+:+& =+.     =+_+_+_+_+_+&+#+S@y@o@o@c+!+",
"+ T@u u u U@V@= * + + T@u u R@o+W@2 @ (+(+(+@ .   7+k %+%+%+%+%+$ :+6.X@=@D.=@{@",
"=+u.T z.T z.;+X+) 2 U.e+T T e.H@< S., + j+j+* = Y@Z@%+&+&+&+&+&+&+: =+=+`@T  #.#",
"  H U.@.@.@.p +#@###_+_+@.@.5.##[ o r.* _+* &+h B+B+$#* * * 6.6.* =+$ k H @.%#&#",
"7+S.%+%+3 r.*#=#P D+##X+%+X+-#D+P O i+%+r.%+< ;#>#>#,#X+r.%+%+%+%+k $ =+4 m+,#>#",
"'#'#p+)#!#!#~#(@Z+n {#!#]#^#} n Z+^@1+= % /#!#V+M M R+9 l (#!#!# @_#& U.:#(#V+M ",
"!+p.l@d d >@<#[#}#_@H+d ] |#>@_@}#<.1#z@2#U+}.~@M M }.m |#`+d d H+R+2#R 3#}.~@M ",
"f+3+a@4#4#5#6#7#5#5#4#8#9#0#5#5#5#a@+.@.;.a#b#B M 5@c#d#0#5#4#4#e#f#r.U.g#h#B M ",
"+ +.9.0.f.v@W.! 4+f.f.4+! g.f.0.f.9.+.@.k i#j#k#k#l#m#n#W.y@f.4+8@. o#=+u.p#k#q#",
"U.$@o@o@3+r#r.H@b+c+c+b+a+s#a.9.9.9.T z@x.O.u@t#u#v#w#A+4 A.=@t@+ H % O.T.x#t#u#",
"J+n+f+f+o+ +  2 y#t@t@'.2 $+z#a.D.+.n+4   F.A#B#B#o+o.%+(++ i@y#. C#*#D#S.~+b.o+",
"r.>+. . K.  k : 6.+ + + :   `.E#U@F#K.%+  :@Y+. . . C#Y+. H . . / 3.G#H##+Y+8@{@",
"* G+F+F+F+% . : 4 + + + &+%+, S@w@F+4 , > O+I#F+F+J#E#I#x.x.k F+O./+!+C@%+K#U U ",
"+ /.L#L#L#[+M#&+%++ + =+k = @ . >+: , * :+N#T@L#L#O+O#T@4   H@P#L#U@U A./ Q#T 9.",
"6.e.=@=@=@+.X@. 4 , . X+R#S.(++ + + @ .   ) b.=@=@=@=@b.)   . e.=@=@$@B@x./ E@+.",
"S.~+A.A.A.A.+ @ =+:+Q S#T#F+r.* + + , :+F+I B@A.A.A.A.B@I S#2#U#A.A.0+V#S#S#W#X#",
"7+= 2 &+&+&+&+: %+Y#Z#`#`#E F+4 2 - %+ $Z#`#.$) &+&+) .$`#+$@$#$1 7@$$} `#`#(#=+",
"7+7+7+7+7+7+7+7+F.%$N M M >#h 7+7+7+F.%$N M { F.7+7+F.{ M C n &$h+F.%$N M M >#h "};
