/* XPM */
static char * floor00_xpm[] = {
"40 40 376 2",
"  	c #638F8F",
". 	c #709D9D",
"+ 	c #5D8989",
"@ 	c #6B9697",
"# 	c #6A9596",
"$ 	c #5C8888",
"% 	c #6E9A9B",
"& 	c #6F9B9C",
"* 	c #659191",
"= 	c #6E999A",
"- 	c #5C8788",
"; 	c #689595",
"> 	c #6B9798",
", 	c #7DA19B",
"' 	c #709C9C",
") 	c #5B8787",
"! 	c #649191",
"~ 	c #679393",
"{ 	c #6D999A",
"] 	c #7AA09C",
"^ 	c #759E9D",
"/ 	c #568282",
"( 	c #6C9999",
"_ 	c #5A8585",
": 	c #87A599",
"< 	c #96A78F",
"[ 	c #7F9786",
"} 	c #568181",
"| 	c #608B8C",
"1 	c #709C9D",
"2 	c #679394",
"3 	c #558181",
"4 	c #648F90",
"5 	c #699595",
"6 	c #679293",
"7 	c #7EA19A",
"8 	c #96A991",
"9 	c #889984",
"0 	c #5A817E",
"a 	c #669192",
"b 	c #608C8C",
"c 	c #588485",
"d 	c #689394",
"e 	c #638E8F",
"f 	c #4F7373",
"g 	c #5C8585",
"h 	c #547E7E",
"i 	c #537F7F",
"j 	c #517C7C",
"k 	c #486868",
"l 	c #578181",
"m 	c #669292",
"n 	c #749D9D",
"o 	c #749D9C",
"p 	c #588585",
"q 	c #5C8586",
"r 	c #507878",
"s 	c #4C7070",
"t 	c #435B5A",
"u 	c #527D7D",
"v 	c #689495",
"w 	c #588484",
"x 	c #598585",
"y 	c #4D7473",
"z 	c #5B8687",
"A 	c #507777",
"B 	c #4E7070",
"C 	c #5A7F80",
"D 	c #5C7E7F",
"E 	c #5E8585",
"F 	c #5C8181",
"G 	c #4B6868",
"H 	c #4D7373",
"I 	c #6A9697",
"J 	c #729D9C",
"K 	c #8BA699",
"L 	c #809D91",
"M 	c #5A8686",
"N 	c #507575",
"O 	c #4A6C6C",
"P 	c #5B8080",
"Q 	c #608989",
"R 	c #689192",
"S 	c #567777",
"T 	c #557E7E",
"U 	c #6D9999",
"V 	c #6A9696",
"W 	c #547C7C",
"X 	c #628D8E",
"Y 	c #749E9D",
"Z 	c #8DA798",
"` 	c #729D9D",
" .	c #628E8E",
"..	c #779F9D",
"+.	c #93A893",
"@.	c #A6B291",
"#.	c #81A29A",
"$.	c #86A599",
"%.	c #769E9D",
"&.	c #86A195",
"*.	c #A5B191",
"=.	c #98AC95",
"-.	c #88A599",
";.	c #789F9D",
">.	c #719D9D",
",.	c #5C8989",
"'.	c #78968C",
").	c #85A194",
"!.	c #8DA492",
"~.	c #8CA290",
"{.	c #879C89",
"].	c #75968E",
"^.	c #6C9899",
"/.	c #709B9C",
"(.	c #6E928D",
"_.	c #829E91",
":.	c #8BA393",
"<.	c #879D89",
"[.	c #608D8D",
"}.	c #5A8586",
"|.	c #507A7A",
"1.	c #466464",
"2.	c #456161",
"3.	c #578383",
"4.	c #476868",
"5.	c #547D7D",
"6.	c #5F8B8B",
"7.	c #5F8A8B",
"8.	c #689494",
"9.	c #527E7E",
"0.	c #789F9C",
"a.	c #96AB96",
"b.	c #A1B093",
"c.	c #7DA099",
"d.	c #608B8B",
"e.	c #548080",
"f.	c #618D8D",
"g.	c #739D9D",
"h.	c #85A499",
"i.	c #93A997",
"j.	c #9EAE94",
"k.	c #689393",
"l.	c #649090",
"m.	c #A5B192",
"n.	c #8DA594",
"o.	c #67908E",
"p.	c #99AB93",
"q.	c #6C928E",
"r.	c #649091",
"s.	c #87A499",
"t.	c #95AA96",
"u.	c #9BAD95",
"v.	c #819D8F",
"w.	c #7C9F98",
"x.	c #9AAC95",
"y.	c #8DA491",
"z.	c #5D8785",
"A.	c #6E9A9A",
"B.	c #507979",
"C.	c #4C7171",
"D.	c #678E8C",
"E.	c #91A997",
"F.	c #659192",
"G.	c #548181",
"H.	c #568182",
"I.	c #4C7271",
"J.	c #578282",
"K.	c #5D8686",
"L.	c #435C5B",
"M.	c #537A79",
"N.	c #99A990",
"O.	c #7CA19C",
"P.	c #4E6E6E",
"Q.	c #476463",
"R.	c #4D7070",
"S.	c #84A195",
"T.	c #8EA898",
"U.	c #5B8585",
"V.	c #4E7171",
"W.	c #5C8687",
"X.	c #608C8D",
"Y.	c #486969",
"Z.	c #648A85",
"`.	c #94A995",
" +	c #8CA799",
".+	c #7CA19B",
"++	c #496868",
"@+	c #4C6C6C",
"#+	c #6C9798",
"$+	c #669191",
"%+	c #476464",
"&+	c #588281",
"*+	c #91A693",
"=+	c #83A39A",
"-+	c #699293",
";+	c #476262",
">+	c #658F90",
",+	c #4A6A69",
"'+	c #99AA92",
")+	c #4B6E6E",
"!+	c #648D8D",
"~+	c #6F9999",
"{+	c #4D7474",
"]+	c #819D91",
"^+	c #7EA19B",
"/+	c #547878",
"(+	c #7BA19C",
"_+	c #8CA699",
":+	c #94AA97",
"<+	c #648B8B",
"[+	c #6D8B85",
"}+	c #95A893",
"|+	c #A1AF94",
"1+	c #9FAE94",
"2+	c #7B9B91",
"3+	c #547A7A",
"4+	c #63898A",
"5+	c #7BA09C",
"6+	c #97AB95",
"7+	c #9CAD95",
"8+	c #7C9E97",
"9+	c #608280",
"0+	c #7A9C95",
"a+	c #88A193",
"b+	c #588384",
"c+	c #6B9797",
"d+	c #709896",
"e+	c #628889",
"f+	c #567F7F",
"g+	c #567C7C",
"h+	c #5F8B8C",
"i+	c #82A39A",
"j+	c #4B7170",
"k+	c #578384",
"l+	c #5E8989",
"m+	c #5B8686",
"n+	c #5C8787",
"o+	c #5E898A",
"p+	c #588383",
"q+	c #A2AF92",
"r+	c #8FA28C",
"s+	c #5E8887",
"t+	c #9FAE93",
"u+	c #98A88E",
"v+	c #698D89",
"w+	c #699596",
"x+	c #517B7B",
"y+	c #5C8383",
"z+	c #648F8F",
"A+	c #648D8E",
"B+	c #598282",
"C+	c #537B7B",
"D+	c #4F7877",
"E+	c #5F8A8A",
"F+	c #598182",
"G+	c #4F7878",
"H+	c #547F80",
"I+	c #4B6E6D",
"J+	c #476564",
"K+	c #506F6E",
"L+	c #587D7D",
"M+	c #6B9595",
"N+	c #587B7B",
"O+	c #476363",
"P+	c #6F9B9B",
"Q+	c #527575",
"R+	c #577D7D",
"S+	c #598383",
"T+	c #587D7E",
"U+	c #4B6969",
"V+	c #7FA19B",
"W+	c #6C9898",
"X+	c #93A995",
"Y+	c #A7B291",
"Z+	c #86A499",
"`+	c #9DAD94",
" @	c #89A599",
".@	c #648D89",
"+@	c #8BA291",
"@@	c #90A490",
"#@	c #779B96",
"$@	c #628C8B",
"%@	c #829E92",
"&@	c #9BAC92",
"*@	c #9DAD95",
"=@	c #91A58F",
"-@	c #7F9D93",
";@	c #99AB94",
">@	c #6D918B",
",@	c #507B7B",
"'@	c #4D7170",
")@	c #4B6C6C",
"!@	c #537F80",
"~@	c #4E7373",
"{@	c #537C7C",
"]@	c #638F90",
"^@	c #486A69",
"/@	c #78A09C",
"(@	c #7BA09B",
"_@	c #588282",
":@	c #5D8585",
"<@	c #689191",
"[@	c #79A09C",
"}@	c #5D8485",
"|@	c #658D8E",
"1@	c #598080",
"2@	c #608787",
"3@	c #90A898",
"4@	c #779891",
"5@	c #5C8889",
"6@	c #A3B192",
"7@	c #94A893",
"8@	c #779F9C",
"9@	c #90A897",
"0@	c #678984",
"a@	c #5C8686",
"b@	c #527C7C",
"c@	c #668F8D",
"d@	c #587F7F",
"e@	c #5A7B7B",
"f@	c #577777",
"g@	c #537777",
"h@	c #547B7B",
"i@	c #415656",
"j@	c #58807E",
"k@	c #9DAD92",
"l@	c #749B97",
"m@	c #5E8A8A",
"n@	c #5A7F7F",
"o@	c #5B8283",
"p@	c #425A59",
"q@	c #95A78F",
"r@	c #82A299",
"s@	c #6D999B",
"t@	c #577C7C",
"u@	c #618B8C",
"v@	c #729187",
"w@	c #97AA95",
"x@	c #5F8585",
"y@	c #466262",
"z@	c #618B8B",
"A@	c #628883",
"B@	c #95A992",
"C@	c #719C9C",
"D@	c #8DA18D",
"E@	c #577D7E",
"F@	c #5D8484",
"G@	c #7E998A",
"H@	c #9CAD94",
"I@	c #557777",
"J@	c #517878",
"K@	c #80A29B",
"L@	c #819C90",
"M@	c #A8B291",
"N@	c #70918B",
"O@	c #87A497",
"P@	c #648E8F",
"Q@	c #4B6A69",
"R@	c #506E6D",
"S@	c #567A7A",
"T@	c #85A49A",
"U@	c #7A9C94",
"V@	c #476666",
"W@	c #587D7C",
"X@	c #678E8B",
"Y@	c #4A6D6D",
"Z@	c #517474",
"`@	c #5E8684",
" #	c #588283",
".#	c #6C9697",
"+#	c #709088",
"@#	c #9AAD95",
"##	c #879F8F",
"$#	c #92A997",
"%#	c #90A997",
"&#	c #669293",
"  . . . . . . . . + @ . . . # $ % . . . . . . . . . . . & * . . . = - ; . . . . ",
"> . . . . . , , ' ) ! . . . . ~ $ { . . . . . . . ] , ^ @ ~ . . . . { / ( . . . ",
"_ & . . . : < [ } | ( . . 1 2 3 4 5 4 6 & . . . 7 8 9 0 ) @ . . a b c + d 5 e { ",
"/ f g $ h i j k l . . . 1 5 m / 1 n o p f q $ } r s t u . . . . # v w > . & x y ",
"z A B C D E F G H I . . . . . & J K L M N O P F Q R S T U . . . . . 1 = . V $ W ",
". v v . . . . % d X Y Z ` . . . . . . . 5  .. . . . . 1 * U Z ... . . . . . . 1 ",
". & 1 . . . . . . 1 +.@.#.$.%.%.` . . . % 1 . . . . . . . &.*.=.-.;.%.>.. . . . ",
". % 1 . . . . . . 1 ,.'.).!.~.{.].^.^./.1 & . . . . . . . b (._.:.!.<.'.> ^.% . ",
"[.}.1 . . . . . . >.( |.1.2.l / $ 4 v b M ^.. . . . . . . 1 3.4.2.5./ $ 6.^.7.+ ",
"8.9.; . . . 0.$.a.b.c.d.d /.. 1 . . . { e.f.. . . g.h.i.j.Z b k.= 1 1 . . . 1 p ",
"% l.}.5 . . . h.m.n.o.1 . . . . . . . 1 ; / * . . . , b.p.q.= . . . . . . . . > ",
". r.z x a s.t.u.v.$ 1 . . . . 1 d . . . @ e.) f.w.t.x.y.z.A.. . . . . 2 . . . % ",
". { . ( p 3 3 B.C.D.E.. . . { F.G.I 1 . # d ' ,.3 H.u I.l E.` . . 1 ~ J.* 1 . % ",
"I . . . ( . 1 K.L.M.N.h.O.] + - a 3 P.+ > . . { . . 4 Q.R.S.T.O.O.* x 4 U.V.W.a ",
"X.e & . . . . . K.Y.Z.`. +.+. . = ++@+ .r.#+. . . . . $+%+&+*+ +=+>.. . -+;+d.! ",
"3.e.5 . . . . . >+,+'+u.-.0.. 1 4 )+!+6.9.l.. . . . >.~+{+]+E.-.^+. . 6 } /+^.9.",
"^.I % >.(+_+T.:+<+L.[+}+|+1+2+c 3+4+. 1 I ( >.5+Z 6+7+8+9.9+0+|+|+a+,./ b+x & c+",
". . . >.] ] ] d+e+f+)+g+h+h+e.! . . . . . >.h.E.u.^+i+4 M j+N h+h+k+l+1 . . . . ",
". . . . . . . . . a 6.1 . . m+# . . . . . . . . . . . . U w & . .  .e . . . . . ",
". . . . . . . . . + * . . . a n+1 . . . . . . . . . . . ! o+. . . ^.p+{ . . . . ",
". . . . . . . . . v I . . . . * r.1 . . . . . . . . . . { * . . . . > + ^.. . . ",
"1 . . . . -.q+r+s+p # . . ^.2 ) M I a { . . . . ^+t+u+v+/ * . . #+2 b x w+# # 1 ",
"x+y+z+A+g B+C+D+x . . . 1 e E+G.1 1 v e.F+r.! | ) l G+i { . . . l.[.H+^.. % G.T ",
"9.I+J+K+L+M+N+O+n+. . . . . . V P+. d / Y.k Q+R+S+T+U+j 2 . . . . . U ^.. #+M C.",
"& ; % . . . . 6 p b & V+. . . . . . & & @ ^.. . . . W+m w . V+>.. . . . . 1 & ( ",
". . . . . . . . . 1 X+Y+E.0.. . . . . . . . . . . . . . % Z+@.`+.+. . . . . . . ",
"`  @I . . . . . . & .@+@^+7+`.@@#@. . . . . . . . . . . . $@%@&@*@t.=@-@1 . . . ",
";@>@v . . . . . . . ; ,@'@)@H+!@e.o+* * [.( . . . . . . . % e.~@,+{@!@!@x d ]@* ",
"W ^@% . . . n /@ @a.(@_@:@<@{ . . . % 8.e.a . . . >.[@h.T.: 6.}@|@W+. . . 1 5 X.",
"^.1@2@. . . ^ : m.u.q.= . . . . . . . 1 * p & . . ` #.=.3@4@I . . . . . . . & f.",
". ; i 5@( .+t.6@7@Q = . . . . . #+. . . % e.x > 8@9@t.6+0@I 1 . . . . > . . . . ",
". X ~ ^.w n+$ a@b@c@h.* ^.. 1 2 c % . U | [.& $ p d@e@f@g@ @z+d . . = }.@ . . ^.",
"# & . & 6 ^.#+h@i@j@k@l@v . + G.m@_@n@! ^.. 1 2 #+#+o@p@H q@r@s@. * i $ ) t@l.; ",
"u@w+1 . . . . 1 T+O v@w@t.h.& & . x@y@o+I A.. . . . 1 z@J+A@B@t.Z C@& . |@k m+; ",
"p G.#+. . . . . l.O D@t.0.` . . V E@F@[.9.v . . . . . > )+G@H@0.n . . ( I@J@{ e.",
"a   #+. . , K@K 5 i L@b.M@1+w.6.9.|.a@2   v . . . . . 1 9.N@`+Y+6@O@P@Q@R@S@. 2 ",
". . . ` T@ @ @U@m+u V@W@X@X@&+l+% % & . . . . . . . & b i Y@Z@X@X@`@ #.#. . . . ",
". . . . . . . . . m m+U 1 . w ~+` . . . . . . . . . . . U 3 @ 1 1 b * . . . . . ",
". . . . . . . . . 6.! . . . e +#@#[@. . . . . . . . . . 6 + . . . # 3.1 . . . . ",
". . . . . . . . . m ^.. . . 1 b ##$#t.%#. . . . . . . . > ~ . . . . &#X 1 . . . "};
