/* XPM */
static char * floor01_xpm[] = {
"40 40 376 2",
"  	c #709D9D",
". 	c #689595",
"+ 	c #5C8788",
"@ 	c #6E999A",
"# 	c #659191",
"$ 	c #6F9B9C",
"% 	c #6E9A9B",
"& 	c #5C8888",
"* 	c #6A9596",
"= 	c #6B9697",
"- 	c #5D8989",
"; 	c #638F8F",
"> 	c #6C9999",
", 	c #568282",
"' 	c #6D999A",
") 	c #679393",
"! 	c #759E9D",
"~ 	c #7DA19B",
"{ 	c #7AA09C",
"] 	c #649191",
"^ 	c #5B8787",
"/ 	c #709C9C",
"( 	c #6B9798",
"_ 	c #638E8F",
": 	c #699595",
"< 	c #689394",
"[ 	c #588485",
"} 	c #608C8C",
"| 	c #669192",
"1 	c #5A817E",
"2 	c #889984",
"3 	c #96A991",
"4 	c #7EA19A",
"5 	c #679293",
"6 	c #648F90",
"7 	c #558181",
"8 	c #679394",
"9 	c #709C9D",
"0 	c #608B8C",
"a 	c #568181",
"b 	c #7F9786",
"c 	c #96A78F",
"d 	c #87A599",
"e 	c #5A8585",
"f 	c #4D7473",
"g 	c #598585",
"h 	c #588484",
"i 	c #689495",
"j 	c #527D7D",
"k 	c #435B5A",
"l 	c #4C7070",
"m 	c #507878",
"n 	c #5C8586",
"o 	c #4F7373",
"p 	c #588585",
"q 	c #749D9C",
"r 	c #749D9D",
"s 	c #669292",
"t 	c #578181",
"u 	c #486868",
"v 	c #517C7C",
"w 	c #537F7F",
"x 	c #547E7E",
"y 	c #5C8585",
"z 	c #547C7C",
"A 	c #6A9696",
"B 	c #6D9999",
"C 	c #557E7E",
"D 	c #567777",
"E 	c #689192",
"F 	c #608989",
"G 	c #5C8181",
"H 	c #5B8080",
"I 	c #4A6C6C",
"J 	c #507575",
"K 	c #5A8686",
"L 	c #809D91",
"M 	c #8BA699",
"N 	c #729D9C",
"O 	c #6A9697",
"P 	c #4D7373",
"Q 	c #4B6868",
"R 	c #5E8585",
"S 	c #5C7E7F",
"T 	c #5A7F80",
"U 	c #4E7070",
"V 	c #507777",
"W 	c #5B8687",
"X 	c #779F9D",
"Y 	c #8DA798",
"Z 	c #628E8E",
"` 	c #729D9D",
" .	c #749E9D",
"..	c #628D8E",
"+.	c #719D9D",
"@.	c #769E9D",
"#.	c #789F9D",
"$.	c #88A599",
"%.	c #98AC95",
"&.	c #A5B191",
"*.	c #86A195",
"=.	c #86A599",
"-.	c #81A29A",
";.	c #A6B291",
">.	c #93A893",
",.	c #6C9899",
"'.	c #78968C",
").	c #879D89",
"!.	c #8DA492",
"~.	c #8BA393",
"{.	c #829E91",
"].	c #6E928D",
"^.	c #709B9C",
"/.	c #75968E",
"(.	c #879C89",
"_.	c #8CA290",
":.	c #85A194",
"<.	c #5C8989",
"[.	c #5F8A8B",
"}.	c #5F8B8B",
"|.	c #547D7D",
"1.	c #456161",
"2.	c #476868",
"3.	c #578383",
"4.	c #466464",
"5.	c #507A7A",
"6.	c #5A8586",
"7.	c #608D8D",
"8.	c #689393",
"9.	c #9EAE94",
"0.	c #93A997",
"a.	c #85A499",
"b.	c #739D9D",
"c.	c #618D8D",
"d.	c #548080",
"e.	c #608B8B",
"f.	c #7DA099",
"g.	c #A1B093",
"h.	c #96AB96",
"i.	c #789F9C",
"j.	c #527E7E",
"k.	c #689494",
"l.	c #6C928E",
"m.	c #99AB93",
"n.	c #67908E",
"o.	c #8DA594",
"p.	c #A5B192",
"q.	c #649090",
"r.	c #6E9A9A",
"s.	c #5D8785",
"t.	c #8DA491",
"u.	c #9AAC95",
"v.	c #95AA96",
"w.	c #7C9F98",
"x.	c #819D8F",
"y.	c #9BAD95",
"z.	c #87A499",
"A.	c #649091",
"B.	c #578282",
"C.	c #91A997",
"D.	c #4C7271",
"E.	c #568182",
"F.	c #548181",
"G.	c #659192",
"H.	c #678E8C",
"I.	c #4C7171",
"J.	c #507979",
"K.	c #5C8687",
"L.	c #4E7171",
"M.	c #5B8585",
"N.	c #7CA19C",
"O.	c #8EA898",
"P.	c #84A195",
"Q.	c #4D7070",
"R.	c #476463",
"S.	c #4E6E6E",
"T.	c #99A990",
"U.	c #537A79",
"V.	c #435C5B",
"W.	c #5D8686",
"X.	c #476262",
"Y.	c #699293",
"Z.	c #83A39A",
"`.	c #8CA799",
" +	c #91A693",
".+	c #588281",
"++	c #476464",
"@+	c #669191",
"#+	c #6C9798",
"$+	c #4C6C6C",
"%+	c #496868",
"&+	c #7CA19B",
"*+	c #94A995",
"=+	c #648A85",
"-+	c #486969",
";+	c #608C8D",
">+	c #547878",
",+	c #7EA19B",
"'+	c #819D91",
")+	c #4D7474",
"!+	c #6F9999",
"~+	c #648D8D",
"{+	c #4B6E6E",
"]+	c #99AA92",
"^+	c #4A6A69",
"/+	c #658F90",
"(+	c #6B9797",
"_+	c #588384",
":+	c #88A193",
"<+	c #A1AF94",
"[+	c #7A9C95",
"}+	c #608280",
"|+	c #7C9E97",
"1+	c #9CAD95",
"2+	c #97AB95",
"3+	c #7BA09C",
"4+	c #63898A",
"5+	c #547A7A",
"6+	c #7B9B91",
"7+	c #9FAE94",
"8+	c #95A893",
"9+	c #6D8B85",
"0+	c #648B8B",
"a+	c #94AA97",
"b+	c #8CA699",
"c+	c #7BA19C",
"d+	c #5E8989",
"e+	c #578384",
"f+	c #5F8B8C",
"g+	c #4B7170",
"h+	c #82A39A",
"i+	c #567C7C",
"j+	c #567F7F",
"k+	c #628889",
"l+	c #709896",
"m+	c #5B8686",
"n+	c #588383",
"o+	c #5E898A",
"p+	c #5C8787",
"q+	c #699596",
"r+	c #698D89",
"s+	c #98A88E",
"t+	c #9FAE93",
"u+	c #5E8887",
"v+	c #8FA28C",
"w+	c #A2AF92",
"x+	c #547F80",
"y+	c #4F7878",
"z+	c #598182",
"A+	c #5F8A8A",
"B+	c #4F7877",
"C+	c #537B7B",
"D+	c #598282",
"E+	c #648D8E",
"F+	c #648F8F",
"G+	c #5C8383",
"H+	c #517B7B",
"I+	c #4B6969",
"J+	c #587D7E",
"K+	c #598383",
"L+	c #577D7D",
"M+	c #527575",
"N+	c #6F9B9B",
"O+	c #476363",
"P+	c #587B7B",
"Q+	c #6B9595",
"R+	c #587D7D",
"S+	c #506F6E",
"T+	c #476564",
"U+	c #4B6E6D",
"V+	c #7FA19B",
"W+	c #6C9898",
"X+	c #9DAD94",
"Y+	c #86A499",
"Z+	c #A7B291",
"`+	c #93A995",
" @	c #7F9D93",
".@	c #91A58F",
"+@	c #9DAD95",
"@@	c #9BAC92",
"#@	c #829E92",
"$@	c #628C8B",
"%@	c #779B96",
"&@	c #90A490",
"*@	c #8BA291",
"=@	c #648D89",
"-@	c #89A599",
";@	c #638F90",
">@	c #537F80",
",@	c #537C7C",
"'@	c #4E7373",
")@	c #4B6C6C",
"!@	c #4D7170",
"~@	c #507B7B",
"{@	c #6D918B",
"]@	c #99AB94",
"^@	c #658D8E",
"/@	c #5D8485",
"(@	c #79A09C",
"_@	c #689191",
":@	c #5D8585",
"<@	c #588282",
"[@	c #7BA09B",
"}@	c #78A09C",
"|@	c #486A69",
"1@	c #779891",
"2@	c #90A898",
"3@	c #608787",
"4@	c #598080",
"5@	c #678984",
"6@	c #90A897",
"7@	c #779F9C",
"8@	c #94A893",
"9@	c #A3B192",
"0@	c #5C8889",
"a@	c #537777",
"b@	c #577777",
"c@	c #5A7B7B",
"d@	c #587F7F",
"e@	c #668F8D",
"f@	c #527C7C",
"g@	c #5C8686",
"h@	c #577C7C",
"i@	c #6D999B",
"j@	c #82A299",
"k@	c #95A78F",
"l@	c #425A59",
"m@	c #5B8283",
"n@	c #5A7F7F",
"o@	c #5E8A8A",
"p@	c #749B97",
"q@	c #9DAD92",
"r@	c #58807E",
"s@	c #415656",
"t@	c #547B7B",
"u@	c #719C9C",
"v@	c #95A992",
"w@	c #628883",
"x@	c #618B8B",
"y@	c #466262",
"z@	c #5F8585",
"A@	c #97AA95",
"B@	c #729187",
"C@	c #618B8C",
"D@	c #517878",
"E@	c #557777",
"F@	c #9CAD94",
"G@	c #7E998A",
"H@	c #5D8484",
"I@	c #577D7E",
"J@	c #8DA18D",
"K@	c #567A7A",
"L@	c #506E6D",
"M@	c #4B6A69",
"N@	c #648E8F",
"O@	c #87A497",
"P@	c #70918B",
"Q@	c #A8B291",
"R@	c #819C90",
"S@	c #80A29B",
"T@	c #6C9697",
"U@	c #588283",
"V@	c #5E8684",
"W@	c #678E8B",
"X@	c #517474",
"Y@	c #4A6D6D",
"Z@	c #587D7C",
"`@	c #476666",
" #	c #7A9C94",
".#	c #85A49A",
"+#	c #9AAD95",
"@#	c #709088",
"##	c #669293",
"$#	c #90A997",
"%#	c #92A997",
"&#	c #879F8F",
"        . + @       # $                       % & *       = -                 ; ",
"      > , '         ) = ! ~ {               ' & )         ] ^ / ~ ~           ( ",
"' _ : < - [ } |     = ^ 1 2 3 4       $ 5 6 : 6 7 8 9     > 0 a b c d       $ e ",
"f g $   ( h i *         j k l m a & n o p q r 9 , s : 9       t u v w x & y o , ",
"z & A   @ 9           B C D E F G H I J K L M N $           O P Q G R S T U V W ",
"9               X Y B # 9           Z :               ` Y  ...< %         i i   ",
"        +.@.#.$.%.&.*.              9 %       ` @.@.=.-.;.>.9             9 $   ",
"  % ,.( '.).!.~.{.].}               $ 9 ^.,.,./.(._.!.:.'.<.9             9 %   ",
"- [.,.}.& , |.1.2.3.9               ,.K } i 6 & , t 1.4.5.> +.            9 6.7.",
"p 9       9 9 @ 8.} Y 9.0.a.b.      c.d.'       9   ^.< e.f.g.h.=.i.      . j.k.",
"(                 @ l.m.g.~       # , . 9               9 n.o.p.a.      : 6.q.% ",
"%       8           r.s.t.u.v.w.c.^ d.=       < 9         9 & x.y.v.z.| g W A.  ",
"%   9 # B.) 9     ` C.t D.j E.7 <./ < *   9 O F.G.'       C.H.I.J.7 7 p >   '   ",
"| K.L.M.6 g # N.N.O.P.Q.R.6     '     ( - S.7 | + - { N.a.T.U.V.W.9   >       O ",
"] e.X.Y.    +.Z.`. +.+++@+          #+A.Z $+%+@     &+`.*+=+-+W.          $ _ ;+",
"j.,.>+a 5     ,+$.C.'+)+!++.        q.j.}.~+{+6 9   i.$.y.]+^+/+          : d.3.",
"(+$ g _+, <.:+<+<+[+}+j.|+1+2+Y 3++.> O 9   4+5+[ 6+7+<+8+9+V.0+a+O.b+c++.% O ,.",
"        9 d+e+f+f+J g+K 6 h+,+y.C.a.+.          ] d.f+f+i+{+j+k+l+{ { { +.      ",
"          _ Z     $ h B                         * m+    9 }.|                   ",
"        ' n+,.      o+]                       9 p+|       # -                   ",
"      ,.- (         # '                     9 A.#         O i                   ",
"9 * * q+g } 8 #+    # , r+s+t+,+        ' | O K ^ 8 ,.    * p u+v+w+$.        9 ",
"C F.%   ,.x+7.q.      ' w y+t ^ 0 ] A.z+d.i 9 9 F.A+_ 9       g B+C+D+y E+F+G+H+",
"I.K #+  ,.B           8 v I+J+K+L+M+u -+, <   N+A             p+O+P+Q+R+S+T+U+j.",
"> $ 9           +.V+  h s W+        ,.= $ $             V+$ } p 5         % . $ ",
"              &+X+;.Y+%                             i.C.Z+`+9                   ",
"      9  @.@v.+@@@#@$@                        %@&@*+1+,+*@=@$             O -@` ",
"# ;@< g >@>@,@^+'@d.%               > 7.# # o+d.>@x+)@!@~@.               i {@]@",
";+: 9       W+^@/@}.d O.a.(@+.      | d.k.%       ' _@:@<@[@h.-@}@r       % |@z ",
"c.$               O 1@2@%.-.`     $ p # 9               @ l.y.p.d !       3@4@,.",
"        (         9 O 5@2+v.6@7@( g d.%       #+          @ F 8@9@v.&+> 0@w .   ",
",.    = 6.@     < F+-@a@b@c@d@p & $ 7.0 B   % [ 8 9   ,.# a.e@f@g@& p+h ,.) ..  ",
". q.h@^ & w #   i@j@k@P l@m@#+#+8 9   ,.] n@<@o@F.-   i p@q@r@s@t@#+,.5 $   $ * ",
". m+u ^@  $ u@Y v.v@w@T+x@9         r.O o+y@z@  $ $ a.v.A@B@I J+9         9 q+C@",
"d.' D@E@>     r i.F@G@{+(           i j.7.H@I@A     ` i.v.J@I q.          #+F.p ",
"8   K@L@M@N@O@9@Z+X+P@j.9           i ; 8 g@5.j.}.w.7+Q@g.R@w : M S@~     #+; | ",
"        T@U@V@W@W@X@Y@w } $               $ % % d+.+W@W@Z@`@j m+ #-@-@.#`       ",
"          # } 9 9 = 7 B                       ` !+h   9 B m+s                   ",
"        9 3.*       - 5                     (@+#@#_       ] }.                  ",
"      9 ..##        ) (                 $#v.%#&#} 9       ,.s                   "};
