/* XPM */
static char * floor01_xpm[] = {
"40 40 468 2",
"  	c #1E181D",
". 	c #251E22",
"+ 	c #292125",
"@ 	c #251D21",
"# 	c #1D161A",
"$ 	c #1D181C",
"% 	c #1C161A",
"& 	c #231C1F",
"* 	c #282024",
"= 	c #21191D",
"- 	c #1F191D",
"; 	c #271F23",
"> 	c #1D171B",
", 	c #211A1D",
"' 	c #373B40",
") 	c #2A272B",
"! 	c #21181C",
"~ 	c #221A1E",
"{ 	c #211A1E",
"] 	c #20181C",
"^ 	c #231B1F",
"/ 	c #22191D",
"( 	c #252529",
"_ 	c #1D1418",
": 	c #231C20",
"< 	c #2C2D31",
"[ 	c #383C41",
"} 	c #35383D",
"| 	c #252125",
"1 	c #221B1E",
"2 	c #21181D",
"3 	c #2E3336",
"4 	c #222424",
"5 	c #1C1418",
"6 	c #495056",
"7 	c #35383C",
"8 	c #27262A",
"9 	c #28252A",
"0 	c #1E181C",
"a 	c #252327",
"b 	c #28282C",
"c 	c #28272C",
"d 	c #28272B",
"e 	c #211D20",
"f 	c #211D21",
"g 	c #34383C",
"h 	c #1E1B1D",
"i 	c #383E42",
"j 	c #4A5157",
"k 	c #454D52",
"l 	c #2E3034",
"m 	c #1F1B1F",
"n 	c #222024",
"o 	c #3B4447",
"p 	c #29312F",
"q 	c #242325",
"r 	c #1F1D1F",
"s 	c #1E1D1F",
"t 	c #4A5258",
"u 	c #454C51",
"v 	c #43494E",
"w 	c #3C4044",
"x 	c #292226",
"y 	c #211B1F",
"z 	c #3A3E43",
"A 	c #43494F",
"B 	c #42494E",
"C 	c #41484D",
"D 	c #2B2C30",
"E 	c #33353A",
"F 	c #454D51",
"G 	c #201B1F",
"H 	c #251E21",
"I 	c #262A2A",
"J 	c #4B5359",
"K 	c #495157",
"L 	c #33363A",
"M 	c #444A50",
"N 	c #3C4548",
"O 	c #333B3B",
"P 	c #41494D",
"Q 	c #373E40",
"R 	c #262F2D",
"S 	c #272F2D",
"T 	c #464F53",
"U 	c #3A4043",
"V 	c #292225",
"W 	c #201A1E",
"X 	c #373A3F",
"Y 	c #40474B",
"Z 	c #40494C",
"` 	c #3F484A",
" .	c #2A2C2F",
"..	c #303537",
"+.	c #444C50",
"@.	c #373E41",
"#.	c #272124",
"$.	c #2A302E",
"%.	c #364040",
"&.	c #3F484B",
"*.	c #3F474A",
"=.	c #313538",
"-.	c #333B3C",
";.	c #2E3637",
">.	c #2A3330",
",.	c #2A2E2E",
"'.	c #474F54",
").	c #475055",
"!.	c #3B4446",
"~.	c #2A2F2E",
"{.	c #261F23",
"].	c #272125",
"^.	c #2C2E2E",
"/.	c #2C3633",
"(.	c #2C3734",
"_.	c #2B3433",
":.	c #212223",
"<.	c #222626",
"[.	c #353E40",
"}.	c #464E53",
"|.	c #474F55",
"1.	c #262D2C",
"2.	c #2A3733",
"3.	c #2B3633",
"4.	c #212324",
"5.	c #252828",
"6.	c #252929",
"7.	c #222324",
"8.	c #292326",
"9.	c #353F40",
"0.	c #354040",
"a.	c #2F3536",
"b.	c #262325",
"c.	c #20191D",
"d.	c #292325",
"e.	c #292C2B",
"f.	c #29332F",
"g.	c #282929",
"h.	c #201C1E",
"i.	c #1D1A1C",
"j.	c #282D2D",
"k.	c #343E3F",
"l.	c #2C3333",
"m.	c #1E1D1E",
"n.	c #2A3532",
"o.	c #293431",
"p.	c #293330",
"q.	c #212222",
"r.	c #221E21",
"s.	c #201B1E",
"t.	c #293531",
"u.	c #242A29",
"v.	c #242B29",
"w.	c #252525",
"x.	c #1D181B",
"y.	c #242022",
"z.	c #271E22",
"A.	c #292528",
"B.	c #2A2C2C",
"C.	c #241C21",
"D.	c #1E161B",
"E.	c #201E20",
"F.	c #282D2C",
"G.	c #292E2D",
"H.	c #1B1418",
"I.	c #231D21",
"J.	c #282A2A",
"K.	c #2A3633",
"L.	c #252D2B",
"M.	c #231A1F",
"N.	c #292527",
"O.	c #2A2E2D",
"P.	c #1E171B",
"Q.	c #252022",
"R.	c #292D2C",
"S.	c #1D1A1D",
"T.	c #1D151A",
"U.	c #272F2E",
"V.	c #221A1F",
"W.	c #282124",
"X.	c #282125",
"Y.	c #221D20",
"Z.	c #211D1F",
"`.	c #231E21",
" +	c #251F22",
".+	c #282B2B",
"++	c #27302E",
"@+	c #201F21",
"#+	c #1F181C",
"$+	c #262124",
"%+	c #212323",
"&+	c #1E171C",
"*+	c #252124",
"=+	c #29322F",
"-+	c #232525",
";+	c #242828",
">+	c #232827",
",+	c #241C20",
"'+	c #211E21",
")+	c #241D21",
"!+	c #292024",
"~+	c #221B1F",
"{+	c #20181D",
"]+	c #2A322F",
"^+	c #292427",
"/+	c #212122",
"(+	c #252A2A",
"_+	c #27312E",
":+	c #212524",
"<+	c #252A29",
"[+	c #1F181D",
"}+	c #272024",
"|+	c #261E22",
"1+	c #212424",
"2+	c #212423",
"3+	c #242324",
"4+	c #2A3331",
"5+	c #29292A",
"6+	c #221C20",
"7+	c #282325",
"8+	c #292B2A",
"9+	c #261F22",
"0+	c #1C1519",
"a+	c #231B20",
"b+	c #292728",
"c+	c #29312E",
"d+	c #282829",
"e+	c #2A2A2A",
"f+	c #2A2A2B",
"g+	c #272527",
"h+	c #1E161A",
"i+	c #252224",
"j+	c #1E151A",
"k+	c #2A2125",
"l+	c #1D1519",
"m+	c #1A1216",
"n+	c #241D20",
"o+	c #272627",
"p+	c #2C2B2F",
"q+	c #2F3135",
"r+	c #2A2A2E",
"s+	c #282428",
"t+	c #2E3035",
"u+	c #2A282C",
"v+	c #2E3135",
"w+	c #2C2E32",
"x+	c #241B1F",
"y+	c #242125",
"z+	c #3E4349",
"A+	c #404449",
"B+	c #2A252A",
"C+	c #211B1E",
"D+	c #303337",
"E+	c #464D53",
"F+	c #211C1F",
"G+	c #1E191D",
"H+	c #474E54",
"I+	c #232024",
"J+	c #3D4348",
"K+	c #252428",
"L+	c #1D171A",
"M+	c #201C1F",
"N+	c #1E191C",
"O+	c #3D4247",
"P+	c #4C545A",
"Q+	c #484F55",
"R+	c #3D4146",
"S+	c #292E2E",
"T+	c #1D1D1D",
"U+	c #444B51",
"V+	c #363B3F",
"W+	c #1F1C1F",
"X+	c #34373C",
"Y+	c #444C51",
"Z+	c #232022",
"`+	c #1F171B",
" @	c #29292D",
".@	c #3B4045",
"+@	c #3C4247",
"@@	c #474E53",
"#@	c #4B545A",
"$@	c #32373A",
"%@	c #3C4147",
"&@	c #3C4146",
"*@	c #252B2A",
"=@	c #444D51",
"-@	c #2E3535",
";@	c #1F1F20",
">@	c #485055",
",@	c #3D4649",
"'@	c #212022",
")@	c #3B4145",
"!@	c #2E3837",
"~@	c #292729",
"{@	c #495156",
"]@	c #40484C",
"^@	c #252528",
"/@	c #252A28",
"(@	c #384043",
"_@	c #384244",
":@	c #293331",
"<@	c #2A312F",
"[@	c #313B3A",
"}@	c #2F3837",
"|@	c #2A282A",
"1@	c #201A1D",
"2@	c #262C2C",
"3@	c #3A4344",
"4@	c #2E3937",
"5@	c #28322F",
"6@	c #1F1E20",
"7@	c #2B3333",
"8@	c #313B3B",
"9@	c #2F3A39",
"0@	c #2A3533",
"a@	c #292829",
"b@	c #22191E",
"c@	c #343D3E",
"d@	c #4A5257",
"e@	c #434C50",
"f@	c #201E21",
"g@	c #252023",
"h@	c #2D3132",
"i@	c #2E3836",
"j@	c #292A2A",
"k@	c #212725",
"l@	c #3B4547",
"m@	c #333D3D",
"n@	c #1F1E1F",
"o@	c #2A3431",
"p@	c #2A292A",
"q@	c #1D1B1D",
"r@	c #394244",
"s@	c #282E2C",
"t@	c #29302E",
"u@	c #272C2B",
"v@	c #262023",
"w@	c #282F2D",
"x@	c #1F1D1E",
"y@	c #1E1C1E",
"z@	c #292F2E",
"A@	c #262C2B",
"B@	c #1F1F21",
"C@	c #2A312E",
"D@	c #272526",
"E@	c #1E1C1D",
"F@	c #272325",
"G@	c #252123",
"H@	c #232726",
"I@	c #212625",
"J@	c #262527",
"K@	c #2A2D2C",
"L@	c #2A2D2D",
"M@	c #232224",
"N@	c #242A28",
"O@	c #232727",
"P@	c #232625",
"Q@	c #231D20",
"R@	c #201D1F",
"S@	c #272E2D",
"T@	c #292628",
"U@	c #211C1E",
"V@	c #272B2A",
"W@	c #1F2021",
"X@	c #262E2D",
"Y@	c #231A1E",
"Z@	c #272929",
"`@	c #28292A",
" #	c #1A1217",
".#	c #1A1317",
"+#	c #262528",
"@#	c #272225",
"##	c #262125",
"$#	c #262428",
"%#	c #262529",
"&#	c #222023",
"*#	c #40464B",
"=#	c #2D2D31",
"-#	c #2B2B2F",
";#	c #262327",
">#	c #363C3F",
",#	c #242928",
"'#	c #33363B",
")#	c #313236",
"!#	c #2E2F34",
"~#	c #33373B",
"{#	c #2E2F33",
"]#	c #242226",
"^#	c #29292E",
"/#	c #373C40",
"(#	c #2D3635",
"_#	c #34373B",
":#	c #212525",
"<#	c #3F4448",
"[#	c #211C20",
"}#	c #2D2E33",
"|#	c #282E2D",
"1#	c #485056",
"2#	c #3A4345",
"3#	c #333C3C",
"4#	c #424B4F",
"5#	c #33393B",
"6#	c #303034",
"7#	c #373D40",
"8#	c #374142",
"9#	c #374041",
"0#	c #26282A",
"a#	c #2B2F31",
"b#	c #3E484A",
"c#	c #434B4F",
"d#	c #313739",
"e#	c #2B3032",
"f#	c #374143",
"g#	c #2D3334",
"h#	c #292E2F",
"i#	c #414A4E",
"j#	c #424A4E",
"k#	c #373F40",
"l#	c #1D161B",
"m#	c #1F2121",
"n#	c #303838",
"o#	c #40494D",
"p#	c #363E40",
"q#	c #222625",
"r#	c #2E3736",
"s#	c #2E3737",
"t#	c #2B2E2E",
"u#	c #232526",
"v#	c #2E3735",
"w#	c #202122",
"x#	c #282527",
"y#	c #1D191D",
"z#	c #222122",
"A#	c #292426",
"B#	c #292929",
"C#	c #222021",
"D#	c #222726",
"E#	c #211F21",
"F#	c #28312E",
"G#	c #252727",
"H#	c #252C2A",
"I#	c #232626",
"J#	c #242827",
"K#	c #1F1B1D",
"L#	c #232123",
"M#	c #242B2A",
"N#	c #242727",
"O#	c #283330",
"P#	c #252526",
"Q#	c #282526",
"R#	c #1A1418",
"S#	c #282426",
"T#	c #231E22",
"U#	c #1F1A1E",
"V#	c #221D21",
"W#	c #262225",
"X#	c #1E1A1D",
"Y#	c #3A3F44",
"Z#	c #272226",
"`#	c #2B2A2E",
" $	c #393D42",
".$	c #3A3F43",
"+$	c #2F3035",
"@$	c #373B3F",
"#$	c #221F23",
"$$	c #211F23",
"%$	c #26252A",
"&$	c #2F3236",
"  . + @ # # @ + + + + + + .   $ % & + + * = # $ - ; + + + ; - $ > , * + + + @ # ",
"' ) ! ~ { # ] = = = = ^ / ) ' ' ( _ ~ : & # < [ } | ~ 1 2 | } [ 3 4 , = = ~ = 5 ",
"6 7 8 9 ; 0 a b c b d e f } 6 6 g 8 a > 0 h i j k l m n 8 l k j o p b d b q r s ",
"t u v w x y z A B B C D E F t t u A z G H I o J K v D L B M K J N O P B v Q R S ",
"J J T U V W X Y Z Z `  ...+.t J J T @.G #.$.%.&.&.*. .=.Z Z &.&.-.;.&.Z Z %.>.,.",
"'.).!.~.{.0 ].^./.(._.:.<.[.}.|.).!.1.- #.$.2.(.(.3.4.5./.(.(./.6.7._.(.(.2.$.8.",
"9.0.a.b.c.# @ d.e.f.g.h.i.j.k.9.0.l.m.0 #.$.n.o.o.p.q.r.e.o.o.e.r.s.g.p.t.n.$.+ ",
"u.v.w.{ x.:.y.z.A.B.V C.D.E.F.G.G.7.H.# I.J.>.K.o.L.r M.N.O.O.A.^ P.Q.R.,.~.J.@ ",
"s s S.T.r U.:.V.W.X.* ; Y.Z.].X.X.`.$ # 0  +.+p.++@+# : + V V X.: # #+$+X.X. +#+",
"L.L.%+&+*+=+:.# = = = = -+;+= 2 2 -+>+$ ,+~ '+%+:.)+#+: + + !+: : ~+T.{+2 2 ~ @ ",
"n.]+-+2 ^+>.u.%+/+c.# #+(+_+:+%+%+(+<+[+; ,+= 2 ~ }+= = |++ + c.^ ].4.1+4.2+3++ ",
"4+5+6+{+7+]+p.=+F. +P.,+8+>.=+=+=+8+ +0 9+* * * * }+c.0+{ * * = a+b+c+=+=+=+F.X.",
"5+`._ _ Y.d+e+f+g+{+5 h+i+e+e+e+e+i+j+5 = ; k+k+* ~+l+m+5 ] { n+; ^+e+e+e+f+o+y ",
"@ p+q+r+{ @ @ @ s+l t+t+u+@ @ @ @ u+v+w+m ~+. @ x+> r+v+v+w+G ~+@ @ @ @ @ @ ^ 0+",
"y+z+|.A+B+C+x.0 D+F E+}.' F+G+0 G ' H+B ( # P.- f I+J+H+H+B K+L+M+f f f f M+N+x.",
"O+H+P+Q+R+S+T+l C t J J U+V+<+W+X+Y+P+|.l.Z+`+ @.@+@@@J #@H+8 2+$@%@&@&@%@$@u.*@",
"=@=@=@=@P -@;@g }.t t t >@,@4+'@)@=@=@P !@~@2 w+Y+K t t {@]@^@/@(@=@=@=@=@_@:@<@",
"[@[@[@[@}@|@1@2@3@{@K K ` 4@5@6@7@8@[@9@0@a@b@-+c@'.K d@e@}@f@g@h@[@[@[@[@i@$.A.",
"t.t.t.=+j@+ {+k@9@!.o l@m@t.5@n@L.t.o.o.o@p@^ q@2@r@N N [.<.$ @ N.s@o.o.o.t@5++ ",
"++++_+u@v@|+{ <+K.K.K.K.K.o@w@x@u.p.n.n.]+g+{ 5 y@z@4+4+A@$ #+@ * ~@<@]+]+e+W.{.",
"B@B@B@r [+[+)+.+n.o@o@o@n.C@D@0 E@*@n.>.a@Y.# 0+0 F@N.N.G@0 @ { C.V N.N.N.8.|+{+",
">+H@H@>+I@$ = J@K@K@K@K@L@d+~+# 2 M@N@O@I.~+#+m.P@Q@M.M.M.,+* c.[+: M.M.M.^ ^ ~+",
"=+4+o@o@w@R@T.~+}+}+}+}+}+)+# # @ )+- [+[+. ~+/+S@/+r r r.W.+ ~+# $ r r r r r.W.",
"~@<@K.<@T@{.[+> {+{+{+{+{+0 0+# @ * |+|+|+* ^ U@d+S@R R V@+ + ; = W@X@R R R V@+ ",
"Y@Z@,.`@)+)+: ~+~+~+~+~+~+{+ #.#= ; k+k++ . #+_ Q@e.,.,.f+X.^ ~ `+'+O.,.O.,.J.)+",
"+#@##.H 0 > )+; {.{.; ; ; ##K+K+m ~+; }+; c.f ( $#].#.#.}+}+$#%#&#e #.#.#.X.H # ",
"*#=#h+{ )+> 0 {+{+{+{+c.`+=#*#*#-#_ {+c.{+l+E C J+;#`+{+`+$#J+C >#,#c.] {+{+#+0+",
"t .@'#)#X.- !#X+~#~#'#a b &@t t .@~#{#$ = /+)@P+6 ' ]#^#~#/#6 P+,@(#~#~#_#w+:#:#",
"t {@|.<#x [#&@E+k k Y+}#g |.t t {@|.+@[#v@|#!.1#>@=@}#} k E+>@1#2#3#=@k k r@f.=+",
"t J 4#5#X.c.6#7#8#8#9#0#a#b#d@t J c#d#W #.$.8@9#9#9#0#e#f#8#9#9#g#h#9#8#8#8@]+e+",
"i#j#k#J.)+l#@ a@c+o.w@@+m#n#o#j#j#p#q#0 #.$.n.o.t.o.q.4 c+o.o.c+4 @+z@o.t.n.$.+ ",
"r#s#t# +x.$ H + j@<@N.{ L+u#v#r#s#A@x.P.v@,.n.n.n.p.w#6+5+4+4+5+Q@c.x#]+o@o@S+X.",
"d+g.*+#+y#,#z#@ A#|@+ |+{+h.d+B#B#C#H.# { g+$.K.p.D#S.^ 8.j@j@A#^ # Y.d+e+e+g+C+",
"~@a@Z+T.E#F#:.2 @ @ H @ Z+z#@ @ @ Z+;@# {+C.G#X@H#Z.# : + + + {.: 0 # C.@ @ ,+c.",
">.>.I#{+F@=+1+x.G+0 P.P.J#H#K#G+G+J#*@  . { G+y@R@. {+~++ + + { : @ $ G+G+G+F+; ",
"n.,.L#2 N.>.X@M#N#Q@# { V@O#*@M#M#V@P#[+; . : ,+@ * = 0 )++ + {+~+Q#(+M#M#M#5.+ ",
"$.D@2 P.G@S+<@<@e.@ # ~ g.<@<@<@<@g.~ # @ * + + + |+#+R#`+@ . { @ T@$.<@<@<@e.{.",
"S#T#U#U#V#7+N.N.W#[#U#G G@N.N.N.N.G@G G+[+. + + ; c.G+X#U#y [+)+* + N.N.N.N.*+#+",
")+'#Y#Y#' Z#b@/ `# $.$Y#+$~ ~+~+~ +$Y#@$#${+& ^ { G+L Y#Y#@$$${+: ~+~+~+~+^ = 0+",
"m *#t t F %$H.m+&$6 K t [ H.0+0+H.[ t F %$H.0+0+0+m *#t t F %$H.0+0+0+0+0+0+0+0+"};
