/* XPM */
static char * floor1_xpm[] = {
"40 40 430 2",
"  	c #7BB2B2",
". 	c #8CC3C4",
"+ 	c #74AAAB",
"@ 	c #85BBBC",
"# 	c #84BABB",
"$ 	c #73A9A9",
"% 	c #89C0C1",
"& 	c #8AC1C2",
"* 	c #7EB5B5",
"= 	c #89BFC0",
"- 	c #72A8A9",
"; 	c #82B9BA",
"> 	c #85BCBD",
", 	c #9CC8C1",
"' 	c #9CC9C1",
") 	c #8CC2C2",
"! 	c #71A8A8",
"~ 	c #7DB4B4",
"{ 	c #80B7B7",
"] 	c #88BFC0",
"^ 	c #98C7C2",
"/ 	c #92C5C3",
"( 	c #6BA2A2",
"_ 	c #87BEBF",
": 	c #70A6A6",
"< 	c #8BC3C4",
"[ 	c #A8CDBE",
"} 	c #BBD0B2",
"| 	c #9EBCA7",
"1 	c #6BA1A0",
"2 	c #77ADAE",
"3 	c #8BC2C3",
"4 	c #80B7B8",
"5 	c #6AA1A1",
"6 	c #7CB2B3",
"7 	c #83BABA",
"8 	c #80B6B7",
"9 	c #9DC9C0",
"0 	c #BBD2B5",
"a 	c #A9BFA4",
"b 	c #70A09D",
"c 	c #7FB5B6",
"d 	c #77AEAE",
"e 	c #6EA4A5",
"f 	c #74ABAB",
"g 	c #81B7B8",
"h 	c #7BB1B2",
"i 	c #628F8F",
"j 	c #72A6A6",
"k 	c #689D9D",
"l 	c #679E9E",
"m 	c #659A9A",
"n 	c #5A8281",
"o 	c #6CA0A0",
"p 	c #83B9BA",
"q 	c #7FB6B6",
"r 	c #90C4C3",
"s 	c #90C4C2",
"t 	c #6EA5A5",
"u 	c #72A6A7",
"v 	c #6BA0A0",
"w 	c #639696",
"x 	c #5F8C8C",
"y 	c #537170",
"z 	c #669C9C",
"A 	c #81B8B9",
"B 	c #6DA4A4",
"C 	c #6FA5A5",
"D 	c #60908F",
"E 	c #71A7A8",
"F 	c #649494",
"G 	c #618C8C",
"H 	c #709E9F",
"I 	c #729D9E",
"J 	c #75A5A5",
"K 	c #73A0A1",
"L 	c #5D8282",
"M 	c #608F8F",
"N 	c #84BBBC",
"O 	c #8EC3C2",
"P 	c #ADCFBE",
"Q 	c #9FC3B4",
"R 	c #70A7A7",
"S 	c #639292",
"T 	c #5C8786",
"U 	c #719F9F",
"V 	c #78AAAA",
"W 	c #82B5B6",
"X 	c #6B9494",
"Y 	c #6A9D9D",
"Z 	c #88BEBF",
"` 	c #84BBBB",
" .	c #72A9A9",
"..	c #689A9A",
"+.	c #82B7B8",
"@.	c #7AB0B1",
"#.	c #91C5C3",
"$.	c #B0D0BD",
"%.	c #8EC4C4",
"&.	c #7AB1B1",
"*.	c #7EB4B5",
"=.	c #AFD0BD",
"-.	c #94C6C3",
";.	c #B7D1B7",
">.	c #CFDEB5",
",.	c #A1CAC0",
"'.	c #A7CDBF",
").	c #93C5C3",
"!.	c #A7C9B9",
"~.	c #CEDDB5",
"{.	c #BDD6BA",
"].	c #A9CDBF",
"^.	c #95C6C3",
"/.	c #8DC3C4",
"(.	c #73AAAA",
"_.	c #95BBAE",
":.	c #A6C8B8",
"<.	c #B0CCB6",
"[.	c #AECAB3",
"}.	c #A8C2AA",
"|.	c #92BBB1",
"1.	c #86BDBE",
"2.	c #8BC1C2",
"3.	c #89B6AF",
"4.	c #A2C5B5",
"5.	c #ADCBB7",
"6.	c #AFCCB6",
"7.	c #A8C3AA",
"8.	c #96BBAE",
"9.	c #78AFAF",
"0.	c #70A6A7",
"a.	c #649898",
"b.	c #577D7C",
"c.	c #567979",
"d.	c #6CA1A1",
"e.	c #8CC2C3",
"f.	c #6CA3A3",
"g.	c #598181",
"h.	c #689C9C",
"i.	c #76ADAD",
"j.	c #76ACAD",
"k.	c #81B8B8",
"l.	c #669D9D",
"m.	c #82B9B9",
"n.	c #96C6C2",
"o.	c #BBD5BB",
"p.	c #C9DBB7",
"q.	c #9CC7BE",
"r.	c #77ADAD",
"s.	c #689F9F",
"t.	c #79B0B0",
"u.	c #8FC4C3",
"v.	c #A6CCBF",
"w.	c #B7D3BC",
"x.	c #C5D9B8",
"y.	c #81B7B7",
"z.	c #7CB3B3",
"A.	c #CEDDB6",
"B.	c #B0CDB8",
"C.	c #80B3B1",
"D.	c #BED5B7",
"E.	c #86B6B1",
"F.	c #7DB3B4",
"G.	c #6FA6A6",
"H.	c #A8CCBE",
"I.	c #BAD4BB",
"J.	c #C1D7B9",
"K.	c #A1C3B2",
"L.	c #79AFB0",
"M.	c #9AC6BD",
"N.	c #B9D4BB",
"O.	c #C0D6B9",
"P.	c #B0CCB5",
"Q.	c #74A8A6",
"R.	c #89C0C0",
"S.	c #649797",
"T.	c #5F8D8D",
"U.	c #80B1AE",
"V.	c #B4D2BC",
"W.	c #7EB5B6",
"X.	c #69A0A0",
"Y.	c #8BC2C2",
"Z.	c #6BA1A2",
"`.	c #5F8E8D",
" +	c #6CA2A2",
".+	c #74A7A7",
"++	c #547271",
"@+	c #679897",
"#+	c #BED3B3",
"$+	c #9AC8C2",
"%+	c #6AA0A0",
"&+	c #618989",
"*+	c #7DB2B3",
"=+	c #597C7B",
"-+	c #608B8B",
";+	c #A4C8B9",
">+	c #B1D1BD",
",+	c #7EB4B4",
"'+	c #71A6A6",
")+	c #618D8D",
"!+	c #73A7A8",
"~+	c #78AEAF",
"{+	c #5A8383",
"]+	c #7DACA6",
"^+	c #B8D3BA",
"/+	c #AED0BE",
"(+	c #9BC8C1",
"_+	c #5B8181",
":+	c #5F8787",
"<+	c #86BCBD",
"[+	c #7FB4B5",
"}+	c #587D7C",
"|+	c #6EA2A1",
"1+	c #B4CFB7",
"2+	c #A3CBC0",
"3+	c #83B6B7",
"4+	c #587A7A",
"5+	c #78ADAD",
"6+	c #699F9F",
"7+	c #7EB2B3",
"8+	c #5C8483",
"9+	c #BED4B6",
"0+	c #5D8989",
"a+	c #7DAFB0",
"b+	c #8ABFBF",
"c+	c #609090",
"d+	c #A1C4B4",
"e+	c #9DC9C1",
"f+	c #689696",
"g+	c #99C8C2",
"h+	c #AECFBE",
"i+	c #B8D4BC",
"j+	c #7CADAD",
"k+	c #88ADA5",
"l+	c #B9D1B7",
"m+	c #C8DAB8",
"n+	c #C6D9B8",
"o+	c #99C1B5",
"p+	c #689898",
"q+	c #7BABAC",
"r+	c #99C7C2",
"s+	c #BCD5BA",
"t+	c #C2D8B9",
"u+	c #9BC5BC",
"v+	c #77A29F",
"w+	c #98C2BA",
"x+	c #A9C9B7",
"y+	c #6DA3A4",
"z+	c #85BCBC",
"A+	c #8BBDBB",
"B+	c #7AA9AA",
"C+	c #6B9E9E",
"D+	c #6B9B9B",
"E+	c #76ADAE",
"F+	c #A2CBC0",
"G+	c #5E8D8C",
"H+	c #649292",
"I+	c #6CA3A4",
"J+	c #75ABAB",
"K+	c #71A7A7",
"L+	c #72A8A8",
"M+	c #7DB4B5",
"N+	c #75ABAC",
"O+	c #6DA3A3",
"P+	c #82B8B9",
"Q+	c #CADAB6",
"R+	c #B2CAAE",
"S+	c #75A9A8",
"T+	c #C6D9B7",
"U+	c #BDD1B1",
"V+	c #83B0AA",
"W+	c #6FA5A6",
"X+	c #83BABB",
"Y+	c #659999",
"Z+	c #73A3A3",
"`+	c #7CB2B2",
" @	c #7CB0B1",
".@	c #72A5A5",
"+@	c #6FA2A2",
"@@	c #679999",
"#@	c #629594",
"$@	c #76ACAC",
"%@	c #6FA1A2",
"&@	c #629595",
"*@	c #689E9F",
"=@	c #5D8988",
"-@	c #587E7D",
";@	c #648A89",
">@	c #6E9C9C",
",@	c #85B9B9",
"'@	c #6D9999",
")@	c #597B7B",
"!@	c #8AC1C1",
"~@	c #5A8181",
"{@	c #669292",
"]@	c #6C9C9C",
"^@	c #6FA3A3",
"/@	c #6E9C9D",
"(@	c #5E8383",
"_@	c #659B9B",
":@	c #78AEAE",
"<@	c #9EC9C1",
"[@	c #87BDBE",
"}@	c #86BDBD",
"|@	c #8BC2C4",
"1@	c #B7D2BA",
"2@	c #D0DEB5",
"3@	c #B5D2BC",
"4@	c #95C6C2",
"5@	c #A7CCBE",
"6@	c #C3D8B8",
"7@	c #ABCEBE",
"8@	c #7DAFAB",
"9@	c #ADCAB4",
"0@	c #B8D2B9",
"a@	c #B3CCB3",
"b@	c #94C1BB",
"c@	c #7AAEAD",
"d@	c #A2C5B6",
"e@	c #C1D6B6",
"f@	c #C3D8B9",
"g@	c #B4CDB2",
"h@	c #9EC4B7",
"i@	c #BED5B8",
"j@	c #88B4AD",
"k@	c #649999",
"l@	c #608D8C",
"m@	c #5D8686",
"n@	c #679E9F",
"o@	c #618F8F",
"p@	c #679B9B",
"q@	c #7BB2B3",
"r@	c #699A9A",
"s@	c #5A8483",
"t@	c #96C7C2",
"u@	c #99C7C1",
"v@	c #6DA2A2",
"w@	c #74A5A5",
"x@	c #81B5B5",
"y@	c #97C7C2",
"z@	c #A5CCBF",
"A@	c #A8CDBF",
"B@	c #74A4A5",
"C@	c #7EB0B1",
"D@	c #6F9F9F",
"E@	c #77A8A8",
"F@	c #A0CAC0",
"G@	c #B3D1BD",
"H@	c #94BDB4",
"I@	c #73A9AA",
"J@	c #CBDCB6",
"K@	c #B8D1B7",
"L@	c #77ABAA",
"M@	c #94C6C2",
"N@	c #B3D1BC",
"O@	c #BCD5B9",
"P@	c #80AAA4",
"Q@	c #73A7A7",
"R@	c #669A9A",
"S@	c #7FB2B0",
"T@	c #6E9E9E",
"U@	c #709999",
"V@	c #6C9494",
"W@	c #679494",
"X@	c #AACEBF",
"Y@	c #699999",
"Z@	c #516B6B",
"`@	c #6D9F9D",
" #	c #C4D8B6",
".#	c #91C1BC",
"+#	c #75ACAC",
"@#	c #709E9E",
"##	c #71A2A3",
"$#	c #52706F",
"%#	c #B9D0B2",
"&#	c #A2CABE",
"*#	c #88BFC1",
"=#	c #6C9A9A",
"-#	c #7DB3B3",
";#	c #79ADAE",
">#	c #6D9C9D",
",#	c #5C8686",
"'#	c #8EB4A8",
")#	c #BCD4B9",
"!#	c #76A5A6",
"~#	c #577A7A",
"{#	c #79ADAD",
"]#	c #7AA9A3",
"^#	c #BAD2B6",
"/#	c #8DC2C2",
"(#	c #AFC9B0",
"_#	c #6C9C9D",
":#	c #74A4A4",
"<#	c #9DBEAC",
"[#	c #C2D7B8",
"}#	c #6A9494",
"|#	c #659595",
"1#	c #9FCAC1",
"2#	c #A0C2B3",
"3#	c #C8DBB7",
"4#	c #D1DEB5",
"5#	c #9BC6BD",
"6#	c #72A7A7",
"7#	c #8BB5AD",
"8#	c #A8CCBC",
"9#	c #7CB1B2",
"0#	c #5D8483",
"a#	c #638988",
"b#	c #6B9898",
"c#	c #A5CCC0",
"d#	c #AACEBE",
"e#	c #98C2B8",
"f#	c #597F7F",
"g#	c #6E9C9A",
"h#	c #80B1AD",
"i#	c #6EA2A0",
"j#	c #5C8888",
"k#	c #659090",
"l#	c #75A7A4",
"m#	c #6DA2A3",
"n#	c #86BBBC",
"o#	c #8ABEBE",
"p#	c #88BFBF",
"q#	c #8BB3A9",
"r#	c #C0D7B9",
"s#	c #74AAAA",
"t#	c #A8C6B2",
"u#	c #B6D3BC",
"v#	c #B3D2BC",
"w#	c #7FB6B7",
"  . . . . . . . . + @ . . . # $ % . . . . . . . . . . . & * . . . = - ; . . . . ",
"> . . . . . , ' ) ! ~ . . . . { $ ] . . . . . . . ^ ' / @ { . . . . ] ( _ . . . ",
": & . . < [ } | 1 2 _ . . 3 4 5 6 7 6 8 & . . . 9 0 a b ! @ . . c d e f g 7 h ] ",
"( i j $ k l m n o . . . 3 p q ( 3 r s t i u $ v w x y z . . . . # A B > . & C D ",
"E F G H I J K L M N . . . . . & O P Q R S T U K V W X Y Z . . . . . 3 = . `  ...",
". A A . . . . % +.@.#.$.%.. . . . . . . p &.. . . . . 3 *.Z =.-.. . . . . . . 3 ",
". & 3 . . . . . . 3 ;.>.,.'.).).%.. . . % 3 . . . . . . . !.~.{.].^.)./.. . . . ",
". % 3 . . . . . . 3 (._.:.<.[.}.|.1.1.2.3 & . . . . . . . d 3.4.5.6.7.8.> 1.% . ",
"9.0.3 . . . . . . /._ a.b.c.d.(  .6 A d R 1.. . . . . . . e.f.g.c.h.(  .i.1.j.f ",
"k.l.m.. . . n.'.o.p.q.r.g 2.. 3 . . . ] s.t.. . . u.v.w.x.=.d y.= 3 3 . . . 3 t ",
"% z.0.p . . . v.A.B.C.3 . . . . . . . 3 m.( * . . < , p.D.E.= . . . . . . . . > ",
". F.E G.c H.I.J.K.$ 3 . . . . e.g . . . @ s.! L.M.N.O.P.Q.R.. . . . . 4 . . . % ",
". ] . _ t 5 5 S.T.U.V.. . . ] W.X.N 3 . # g Y.(.5 Z.z `.d.V.%.. . 3 {  +*.3 . % ",
"N . . . _ . e..+++@+#+v.$+^ f - c %+&++ > . . ] . . *+=+-+;+>+$+$+,+C 6 '+)+!+c ",
"~+h & . . . . . .+{+]+^+/+(+. . = _+:+&.F.<+. . . . . [+}+|+1+/+2+/.. . 3+4+5+~ ",
"f.6+7 . . . . . 7+8+9+J.].n.. 3 6 0+a+i.l.z.. . . . /.b+c+d+V.].e+. . 8 v f+1.l.",
"1.N % /.g+h+>+i+j+++k+l+m+n+o+e p+q+. 3 N _ /.r+=.s+t+u+l.v+w+m+m+x+(.( y+G.& z+",
". . . /.^ ^ ^ A+B+C+0+D+E+E+s.~ . . . . . /.v.V.J.e+F+6 R G+H+E+E+I+J+3 . . . . ",
". . . . . . . . . c i.3 . . K+# . . . . . . . . . . . . Z B & . . &.h . . . . . ",
". . . . . . . . . + * . . . c L+3 . . . . . . . . . . . M+N+. . . 1.O+] . . . . ",
". . . . . . . . . P+N . . . . *.F.3 . . . . . . . . . . ] * . . . . > f 1.. . . ",
"3 . . . . ].Q+R+S+t # . . 1.4 ! R N c ] . . . . e+T+U+V+( *.. . <+4 d W+X+# # 3 ",
"Y+Z+`+ @.@+@@@#@G.. . . 3 h $@X.3 3 P+s.%@F.~ 2 ! d.&@l ] . . . z.9.*@1.. % X.Y ",
"l.=@-@;@>@,@'@)@L+. . . . . . ` !@. g ( {+~@{@]@^@/@(@_@4 . . . . . Z 1.. <+R T.",
"& m.% . . . . 8 t :@& <@. . . . . . & & @ [@. . . . }@q B . <@/.. . . . . 3 & _ ",
". . . . . . . . . |@1@2@3@4@< < . . . . . . . . . . . . % 5@>.6@(+. < . . . . . ",
"%.7@N . . . . . . & 8@9@e+t+0@a@b@. . . . . . . . . . . . c@d@e@f@I.g@h@3 . . . ",
"i@j@A . . . . . . . ; k@l@m@*@n@s.N+*.* 9._ . . . . . . . % s.o@8+p@n@n@C g q@*.",
"r@s@% . . . r t@7@o.u@v@w@x@] . . . % k.s.c . . . /.y@z@>+A@i.B@C@}@. . . 3 7 ~+",
"1.D@E@. . . / A@A.J.E.= . . . . . . . 3 * t & . . %.F@{.G@H@N . . . . . . . & t.",
". ; l I@_ (+N.J@K@L@= . . . . . <+. . . % s.G.> M@N@N.O@P@N 3 . . . . > . . . . ",
". @.{ 1.B L+$ Q@R@S@v.* 1.. 3 4 e % . Z 2 9.&  .t T@U@V@W@X@`+g . . = 0.@ . . 1.",
"# & . & 8 1.<+Y@Z@`@ #.#A . + X.+#v@@#M+[@. 3 4 <+<+##$#M %#&#*#. *.l  .! =#-#m.",
";#X+3 . . . . 3 >#,#'#)#N.v.& & . !#~#N+N R.. . . . 3 {#-@]#^#N.=./#& . C@~@K+; ",
"t X.<+. . . . . z.,#(#I.4@%.. . ` _#:#9.l.P+. . . . . > 0+<#[#n.r . . _ }#|#] s.",
"c   <+. < , 1#P p l 2#3#4#n+5#i.l.a.6#4   A . . . . . 3 l.7#6@2@J@8#9#0#a#b#. 4 ",
". . . %.c#d#7@e#K+z f#g#h#h#i#J+% % & . . . . . . . & d l j#k#h#h#l#m#n#. . . . ",
". . . . . . . . . q K+Z 3 . B o#%.. . . . . . . . . . . p#5 @ 3 3 d * . . . . . ",
". . . . . . . . . i.~ . . . h q#r#y@. . . . . . . . . . 8 s#. . . # f.3 . . . . ",
". . . . . . . . . q 1.. . . 3 :@t#u#N.v#. . . . . . . . > { . . . . w#@.3 . . . "};
