/* XPM */
static char * floor00_xpm[] = {
"80 80 4 1",
" 	c #5B656C",
".	c #221A1F",
"+	c #32282D",
"@	c #33413D",
"      ...          ...++@@      ...             ..@@             ..         ..  ",
"      ...          ...++@@      ...             ..@@             ..         ..  ",
"++@@@@...@@      @@...++@@@@@@@@...@@@@      @@@..++@@       @@++..++@@@@@@@..@@",
"++@@@@.....@@@@@@.....++@@@@@@@@...++@@@@@@@@@@@..++++@@@@@@@++....++++@@@++....",
"++@@@@.....@@@@@@.....++@@@@@@@@...++@@@@@@@@@@@..++++@@@@@@@++....++++@@@++....",
"+++++++++..++++++.......++@@@@.....++@@@@@@@@@@@++....+++++++....@@..+++++++++..",
"+++++++++..++++++.......++@@@@.....++@@@@@@@@@@@++....+++++++....@@..+++++++++..",
".........@@......@@...++......++.....+++++++++++....@@@@@@@@@..++@@...........@@",
"@@++..+++@@@@@@@@++...++++++++++..................++++@@@@+++..++@@@@@@+++..++@@",
"@@++..+++@@@@@@@@++...++++++++++..................++++@@@@+++..++@@@@@@+++..++@@",
"++.......++++++++.......++++++.......+++++++++++++....++++.......++++++.......++",
"++.......++++++++.......++++++.......+++++++++++++....++++.......++++++.......++",
"..       ........     ..........     ...............++....     ++......       ..",
"             ..       @@++..           ..         ..++           @@..           ",
"             ..       @@++..           ..         ..++           @@..           ",
"@@       @@@@..@@@@@@@@@++..@@       @@..@@@@+++++..++@@@@@@@@@@@++..@@       @@",
"@@       @@@@..@@@@@@@@@++..@@       @@..@@@@+++++..++@@@@@@@@@@@++..@@       @@",
"@@@@@@@@@@@++..@@@@@@@@@++....@@@@@@@....@@@@+++++....++@@@@@@@++++..@@@@@@@@@@@",
"@@@@@@@@@@@++....@@@@@++......+++++++..+++++++++..@@...............++@@@@@@@@@@@",
"@@@@@@@@@@@++....@@@@@++......+++++++..+++++++++..@@...............++@@@@@@@@@@@",
"+++++++++++....++.......++..@@.......@@...........@@++..@@@@@@@@@....+++++++++++",
"+++++++++++....++.......++..@@.......@@...........@@++..@@@@@@@@@....+++++++++++",
"...............+++++++++++..++@@@@@@@@@++..++@@@@@@@++..++@@@@@++++.............",
"+++++++++++......+++++++......+++++++++......+++++++......+++++....+++++++++++++",
"+++++++++++......+++++++......+++++++++......+++++++......+++++....+++++++++++++",
"...........    ...........    .........      .......++    .....++...............",
"...........    ...........    .........      .......++    .....++...............",
"      ...          ...++@@      ...             ..@@           ++..         ..  ",
"++@@@@...@@      @@...++@@@@@@@@...@@@@      @@@..++@@       @@++..++@@@@@@@..@@",
"++@@@@...@@      @@...++@@@@@@@@...@@@@      @@@..++@@       @@++..++@@@@@@@..@@",
"++@@@@.....@@@@@@.....++@@@@@@@@...++@@@@@@@@@@@..++++@@@@@@@++....++++@@@++....",
"++@@@@.....@@@@@@.....++@@@@@@@@...++@@@@@@@@@@@..++++@@@@@@@++....++++@@@++....",
"+++++++++..++++++.......++@@@@.....++@@@@@@@@@@@++...............@@..+++++++++..",
".........@@......@@...++......++.....+++++++++++....@@@@@@@@@..++@@...........@@",
".........@@......@@...++......++.....+++++++++++....@@@@@@@@@..++@@...........@@",
"@@++..+++@@@@@@@@++...++++++++++..................++++@@@@+++..++@@@@@@+++..++@@",
"@@++..+++@@@@@@@@++...++++++++++..................++++@@@@+++..++@@@@@@+++..++@@",
"++.......++++++++.......++++++.......+++++++++++++....++++.......++++++.......++",
"..       ........     ..........     ...............++....     ++......       ..",
"..       ........     ..........     ...............++....     ++......       ..",
"             ..       @@++..           ..         ..++           @@..           ",
"             ..       @@++..           ..         ..++           @@..           ",
"@@       @@@@..@@@@@@@@@++..@@       @@..@@@@+++++..++@@@@@@@@@@@++..@@       @@",
"@@@@@@@@@@@++..@@@@@@@@@++....@@@@@@@....@@@@+++++....++@@@@@@@++++..@@@@@@@@@@@",
"@@@@@@@@@@@++..@@@@@@@@@++....@@@@@@@....@@@@+++++....++@@@@@@@++++..@@@@@@@@@@@",
"@@@@@@@@@@@++....@@@@@++......+++++++..+++++++++..@@....+++++++....++@@@@@@@@@@@",
"@@@@@@@@@@@++....@@@@@++......+++++++..+++++++++..@@....+++++++....++@@@@@@@@@@@",
"+++++++++++....++.......++..@@.......@@...........@@++..@@@@@@@@@....+++++++++++",
"...............+++++++++++..++@@@@@@@@@++..++@@@@@@@++..++@@@@@++++.............",
"...............+++++++++++..++@@@@@@@@@++..++@@@@@@@++..++@@@@@++++.............",
"+++++++++++......+++++++......+++++++++......+++++++......+++++....+++++++++++++",
"+++++++++++......+++++++......+++++++++......+++++++......+++++....+++++++++++++",
"...........    ...........    .........      .......@@    .....++...............",
"      ...          ...++@@      ...             ..@@           ++..         ..  ",
"      ...          ...++@@      ...             ..@@           ++..         ..  ",
"++@@@@...@@      @@...++@@@@@@@@...@@@@      @@@..++@@       @@++..++@@@@@@@..@@",
"++@@@@...@@      @@...++@@@@@@@@...@@@@      @@@..++@@       @@++..++@@@@@@@..@@",
"++@@@@.....@@@@@@.....++@@@@@@@@...++@@@@@@@@@@@..++++@@@@@@@++....++++@@@++....",
"+++++++++..++++++.......++@@@@.....++@@@@@@@@@@@++....+++++++....@@..+++++++++..",
"+++++++++..++++++.......++@@@@.....++@@@@@@@@@@@++....+++++++....@@..+++++++++..",
".........@@......@@...++......++.....+++++++++++....@@@@@@@@@..++@@...........@@",
".........@@......@@...++......++.....+++++++++++....@@@@@@@@@..++@@...........@@",
"@@++..+++@@@@@@@@++...++++++++++..................++++@@@@+++..++@@@@@@+++..++@@",
"++.......++++++++.......++++++.......+++++++++++++....++++.......++++++.......++",
"++.......++++++++.......++++++.......+++++++++++++....++++.......++++++.......++",
"..       ........     ..........     ...............++....     ++......       ..",
"..       ........     ..........     ...............++....     ++......       ..",
"             ..       @@++..           ..         ..++           @@..           ",
"@@       @@@@..@@@@@@@@@++..@@       @@..@@@@+++++..++@@@@@@@@@@@++..@@       @@",
"@@       @@@@..@@@@@@@@@++..@@       @@..@@@@+++++..++@@@@@@@@@@@++..@@       @@",
"@@@@@@@@@@@++..@@@@@@@@@++....@@@@@@@....@@@@+++++....++@@@@@@@++++..@@@@@@@@@@@",
"@@@@@@@@@@@++..@@@@@@@@@++....@@@@@@@....@@@@+++++....++@@@@@@@++++..@@@@@@@@@@@",
"@@@@@@@@@@@++....@@@@@++......+++++++..+++++++++..@@...............++@@@@@@@@@@@",
"+++++++++++....++.......++..@@.......@@...........@@++..@@@@@@@@@....+++++++++++",
"+++++++++++....++.......++..@@.......@@...........@@++..@@@@@@@@@....+++++++++++",
"...............+++++++++++..++@@@@@@@@@++..++@@@@@@@++..++@@@@@++++.............",
"...............+++++++++++..++@@@@@@@@@++..++@@@@@@@++..++@@@@@++++.............",
"+++++++++++......+++++++......+++++++++......+++++++......+++++....+++++++++++++",
"...........    ...........    .........      .......++    .....++...............",
"...........    ...........    .........      .......++    .....++..............."};
