/* XPM */
static char * floor01_xpm[] = {
"80 80 4 1",
" 	c #5B656C",
".	c #221A1F",
"+	c #33413D",
"@	c #32282D",
"  ..         ..             ++..             ...      ++@@...          ...      ",
"  ..         ..             ++..             ...      ++@@...          ...      ",
"++..+++++++@@..@@++       ++@@..+++      ++++...++++++++@@...++      ++...++++@@",
"....@@+++@@@@....@@+++++++@@@@..+++++++++++@@...++++++++@@.....++++++.....++++@@",
"....@@+++@@@@....@@+++++++@@@@..+++++++++++@@...++++++++@@.....++++++.....++++@@",
"..@@@@@@@@@..++....@@@@@@@....@@+++++++++++@@.....++++@@.......@@@@@@..@@@@@@@@@",
"..@@@@@@@@@..++....@@@@@@@....@@+++++++++++@@.....++++@@.......@@@@@@..@@@@@@@@@",
"++...........++@@..+++++++++....@@@@@@@@@@@.....@@......@@...++......++.........",
"++@@..@@@++++++@@..@@@++++@@@@..................@@@@@@@@@@...@@++++++++@@@..@@++",
"++@@..@@@++++++@@..@@@++++@@@@..................@@@@@@@@@@...@@++++++++@@@..@@++",
"@@.......@@@@@@.......@@@@....@@@@@@@@@@@@@.......@@@@@@.......@@@@@@@@.......@@",
"@@.......@@@@@@.......@@@@....@@@@@@@@@@@@@.......@@@@@@.......@@@@@@@@.......@@",
"..       ......@@     ....@@...............     ..........     ........       ..",
"           ..++           @@..         ..           ..@@++       ..             ",
"           ..++           @@..         ..           ..@@++       ..             ",
"++       ++..@@+++++++++++@@..@@@@@++++..++       ++..@@+++++++++..++++       ++",
"++       ++..@@+++++++++++@@..@@@@@++++..++       ++..@@+++++++++..++++       ++",
"+++++++++++..@@@@+++++++@@....@@@@@++++....+++++++....@@+++++++++..@@+++++++++++",
"+++++++++++@@...............++..@@@@@@@@@..@@@@@@@......@@+++++....@@+++++++++++",
"+++++++++++@@...............++..@@@@@@@@@..@@@@@@@......@@+++++....@@+++++++++++",
"@@@@@@@@@@@....+++++++++..@@++...........++.......++..@@.......@@....@@@@@@@@@@@",
"@@@@@@@@@@@....+++++++++..@@++...........++.......++..@@.......@@....@@@@@@@@@@@",
".............@@@@+++++@@..@@+++++++@@..@@+++++++++@@..@@@@@@@@@@@...............",
"@@@@@@@@@@@@@....@@@@@......@@@@@@@......@@@@@@@@@......@@@@@@@......@@@@@@@@@@@",
"@@@@@@@@@@@@@....@@@@@......@@@@@@@......@@@@@@@@@......@@@@@@@......@@@@@@@@@@@",
"...............@@.....    @@.......      .........    ...........    ...........",
"...............@@.....    @@.......      .........    ...........    ...........",
"  ..         ..@@           ++..             ...      ++@@...          ...      ",
"++..+++++++@@..@@++       ++@@..+++      ++++...++++++++@@...++      ++...++++@@",
"++..+++++++@@..@@++       ++@@..+++      ++++...++++++++@@...++      ++...++++@@",
"....@@+++@@@@....@@+++++++@@@@..+++++++++++@@...++++++++@@.....++++++.....++++@@",
"....@@+++@@@@....@@+++++++@@@@..+++++++++++@@...++++++++@@.....++++++.....++++@@",
"..@@@@@@@@@..++...............@@+++++++++++@@.....++++@@.......@@@@@@..@@@@@@@@@",
"++...........++@@..+++++++++....@@@@@@@@@@@.....@@......@@...++......++.........",
"++...........++@@..+++++++++....@@@@@@@@@@@.....@@......@@...++......++.........",
"++@@..@@@++++++@@..@@@++++@@@@..................@@@@@@@@@@...@@++++++++@@@..@@++",
"++@@..@@@++++++@@..@@@++++@@@@..................@@@@@@@@@@...@@++++++++@@@..@@++",
"@@.......@@@@@@.......@@@@....@@@@@@@@@@@@@.......@@@@@@.......@@@@@@@@.......@@",
"..       ......@@     ....@@...............     ..........     ........       ..",
"..       ......@@     ....@@...............     ..........     ........       ..",
"           ..++           @@..         ..           ..@@++       ..             ",
"           ..++           @@..         ..           ..@@++       ..             ",
"++       ++..@@+++++++++++@@..@@@@@++++..++       ++..@@+++++++++..++++       ++",
"+++++++++++..@@@@+++++++@@....@@@@@++++....+++++++....@@+++++++++..@@+++++++++++",
"+++++++++++..@@@@+++++++@@....@@@@@++++....+++++++....@@+++++++++..@@+++++++++++",
"+++++++++++@@....@@@@@@@....++..@@@@@@@@@..@@@@@@@......@@+++++....@@+++++++++++",
"+++++++++++@@....@@@@@@@....++..@@@@@@@@@..@@@@@@@......@@+++++....@@+++++++++++",
"@@@@@@@@@@@....+++++++++..@@++...........++.......++..@@.......@@....@@@@@@@@@@@",
".............@@@@+++++@@..@@+++++++@@..@@+++++++++@@..@@@@@@@@@@@...............",
".............@@@@+++++@@..@@+++++++@@..@@+++++++++@@..@@@@@@@@@@@...............",
"@@@@@@@@@@@@@....@@@@@......@@@@@@@......@@@@@@@@@......@@@@@@@......@@@@@@@@@@@",
"@@@@@@@@@@@@@....@@@@@......@@@@@@@......@@@@@@@@@......@@@@@@@......@@@@@@@@@@@",
"...............@@.....    ++.......      .........    ...........    ...........",
"  ..         ..@@           ++..             ...      ++@@...          ...      ",
"  ..         ..@@           ++..             ...      ++@@...          ...      ",
"++..+++++++@@..@@++       ++@@..+++      ++++...++++++++@@...++      ++...++++@@",
"++..+++++++@@..@@++       ++@@..+++      ++++...++++++++@@...++      ++...++++@@",
"....@@+++@@@@....@@+++++++@@@@..+++++++++++@@...++++++++@@.....++++++.....++++@@",
"..@@@@@@@@@..++....@@@@@@@....@@+++++++++++@@.....++++@@.......@@@@@@..@@@@@@@@@",
"..@@@@@@@@@..++....@@@@@@@....@@+++++++++++@@.....++++@@.......@@@@@@..@@@@@@@@@",
"++...........++@@..+++++++++....@@@@@@@@@@@.....@@......@@...++......++.........",
"++...........++@@..+++++++++....@@@@@@@@@@@.....@@......@@...++......++.........",
"++@@..@@@++++++@@..@@@++++@@@@..................@@@@@@@@@@...@@++++++++@@@..@@++",
"@@.......@@@@@@.......@@@@....@@@@@@@@@@@@@.......@@@@@@.......@@@@@@@@.......@@",
"@@.......@@@@@@.......@@@@....@@@@@@@@@@@@@.......@@@@@@.......@@@@@@@@.......@@",
"..       ......@@     ....@@...............     ..........     ........       ..",
"..       ......@@     ....@@...............     ..........     ........       ..",
"           ..++           @@..         ..           ..@@++       ..             ",
"++       ++..@@+++++++++++@@..@@@@@++++..++       ++..@@+++++++++..++++       ++",
"++       ++..@@+++++++++++@@..@@@@@++++..++       ++..@@+++++++++..++++       ++",
"+++++++++++..@@@@+++++++@@....@@@@@++++....+++++++....@@+++++++++..@@+++++++++++",
"+++++++++++..@@@@+++++++@@....@@@@@++++....+++++++....@@+++++++++..@@+++++++++++",
"+++++++++++@@...............++..@@@@@@@@@..@@@@@@@......@@+++++....@@+++++++++++",
"@@@@@@@@@@@....+++++++++..@@++...........++.......++..@@.......@@....@@@@@@@@@@@",
"@@@@@@@@@@@....+++++++++..@@++...........++.......++..@@.......@@....@@@@@@@@@@@",
".............@@@@+++++@@..@@+++++++@@..@@+++++++++@@..@@@@@@@@@@@...............",
".............@@@@+++++@@..@@+++++++@@..@@+++++++++@@..@@@@@@@@@@@...............",
"@@@@@@@@@@@@@....@@@@@......@@@@@@@......@@@@@@@@@......@@@@@@@......@@@@@@@@@@@",
"...............@@.....    @@.......      .........    ...........    ...........",
"...............@@.....    @@.......      .........    ...........    ..........."};
