/* XPM */
static char * lava00_xpm[] = {
"80 80 5 1",
" 	c #DF3E2B",
".	c #FFD541",
"+	c #FFFC40",
"@	c #F9A31B",
"#	c #FFFFFF",
"                               ..+++    @@@@     @@@@.....++                    ",
"                               ..+++    @@@@     @@@@.....++                    ",
"                             ..                         @@@@++..                ",
"                             ..                         @@@@++..                ",
"                             ..                         @@@@++..                ",
"                           ..                                   ...++           ",
"                           ..                                   ...++           ",
"++.....++....+++++...........                                        ##++.....++",
"++.....++....+++++...........                                        ##++.....++",
"++.....++....+++++...........                                        ##++.....++",
"..@@       @@@@@@@@@@@@@...                                          ....@@@    ",
"..@@       @@@@@@@@@@@@@...                                          ....@@@    ",
"@@                      @@@..                                      ..@@@@       ",
"@@                      @@@..                                      ..@@@@       ",
"@@                      @@@..                                      ..@@@@       ",
"                           ..                                   ...             ",
"                           ..                                   ...             ",
"                           ++##.......++..                  ....                ",
"                           ++##.......++..                  ....                ",
"                           ++##.......++..                  ....                ",
"                        +++....     @@@@@@..+++++.......++++++                  ",
"                        +++....     @@@@@@..+++++.......++++++                  ",
"                    .......                        @@@@@@@@@..++                ",
"                    .......                        @@@@@@@@@..++                ",
"                    .......                        @@@@@@@@@..++                ",
"                  ..                                          ..+++             ",
"                  ..                                          ..+++             ",
"..++.......+++++..++                                            .........+++....",
"..++.......+++++..++                                            .........+++....",
"..++.......+++++..++                                            .........+++....",
"  @@@@@@@@@@@...++                                          ++.....      @@@@@@@",
"  @@@@@@@@@@@...++                                          ++.....      @@@@@@@",
"             @@@@@++                               +++++....                    ",
"             @@@@@++                               +++++....                    ",
"             @@@@@++                               +++++....                    ",
"                  ..                           ....@@@@@@@                      ",
"                  ..                           ....@@@@@@@                      ",
"                    ..                      ...                                 ",
"                    ..                      ...                                 ",
"                    ..                      ...                                 ",
"                    ..++...             ....                                    ",
"                    ..++...             ....                                    ",
"                .............++++...++..                                        ",
"                .............++++...++..                                        ",
"                .............++++...++..                                        ",
"       ..++++...    @@@@@@@@@@@..+++@@@@                                      ..",
"       ..++++...    @@@@@@@@@@@..+++@@@@                                      ..",
"++.....                        @@.....                               ..++.....  ",
"++.....                        @@.....                               ..++.....  ",
"++.....                        @@.....                               ..++.....  ",
"@@@@                                  ....                      .....@@@@@@@    ",
"@@@@                                  ....                      .....@@@@@@@    ",
"                                        ++..                ..++                ",
"                                        ++..                ..++                ",
"                                        ++..                ..++                ",
"                                      ++++++.....++.......++++                  ",
"                                      ++++++.....++.......++++                  ",
"                                    ....  @@@@@@@  @@@@@@@@@..++                ",
"                                    ....  @@@@@@@  @@@@@@@@@..++                ",
"                                    ....  @@@@@@@  @@@@@@@@@..++                ",
"                               .....                        @@@@.....           ",
"                               .....                        @@@@.....           ",
"++                         ..++                                 @@@@@..++       ",
"++                         ..++                                 @@@@@..++       ",
"++                         ..++                                 @@@@@..++       ",
"..+++++.........++++++..+++++                                          ..+++++..",
"..+++++.........++++++..+++++                                          ..+++++..",
"++++@@@      @@@@@@@@@@@.....++                                        +++++@@  ",
"++++@@@      @@@@@@@@@@@.....++                                        +++++@@  ",
"++++@@@      @@@@@@@@@@@.....++                                        +++++@@  ",
"..@@                    @@@@@....                                    ....@@@    ",
"..@@                    @@@@@....                                    ....@@@    ",
"                               .....                               ....         ",
"                               .....                               ....         ",
"                               .....                               ....         ",
"                                 ...++                        .....             ",
"                                 ...++                        .....             ",
"                                 ...++++.........++.........++                  ",
"                                 ...++++.........++.........++                  ",
"                                 ...++++.........++.........++                  "};
