/* XPM */
static char * lava01_xpm[] = {
"80 80 5 1",
" 	c #DF3E2B",
".	c #FFFC40",
"+	c #FFD541",
"@	c #F9A31B",
"#	c #FFFFFF",
"                    ..+++++@@@@     @@@@    ...++                               ",
"                    ..+++++@@@@     @@@@    ...++                               ",
"                ++..@@@@                         ++                             ",
"                ++..@@@@                         ++                             ",
"                ++..@@@@                         ++                             ",
"           ..+++                                   ++                           ",
"           ..+++                                   ++                           ",
"..+++++..##                                        +++++++++++.....++++..+++++..",
"..+++++..##                                        +++++++++++.....++++..+++++..",
"..+++++..##                                        +++++++++++.....++++..+++++..",
"    @@@++++                                          +++@@@@@@@@@@@@@       @@++",
"    @@@++++                                          +++@@@@@@@@@@@@@       @@++",
"       @@@@++                                      ++@@@                      @@",
"       @@@@++                                      ++@@@                      @@",
"       @@@@++                                      ++@@@                      @@",
"             +++                                   ++                           ",
"             +++                                   ++                           ",
"                ++++                  ++..+++++++##..                           ",
"                ++++                  ++..+++++++##..                           ",
"                ++++                  ++..+++++++##..                           ",
"                  ......+++++++.....++@@@@@@     ++++...                        ",
"                  ......+++++++.....++@@@@@@     ++++...                        ",
"                ..++@@@@@@@@@                        +++++++                    ",
"                ..++@@@@@@@@@                        +++++++                    ",
"                ..++@@@@@@@@@                        +++++++                    ",
"             ...++                                          ++                  ",
"             ...++                                          ++                  ",
"++++...+++++++++                                            ..++.....+++++++..++",
"++++...+++++++++                                            ..++.....+++++++..++",
"++++...+++++++++                                            ..++.....+++++++..++",
"@@@@@@@      +++++..                                          ..+++@@@@@@@@@@@  ",
"@@@@@@@      +++++..                                          ..+++@@@@@@@@@@@  ",
"                    ++++.....                               ..@@@@@             ",
"                    ++++.....                               ..@@@@@             ",
"                    ++++.....                               ..@@@@@             ",
"                      @@@@@@@++++                           ++                  ",
"                      @@@@@@@++++                           ++                  ",
"                                 +++                      ++                    ",
"                                 +++                      ++                    ",
"                                 +++                      ++                    ",
"                                    ++++             +++..++                    ",
"                                    ++++             +++..++                    ",
"                                        ++..+++....+++++++++++++                ",
"                                        ++..+++....+++++++++++++                ",
"                                        ++..+++....+++++++++++++                ",
"++                                      @@@@...++@@@@@@@@@@@    +++....++       ",
"++                                      @@@@...++@@@@@@@@@@@    +++....++       ",
"  +++++..++                               +++++@@                        +++++..",
"  +++++..++                               +++++@@                        +++++..",
"  +++++..++                               +++++@@                        +++++..",
"    @@@@@@@+++++                      ++++                                  @@@@",
"    @@@@@@@+++++                      ++++                                  @@@@",
"                ..++                ++..                                        ",
"                ..++                ++..                                        ",
"                ..++                ++..                                        ",
"                  ....+++++++..+++++......                                      ",
"                  ....+++++++..+++++......                                      ",
"                ..++@@@@@@@@@  @@@@@@@  ++++                                    ",
"                ..++@@@@@@@@@  @@@@@@@  ++++                                    ",
"                ..++@@@@@@@@@  @@@@@@@  ++++                                    ",
"           +++++@@@@                        +++++                               ",
"           +++++@@@@                        +++++                               ",
"       ..++@@@@@                                 ..++                         ..",
"       ..++@@@@@                                 ..++                         ..",
"       ..++@@@@@                                 ..++                         ..",
"++.....++                                          .....++......+++++++++.....++",
"++.....++                                          .....++......+++++++++.....++",
"  @@.....                                        ..+++++@@@@@@@@@@@      @@@....",
"  @@.....                                        ..+++++@@@@@@@@@@@      @@@....",
"  @@.....                                        ..+++++@@@@@@@@@@@      @@@....",
"    @@@++++                                    ++++@@@@@                    @@++",
"    @@@++++                                    ++++@@@@@                    @@++",
"         ++++                               +++++                               ",
"         ++++                               +++++                               ",
"         ++++                               +++++                               ",
"             +++++                        ..+++                                 ",
"             +++++                        ..+++                                 ",
"                  ..+++++++++..+++++++++....+++                                 ",
"                  ..+++++++++..+++++++++....+++                                 ",
"                  ..+++++++++..+++++++++....+++                                 "};
